<svg width="64" height="30" viewBox="0 0 64 30" fill="none" xmlns="http://www.w3.org/2000/svg">
<g clip-path="url(#clip0_23225_4303)">
<rect width="62.9847" height="18.0398" transform="translate(0.507812)" fill="white"/>
<path d="M16.3208 10.8566H16.3252M16.3208 10.8566C16.0328 11.1422 15.5107 11.0711 15.1446 11.0711C14.6952 11.0711 14.4788 11.159 14.1581 11.4797C13.885 11.7528 13.5189 12.2444 13.087 12.2444C12.655 12.2444 12.2889 11.7528 12.0159 11.4797C11.6951 11.159 11.4787 11.0711 11.0293 11.0711C10.6632 11.0711 10.1412 11.1422 9.85314 10.8566C9.56277 10.5687 9.63423 10.0444 9.63423 9.67595C9.63423 9.21033 9.5324 8.99624 9.20082 8.66464C8.70757 8.1714 8.46095 7.92474 8.46094 7.6183C8.46094 7.31182 8.70756 7.0652 9.2008 6.57195C9.4968 6.27595 9.63423 5.98264 9.63423 5.56063C9.63423 5.19452 9.56309 4.67246 9.84875 4.38439C10.1367 4.09403 10.6609 4.16549 11.0294 4.16549C11.4513 4.16549 11.7446 4.02807 12.0406 3.73207C12.5339 3.23881 12.7805 2.99219 13.087 2.99219C13.3935 2.99219 13.6401 3.23881 14.1333 3.73207C14.4292 4.02801 14.7225 4.16549 15.1446 4.16549C15.5107 4.16549 16.0328 4.09435 16.3209 4.38002C16.6112 4.66796 16.5397 5.19218 16.5397 5.56063C16.5397 6.02626 16.6416 6.24035 16.9731 6.57195C17.4664 7.0652 17.713 7.31182 17.713 7.6183C17.713 7.92474 17.4664 8.1714 16.9731 8.66464C16.6415 8.99624 16.5397 9.21033 16.5397 9.67595C16.5397 10.0444 16.6112 10.5687 16.3208 10.8566Z" stroke="#045D5E" stroke-width="0.561065"/>
<path d="M14.7094 9.24001H14.7116M14.7094 9.24001C14.5652 9.38306 14.3037 9.34743 14.1204 9.34743C13.8954 9.34743 13.787 9.39145 13.6264 9.55206C13.4897 9.68883 13.3063 9.935 13.09 9.935C12.8737 9.935 12.6904 9.68883 12.5536 9.55206C12.393 9.39145 12.2847 9.34743 12.0596 9.34743C11.8763 9.34743 11.6149 9.38306 11.4706 9.24001C11.3252 9.09583 11.361 8.83331 11.361 8.64879C11.361 8.41562 11.31 8.30841 11.1439 8.14235C10.8969 7.89535 10.7734 7.77183 10.7734 7.61838C10.7734 7.4649 10.8969 7.3414 11.1439 7.0944C11.2922 6.94617 11.361 6.79929 11.361 6.58796C11.361 6.40462 11.3254 6.14319 11.4684 5.99893C11.6126 5.85353 11.8751 5.88931 12.0596 5.88931C12.2709 5.88931 12.4178 5.8205 12.566 5.67227C12.8131 5.42526 12.9365 5.30176 13.09 5.30176C13.2435 5.30176 13.367 5.42526 13.614 5.67227C13.7622 5.82047 13.9091 5.88931 14.1204 5.88931C14.3037 5.88931 14.5652 5.85369 14.7095 5.99674C14.8548 6.14094 14.8191 6.40345 14.8191 6.58796C14.8191 6.82113 14.8701 6.92834 15.0361 7.0944C15.2831 7.3414 15.4066 7.4649 15.4066 7.61838C15.4066 7.77183 15.2831 7.89535 15.0361 8.14235C14.87 8.30841 14.8191 8.41562 14.8191 8.64879C14.8191 8.83331 14.8548 9.09583 14.7094 9.24001Z" stroke="#045D5E" stroke-width="0.561065"/>
<path d="M12.3945 7.82458C12.3945 7.82458 12.6725 7.97558 12.8115 8.19688C12.8115 8.19688 13.2285 7.32815 13.7845 7.03857" stroke="#045D5E" stroke-width="0.561065" stroke-linecap="round" stroke-linejoin="round"/>
<path d="M11.1367 10.9102V13.9166C11.1367 14.3805 11.6677 14.644 12.0371 14.3634L12.7487 13.823C12.9492 13.6707 13.2268 13.6707 13.4273 13.823L14.1389 14.3634C14.5083 14.644 15.0393 14.3805 15.0393 13.9166V10.9102" stroke="#045D5E" stroke-width="0.561065"/>
<path d="M32.1445 8.62628V4.2998H33.7219C34.0563 4.2998 34.2716 4.3716 34.4625 4.44339C34.8925 4.65815 35.0833 5.06496 35.0833 5.4233C35.0833 5.8295 34.9158 6.11667 34.5815 6.33143C35.0833 6.45108 35.3705 6.78549 35.3705 7.31134C35.3705 7.90899 35.0122 8.33912 34.4146 8.53056C34.1999 8.60235 33.9606 8.62628 33.6023 8.62628H32.1445ZM34.0802 5.04103C33.9606 4.99317 33.8416 4.96924 33.6741 4.96924H32.8617V6.09274H33.6262C33.8409 6.09274 33.9845 6.06881 34.1041 5.99702C34.2716 5.9013 34.3667 5.73378 34.3667 5.54295C34.3667 5.3282 34.2471 5.13675 34.0802 5.04103ZM34.2956 6.83335C34.1999 6.78549 34.0563 6.76156 33.8176 6.76156H32.8617V7.95624H33.7458C34.0324 7.95624 34.1759 7.90838 34.2956 7.86051C34.5103 7.76479 34.606 7.57335 34.606 7.33466C34.606 7.09597 34.5103 6.92846 34.2956 6.83274V6.83335Z" fill="#164C82"/>
<path d="M39.6719 8.62628V4.2998H40.413V8.62628H39.6719Z" fill="#164C82"/>
<path d="M45.0469 8.62628V4.2998H45.788V8.62628H45.0469Z" fill="#164C82"/>
<path d="M48.1536 4.2749C48.6309 4.2749 49.1094 4.39455 49.3727 4.51421L49.3487 5.2315C48.9659 5.04067 48.6082 4.92041 48.1542 4.92041C47.7474 4.92041 47.3891 5.04006 47.3891 5.37447C47.3891 6.25867 49.6113 5.90032 49.6113 7.35823C49.6113 8.17064 48.942 8.67317 47.9382 8.67317C47.2689 8.67317 46.8148 8.48235 46.4805 8.2909L46.7915 7.69326C47.0547 7.86077 47.4848 8.02767 47.9621 8.02767C48.4395 8.02767 48.8229 7.86016 48.8229 7.47789C48.8229 6.54583 46.624 6.95203 46.624 5.49412C46.624 4.70565 47.2449 4.27552 48.1536 4.27552V4.2749Z" fill="#164C82"/>
<path d="M53.1017 8.62628V6.76156H51.0218V8.62628H50.2812V4.2998H51.0218V6.06881H53.1017V4.2998H53.8422V8.62628H53.1017Z" fill="#164C82"/>
<path d="M33.7697 9.36621C34.2237 9.36621 34.582 9.46193 34.9642 9.62883L34.7495 10.2504C34.5348 10.1547 34.2476 10.0356 33.8415 10.0356C33.0292 10.0356 32.5267 10.7284 32.5267 11.5653C32.5267 12.4023 33.0046 13.119 33.8415 13.119C34.2476 13.119 34.5348 12.9993 34.7495 12.9042L34.9642 13.5252C34.582 13.6927 34.2231 13.7884 33.7697 13.7884C32.4788 13.7884 31.7383 12.8803 31.7383 11.5899C31.7383 10.3707 32.4794 9.36682 33.7697 9.36682V9.36621Z" fill="#164C82"/>
<path d="M49.9259 9.36621C50.4033 9.36621 50.7622 9.46193 51.1205 9.62883L50.9057 10.2504C50.6904 10.1547 50.4039 10.0356 49.9977 10.0356C49.1848 10.0356 48.6835 10.7284 48.6835 11.5653C48.6835 12.4023 49.1615 13.119 49.9977 13.119C50.4039 13.119 50.6904 12.9993 50.9057 12.9042L51.1205 13.5252C50.7622 13.6927 50.4033 13.7884 49.9259 13.7884C48.6351 13.7884 47.8945 12.8803 47.8945 11.5899C47.8945 10.3707 48.6351 9.36682 49.9259 9.36682V9.36621Z" fill="#164C82"/>
<path d="M39.1677 11.5647C39.1677 12.8557 38.3553 13.7878 37.1369 13.7878C35.9184 13.7878 35.1055 12.8797 35.1055 11.5893C35.1055 10.2989 35.9184 9.36621 37.1369 9.36621C38.3553 9.36621 39.1677 10.2743 39.1677 11.5647ZM38.4032 11.5647C38.4032 10.6327 37.8541 10.035 37.1369 10.035C36.4197 10.035 35.8705 10.6327 35.8705 11.5887C35.8705 12.5447 36.4203 13.1184 37.1369 13.1184C37.8535 13.1184 38.4032 12.5207 38.4032 11.5647Z" fill="#164C82"/>
<path d="M39.6719 12.0916V9.41504H40.413V12.1155C40.413 12.8567 40.7959 13.1193 41.4168 13.1193C42.0376 13.1193 42.4205 12.8567 42.4205 12.1155V9.41504H43.161V12.0916C43.161 13.2629 42.4917 13.7888 41.4168 13.7888C40.3419 13.7888 39.6719 13.2629 39.6719 12.0916Z" fill="#164C82"/>
<path d="M44.5491 10.5858H44.5252C44.5491 10.7294 44.5491 10.9687 44.5491 11.1595V13.717H43.8086V9.41504H44.6215L46.6051 12.3548H46.629C46.6051 12.2112 46.6051 11.9725 46.6051 11.7811V9.41504H47.3462V13.717H46.7008L44.5497 10.5858H44.5491Z" fill="#164C82"/>
<path d="M51.6914 13.717V9.41504H52.4319V13.717H51.6914Z" fill="#164C82"/>
<path d="M53.1016 13.717V9.41504H53.8421V13.0482H55.5391V13.717H53.1016Z" fill="#164C82"/>
<path d="M44.4735 4.32422H40.9844V4.99365H42.3703V8.62677H43.1115V4.99365H44.4735V4.32422Z" fill="#164C82"/>
<path d="M38.3571 8.62677C37.7356 7.31183 37.5681 6.95349 37.3055 6.95349H36.6122V8.62677H35.8711V4.32422H37.3288C38.4522 4.32422 38.8584 4.89793 38.8584 5.54282C38.8584 6.14047 38.5473 6.52274 38.0694 6.66632C38.2608 6.78597 38.4761 7.19218 39.1927 8.62616H38.3565L38.3571 8.62677ZM37.3767 4.96972H36.6122V6.28466H37.3534C37.8792 6.28466 38.1178 6.02205 38.1178 5.61523C38.1178 5.25689 37.9031 4.96972 37.3773 4.96972H37.3767Z" fill="#164C82"/>
<path d="M24.9039 6.37924C24.9039 7.74143 23.7806 8.84099 22.4185 8.84099C21.0565 8.84099 19.957 7.74143 19.957 6.37924C19.957 5.01705 21.0804 3.91748 22.4185 3.91748C23.7566 3.91748 24.9039 5.01705 24.9039 6.37924Z" fill="#00A0E2"/>
<path d="M30.1573 6.37924C30.1573 7.74143 29.0579 8.84099 27.6959 8.84099C26.3338 8.84099 25.2344 7.74143 25.2344 6.37924C25.2344 5.01705 26.3338 3.91748 27.6959 3.91748C29.0579 3.91748 30.1573 5.01705 30.1573 6.37924Z" fill="#00A0E2"/>
<path d="M24.9039 11.661C24.9039 13.0232 23.7806 14.1227 22.4185 14.1227C21.0565 14.1227 19.957 13.0226 19.957 11.661C19.957 10.2994 21.0804 9.19922 22.4185 9.19922C23.7566 9.19922 24.9039 10.2982 24.9039 11.661Z" fill="#00A0E2"/>
<path d="M30.1573 11.661C30.1573 13.0232 29.0579 14.1227 27.6959 14.1227C26.3338 14.1227 25.2344 13.0232 25.2344 11.661C25.2344 10.2988 26.3338 9.19922 27.6959 9.19922C29.0579 9.19922 30.1573 10.2982 30.1573 11.661Z" fill="#00A0E2"/>
<rect width="62.9847" height="11.4809" transform="translate(0.507812 18.0396)" fill="#076461"/>
<path d="M7.59323 22.8427H6.93015C6.90465 22.701 6.85718 22.5763 6.78776 22.4686C6.71833 22.361 6.63332 22.2696 6.53273 22.1945C6.43213 22.1194 6.31949 22.0627 6.19481 22.0245C6.07155 21.9862 5.94049 21.9671 5.80164 21.9671C5.55086 21.9671 5.3263 22.0301 5.12794 22.1562C4.931 22.2823 4.77515 22.4672 4.66039 22.7109C4.54704 22.9546 4.49037 23.2522 4.49037 23.6035C4.49037 23.9577 4.54704 24.2567 4.66039 24.5004C4.77515 24.7441 4.93171 24.9283 5.13006 25.053C5.32842 25.1776 5.55157 25.24 5.79952 25.24C5.93695 25.24 6.0673 25.2216 6.19056 25.1847C6.31524 25.1465 6.42788 25.0905 6.52848 25.0168C6.62907 24.9431 6.71408 24.8532 6.78351 24.7469C6.85435 24.6392 6.90323 24.516 6.93015 24.3771L7.59323 24.3792C7.55781 24.5932 7.48909 24.7901 7.38708 24.9701C7.28648 25.1486 7.15684 25.303 6.99816 25.4334C6.84089 25.5623 6.66095 25.6622 6.45834 25.733C6.25574 25.8039 6.03471 25.8393 5.79527 25.8393C5.41839 25.8393 5.0826 25.75 4.7879 25.5715C4.4932 25.3916 4.26084 25.1344 4.09082 24.8C3.92222 24.4657 3.83791 24.0668 3.83791 23.6035C3.83791 23.1388 3.92292 22.74 4.09294 22.407C4.26296 22.0726 4.49532 21.8162 4.79003 21.6377C5.08473 21.4577 5.41981 21.3678 5.79527 21.3678C6.02621 21.3678 6.24157 21.4011 6.44134 21.4677C6.64253 21.5328 6.82318 21.6292 6.98328 21.7567C7.14338 21.8828 7.27586 22.0372 7.3807 22.22C7.48555 22.4014 7.55639 22.6089 7.59323 22.8427ZM9.6751 25.8457C9.35348 25.8457 9.07649 25.777 8.84413 25.6395C8.61318 25.5007 8.43466 25.3059 8.30856 25.0551C8.18388 24.8029 8.12154 24.5075 8.12154 24.1688C8.12154 23.8345 8.18388 23.5398 8.30856 23.2847C8.43466 23.0297 8.61035 22.8307 8.83562 22.6876C9.06232 22.5445 9.32727 22.4729 9.63047 22.4729C9.81466 22.4729 9.99318 22.5034 10.166 22.5643C10.3389 22.6252 10.494 22.7208 10.6315 22.8512C10.7689 22.9815 10.8773 23.1509 10.9566 23.3591C11.036 23.566 11.0756 23.8175 11.0756 24.1136V24.3389H8.48071V23.8628H10.4529C10.4529 23.6956 10.4189 23.5476 10.3509 23.4186C10.2829 23.2883 10.1873 23.1856 10.064 23.1105C9.94217 23.0354 9.79907 22.9978 9.63472 22.9978C9.4562 22.9978 9.30035 23.0418 9.16716 23.1296C9.0354 23.216 8.93339 23.3294 8.86113 23.4696C8.79029 23.6085 8.75487 23.7594 8.75487 23.9223V24.2942C8.75487 24.5124 8.79312 24.698 8.86963 24.8511C8.94755 25.0041 9.05594 25.121 9.19479 25.2017C9.33364 25.2811 9.49587 25.3207 9.68147 25.3207C9.8019 25.3207 9.91171 25.3037 10.0109 25.2697C10.1101 25.2343 10.1958 25.1819 10.268 25.1125C10.3403 25.043 10.3956 24.9573 10.4338 24.8553L11.0353 24.9637C10.9871 25.1408 10.9007 25.2959 10.776 25.4291C10.6527 25.5609 10.4976 25.6636 10.3105 25.7373C10.1249 25.8095 9.91313 25.8457 9.6751 25.8457ZM11.7208 25.7798V22.5154H12.335V23.034H12.369C12.4285 22.8583 12.5334 22.7201 12.6836 22.6195C12.8352 22.5175 13.0066 22.4665 13.1979 22.4665C13.2376 22.4665 13.2843 22.4679 13.3382 22.4708C13.3934 22.4736 13.4366 22.4772 13.4678 22.4814V23.0892C13.4423 23.0821 13.397 23.0743 13.3318 23.0658C13.2666 23.0559 13.2014 23.051 13.1363 23.051C12.9861 23.051 12.8522 23.0828 12.7346 23.1466C12.6184 23.2089 12.5263 23.2961 12.4583 23.408C12.3903 23.5185 12.3563 23.6446 12.3563 23.7863V25.7798H11.7208ZM15.6745 22.5154V23.0255H13.8914V22.5154H15.6745ZM14.3696 21.7333H15.0051V24.8213C15.0051 24.9446 15.0235 25.0374 15.0603 25.0997C15.0972 25.1606 15.1446 25.2024 15.2027 25.2251C15.2622 25.2463 15.3267 25.257 15.3961 25.257C15.4471 25.257 15.4918 25.2534 15.53 25.2463C15.5683 25.2393 15.598 25.2336 15.6193 25.2293L15.734 25.7543C15.6972 25.7685 15.6448 25.7826 15.5768 25.7968C15.5088 25.8124 15.4237 25.8209 15.3217 25.8223C15.1545 25.8251 14.9987 25.7954 14.8542 25.733C14.7097 25.6707 14.5928 25.5743 14.5035 25.444C14.4143 25.3136 14.3696 25.15 14.3696 24.9531V21.7333ZM16.3176 25.7798V22.5154H16.953V25.7798H16.3176ZM16.6385 22.0117C16.528 22.0117 16.4331 21.9749 16.3537 21.9012C16.2758 21.8261 16.2368 21.7369 16.2368 21.6334C16.2368 21.5286 16.2758 21.4393 16.3537 21.3656C16.4331 21.2906 16.528 21.253 16.6385 21.253C16.749 21.253 16.8432 21.2906 16.9212 21.3656C17.0005 21.4393 17.0402 21.5286 17.0402 21.6334C17.0402 21.7369 17.0005 21.8261 16.9212 21.9012C16.8432 21.9749 16.749 22.0117 16.6385 22.0117ZM19.3016 22.5154V23.0255H17.4569V22.5154H19.3016ZM17.9627 25.7798V22.1371C17.9627 21.9331 18.0074 21.7638 18.0966 21.6292C18.1859 21.4932 18.3042 21.3919 18.4515 21.3253C18.5989 21.2573 18.759 21.2233 18.9318 21.2233C19.0594 21.2233 19.1685 21.2339 19.2591 21.2551C19.3498 21.275 19.4171 21.2934 19.461 21.3104L19.3123 21.8247C19.2825 21.8162 19.2443 21.8063 19.1975 21.7949C19.1507 21.7822 19.0941 21.7758 19.0275 21.7758C18.873 21.7758 18.7625 21.8141 18.6959 21.8906C18.6308 21.9671 18.5982 22.0776 18.5982 22.2221V25.7798H17.9627ZM19.8974 25.7798V22.5154H20.5329V25.7798H19.8974ZM20.2183 22.0117C20.1078 22.0117 20.0129 21.9749 19.9336 21.9012C19.8556 21.8261 19.8167 21.7369 19.8167 21.6334C19.8167 21.5286 19.8556 21.4393 19.9336 21.3656C20.0129 21.2906 20.1078 21.253 20.2183 21.253C20.3289 21.253 20.4231 21.2906 20.501 21.3656C20.5803 21.4393 20.62 21.5286 20.62 21.6334C20.62 21.7369 20.5803 21.8261 20.501 21.9012C20.4231 21.9749 20.3289 22.0117 20.2183 22.0117ZM22.7348 25.8457C22.4132 25.8457 22.1362 25.777 21.9039 25.6395C21.6729 25.5007 21.4944 25.3059 21.3683 25.0551C21.2436 24.8029 21.1813 24.5075 21.1813 24.1688C21.1813 23.8345 21.2436 23.5398 21.3683 23.2847C21.4944 23.0297 21.6701 22.8307 21.8954 22.6876C22.122 22.5445 22.387 22.4729 22.6902 22.4729C22.8744 22.4729 23.0529 22.5034 23.2258 22.5643C23.3986 22.6252 23.5538 22.7208 23.6912 22.8512C23.8286 22.9815 23.937 23.1509 24.0164 23.3591C24.0957 23.566 24.1354 23.8175 24.1354 24.1136V24.3389H21.5404V23.8628H23.5127C23.5127 23.6956 23.4787 23.5476 23.4107 23.4186C23.3426 23.2883 23.247 23.1856 23.1237 23.1105C23.0019 23.0354 22.8588 22.9978 22.6944 22.9978C22.5159 22.9978 22.3601 23.0418 22.2269 23.1296C22.0951 23.216 21.9931 23.3294 21.9209 23.4696C21.85 23.6085 21.8146 23.7594 21.8146 23.9223V24.2942C21.8146 24.5124 21.8529 24.698 21.9294 24.8511C22.0073 25.0041 22.1157 25.121 22.2545 25.2017C22.3934 25.2811 22.5556 25.3207 22.7412 25.3207C22.8616 25.3207 22.9714 25.3037 23.0706 25.2697C23.1698 25.2343 23.2555 25.1819 23.3278 25.1125C23.4 25.043 23.4553 24.9573 23.4935 24.8553L24.095 24.9637C24.0468 25.1408 23.9604 25.2959 23.8357 25.4291C23.7124 25.5609 23.5573 25.6636 23.3703 25.7373C23.1847 25.8095 22.9729 25.8457 22.7348 25.8457ZM26.0026 25.8435C25.7391 25.8435 25.5039 25.7762 25.297 25.6416C25.0916 25.5056 24.93 25.3122 24.8124 25.0615C24.6963 24.8093 24.6382 24.5068 24.6382 24.154C24.6382 23.8012 24.697 23.4994 24.8146 23.2486C24.9336 22.9978 25.0965 22.8059 25.3034 22.6727C25.5102 22.5395 25.7447 22.4729 26.0068 22.4729C26.2094 22.4729 26.3724 22.5069 26.4956 22.5749C26.6203 22.6415 26.7167 22.7194 26.7847 22.8087C26.8541 22.8979 26.9079 22.9766 26.9462 23.0446H26.9844V21.4273H27.6199V25.7798H26.9993V25.2719H26.9462C26.9079 25.3413 26.8527 25.4206 26.7804 25.5099C26.7096 25.5991 26.6118 25.6771 26.4871 25.7437C26.3625 25.8102 26.2009 25.8435 26.0026 25.8435ZM26.1429 25.3016C26.3256 25.3016 26.4801 25.2534 26.6062 25.1571C26.7337 25.0593 26.83 24.924 26.8952 24.7512C26.9618 24.5783 26.9951 24.3771 26.9951 24.1476C26.9951 23.9209 26.9625 23.7225 26.8973 23.5525C26.8321 23.3825 26.7365 23.25 26.6104 23.1551C26.4843 23.0602 26.3285 23.0127 26.1429 23.0127C25.9516 23.0127 25.7922 23.0623 25.6647 23.1615C25.5372 23.2607 25.4408 23.396 25.3756 23.5674C25.3119 23.7388 25.28 23.9322 25.28 24.1476C25.28 24.3658 25.3126 24.562 25.3778 24.7363C25.4429 24.9106 25.5393 25.0487 25.6668 25.1507C25.7957 25.2513 25.9544 25.3016 26.1429 25.3016ZM33.657 22.8427H32.994C32.9685 22.701 32.921 22.5763 32.8516 22.4686C32.7822 22.361 32.6971 22.2696 32.5965 22.1945C32.496 22.1194 32.3833 22.0627 32.2586 22.0245C32.1354 21.9862 32.0043 21.9671 31.8655 21.9671C31.6147 21.9671 31.3901 22.0301 31.1918 22.1562C30.9948 22.2823 30.839 22.4672 30.7242 22.7109C30.6109 22.9546 30.5542 23.2522 30.5542 23.6035C30.5542 23.9577 30.6109 24.2567 30.7242 24.5004C30.839 24.7441 30.9955 24.9283 31.1939 25.053C31.3922 25.1776 31.6154 25.24 31.8633 25.24C32.0008 25.24 32.1311 25.2216 32.2544 25.1847C32.3791 25.1465 32.4917 25.0905 32.5923 25.0168C32.6929 24.9431 32.7779 24.8532 32.8473 24.7469C32.9182 24.6392 32.967 24.516 32.994 24.3771L33.657 24.3792C33.6216 24.5932 33.5529 24.7901 33.4509 24.9701C33.3503 25.1486 33.2207 25.303 33.062 25.4334C32.9047 25.5623 32.7248 25.6622 32.5222 25.733C32.3196 25.8039 32.0985 25.8393 31.8591 25.8393C31.4822 25.8393 31.1464 25.75 30.8517 25.5715C30.557 25.3916 30.3247 25.1344 30.1546 24.8C29.986 24.4657 29.9017 24.0668 29.9017 23.6035C29.9017 23.1388 29.9867 22.74 30.1568 22.407C30.3268 22.0726 30.5591 21.8162 30.8538 21.6377C31.1485 21.4577 31.4836 21.3678 31.8591 21.3678C32.09 21.3678 32.3054 21.4011 32.5052 21.4677C32.7064 21.5328 32.887 21.6292 33.0471 21.7567C33.2072 21.8828 33.3397 22.0372 33.4445 22.22C33.5494 22.4014 33.6202 22.6089 33.657 22.8427ZM35.707 25.8457C35.401 25.8457 35.1339 25.7755 34.9058 25.6353C34.6777 25.495 34.5006 25.2988 34.3745 25.0466C34.2484 24.7944 34.1854 24.4997 34.1854 24.1625C34.1854 23.8238 34.2484 23.5277 34.3745 23.2741C34.5006 23.0205 34.6777 22.8236 34.9058 22.6833C35.1339 22.543 35.401 22.4729 35.707 22.4729C36.0131 22.4729 36.2801 22.543 36.5083 22.6833C36.7364 22.8236 36.9135 23.0205 37.0396 23.2741C37.1657 23.5277 37.2287 23.8238 37.2287 24.1625C37.2287 24.4997 37.1657 24.7944 37.0396 25.0466C36.9135 25.2988 36.7364 25.495 36.5083 25.6353C36.2801 25.7755 36.0131 25.8457 35.707 25.8457ZM35.7092 25.3122C35.9075 25.3122 36.0719 25.2598 36.2022 25.155C36.3326 25.0501 36.4289 24.9106 36.4913 24.7363C36.555 24.562 36.5869 24.37 36.5869 24.1603C36.5869 23.9521 36.555 23.7608 36.4913 23.5865C36.4289 23.4108 36.3326 23.2699 36.2022 23.1636C36.0719 23.0573 35.9075 23.0042 35.7092 23.0042C35.5094 23.0042 35.3436 23.0573 35.2119 23.1636C35.0815 23.2699 34.9845 23.4108 34.9207 23.5865C34.8584 23.7608 34.8272 23.9521 34.8272 24.1603C34.8272 24.37 34.8584 24.562 34.9207 24.7363C34.9845 24.9106 35.0815 25.0501 35.2119 25.155C35.3436 25.2598 35.5094 25.3122 35.7092 25.3122ZM38.5136 23.8416V25.7798H37.8782V22.5154H38.4881V23.0467H38.5285C38.6036 22.8739 38.7212 22.735 38.8813 22.6302C39.0428 22.5253 39.2461 22.4729 39.4912 22.4729C39.7137 22.4729 39.9085 22.5197 40.0757 22.6132C40.2429 22.7053 40.3725 22.8427 40.4646 23.0255C40.5567 23.2082 40.6027 23.4342 40.6027 23.7034V25.7798H39.9673V23.7799C39.9673 23.5433 39.9057 23.3584 39.7824 23.2252C39.6591 23.0906 39.4898 23.0233 39.2745 23.0233C39.1271 23.0233 38.9961 23.0552 38.8813 23.119C38.7679 23.1827 38.678 23.2762 38.6114 23.3995C38.5462 23.5214 38.5136 23.6687 38.5136 23.8416ZM43.8413 23.3124L43.2653 23.4144C43.2412 23.3407 43.203 23.2706 43.1506 23.204C43.0996 23.1374 43.0301 23.0828 42.9423 23.0403C42.8545 22.9978 42.7446 22.9766 42.6129 22.9766C42.4329 22.9766 42.2828 23.017 42.1623 23.0977C42.0419 23.1771 41.9817 23.2798 41.9817 23.4059C41.9817 23.515 42.0221 23.6028 42.1028 23.6694C42.1836 23.736 42.3139 23.7906 42.4939 23.8331L43.0124 23.9521C43.3128 24.0215 43.5367 24.1285 43.684 24.273C43.8314 24.4175 43.905 24.6052 43.905 24.8362C43.905 25.0317 43.8484 25.206 43.735 25.359C43.6231 25.5106 43.4665 25.6296 43.2653 25.716C43.0656 25.8025 42.8339 25.8457 42.5704 25.8457C42.2048 25.8457 41.9066 25.7677 41.6756 25.6119C41.4447 25.4546 41.303 25.2315 41.2506 24.9424L41.8648 24.8489C41.9031 25.009 41.9817 25.1302 42.1007 25.2123C42.2197 25.2931 42.3749 25.3335 42.5661 25.3335C42.7744 25.3335 42.9409 25.2903 43.0656 25.2038C43.1902 25.116 43.2526 25.009 43.2526 24.8829C43.2526 24.7809 43.2143 24.6952 43.1378 24.6258C43.0627 24.5564 42.9473 24.5039 42.7914 24.4685L42.2388 24.3474C41.9342 24.2779 41.7089 24.1674 41.563 24.0158C41.4185 23.8642 41.3462 23.6722 41.3462 23.4399C41.3462 23.2472 41.4001 23.0786 41.5078 22.9341C41.6154 22.7896 41.7642 22.6769 41.9541 22.5962C42.1439 22.514 42.3614 22.4729 42.6065 22.4729C42.9593 22.4729 43.237 22.5494 43.4396 22.7024C43.6422 22.854 43.7761 23.0573 43.8413 23.3124ZM46.6117 24.426V22.5154H47.2493V25.7798H46.6245V25.2145H46.5905C46.5154 25.3887 46.3949 25.534 46.2292 25.6501C46.0648 25.7649 45.8601 25.8223 45.615 25.8223C45.4053 25.8223 45.2197 25.7762 45.0582 25.6841C44.8981 25.5906 44.772 25.4525 44.6799 25.2697C44.5892 25.087 44.5439 24.861 44.5439 24.5918V22.5154H45.1793V24.5153C45.1793 24.7377 45.2409 24.9148 45.3642 25.0466C45.4875 25.1783 45.6476 25.2442 45.8445 25.2442C45.9635 25.2442 46.0818 25.2145 46.1994 25.155C46.3184 25.0955 46.4169 25.0055 46.4948 24.8851C46.5742 24.7646 46.6131 24.6116 46.6117 24.426ZM48.6787 21.4273V25.7798H48.0433V21.4273H48.6787ZM50.9976 22.5154V23.0255H49.2145V22.5154H50.9976ZM49.6927 21.7333H50.3281V24.8213C50.3281 24.9446 50.3465 25.0374 50.3834 25.0997C50.4202 25.1606 50.4677 25.2024 50.5257 25.2251C50.5853 25.2463 50.6497 25.257 50.7191 25.257C50.7702 25.257 50.8148 25.2534 50.853 25.2463C50.8913 25.2393 50.921 25.2336 50.9423 25.2293L51.0571 25.7543C51.0202 25.7685 50.9678 25.7826 50.8998 25.7968C50.8318 25.8124 50.7468 25.8209 50.6448 25.8223C50.4776 25.8251 50.3217 25.7954 50.1772 25.733C50.0327 25.6707 49.9158 25.5743 49.8265 25.444C49.7373 25.3136 49.6927 25.15 49.6927 24.9531V21.7333ZM52.5906 25.852C52.3838 25.852 52.1967 25.8138 52.0296 25.7373C51.8624 25.6594 51.7299 25.5467 51.6321 25.3994C51.5358 25.252 51.4876 25.0714 51.4876 24.8574C51.4876 24.6732 51.523 24.5216 51.5939 24.4026C51.6647 24.2836 51.7604 24.1894 51.8808 24.12C52.0012 24.0505 52.1358 23.9981 52.2846 23.9627C52.4334 23.9273 52.585 23.9004 52.7394 23.8819C52.9349 23.8593 53.0936 23.8409 53.2154 23.8267C53.3373 23.8111 53.4258 23.7863 53.4811 23.7523C53.5364 23.7183 53.564 23.663 53.564 23.5865V23.5717C53.564 23.386 53.5116 23.2422 53.4067 23.1402C53.3033 23.0382 53.1489 22.9872 52.9434 22.9872C52.7295 22.9872 52.5609 23.0347 52.4376 23.1296C52.3158 23.2231 52.2315 23.3272 52.1847 23.442L51.5875 23.306C51.6583 23.1076 51.7618 22.9475 51.8978 22.8257C52.0352 22.7024 52.1932 22.6132 52.3717 22.5579C52.5502 22.5012 52.738 22.4729 52.9349 22.4729C53.0653 22.4729 53.2034 22.4885 53.3493 22.5197C53.4967 22.5494 53.6341 22.6047 53.7616 22.6854C53.8906 22.7662 53.9961 22.8817 54.0783 23.0318C54.1605 23.1806 54.2016 23.374 54.2016 23.612V25.7798H53.581V25.3335H53.5555C53.5144 25.4157 53.4528 25.4964 53.3706 25.5758C53.2884 25.6551 53.1829 25.721 53.0539 25.7734C52.925 25.8258 52.7706 25.852 52.5906 25.852ZM52.7288 25.342C52.9044 25.342 53.0546 25.3073 53.1793 25.2378C53.3054 25.1684 53.401 25.0777 53.4662 24.9658C53.5328 24.8525 53.5661 24.7313 53.5661 24.6024V24.1816C53.5434 24.2043 53.4995 24.2255 53.4343 24.2454C53.3706 24.2638 53.2976 24.2801 53.2154 24.2942C53.1333 24.307 53.0532 24.319 52.9753 24.3304C52.8974 24.3403 52.8322 24.3488 52.7798 24.3559C52.6565 24.3715 52.5439 24.3977 52.4419 24.4345C52.3413 24.4713 52.2605 24.5245 52.1996 24.5939C52.1401 24.6619 52.1103 24.7526 52.1103 24.8659C52.1103 25.0232 52.1684 25.1422 52.2846 25.223C52.4008 25.3023 52.5488 25.342 52.7288 25.342ZM55.6235 23.8416V25.7798H54.9881V22.5154H55.598V23.0467H55.6384C55.7135 22.8739 55.8311 22.735 55.9912 22.6302C56.1527 22.5253 56.356 22.4729 56.6012 22.4729C56.8236 22.4729 57.0184 22.5197 57.1856 22.6132C57.3528 22.7053 57.4824 22.8427 57.5745 23.0255C57.6666 23.2082 57.7127 23.4342 57.7127 23.7034V25.7798H57.0772V23.7799C57.0772 23.5433 57.0156 23.3584 56.8923 23.2252C56.769 23.0906 56.5997 23.0233 56.3844 23.0233C56.237 23.0233 56.106 23.0552 55.9912 23.119C55.8779 23.1827 55.7879 23.2762 55.7213 23.3995C55.6561 23.5214 55.6235 23.6687 55.6235 23.8416ZM60.0288 22.5154V23.0255H58.2458V22.5154H60.0288ZM58.7239 21.7333H59.3594V24.8213C59.3594 24.9446 59.3778 25.0374 59.4146 25.0997C59.4515 25.1606 59.4989 25.2024 59.557 25.2251C59.6165 25.2463 59.681 25.257 59.7504 25.257C59.8014 25.257 59.8461 25.2534 59.8843 25.2463C59.9226 25.2393 59.9523 25.2336 59.9736 25.2293L60.0883 25.7543C60.0515 25.7685 59.9991 25.7826 59.9311 25.7968C59.8631 25.8124 59.7781 25.8209 59.676 25.8223C59.5089 25.8251 59.353 25.7954 59.2085 25.733C59.064 25.6707 58.9471 25.5743 58.8578 25.444C58.7686 25.3136 58.7239 25.15 58.7239 24.9531V21.7333Z" fill="white"/>
</g>
<rect x="0.788345" y="0.280533" width="62.4236" height="28.9596" rx="4.20799" stroke="#076461" stroke-width="0.561065"/>
<defs>
<clipPath id="clip0_23225_4303">
<rect x="0.507812" width="62.9847" height="29.5206" rx="4.48852" fill="white"/>
</clipPath>
</defs>
</svg>
