<svg width="129" height="32" viewBox="0 0 129 32" fill="none" xmlns="http://www.w3.org/2000/svg">
<rect width="129" height="32" fill="#E6F7FF"/>
<path d="M33 19V20.2C33 21.8802 33 22.7202 32.673 23.362C32.3854 23.9265 31.9265 24.3854 31.362 24.673C30.7202 25 29.8802 25 28.2 25H19.8C18.1198 25 17.2798 25 16.638 24.673C16.0735 24.3854 15.6146 23.9265 15.327 23.362C15 22.7202 15 21.8802 15 20.2V19M29 14L24 19M24 19L19 14M24 19V7" stroke="#1890FF" stroke-width="2" stroke-linecap="round" stroke-linejoin="round"/>
<path d="M50.116 11.242C51.18 11.242 52.0993 11.4427 52.874 11.844C53.658 12.236 54.2553 12.8007 54.666 13.538C55.086 14.2753 55.296 15.1433 55.296 16.142C55.296 17.1407 55.086 18.0087 54.666 18.746C54.2553 19.474 53.658 20.034 52.874 20.426C52.0993 20.8087 51.18 21 50.116 21H47.078V11.242H50.116ZM50.116 19.95C51.376 19.95 52.3373 19.6187 53 18.956C53.6627 18.284 53.994 17.346 53.994 16.142C53.994 14.9287 53.658 13.9813 52.986 13.3C52.3233 12.6187 51.3667 12.278 50.116 12.278H48.352V19.95H50.116ZM60.3224 21.126C59.6038 21.126 58.9504 20.9627 58.3624 20.636C57.7838 20.3093 57.3264 19.8473 56.9904 19.25C56.6638 18.6433 56.5004 17.9433 56.5004 17.15C56.5004 16.366 56.6684 15.6753 57.0044 15.078C57.3498 14.4713 57.8164 14.0093 58.4044 13.692C58.9924 13.3653 59.6504 13.202 60.3784 13.202C61.1064 13.202 61.7644 13.3653 62.3524 13.692C62.9404 14.0093 63.4024 14.4667 63.7384 15.064C64.0838 15.6613 64.2564 16.3567 64.2564 17.15C64.2564 17.9433 64.0791 18.6433 63.7244 19.25C63.3791 19.8473 62.9078 20.3093 62.3104 20.636C61.7131 20.9627 61.0504 21.126 60.3224 21.126ZM60.3224 20.006C60.7798 20.006 61.2091 19.8987 61.6104 19.684C62.0118 19.4693 62.3338 19.1473 62.5764 18.718C62.8284 18.2887 62.9544 17.766 62.9544 17.15C62.9544 16.534 62.8331 16.0113 62.5904 15.582C62.3478 15.1527 62.0304 14.8353 61.6384 14.63C61.2464 14.4153 60.8218 14.308 60.3644 14.308C59.8978 14.308 59.4684 14.4153 59.0764 14.63C58.6938 14.8353 58.3858 15.1527 58.1524 15.582C57.9191 16.0113 57.8024 16.534 57.8024 17.15C57.8024 17.7753 57.9144 18.3027 58.1384 18.732C58.3718 19.1613 58.6798 19.4833 59.0624 19.698C59.4451 19.9033 59.8651 20.006 60.3224 20.006ZM76.1515 13.328L73.7575 21H72.4415L70.5935 14.91L68.7455 21H67.4295L65.0215 13.328H66.3235L68.0875 19.768L69.9915 13.328H71.2935L73.1555 19.782L74.8915 13.328H76.1515ZM81.1539 13.188C82.0872 13.188 82.8432 13.4727 83.4219 14.042C84.0006 14.602 84.2899 15.414 84.2899 16.478V21H83.0299V16.66C83.0299 15.8947 82.8386 15.3113 82.4559 14.91C82.0732 14.4993 81.5506 14.294 80.8879 14.294C80.2159 14.294 79.6792 14.504 79.2779 14.924C78.8859 15.344 78.6899 15.9553 78.6899 16.758V21H77.4159V13.328H78.6899V14.42C78.9419 14.028 79.2826 13.7247 79.7119 13.51C80.1506 13.2953 80.6312 13.188 81.1539 13.188ZM87.645 10.64V21H86.371V10.64H87.645ZM93.1623 21.126C92.4436 21.126 91.7903 20.9627 91.2023 20.636C90.6236 20.3093 90.1663 19.8473 89.8303 19.25C89.5036 18.6433 89.3403 17.9433 89.3403 17.15C89.3403 16.366 89.5083 15.6753 89.8443 15.078C90.1896 14.4713 90.6563 14.0093 91.2443 13.692C91.8323 13.3653 92.4903 13.202 93.2183 13.202C93.9463 13.202 94.6043 13.3653 95.1923 13.692C95.7803 14.0093 96.2423 14.4667 96.5783 15.064C96.9236 15.6613 97.0963 16.3567 97.0963 17.15C97.0963 17.9433 96.9189 18.6433 96.5643 19.25C96.2189 19.8473 95.7476 20.3093 95.1503 20.636C94.5529 20.9627 93.8903 21.126 93.1623 21.126ZM93.1623 20.006C93.6196 20.006 94.0489 19.8987 94.4503 19.684C94.8516 19.4693 95.1736 19.1473 95.4163 18.718C95.6683 18.2887 95.7943 17.766 95.7943 17.15C95.7943 16.534 95.6729 16.0113 95.4303 15.582C95.1876 15.1527 94.8703 14.8353 94.4783 14.63C94.0863 14.4153 93.6616 14.308 93.2043 14.308C92.7376 14.308 92.3083 14.4153 91.9163 14.63C91.5336 14.8353 91.2256 15.1527 90.9923 15.582C90.7589 16.0113 90.6423 16.534 90.6423 17.15C90.6423 17.7753 90.7543 18.3027 90.9783 18.732C91.2116 19.1613 91.5196 19.4833 91.9023 19.698C92.2849 19.9033 92.7049 20.006 93.1623 20.006ZM98.2954 17.136C98.2954 16.352 98.454 15.666 98.7714 15.078C99.0887 14.4807 99.5227 14.0187 100.073 13.692C100.633 13.3653 101.254 13.202 101.935 13.202C102.607 13.202 103.191 13.3467 103.685 13.636C104.18 13.9253 104.549 14.2893 104.791 14.728V13.328H106.079V21H104.791V19.572C104.539 20.02 104.161 20.3933 103.657 20.692C103.163 20.9813 102.584 21.126 101.921 21.126C101.24 21.126 100.624 20.958 100.073 20.622C99.5227 20.286 99.0887 19.8147 98.7714 19.208C98.454 18.6013 98.2954 17.9107 98.2954 17.136ZM104.791 17.15C104.791 16.5713 104.675 16.0673 104.441 15.638C104.208 15.2087 103.891 14.882 103.489 14.658C103.097 14.4247 102.663 14.308 102.187 14.308C101.711 14.308 101.277 14.42 100.885 14.644C100.493 14.868 100.181 15.1947 99.9474 15.624C99.714 16.0533 99.5974 16.5573 99.5974 17.136C99.5974 17.724 99.714 18.2373 99.9474 18.676C100.181 19.1053 100.493 19.4367 100.885 19.67C101.277 19.894 101.711 20.006 102.187 20.006C102.663 20.006 103.097 19.894 103.489 19.67C103.891 19.4367 104.208 19.1053 104.441 18.676C104.675 18.2373 104.791 17.7287 104.791 17.15ZM107.756 17.136C107.756 16.352 107.915 15.666 108.232 15.078C108.55 14.4807 108.984 14.0187 109.534 13.692C110.094 13.3653 110.72 13.202 111.41 13.202C112.008 13.202 112.563 13.342 113.076 13.622C113.59 13.8927 113.982 14.252 114.252 14.7V10.64H115.54V21H114.252V19.558C114 20.0153 113.627 20.3933 113.132 20.692C112.638 20.9813 112.059 21.126 111.396 21.126C110.715 21.126 110.094 20.958 109.534 20.622C108.984 20.286 108.55 19.8147 108.232 19.208C107.915 18.6013 107.756 17.9107 107.756 17.136ZM114.252 17.15C114.252 16.5713 114.136 16.0673 113.902 15.638C113.669 15.2087 113.352 14.882 112.95 14.658C112.558 14.4247 112.124 14.308 111.648 14.308C111.172 14.308 110.738 14.42 110.346 14.644C109.954 14.868 109.642 15.1947 109.408 15.624C109.175 16.0533 109.058 16.5573 109.058 17.136C109.058 17.724 109.175 18.2373 109.408 18.676C109.642 19.1053 109.954 19.4367 110.346 19.67C110.738 19.894 111.172 20.006 111.648 20.006C112.124 20.006 112.558 19.894 112.95 19.67C113.352 19.4367 113.669 19.1053 113.902 18.676C114.136 18.2373 114.252 17.7287 114.252 17.15Z" fill="#007BFF"/>
</svg>
