<svg width="42" height="43" viewBox="0 0 42 43" fill="none" xmlns="http://www.w3.org/2000/svg">
<path fill-rule="evenodd" clip-rule="evenodd" d="M41.1069 21.5C41.1069 32.5457 32.1526 41.5 21.1069 41.5C10.0612 41.5 1.10693 32.5457 1.10693 21.5C1.10693 10.4543 10.0612 1.5 21.1069 1.5C32.1526 1.5 41.1069 10.4543 41.1069 21.5ZM29.1676 15.4393C29.7534 16.0251 29.7534 16.9749 29.1676 17.5607L19.1676 27.5607C18.5818 28.1464 17.6321 28.1464 17.0463 27.5607L13.0463 23.5607C12.4605 22.9749 12.4605 22.0251 13.0463 21.4393C13.6321 20.8536 14.5818 20.8536 15.1676 21.4393L18.1069 24.3787L22.5766 19.909L27.0463 15.4393C27.6321 14.8536 28.5818 14.8536 29.1676 15.4393Z" fill="#019088" stroke="#019088" stroke-width="1.5" stroke-linecap="round"/>
</svg>
