<svg width="441" height="503" viewBox="0 0 441 503" fill="none" xmlns="http://www.w3.org/2000/svg">
<path d="M430.026 486.213V427.489C430.026 427.489 452.946 469.122 430.026 486.213Z" fill="#045D5E"/>
<path d="M431.442 486.203L388.118 446.49C388.118 446.49 434.332 457.786 431.442 486.203Z" fill="#045D5E"/>
<path d="M328.99 338.806L28.6633 356.764C27.6128 356.826 26.5802 356.469 25.7921 355.771C25.004 355.073 24.5247 354.092 24.4594 353.042L4.28885 22.8694C4.22593 21.8197 4.58227 20.7885 5.2797 20.0019C5.97714 19.2153 6.95872 18.7376 8.00909 18.6736L308.336 0.715324C309.387 0.653714 310.419 1.01097 311.207 1.70873C311.995 2.4065 312.475 3.38778 312.54 4.4373L332.71 334.61C332.773 335.66 332.417 336.691 331.72 337.478C331.022 338.265 330.041 338.742 328.99 338.806Z" fill="#FAFCFD"/>
<path d="M144.298 121.053L69.8102 125.507C68.7596 125.569 67.7271 125.211 66.939 124.514C66.1508 123.816 65.6716 122.835 65.6062 121.785L61.0594 47.3576C60.9965 46.308 61.3528 45.2767 62.0503 44.4901C62.7477 43.7035 63.7293 43.2258 64.7797 43.1618L139.267 38.7078C140.318 38.6462 141.35 39.0034 142.138 39.7012C142.926 40.3989 143.406 41.3802 143.471 42.4298L148.018 116.857C148.081 117.907 147.724 118.938 147.027 119.725C146.33 120.511 145.348 120.989 144.298 121.053ZM64.8764 44.7454C64.2462 44.7837 63.6572 45.0704 63.2387 45.5423C62.8203 46.0143 62.6065 46.633 62.6443 47.2629L67.1911 121.69C67.2303 122.32 67.5178 122.909 67.9907 123.328C68.4636 123.746 69.0832 123.961 69.7135 123.924L144.201 119.47C144.831 119.431 145.42 119.145 145.839 118.673C146.257 118.201 146.471 117.582 146.433 116.952L141.886 42.5245C141.847 41.8948 141.559 41.306 141.087 40.8874C140.614 40.4687 139.994 40.2543 139.364 40.2913L64.8764 44.7454Z" fill="#F2F2F2"/>
<path d="M123.458 131.438L48.971 135.892C48.0255 135.948 47.0962 135.626 46.3869 134.998C45.6776 134.37 45.2462 133.487 45.1874 132.542L40.6406 58.1148C40.5839 57.1701 40.9047 56.242 41.5324 55.534C42.1601 54.8261 43.0435 54.3961 43.9888 54.3385L118.476 49.8845C119.422 49.8291 120.351 50.1506 121.06 50.7786C121.77 51.4066 122.201 52.2898 122.26 53.2343L126.807 127.662C126.863 128.607 126.543 129.535 125.915 130.243C125.287 130.951 124.404 131.38 123.458 131.438Z" fill="#FC7300"/>
<path d="M284.168 158.383L51.1963 172.314C50.2506 172.371 49.3206 172.05 48.6111 171.421C47.9015 170.793 47.4705 169.909 47.4128 168.964C47.355 168.019 47.6754 167.091 48.3033 166.382C48.9312 165.674 49.8152 165.245 50.761 165.188L283.732 151.257C284.201 151.229 284.67 151.294 285.113 151.447C285.557 151.6 285.966 151.839 286.318 152.15C286.669 152.461 286.956 152.838 287.161 153.26C287.367 153.682 287.487 154.139 287.516 154.607C287.544 155.075 287.481 155.544 287.328 155.987C287.175 156.43 286.936 156.838 286.625 157.189C286.314 157.54 285.937 157.826 285.516 158.031C285.094 158.236 284.636 158.355 284.168 158.383Z" fill="#CCCCCC"/>
<path d="M229.405 186.293L52.6956 196.859C52.2273 196.887 51.758 196.823 51.3145 196.67C50.8709 196.516 50.4618 196.277 50.1104 195.966C49.4009 195.338 48.9698 194.454 48.9121 193.509C48.8543 192.564 49.1747 191.636 49.8026 190.927C50.4305 190.219 51.3146 189.79 52.2603 189.733L228.97 179.167C229.438 179.139 229.907 179.203 230.351 179.356C230.795 179.509 231.204 179.748 231.555 180.059C231.906 180.371 232.193 180.748 232.399 181.169C232.604 181.591 232.725 182.049 232.753 182.516C232.782 182.984 232.718 183.453 232.565 183.896C232.412 184.339 232.174 184.748 231.863 185.098C231.552 185.449 231.175 185.735 230.753 185.94C230.332 186.145 229.873 186.265 229.405 186.293Z" fill="#CCCCCC"/>
<path d="M277.861 68.1677L174.847 74.3275C173.901 74.384 172.971 74.0629 172.261 73.4347C171.552 72.8065 171.121 71.9227 171.063 70.9777C171.005 70.0327 171.326 69.104 171.954 68.3958C172.582 67.6876 173.466 67.258 174.411 67.2015L277.426 61.0416C278.372 60.9851 279.301 61.3062 280.011 61.9344C280.362 62.2455 280.649 62.6226 280.855 63.0441C281.06 63.4657 281.181 63.9235 281.209 64.3914C281.238 64.8593 281.174 65.3282 281.021 65.7712C280.868 66.2142 280.63 66.6226 280.319 66.9733C280.008 67.324 279.631 67.6099 279.209 67.8148C278.788 68.0198 278.329 68.1397 277.861 68.1677Z" fill="#CCCCCC"/>
<path d="M253.651 94.2501L176.346 98.8726C175.877 98.9006 175.408 98.8362 174.965 98.683C174.521 98.5298 174.112 98.2909 173.76 97.9798C173.409 97.6688 173.122 97.2917 172.917 96.8701C172.711 96.4485 172.591 95.9907 172.562 95.5228C172.534 95.0549 172.597 94.5861 172.75 94.1431C172.903 93.7001 173.142 93.2916 173.453 92.9409C173.764 92.5903 174.141 92.3043 174.562 92.0994C174.984 91.8945 175.442 91.7746 175.91 91.7466L253.216 87.124C254.162 87.0675 255.092 87.3887 255.801 88.0169C256.511 88.6451 256.942 89.5289 256.999 90.4738C257.057 91.4188 256.737 92.3476 256.109 93.0557C255.481 93.7639 254.597 94.1935 253.651 94.2501Z" fill="#CCCCCC"/>
<path d="M287.167 207.474L54.1953 221.404C53.2495 221.461 52.3196 221.14 51.6101 220.512C50.9005 219.883 50.4694 219 50.4117 218.055C50.354 217.11 50.6743 216.181 51.3022 215.473C51.9301 214.765 52.8142 214.335 53.7599 214.278L286.731 200.348C287.677 200.291 288.607 200.612 289.316 201.241C290.026 201.869 290.457 202.753 290.515 203.698C290.573 204.643 290.252 205.571 289.624 206.279C288.996 206.988 288.112 207.417 287.167 207.474Z" fill="#CCCCCC"/>
<path d="M232.404 235.383L55.6941 245.95C55.2259 245.978 54.7566 245.913 54.313 245.76C53.8694 245.607 53.4603 245.368 53.1089 245.057C52.7576 244.746 52.4709 244.369 52.2653 243.947C52.0597 243.526 51.9392 243.068 51.9106 242.6C51.882 242.132 51.9459 241.663 52.0987 241.22C52.2515 240.777 52.4902 240.369 52.8011 240.018C53.112 239.667 53.4891 239.382 53.9108 239.177C54.3325 238.972 54.7905 238.852 55.2588 238.824L231.968 228.257C232.437 228.229 232.906 228.294 233.35 228.447C233.793 228.6 234.202 228.839 234.554 229.15C234.905 229.461 235.192 229.838 235.397 230.26C235.603 230.681 235.723 231.139 235.752 231.607C235.78 232.075 235.717 232.544 235.564 232.987C235.411 233.43 235.172 233.838 234.861 234.189C234.55 234.54 234.173 234.826 233.752 235.03C233.33 235.235 232.872 235.355 232.404 235.383Z" fill="#CCCCCC"/>
<path d="M290.165 256.564L57.1938 270.495C56.7255 270.523 56.2562 270.459 55.8126 270.305C55.3691 270.152 54.9599 269.913 54.6086 269.602C54.2573 269.291 53.9706 268.914 53.765 268.492C53.5594 268.071 53.4388 267.613 53.4103 267.145C53.3817 266.677 53.4456 266.208 53.5984 265.765C53.7512 265.322 53.9898 264.914 54.3008 264.563C54.6117 264.213 54.9888 263.927 55.4105 263.722C55.8321 263.517 56.2902 263.397 56.7585 263.369L289.73 249.438C290.198 249.41 290.667 249.475 291.111 249.628C291.555 249.781 291.964 250.02 292.315 250.331C292.666 250.642 292.953 251.019 293.159 251.441C293.364 251.862 293.485 252.32 293.513 252.788C293.542 253.256 293.478 253.725 293.325 254.168C293.172 254.611 292.934 255.019 292.623 255.37C292.312 255.721 291.935 256.007 291.513 256.211C291.091 256.416 290.633 256.536 290.165 256.564Z" fill="#CCCCCC"/>
<path d="M291.665 281.11L58.6937 295.04C58.2254 295.068 57.7561 295.004 57.3125 294.851C56.8689 294.698 56.4598 294.459 56.1085 294.148C55.7571 293.836 55.4705 293.459 55.2649 293.038C55.0593 292.616 54.9387 292.158 54.9101 291.691C54.8816 291.223 54.9455 290.754 55.0983 290.311C55.2511 289.868 55.4897 289.459 55.8006 289.109C56.1116 288.758 56.4886 288.472 56.9103 288.267C57.332 288.062 57.7901 287.942 58.2584 287.914L291.23 273.984C291.698 273.956 292.167 274.02 292.611 274.173C293.054 274.326 293.464 274.565 293.815 274.876C294.166 275.188 294.453 275.565 294.658 275.986C294.864 276.408 294.985 276.866 295.013 277.333C295.042 277.801 294.978 278.27 294.825 278.713C294.672 279.156 294.434 279.565 294.123 279.915C293.812 280.266 293.435 280.552 293.013 280.757C292.591 280.962 292.133 281.082 291.665 281.11Z" fill="#CCCCCC"/>
<path d="M196.197 325.386C200.183 323.713 204.021 321.71 207.673 319.399C210.958 317.309 214.313 314.996 216.477 311.69C217.431 310.299 218.044 308.703 218.265 307.03C218.485 305.357 218.307 303.656 217.746 302.064C217.184 300.563 216.159 299.279 214.818 298.398C213.478 297.517 211.893 297.084 210.292 297.163C208.669 297.247 207.1 297.769 205.75 298.671C204.401 299.574 203.321 300.825 202.626 302.292C201.921 303.937 201.598 305.721 201.679 307.51C201.761 309.299 202.246 311.046 203.098 312.623C206.467 319.159 214.871 323.16 222.018 323.101C230.069 323.035 237.731 316.08 235.705 307.638C235.284 305.883 232.854 306.377 232.445 307.833C231.87 309.79 232.066 311.893 232.991 313.713C233.916 315.532 235.502 316.931 237.423 317.623C239.345 318.315 241.457 318.249 243.329 317.437C245.201 316.625 246.692 315.129 247.496 313.255L244.576 313.43C246.721 316.051 249.518 318.062 252.686 319.261C255.854 320.46 259.281 320.805 262.622 320.26C264.273 319.996 265.878 319.501 267.39 318.79C269.221 317.912 271.544 317.921 273.569 317.645L288.16 315.658C290.306 315.365 290.117 311.984 287.953 312.279L274.739 314.079C272.537 314.379 270.331 314.66 268.132 314.979C266.56 315.208 265.18 316.163 263.635 316.597C260.729 317.38 257.659 317.321 254.783 316.428C251.907 315.534 249.344 313.843 247.392 311.55C247.224 311.309 246.996 311.116 246.732 310.988C246.468 310.86 246.175 310.802 245.882 310.819C245.589 310.837 245.305 310.929 245.058 311.088C244.812 311.246 244.61 311.466 244.472 311.725C244.043 312.869 243.179 313.796 242.068 314.306C240.956 314.815 239.688 314.865 238.539 314.445C237.39 314.024 236.453 313.167 235.933 312.061C235.412 310.954 235.35 309.688 235.76 308.537L232.5 308.732C233.806 314.177 228.696 318.928 223.677 319.598C218.063 320.346 211.654 317.726 207.856 313.572C206.904 312.593 206.165 311.428 205.683 310.151C205.201 308.874 204.989 307.512 205.058 306.15C205.108 304.913 205.546 303.724 206.309 302.75C207.072 301.776 208.122 301.066 209.311 300.72C210.36 300.384 211.499 300.469 212.487 300.956C213.476 301.443 214.236 302.295 214.609 303.331C214.985 304.518 215.064 305.778 214.838 307.002C214.613 308.225 214.089 309.374 213.314 310.347C211.299 313.126 208.213 315.068 205.348 316.863C202.079 318.906 198.652 320.685 195.099 322.182C193.106 323.025 194.183 326.238 196.197 325.386Z" fill="#FC7300"/>
<path d="M242.899 271.309C243.157 271.575 243.394 271.86 243.608 272.163L276.817 271.351L280.691 264.282L292.139 268.726L286.499 281.906C286.043 282.971 285.254 283.859 284.249 284.438C283.245 285.016 282.08 285.254 280.929 285.115L243.408 280.59C242.523 281.708 241.318 282.532 239.953 282.95C238.588 283.368 237.128 283.361 235.767 282.93C234.405 282.5 233.208 281.666 232.333 280.539C231.458 279.412 230.948 278.046 230.87 276.622C230.792 275.198 231.15 273.785 231.896 272.569C232.642 271.354 233.741 270.393 235.046 269.817C236.352 269.24 237.803 269.074 239.206 269.341C240.608 269.607 241.896 270.294 242.899 271.309Z" fill="#FFB7B7"/>
<path d="M351.157 472.693H340.238L335.043 430.637L351.159 430.638L351.157 472.693Z" fill="#FFB7B7"/>
<path d="M353.941 483.263L318.732 483.261V482.817C318.732 479.188 320.176 475.707 322.746 473.141C325.316 470.575 328.802 469.133 332.436 469.133H332.437L353.941 469.134L353.941 483.263Z" fill="#2F2E41"/>
<path d="M252.004 472.451L241.963 468.168L253.731 427.455L268.551 433.777L252.004 472.451Z" fill="#FFB7B7"/>
<path d="M250.407 483.263L218.029 469.451L218.204 469.042C219.632 465.705 222.329 463.071 225.702 461.719C229.075 460.367 232.848 460.408 236.19 461.834L236.191 461.834L255.966 470.27L250.407 483.263Z" fill="#2F2E41"/>
<path d="M298.08 280.42L297.29 293.196L320.371 295.662L344.522 298.243L337.413 278.842L298.08 280.42Z" fill="#FFB7B7"/>
<path d="M296.564 293.361L287.597 230.945L303.139 225.859L307.703 219.608L329.916 220.921L333.178 228.215L345.022 233.803L343.202 267.559L344.53 295.796L296.564 293.361Z" fill="#1E98B0"/>
<path d="M290.92 276.634L275.112 270.319L275.179 270.038C275.247 269.755 281.975 241.68 282.869 237.169C283.799 232.469 287.199 231.169 287.344 231.117L287.449 231.078L293.705 232.979L296.453 254.535L290.92 276.634Z" fill="#1E98B0"/>
<path d="M260.137 465.06L239.094 460.75L272.727 368.082L284.237 336.474C284.237 336.474 291.538 311.131 294.837 301.324L296.827 288.165L343.949 293.373C343.949 293.373 357.11 312.673 353.112 344.13L354.92 462.366L333.877 463.444L316.252 344.197L285.317 409.567C285.317 409.567 275.566 437.463 268.59 443.509L260.137 465.06Z" fill="#495057"/>
<path d="M325.052 297.762C325.423 297.753 325.793 297.773 326.161 297.822L348.144 272.955L345.587 265.312L356.634 259.951L362.478 273.042C362.95 274.099 363.066 275.281 362.808 276.41C362.55 277.539 361.932 278.554 361.048 279.302L332.214 303.698C332.433 305.107 332.219 306.549 331.598 307.833C330.977 309.117 329.979 310.181 328.737 310.885C327.495 311.589 326.068 311.898 324.646 311.773C323.224 311.647 321.874 311.092 320.775 310.181C319.676 309.271 318.881 308.047 318.496 306.675C318.11 305.302 318.153 303.844 318.617 302.496C319.081 301.148 319.946 299.973 321.095 299.127C322.245 298.281 323.625 297.805 325.052 297.762Z" fill="#FFB7B7"/>
<path d="M346.389 275.375L337.219 253.836L340.795 238.833L344.649 233.972C344.931 233.851 345.236 233.79 345.543 233.793C345.85 233.796 346.153 233.862 346.433 233.988C347.854 234.559 349.064 236.31 350.03 239.191L358.624 263.635L346.389 275.375Z" fill="#1E98B0"/>
<path d="M298.812 211.627V195.389C298.812 189.618 301.108 184.083 305.195 180.003C309.281 175.922 314.824 173.63 320.603 173.63C326.383 173.63 331.926 175.922 336.012 180.003C340.099 184.083 342.395 189.618 342.395 195.389V211.627C342.394 212.402 342.085 213.145 341.537 213.693C340.988 214.241 340.244 214.549 339.468 214.55H301.739C300.963 214.549 300.219 214.241 299.67 213.693C299.122 213.145 298.813 212.402 298.812 211.627Z" fill="#2F2E41"/>
<path d="M316.126 214.172C324.949 214.172 332.102 207.029 332.102 198.219C332.102 189.408 324.949 182.266 316.126 182.266C307.302 182.266 300.149 189.408 300.149 198.219C300.149 207.029 307.302 214.172 316.126 214.172Z" fill="#FFB7B7"/>
<path d="M293.657 196.688C293.662 192.125 295.48 187.749 298.711 184.523C301.943 181.296 306.325 179.481 310.895 179.475H314.147C318.718 179.481 323.099 181.296 326.331 184.523C329.562 187.749 331.38 192.125 331.385 196.688V197.013H324.512L322.167 190.458L321.699 197.013H318.146L316.963 193.705L316.727 197.013H293.657L293.657 196.688Z" fill="#2F2E41"/>
<path d="M314.553 216.376C314.23 215.939 314.037 215.421 313.997 214.88C313.956 214.339 314.07 213.798 314.324 213.318C317.77 206.772 322.596 194.677 316.191 187.217L315.73 186.681H334.326V214.559L317.433 217.535C317.262 217.566 317.089 217.581 316.915 217.581C316.454 217.581 315.999 217.472 315.589 217.262C315.178 217.053 314.823 216.749 314.553 216.376Z" fill="#2F2E41"/>
<path d="M97.6279 463.507L107.496 467.029L125.795 430.698L111.231 425.5L97.6279 463.507Z" fill="#9F616A"/>
<path d="M91.6924 472.161L96.2627 459.392L115.697 466.327C118.979 467.503 121.66 469.93 123.153 473.077C124.645 476.224 124.826 479.834 123.656 483.114L123.512 483.516L91.6924 472.161Z" fill="#2F2E41"/>
<path d="M161.798 473.253L172.277 473.253L177.263 432.892L161.796 432.893L161.798 473.253Z" fill="#9F616A"/>
<path d="M159.125 469.837L179.763 469.836H179.764C181.491 469.836 183.201 470.176 184.797 470.836C186.393 471.496 187.843 472.463 189.064 473.683C190.285 474.902 191.254 476.35 191.915 477.943C192.576 479.536 192.916 481.244 192.916 482.969V483.396L159.126 483.397L159.125 469.837Z" fill="#2F2E41"/>
<path d="M137.915 215.395L142.473 206.402C142.473 206.402 159.451 210.65 160.994 220.476L137.915 215.395Z" fill="#F1F1F1"/>
<path d="M119.11 318.215L131.504 387.276L98.5947 445.39L118.255 453.072L151.592 396.739L155.866 381.375L158.43 461.607L176.162 461.07L184.291 386.153L171.252 316.508L119.11 318.215Z" fill="#2F2E41"/>
<path d="M142.638 334.541C124.43 334.541 112.869 331.063 112.61 331.008L112.191 330.919L121.675 287.013L122.102 246.514C122.102 229.352 133.414 216.699 134.984 215.531C135.248 214.489 135.737 213.518 136.416 212.684C137.095 211.851 137.949 211.175 138.917 210.705C142.69 208.996 147.301 211.047 147.495 211.135L161.335 216.316L161.4 216.508C161.566 216.999 179.795 276.753 179.795 276.753C179.795 276.753 178.692 328.963 178.307 330.673C178.307 330.673 152.755 334.541 142.638 334.541Z" fill="#045D5E"/>
<path d="M156.628 203.571C166.959 203.571 175.333 195.209 175.333 184.894C175.333 174.578 166.959 166.216 156.628 166.216C146.298 166.216 137.923 174.578 137.923 184.894C137.923 195.209 146.298 203.571 156.628 203.571Z" fill="#9F616A"/>
<path opacity="0.2" d="M135.772 249.826L168.497 295.417L173.33 274.127L135.772 249.826Z" fill="black"/>
<path d="M238.371 280.847C237.451 281.574 236.382 282.091 235.24 282.361C234.098 282.63 232.911 282.647 231.761 282.409C230.612 282.171 229.529 281.685 228.589 280.984C227.649 280.283 226.874 279.385 226.319 278.352L198.151 282.854L204.254 269.365L230.066 267.158C231.865 266.342 233.901 266.213 235.789 266.795C237.676 267.378 239.284 268.632 240.308 270.319C241.332 272.007 241.7 274.01 241.343 275.951C240.986 277.891 239.928 279.633 238.371 280.847Z" fill="#9F616A"/>
<path d="M205.704 268.597L215.825 267.606L218.63 281.703L205.894 281.928L205.704 268.597Z" fill="#F1F1F1"/>
<path d="M214.001 286.615L164.433 282.208L139.405 242.463L139.328 242.112C138.618 238.865 139.115 235.471 140.727 232.564C142.339 229.656 144.956 227.434 148.089 226.312C151.222 225.19 154.657 225.245 157.752 226.467C160.847 227.688 163.392 229.993 164.91 232.95L179.602 261.566L209.254 266.042L214.001 286.615Z" fill="#045D5E"/>
<path d="M140.696 201.11L156.222 201.666C157.168 201.7 159.736 191.502 160.073 189.387C160.338 188.009 161.097 186.776 162.207 185.916C163.317 185.056 164.703 184.63 166.105 184.716C167.267 184.825 170.198 182.657 173.222 180.09C178.963 175.216 178.664 166.062 172.357 161.944C172.185 161.831 172.016 161.729 171.85 161.636C167.871 159.412 163.217 158.665 158.658 158.608C154.525 158.557 150.275 159.076 146.634 161.03C140.106 164.531 136.632 172.184 136.327 179.577C136.022 186.97 138.395 194.199 141.089 201.092" fill="#2F2E41"/>
<ellipse opacity="0.2" cx="217.762" cy="485.436" rx="217.411" ry="16.9921" fill="#045D5E"/>
</svg>
