<svg width="400" height="400" viewBox="0 0 400 400" fill="none" xmlns="http://www.w3.org/2000/svg">
<rect width="400" height="400" fill="#EFF1F2"/>
<path d="M159.286 154.196V137.231C159.286 134.432 161.576 132.142 164.375 132.142H181.339C184.138 132.142 186.429 134.432 186.429 137.231V154.196C186.429 156.995 184.138 159.285 181.339 159.285H164.375C161.576 159.285 159.286 156.995 159.286 154.196ZM218.661 159.285H235.625C238.424 159.285 240.714 156.995 240.714 154.196V137.231C240.714 134.432 238.424 132.142 235.625 132.142H218.661C215.862 132.142 213.571 134.432 213.571 137.231V154.196C213.571 156.995 215.862 159.285 218.661 159.285ZM164.375 199.999H181.339C184.138 199.999 186.429 197.709 186.429 194.91V177.946C186.429 175.147 184.138 172.856 181.339 172.856H164.375C161.576 172.856 159.286 175.147 159.286 177.946V194.91C159.286 197.709 161.576 199.999 164.375 199.999ZM218.661 199.999H235.625C238.424 199.999 240.714 197.709 240.714 194.91V177.946C240.714 175.147 238.424 172.856 235.625 172.856H218.661C215.862 172.856 213.571 175.147 213.571 177.946V194.91C213.571 197.709 215.862 199.999 218.661 199.999ZM186.429 235.624V218.66C186.429 215.861 184.138 213.571 181.339 213.571H164.375C161.576 213.571 159.286 215.861 159.286 218.66V235.624C159.286 238.423 161.576 240.713 164.375 240.713H181.339C184.138 240.713 186.429 238.423 186.429 235.624ZM218.661 240.713H235.625C238.424 240.713 240.714 238.423 240.714 235.624V218.66C240.714 215.861 238.424 213.571 235.625 213.571H218.661C215.862 213.571 213.571 215.861 213.571 218.66V235.624C213.571 238.423 215.862 240.713 218.661 240.713ZM295 293.303V308.571H105V293.303C105 290.504 107.29 288.213 110.089 288.213H118.359V101.606C118.359 95.9657 122.897 91.4277 128.538 91.4277H271.462C277.103 91.4277 281.641 95.9657 281.641 101.606V288.213H289.911C292.71 288.213 295 290.504 295 293.303ZM138.717 287.789H186.429V259.374C186.429 256.575 188.719 254.285 191.518 254.285H208.482C211.281 254.285 213.571 256.575 213.571 259.374V287.789H261.283V112.209L138.929 111.785L138.717 287.789Z" fill="#C4C7C8"/>
</svg>
