<svg width="380" height="249" viewBox="0 0 380 249" fill="none" xmlns="http://www.w3.org/2000/svg">
<path d="M373.402 58.71L367.459 87.4912L363.634 83.7593L357.126 88.404L352.152 82.2255L341 90.3352L331.468 74.3953L320.838 80.6235L316.621 74.8113L303.122 82.418L299.061 73.7184L308.524 27.8857L359.256 38.3613L373.402 58.71Z" fill="#E4E9E9"/>
<path d="M359.255 38.3613L373.401 58.71L355.803 55.0774L359.255 38.3613Z" fill="#C6CBCB"/>
<path d="M366.191 93.2412L357.479 135.466L289.143 121.358L297.793 79.4746L301.854 88.168L315.359 80.5613L319.57 86.3734L330.207 80.1514L339.732 96.0914L350.891 87.9817L355.858 94.154L362.372 89.5155L366.191 93.2412Z" fill="#E4E9E9"/>
<path d="M268.384 88.2913L198.744 92.6007L193.211 3.20803L244.924 0.00390625L263.907 15.9314L268.384 88.2913Z" fill="#E4E9E9"/>
<path d="M244.924 0.00390625L263.907 15.9314L245.973 17.0429L244.924 0.00390625Z" fill="#C6CBCB"/>
<path d="M225.642 60.1557L225.369 58.1376C224.667 53.9586 225.81 49.2828 229.442 44.3958C232.721 40.0492 234.497 36.9444 234.298 33.4174C234.074 29.4432 231.435 26.9346 226.524 27.1333C223.717 27.2791 221.02 28.2753 218.793 29.9897L216.65 25.1897C219.134 23.1716 223.481 21.6813 227.61 21.464C236.571 20.9672 240.93 26.2702 241.271 32.1879C241.569 37.4846 238.825 41.4649 235.335 46.1159C232.131 50.357 231.081 53.853 231.535 57.8085L231.727 59.8328L225.642 60.1557ZM224.537 71.1528C224.375 68.2716 226.207 66.1355 228.933 65.9865C231.659 65.8374 233.646 67.75 233.807 70.6374C233.957 73.3634 232.286 75.5616 229.405 75.723C226.654 75.8783 224.667 73.8788 224.512 71.1528H224.537Z" fill="#C6CBCB"/>
<path d="M51.4533 44.9485L44.4489 41.7754L43.474 43.9177C43.33 44.2238 43.1054 44.485 42.8242 44.6732C42.5431 44.8613 42.216 44.9694 41.8781 44.9857C41.4932 44.9983 41.1095 45.0357 40.7293 45.0975C40.3956 45.1471 40.0548 45.1051 39.7431 44.976C39.4314 44.847 39.1606 44.6357 38.9596 44.3648L37.5873 42.446L31.3342 46.9293L32.7065 48.8481C32.8974 49.125 33.0097 49.4485 33.0316 49.7841C33.0535 50.1197 32.9841 50.455 32.8307 50.7544C32.6537 51.0959 32.4941 51.4461 32.3526 51.8038C32.2296 52.1192 32.023 52.3951 31.7549 52.6019C31.4869 52.8087 31.1675 52.9385 30.8312 52.9774L28.4902 53.2072L29.2416 60.8636L31.595 60.6276C31.9325 60.6006 32.271 60.6662 32.5741 60.8171C32.8771 60.9681 33.1333 61.1988 33.3151 61.4845C33.4144 61.646 33.52 61.8012 33.6318 61.9564C33.7435 62.1117 33.8553 62.2607 33.9733 62.4097C34.1876 62.6705 34.3254 62.9855 34.3714 63.3198C34.4175 63.6542 34.3699 63.9947 34.2341 64.3036L33.253 66.4646L40.2636 69.6439L41.2385 67.4891C41.3838 67.1832 41.6098 66.9228 41.892 66.7357C42.1743 66.5486 42.5022 66.442 42.8406 66.4273C43.2212 66.4116 43.6006 66.3743 43.9769 66.3155C44.3106 66.266 44.6515 66.308 44.9632 66.437C45.2749 66.5661 45.5457 66.7773 45.7467 67.0483L47.119 68.967L53.3782 64.4837L52.0059 62.565C51.8092 62.2905 51.6933 61.9665 51.6713 61.6296C51.6494 61.2926 51.7222 60.9563 51.8817 60.6586C52.0547 60.3191 52.2102 59.9709 52.3474 59.6154C52.4669 59.2977 52.6725 59.0196 52.9412 58.8123C53.21 58.605 53.5312 58.4767 53.8688 58.4418L56.2222 58.2059L55.4647 50.5495L53.1112 50.7792C52.7758 50.8087 52.4388 50.7448 52.1374 50.5947C51.8361 50.4446 51.5821 50.214 51.4036 49.9285C51.298 49.7671 51.1925 49.6118 51.0807 49.4566C50.9689 49.3014 50.8572 49.1461 50.7392 49.0033C50.5263 48.7394 50.3896 48.4224 50.3436 48.0864C50.2976 47.7505 50.3442 47.4084 50.4784 47.097L51.4533 44.9485ZM47.4791 52.0336C48.2053 53.0469 48.6146 54.2528 48.6554 55.4988C48.6961 56.7447 48.3664 57.9748 47.7081 59.0334C47.0497 60.092 46.0921 60.9316 44.9566 61.446C43.821 61.9603 42.5584 62.1264 41.3284 61.9231C40.0984 61.7199 38.9564 61.1564 38.0466 60.3041C37.1369 59.4517 36.5004 58.3487 36.2176 57.1346C35.9348 55.9204 36.0184 54.6497 36.4578 53.4831C36.8973 52.3165 37.6728 51.3064 38.6864 50.5805C40.0451 49.6075 41.7347 49.2139 43.3836 49.4864C45.0325 49.7589 46.5057 50.6751 47.4791 52.0336Z" fill="#E4E9E9"/>
<path d="M368.078 146.536L363.409 149.231L364.234 150.659C364.358 150.864 364.419 151.1 364.412 151.339C364.404 151.578 364.327 151.81 364.191 152.007C364.048 152.23 363.912 152.46 363.787 152.702C363.685 152.916 363.524 153.097 363.323 153.222C363.121 153.348 362.888 153.413 362.651 153.41H361.012V158.806H362.663C362.901 158.803 363.134 158.868 363.335 158.994C363.537 159.119 363.698 159.3 363.8 159.514C363.924 159.756 364.061 159.986 364.203 160.21C364.34 160.406 364.416 160.638 364.424 160.877C364.432 161.116 364.37 161.352 364.247 161.557L363.421 162.985L368.091 165.68L368.923 164.246C369.043 164.042 369.218 163.876 369.428 163.767C369.637 163.657 369.873 163.608 370.109 163.625H370.904C371.139 163.609 371.375 163.658 371.584 163.768C371.794 163.877 371.969 164.043 372.09 164.246L372.922 165.686L377.585 162.991L376.759 161.557C376.642 161.351 376.584 161.116 376.593 160.879C376.602 160.642 376.677 160.413 376.809 160.216C376.952 159.992 377.088 159.756 377.213 159.52C377.315 159.306 377.476 159.126 377.677 159C377.879 158.875 378.112 158.81 378.349 158.812H380.001V153.416H378.336C378.099 153.419 377.866 153.354 377.665 153.229C377.463 153.103 377.302 152.923 377.2 152.708C377.076 152.472 376.939 152.237 376.796 152.013C376.664 151.816 376.589 151.586 376.581 151.349C376.572 151.112 376.629 150.878 376.747 150.672L377.573 149.237L372.909 146.542L372.077 147.958C371.957 148.162 371.782 148.327 371.572 148.437C371.363 148.547 371.127 148.596 370.891 148.579H370.494H370.096C369.86 148.595 369.623 148.545 369.413 148.436C369.203 148.326 369.027 148.161 368.904 147.958L368.078 146.536ZM370.494 151.69C371.369 151.689 372.224 151.947 372.952 152.433C373.68 152.918 374.248 153.608 374.583 154.416C374.919 155.225 375.007 156.114 374.837 156.972C374.666 157.83 374.245 158.619 373.626 159.238C373.008 159.856 372.219 160.277 371.361 160.448C370.503 160.618 369.613 160.53 368.805 160.195C367.997 159.859 367.307 159.292 366.821 158.564C366.336 157.836 366.077 156.98 366.079 156.105C366.078 155.525 366.192 154.95 366.413 154.414C366.635 153.877 366.96 153.39 367.37 152.979C367.78 152.569 368.267 152.243 368.803 152.021C369.339 151.798 369.913 151.684 370.494 151.684V151.69Z" fill="#E4E9E9"/>
<path d="M65.6221 22.0049L61.3437 25.2836L62.331 26.5938C62.4783 26.7805 62.5689 27.0056 62.592 27.2422C62.6151 27.4789 62.5698 27.7172 62.4614 27.9289C62.3426 28.1706 62.2389 28.4194 62.1509 28.674C62.0744 28.8983 61.9368 29.0967 61.7536 29.247C61.5704 29.3973 61.3488 29.4935 61.1139 29.5247L59.4746 29.7358L60.1701 35.0823L61.8094 34.8711C62.048 34.8379 62.2912 34.8727 62.5109 34.9716C62.7306 35.0704 62.918 35.2293 63.0513 35.43C63.2009 35.646 63.3626 35.8533 63.5357 36.0509C63.6957 36.2269 63.8018 36.445 63.8414 36.6795C63.881 36.9139 63.8525 37.1549 63.7592 37.3736L63.1383 38.9011L68.1059 40.9689L68.7269 39.4414C68.8193 39.2222 68.9712 39.0334 69.1655 38.8962C69.3598 38.759 69.5886 38.679 69.826 38.6652L70.2234 38.6217L70.6146 38.5596C70.8444 38.5163 71.0817 38.5368 71.3006 38.6189C71.5196 38.701 71.7119 38.8416 71.8565 39.0253L72.8687 40.348L77.1471 37.0693L76.1473 35.7591C76.0029 35.5698 75.9142 35.344 75.8912 35.107C75.8682 34.8701 75.9117 34.6314 76.0169 34.4178C76.1347 34.1777 76.2383 33.931 76.3274 33.6789C76.404 33.4546 76.5416 33.2562 76.7248 33.1059C76.908 32.9556 77.1295 32.8594 77.3644 32.8282L79.0038 32.6171L78.3083 27.2706L76.6689 27.4818C76.4309 27.5157 76.1882 27.4818 75.9685 27.3841C75.7488 27.2863 75.5612 27.1286 75.427 26.9291C75.2718 26.7056 75.1103 26.4944 74.9365 26.3082C74.7918 26.1285 74.6982 25.9132 74.6654 25.6848C74.6326 25.4565 74.6619 25.2235 74.7502 25.0104L75.3711 23.4828L70.4035 21.415L69.7825 22.9426C69.6889 23.1609 69.5367 23.349 69.3426 23.486C69.1486 23.623 68.9205 23.7036 68.6834 23.7188L68.286 23.756L67.9196 23.7685C67.6898 23.8118 67.4526 23.7912 67.2336 23.7091C67.0147 23.627 66.8224 23.4865 66.6777 23.3027L65.6221 22.0049ZM68.6834 26.8049C69.5484 26.6937 70.4269 26.8412 71.2082 27.2287C71.9895 27.6163 72.6385 28.2265 73.0733 28.9824C73.5082 29.7384 73.7094 30.6062 73.6516 31.4764C73.5939 32.3465 73.2797 33.1801 72.7487 33.8719C72.2177 34.5638 71.4937 35.0828 70.6681 35.3637C69.8425 35.6445 68.9522 35.6746 68.1095 35.45C67.2668 35.2254 66.5095 34.7563 65.9331 34.1019C65.3567 33.4474 64.987 32.6369 64.8707 31.7726C64.7931 31.1958 64.8303 30.6094 64.9802 30.047C65.1301 29.4847 65.3896 28.9575 65.744 28.4958C66.0983 28.0342 66.5404 27.6471 67.0449 27.3569C67.5493 27.0667 68.1062 26.8791 68.6834 26.8049Z" fill="#E4E9E9"/>
<path d="M33.6561 162.104C33.8894 156.102 33.8065 150.091 33.4077 144.097C32.5192 131.719 30.6316 119.434 27.7632 107.361C26.186 100.568 24.2486 93.8863 22.2243 87.2111C22.1622 87.0062 21.8393 87.062 21.8951 87.2732C28.1482 110.807 33.2773 135.087 32.9234 159.552C32.824 166.383 32.0292 173.12 31.3834 179.926C31.3834 180.106 31.6628 180.18 31.7063 179.994C32.9917 174.151 33.4139 168.053 33.6561 162.104Z" fill="#E4E9E9"/>
<path d="M21.897 87.2549C21.897 87.2549 12.4336 111.286 14.5511 116.912C16.6685 122.538 21.0401 123.742 21.0401 123.742C21.0401 123.742 15.2465 132.013 19.2952 139.769C23.3438 147.525 32.3353 147.158 32.9563 155.951C32.9376 155.995 33.4344 119.228 21.897 87.2549Z" fill="#E4E9E9"/>
<path d="M31.9033 140.811C31.9186 140.771 31.9186 140.727 31.9033 140.687C30.6613 124.281 27.5828 108.065 22.7256 92.3455C22.7256 92.3021 22.6324 92.3145 22.6448 92.3455C24.5201 99.383 26.176 106.449 27.6125 113.545C26.3403 112.34 24.786 111.473 23.0919 111.024C23.0919 111.024 23.0423 111.061 23.0919 111.074C24.8716 111.726 26.4717 112.79 27.7615 114.178C28.0348 115.575 28.308 116.966 28.5626 118.364C26.4451 115.998 23.5142 114.824 20.5771 113.706C20.5704 113.709 20.5648 113.714 20.5608 113.72C20.5568 113.726 20.5547 113.733 20.5547 113.741C20.5547 113.748 20.5568 113.755 20.5608 113.761C20.5648 113.767 20.5704 113.772 20.5771 113.775C23.6384 115.017 26.6811 116.619 28.7551 119.258C29.4754 123.244 30.1088 127.245 30.6552 131.261C29.1263 129.659 27.1656 128.535 25.0107 128.026C24.9424 128.026 24.9051 128.106 24.9734 128.125C27.187 128.777 29.1632 130.058 30.6614 131.813H30.6987C30.885 133.221 31.063 134.635 31.2327 136.055C30.0499 135.054 28.7145 134.249 27.2772 133.67C27.2399 133.67 27.2151 133.714 27.2772 133.726C28.744 134.361 30.0872 135.251 31.2451 136.353C31.2451 136.353 31.2762 136.353 31.2948 136.353C31.45 137.7 31.6053 139.048 31.7419 140.395C29.6096 137.817 26.8423 135.84 23.7129 134.657C23.6997 134.657 23.6871 134.663 23.6778 134.672C23.6685 134.681 23.6632 134.694 23.6632 134.707C23.6632 134.72 23.6685 134.733 23.6778 134.742C23.6871 134.752 23.6997 134.757 23.7129 134.757C26.803 136.119 29.5174 138.209 31.6239 140.848C31.6471 140.877 31.6784 140.899 31.7138 140.91C31.7492 140.921 31.7871 140.921 31.8226 140.91C32.0275 142.978 32.2138 145.046 32.3628 147.12C32.3628 147.151 32.4125 147.151 32.4125 147.12C32.2511 145.038 32.0813 142.935 31.9033 140.811Z" fill="white"/>
<path d="M24.2995 108.659C22.5856 107.592 20.6278 106.981 18.6115 106.883C18.6016 106.883 18.5921 106.887 18.5851 106.894C18.5781 106.901 18.5742 106.91 18.5742 106.92C18.5742 106.93 18.5781 106.939 18.5851 106.946C18.5921 106.953 18.6016 106.957 18.6115 106.957C20.5608 107.327 22.4526 107.953 24.2374 108.82C24.3119 108.839 24.3678 108.708 24.2995 108.659Z" fill="white"/>
<path d="M25.4485 134.1C24.1313 133.344 22.6808 132.848 21.1763 132.641C21.1267 132.641 21.1205 132.709 21.1763 132.721C22.6455 133.016 24.0666 133.513 25.3989 134.199C25.4547 134.23 25.5044 134.131 25.4485 134.1Z" fill="white"/>
<path d="M58.5444 117.328C54.541 120.095 50.8643 123.307 47.5845 126.903C44.2022 130.71 41.5932 135.139 39.9033 139.943C36.3066 149.952 34.3726 160.481 34.178 171.115C34.0574 177.004 34.6221 182.886 35.8608 188.644C35.8709 188.686 35.8966 188.723 35.9328 188.746C35.9689 188.769 36.0127 188.778 36.055 188.77C36.0972 188.762 36.1349 188.738 36.16 188.703C36.1851 188.668 36.1958 188.625 36.1899 188.582C34.6486 178.421 34.7072 168.081 36.3638 157.938C37.9907 148.003 40.5429 137.186 46.8642 129.107C50.3043 124.705 54.5951 121.246 58.8363 117.669C59.0598 117.471 58.7742 117.166 58.5444 117.328Z" fill="#E4E9E9"/>
<path d="M35.5664 163.948C37.8452 160.262 40.5232 156.839 43.5519 153.74C48.2898 149.002 52.2764 145.636 52.8973 142.507C53.5183 139.377 48.1532 137.067 48.1532 137.067C48.1532 137.067 54.7043 138.247 56.4989 135.496C58.2935 132.745 59.1566 116.812 59.1566 116.812C59.1566 116.812 47.2342 125.325 41.6766 137.26C36.1191 149.194 35.5664 163.948 35.5664 163.948Z" fill="#E4E9E9"/>
<path d="M54.881 131.758C54.096 131.642 53.3001 131.615 52.509 131.678C52.4158 131.678 52.422 131.839 52.509 131.845C53.2914 131.845 54.08 131.808 54.8624 131.845C54.8713 131.843 54.8795 131.838 54.8859 131.832C54.8922 131.825 54.8967 131.817 54.8986 131.808C54.9005 131.799 54.8999 131.789 54.8968 131.781C54.8937 131.772 54.8882 131.764 54.881 131.758Z" fill="white"/>
<path d="M46.3187 147.215C45.0597 147.24 43.8152 147.489 42.6426 147.948C42.6426 147.948 42.6426 148.01 42.6426 148.003C43.8845 147.712 45.0829 147.594 46.3124 147.383C46.3285 147.375 46.3422 147.364 46.3521 147.35C46.362 147.335 46.3675 147.318 46.3682 147.301C46.3688 147.283 46.3645 147.266 46.3558 147.251C46.347 147.235 46.3341 147.223 46.3187 147.215Z" fill="white"/>
<path d="M43.7472 141.874C43.2245 141.87 42.7026 141.916 42.1886 142.011C42.1791 142.014 42.1709 142.021 42.1651 142.029C42.1593 142.037 42.1562 142.047 42.1562 142.057C42.1562 142.068 42.1593 142.077 42.1651 142.086C42.1709 142.094 42.1791 142.101 42.1886 142.104C42.7091 142.134 43.2314 142.111 43.7472 142.036C43.7687 142.036 43.7892 142.027 43.8043 142.012C43.8195 141.997 43.828 141.976 43.828 141.955C43.828 141.934 43.8195 141.913 43.8043 141.898C43.7892 141.883 43.7687 141.874 43.7472 141.874Z" fill="white"/>
<path d="M0.613715 134.229C4.4942 135.545 8.21273 137.297 11.6978 139.451C15.3139 141.749 18.4497 144.727 20.9315 148.219C26.1531 155.488 30.151 163.561 32.7669 172.12C34.2259 176.859 35.1262 181.752 35.4495 186.7C35.4427 186.732 35.4251 186.76 35.3997 186.781C35.3742 186.802 35.3425 186.813 35.3098 186.813C35.277 186.813 35.2453 186.802 35.2198 186.781C35.1944 186.76 35.1768 186.732 35.17 186.7C34.0739 178.121 31.6392 169.767 27.9545 161.942C24.3343 154.273 19.7703 146.114 12.7907 141.035C8.99044 138.271 4.71825 136.458 0.458475 134.546C0.23493 134.471 0.39017 134.155 0.613715 134.229Z" fill="#E4E9E9"/>
<path d="M29.9861 166.652C27.2883 164.197 24.3293 162.046 21.1623 160.237C16.2318 157.499 12.2267 155.698 11.0034 153.308C9.78009 150.917 13.5866 147.812 13.5866 147.812C13.5866 147.812 8.5568 150.296 6.47038 148.464C4.38396 146.632 0 133.965 0 133.965C0 133.965 11.6181 138.094 18.8647 146.471C26.1113 154.848 29.9861 166.652 29.9861 166.652Z" fill="#E4E9E9"/>
<path d="M20.3448 154.989C19.2025 154.91 18.0556 155.051 16.9668 155.405C16.9668 155.405 16.9668 155.461 16.9668 155.455C18.0776 155.265 19.1999 155.148 20.3262 155.107C20.4069 155.107 20.4255 154.996 20.3448 154.989Z" fill="white"/>
<path d="M10.2072 141.699C9.68609 141.656 9.16165 141.685 8.64855 141.786C8.59267 141.786 8.6113 141.885 8.64855 141.879C9.16395 141.823 9.66692 141.841 10.1761 141.829C10.1919 141.83 10.2075 141.825 10.2201 141.815C10.2327 141.806 10.2416 141.792 10.2453 141.777C10.2489 141.761 10.2471 141.745 10.2402 141.731C10.2332 141.717 10.2216 141.705 10.2072 141.699Z" fill="white"/>
<path d="M44.9711 202.715H18.748L22.4862 175.325L23.4425 168.302H40.2767L41.233 175.325L44.9711 202.715Z" fill="#C6CBCB"/>
<path d="M41.2331 175.325H22.4863L23.4426 168.302H40.2768L41.2331 175.325Z" fill="#C7C7C7"/>
<path d="M42.6779 165.867H21.0312V171.816H42.6779V165.867Z" fill="#C6CBCB"/>
<path d="M2.07422 202.716L49.2733 202.567L96.4723 202.511L190.87 202.405L285.268 202.511L332.467 202.567L379.666 202.716L332.467 202.871L285.268 202.921L190.87 203.026L96.4723 202.921L49.2733 202.865L2.07422 202.716Z" fill="#263238"/>
<path d="M192.11 248.995C290.446 248.995 370.164 240.26 370.164 229.485C370.164 218.71 290.446 209.975 192.11 209.975C93.7739 209.975 14.0566 218.71 14.0566 229.485C14.0566 240.26 93.7739 248.995 192.11 248.995Z" fill="#E4E9E9"/>
<path d="M150.664 226.256C149.217 226.746 107.731 226.877 106.141 225.895C105.52 225.523 105.166 219.481 104.899 212.166C104.844 210.589 104.8 208.956 104.763 207.304L101.453 185.173L129.191 184.993L131.806 207.13L131.7 211.998C131.7 211.998 147.609 219.046 149.236 220.326C150.863 221.605 152.111 225.765 150.664 226.256Z" fill="#EB9481"/>
<path d="M150.665 226.256C149.219 226.747 107.732 226.877 106.143 225.896C105.41 225.437 105.013 216.613 104.789 207.305L131.776 207.131L131.67 211.999C131.67 211.999 147.579 219.047 149.206 220.326C150.833 221.605 152.112 225.766 150.665 226.256Z" fill="white"/>
<path d="M150.661 226.254C149.214 226.745 107.728 226.875 106.138 225.894C105.517 225.521 105.163 219.48 104.896 212.165L131.641 211.997C131.641 211.997 147.55 219.045 149.177 220.324C150.804 221.603 152.108 225.764 150.661 226.254Z" fill="#A6A6A6"/>
<path d="M150.06 224.597C143.105 224.448 115.038 224.517 108.151 224.902C108.095 224.902 108.095 224.939 108.151 224.945C115.044 225.237 143.111 224.945 150.06 224.709C150.209 224.703 150.209 224.597 150.06 224.597Z" fill="#263238"/>
<path d="M146.528 218.841C145.755 218.824 144.986 218.967 144.271 219.262C143.556 219.557 142.91 219.997 142.374 220.555C141.397 221.55 140.845 222.886 140.834 224.281C140.834 224.324 140.908 224.324 140.915 224.281C141.146 222.907 141.815 221.645 142.822 220.682C143.829 219.72 145.12 219.109 146.503 218.941C146.516 218.944 146.53 218.942 146.542 218.935C146.554 218.928 146.562 218.917 146.565 218.903C146.569 218.89 146.567 218.876 146.56 218.865C146.553 218.853 146.541 218.845 146.528 218.841Z" fill="#263238"/>
<path d="M134.363 212.681C131.581 212.65 128.358 213.644 126.632 215.929C126.57 216.016 126.694 216.109 126.775 216.066C129.205 214.783 131.766 213.763 134.413 213.023C134.454 213.012 134.489 212.986 134.512 212.95C134.535 212.915 134.545 212.872 134.539 212.83C134.533 212.788 134.511 212.75 134.479 212.722C134.447 212.695 134.405 212.68 134.363 212.681Z" fill="#263238"/>
<path d="M136.522 213.508C133.734 213.508 130.511 214.477 128.791 216.755C128.723 216.849 128.847 216.942 128.934 216.898C131.361 215.611 133.92 214.589 136.566 213.849C136.606 213.838 136.641 213.813 136.664 213.778C136.688 213.743 136.697 213.701 136.692 213.66C136.687 213.618 136.667 213.58 136.635 213.552C136.604 213.524 136.564 213.508 136.522 213.508Z" fill="#263238"/>
<path d="M138.672 214.338C135.89 214.338 132.667 215.3 130.941 217.586C130.879 217.672 131.003 217.766 131.083 217.722C133.514 216.439 136.074 215.419 138.721 214.679C138.762 214.668 138.798 214.642 138.821 214.607C138.844 214.571 138.854 214.529 138.847 214.487C138.841 214.445 138.82 214.406 138.788 214.379C138.755 214.352 138.714 214.337 138.672 214.338Z" fill="#263238"/>
<path d="M140.826 215.172C138.038 215.141 134.815 216.134 133.095 218.419C133.027 218.506 133.157 218.599 133.238 218.556C135.668 217.272 138.229 216.252 140.876 215.513C140.917 215.502 140.952 215.476 140.975 215.441C140.999 215.405 141.008 215.362 141.002 215.32C140.996 215.278 140.975 215.24 140.942 215.213C140.91 215.185 140.869 215.171 140.826 215.172Z" fill="#263238"/>
<path d="M109.905 218.288C106.8 218.288 106.8 223.163 109.905 223.144C113.01 223.125 113.034 218.27 109.905 218.288Z" fill="#263238"/>
<path d="M137.349 205.242C135.939 204.074 134.163 205.242 133.3 206.44C131.863 208.558 131.007 211.016 130.816 213.569C130.816 213.624 130.86 213.649 130.903 213.649C130.914 213.702 130.938 213.751 130.972 213.793C131.006 213.834 131.049 213.867 131.099 213.888C131.148 213.91 131.201 213.919 131.255 213.915C131.309 213.911 131.36 213.895 131.406 213.867C133.381 212.494 135.666 211.265 137.163 209.321C138.013 208.191 138.709 206.328 137.349 205.242ZM133.958 211.165C133.002 211.867 132.015 212.519 131.083 213.258C131.58 211.867 132.009 210.464 132.642 209.123C132.935 208.479 133.271 207.857 133.648 207.26C134.269 206.334 136.976 204 137.262 207.024C137.423 208.682 135.095 210.333 133.958 211.165Z" fill="#263238"/>
<path d="M123.886 214.625C126.307 214.985 128.81 214.29 131.188 213.911C131.24 213.897 131.287 213.872 131.327 213.837C131.368 213.801 131.399 213.757 131.419 213.708C131.439 213.658 131.447 213.605 131.442 213.552C131.438 213.498 131.421 213.447 131.393 213.402C131.402 213.395 131.409 213.386 131.414 213.375C131.419 213.365 131.422 213.354 131.422 213.343C131.422 213.331 131.419 213.32 131.414 213.31C131.409 213.299 131.402 213.291 131.393 213.284C129.482 211.579 127.156 210.408 124.649 209.887C123.184 209.608 121.11 210.011 120.924 211.831C120.7 213.544 122.47 214.401 123.886 214.625ZM122.197 213.048C120.334 210.663 123.892 210.458 124.96 210.707C125.653 210.88 126.333 211.1 126.997 211.365C128.355 211.928 129.683 212.56 130.977 213.259C129.797 213.377 128.636 213.588 127.462 213.749C126.059 213.936 123.24 214.358 122.197 213.048Z" fill="#263238"/>
<path d="M60.666 82.8828C60.666 82.8828 92.8751 137.676 93.7382 141.526C95.0609 147.437 102.072 205.813 102.072 205.813L135.603 205.192C135.603 205.192 129.828 153.721 124.358 136.763C120.421 124.549 91.9934 84.0378 91.9934 84.0378L60.666 82.8828Z" fill="#37474F"/>
<path d="M132.554 200.076C127.741 200.039 110.683 199.846 104.275 200.442C104.226 200.442 104.232 200.529 104.275 200.535C106.48 200.852 127.735 200.361 132.547 200.206C132.557 200.21 132.568 200.211 132.579 200.21C132.589 200.208 132.6 200.205 132.609 200.199C132.617 200.193 132.625 200.185 132.63 200.176C132.635 200.166 132.638 200.156 132.639 200.145C132.639 200.135 132.637 200.124 132.633 200.114C132.629 200.104 132.622 200.096 132.614 200.089C132.605 200.082 132.596 200.078 132.585 200.075C132.575 200.073 132.564 200.073 132.554 200.076Z" fill="#263238"/>
<path d="M66.1643 87.9114C68.2755 91.2211 70.511 94.4625 72.6595 97.7474C74.808 101.032 76.9689 104.317 79.0988 107.596C83.3462 114.219 87.4859 120.886 91.518 127.597C93.4858 130.707 95.1692 133.989 96.5478 137.402C97.8061 140.815 98.7518 144.336 99.3731 147.921C100.031 151.516 100.466 155.148 100.87 158.781C101.284 162.643 101.716 166.508 102.167 170.374C103.049 178.285 103.933 186.196 104.819 194.107C104.924 195.076 105.03 196.045 105.129 197.019C105.129 197.162 104.887 197.187 104.869 197.019C103.881 189.164 103.062 181.278 102.167 173.423C101.72 169.503 101.275 165.585 100.832 161.668C100.416 158.023 100.019 154.372 99.4538 150.752C98.9353 147.179 98.1465 143.65 97.0942 140.196C95.9347 136.619 94.3811 133.183 92.4619 129.95C88.5809 123.25 84.4701 116.668 80.3594 110.08C76.2486 103.491 72.0261 96.847 67.6918 90.3394C67.1578 89.5383 66.6176 88.7373 66.0587 87.9487C66.0152 87.9052 66.127 87.8493 66.1643 87.9114Z" fill="#263238"/>
<path d="M71.2239 229.485C69.6963 229.392 30.2407 213.408 29.1478 211.893C29.0991 211.804 29.0775 211.703 29.0857 211.602C29.0857 210.242 31.8241 205.498 34.1092 199.263C34.252 198.866 35.2704 197.015 36.68 194.525C40.5982 187.701 47.4288 175.946 47.4288 175.946L73.2172 186.192L60.8725 204.665L58.9538 209.136C58.9538 209.136 71.0562 221.649 72.0746 223.418C73.093 225.188 72.7452 229.572 71.2239 229.485Z" fill="#EB9481"/>
<path d="M71.2239 229.484C69.6963 229.391 30.2407 213.408 29.1478 211.893C29.0991 211.803 29.0775 211.702 29.0857 211.601C29.0857 210.241 31.8241 205.497 34.1092 199.262C34.252 198.865 35.2704 197.014 36.68 194.524L60.8974 204.665L58.9786 209.135C58.9786 209.135 71.0811 221.648 72.0994 223.417C73.1178 225.187 72.7452 229.571 71.2239 229.484Z" fill="white"/>
<path d="M71.2255 229.485C69.6979 229.391 30.2422 213.408 29.1494 211.893C28.7271 211.315 30.4906 205.932 34.117 199.263L58.9554 209.142C58.9554 209.142 71.0578 221.642 72.0824 223.424C73.107 225.206 72.7468 229.572 71.2255 229.485Z" fill="#A6A6A6"/>
<path d="M71.2869 227.721C64.8972 224.977 38.8542 214.507 32.3279 212.284C32.2721 212.284 32.2596 212.284 32.3279 212.321C38.6058 215.178 64.7295 225.436 71.262 227.845C71.3862 227.876 71.4235 227.777 71.2869 227.721Z" fill="#263238"/>
<path d="M70.1664 221.058C69.4579 220.747 68.6925 220.586 67.9186 220.586C67.1447 220.586 66.3792 220.747 65.6707 221.058C64.3968 221.616 63.387 222.643 62.8516 223.927C62.8516 223.964 62.9075 223.995 62.9261 223.958C63.6581 222.767 64.7563 221.846 66.0561 221.332C67.3558 220.818 68.7871 220.739 70.1354 221.108C70.1458 221.105 70.1548 221.098 70.1606 221.089C70.1663 221.08 70.1684 221.069 70.1664 221.058Z" fill="#263238"/>
<path d="M61.2089 210.787C58.6444 209.712 55.2788 209.427 52.826 210.898C52.7329 210.954 52.826 211.085 52.9067 211.079C55.641 210.801 58.397 210.816 61.1282 211.122C61.1702 211.127 61.2125 211.116 61.2471 211.091C61.2816 211.067 61.3062 211.031 61.3161 210.99C61.326 210.949 61.3205 210.905 61.3008 210.868C61.2811 210.831 61.2484 210.802 61.2089 210.787Z" fill="#263238"/>
<path d="M62.8906 212.365C60.326 211.291 56.9604 211.005 54.5076 212.477C54.4145 212.532 54.5077 212.663 54.5884 212.657C57.3225 212.376 60.0789 212.391 62.8099 212.7C62.8519 212.705 62.8941 212.694 62.9287 212.669C62.9633 212.645 62.9878 212.609 62.9977 212.568C63.0076 212.527 63.0022 212.484 62.9825 212.446C62.9627 212.409 62.9301 212.38 62.8906 212.365Z" fill="#263238"/>
<path d="M64.579 213.942C62.0083 212.868 58.6427 212.582 56.1961 214.054C56.0967 214.11 56.1961 214.24 56.2706 214.234C59.0047 213.953 61.7611 213.968 64.4921 214.277C64.535 214.284 64.579 214.275 64.6155 214.252C64.652 214.228 64.6782 214.191 64.6892 214.149C64.7001 214.107 64.6948 214.063 64.6744 214.024C64.654 213.986 64.62 213.956 64.579 213.942Z" fill="#263238"/>
<path d="M66.2626 215.519C63.6919 214.445 60.3325 214.159 57.8797 215.625C57.7803 215.687 57.8797 215.817 57.9542 215.811C60.6883 215.53 63.4447 215.545 66.1757 215.854C66.2186 215.861 66.2626 215.852 66.2991 215.829C66.3355 215.805 66.3618 215.769 66.3727 215.726C66.3837 215.684 66.3784 215.64 66.358 215.601C66.3376 215.563 66.3036 215.534 66.2626 215.519Z" fill="#263238"/>
<path d="M36.4241 206.806C33.5243 205.651 31.7235 210.165 34.6358 211.32C37.5481 212.475 39.3551 207.961 36.4241 206.806Z" fill="#263238"/>
<path d="M66.7672 205.013C65.8916 203.404 63.8238 203.802 62.5633 204.603C60.4398 206.025 58.7269 207.98 57.5956 210.272C57.5906 210.282 57.588 210.293 57.5879 210.305C57.5878 210.316 57.5902 210.327 57.595 210.337C57.5998 210.347 57.6068 210.356 57.6155 210.363C57.6242 210.37 57.6344 210.375 57.6453 210.378C57.6453 210.583 57.7819 210.825 58.0241 210.775C60.3775 210.235 62.9545 209.956 65.0657 208.714C66.2766 207.993 67.593 206.534 66.7672 205.013ZM61.3959 209.229C60.2471 209.521 59.0921 209.757 57.9558 210.092C58.8957 208.96 59.8926 207.876 60.9426 206.845C61.4595 206.352 62.0093 205.896 62.5881 205.478C63.4885 204.857 66.8914 203.709 66.022 206.621C65.5439 208.229 62.7682 208.881 61.3959 209.229Z" fill="#263238"/>
<path d="M50.7621 208.658C52.8733 209.9 55.4503 210.192 57.7975 210.738C58.0397 210.794 58.2011 210.552 58.1825 210.341C58.1942 210.34 58.2053 210.335 58.2148 210.329C58.2244 210.322 58.232 210.313 58.237 210.302C58.242 210.291 58.2442 210.28 58.2433 210.268C58.2425 210.256 58.2386 210.245 58.2322 210.235C57.1027 207.939 55.3896 205.98 53.2645 204.554C52.0226 203.746 49.9424 203.343 49.0606 204.945C48.1789 206.547 49.5263 207.932 50.7621 208.658ZM49.7934 206.559C48.9302 203.647 52.3269 204.802 53.2273 205.429C53.8054 205.847 54.3532 206.306 54.8666 206.801C55.9146 207.835 56.9094 208.921 57.8472 210.055C56.7108 209.72 55.5559 209.478 54.4071 209.186C53.0161 208.813 50.2653 208.192 49.7934 206.559Z" fill="#263238"/>
<path d="M62.8762 203.634L34.0078 191.979C34.0078 191.979 69.7998 139.353 70.0606 135.435C70.2966 131.97 54.574 101.779 53.9592 92.9799C53.2886 83.4793 57.8588 76.1334 62.8886 71.5693L92.6635 84.2306C92.6635 84.2306 89.5215 89.2541 84.5911 92.0546C84.5911 92.0546 99.8604 126.952 98.9911 137.682C98.1217 148.413 62.8762 203.634 62.8762 203.634Z" fill="#37474F"/>
<path d="M64.1566 198.145C59.9837 196.35 61.207 196.804 57.0093 195.04C54.9602 194.183 41.4854 188.576 39.4114 188.11C39.3679 188.11 39.3368 188.172 39.3803 188.197C41.1749 189.296 54.7615 194.668 56.8292 195.487C61.058 197.151 59.8595 196.63 64.1069 198.244C64.1132 198.253 64.1216 198.259 64.1313 198.264C64.141 198.268 64.1516 198.27 64.1621 198.269C64.1727 198.268 64.1828 198.264 64.1915 198.258C64.2003 198.252 64.2074 198.244 64.2121 198.235C64.2168 198.225 64.2191 198.215 64.2186 198.204C64.2181 198.194 64.2149 198.183 64.2094 198.174C64.2038 198.165 64.196 198.158 64.1868 198.153C64.1775 198.148 64.1671 198.145 64.1566 198.145Z" fill="#263238"/>
<path d="M89.4759 91.4153C86.376 92.1379 83.3431 93.1226 80.4099 94.3586C80.3981 94.3627 80.3872 94.3691 80.3778 94.3774C80.3684 94.3857 80.3608 94.3957 80.3553 94.407C80.3498 94.4182 80.3466 94.4304 80.3459 94.4429C80.3451 94.4554 80.3468 94.4679 80.3509 94.4797C80.355 94.4916 80.3613 94.5025 80.3696 94.5118C80.3779 94.5212 80.388 94.5288 80.3992 94.5343C80.4105 94.5398 80.4227 94.543 80.4352 94.5438C80.4477 94.5445 80.4602 94.5428 80.472 94.5387C83.5147 93.6508 86.6071 92.8187 89.6001 91.7693C89.8298 91.6885 89.7119 91.3656 89.4759 91.4153Z" fill="#263238"/>
<path d="M85.9265 90.211C85.6371 90.7256 85.382 91.2588 85.1627 91.8069C84.9484 92.2229 84.8156 92.6761 84.7715 93.142C84.7715 93.2351 84.8957 93.2537 84.9516 93.1978C85.2631 92.8252 85.5145 92.4062 85.6967 91.9559C85.9513 91.4654 86.2121 90.981 86.4543 90.4781C86.6219 90.1117 86.119 89.8757 85.9265 90.211Z" fill="#263238"/>
<path d="M86.3012 87.3927C86.4875 86.9332 86.6676 86.4799 86.8601 86.0204C87.0526 85.5609 87.2947 85.0889 87.481 84.6046C87.481 84.5301 87.6301 84.6046 87.599 84.6605C87.4127 85.12 87.2947 85.6043 87.1519 86.0763C87.0091 86.5482 86.8476 87.0201 86.6924 87.492C86.4006 88.3676 86.0715 89.2369 85.6678 90.0876C86.1564 90.112 86.6443 90.0272 87.096 89.8392C87.5574 89.544 87.9121 89.1088 88.1082 88.5973C88.369 88.0881 88.6112 87.5665 88.8782 87.0574C89.2068 86.5069 89.4833 85.9269 89.7041 85.3249C89.7041 85.2504 89.8531 85.3249 89.822 85.3808C89.4172 86.6535 88.8867 87.8829 88.2386 89.0506C87.9592 89.5039 87.7418 89.9821 87.2326 90.1559C86.6815 90.3101 86.1046 90.3502 85.5374 90.2739C85.4629 90.2739 85.376 90.2739 85.4008 90.1621C85.6551 89.2247 85.9556 88.3004 86.3012 87.3927Z" fill="#263238"/>
<path d="M85.0311 93.1909C86.093 95.4325 87.0244 97.668 88.0117 99.9034C88.9991 102.139 89.8746 104.3 90.7626 106.523C92.5385 111.006 94.1282 115.576 95.5253 120.184C96.2146 122.469 96.8542 124.773 97.4255 127.095C98.0547 129.41 98.5154 131.768 98.804 134.149C99.0531 136.527 98.8423 138.93 98.183 141.228C97.4982 143.499 96.6194 145.708 95.5564 147.829C94.9044 149.17 94.687 148.99 94.9975 148.313C95.8855 146.388 98.2141 140.557 98.0464 135.658C97.9106 133.312 97.5488 130.986 96.966 128.709C96.4237 126.362 95.813 124.034 95.1341 121.724C93.8115 117.166 92.2405 112.701 90.626 108.243C89.7194 105.759 88.7631 103.275 87.8317 100.791C86.9002 98.3075 85.9688 96.0224 84.9256 93.2778C84.8945 93.166 85.0001 93.1226 85.0311 93.1909Z" fill="#263238"/>
<path d="M63.119 85.7836C63.6344 85.5911 64.3609 85.9078 64.8825 85.9947C65.558 86.1094 66.2406 86.1778 66.9254 86.1997C67.6031 86.2235 68.2815 86.2007 68.956 86.1313C69.6352 86.1138 70.3009 85.9373 70.8996 85.616C71.8818 84.9004 72.7238 84.01 73.3834 82.9893C74.1694 81.9463 74.8184 80.8069 75.3146 79.5989C75.3146 79.5244 75.445 79.5989 75.4202 79.6486C75.2028 80.3378 75.0414 81.0333 74.7992 81.7101C74.5315 82.3461 74.2116 82.9588 73.8429 83.542C73.2451 84.7155 72.3609 85.7193 71.2722 86.4605C70.0737 87.1435 68.5337 87.0814 67.1987 87.0255C66.4244 86.9804 65.6544 86.8787 64.8949 86.7213C64.3485 86.6033 63.4295 86.5163 63.0817 86.0382C63.0654 86.0199 63.0532 85.9983 63.0462 85.9748C63.0391 85.9513 63.0373 85.9265 63.0408 85.9022C63.0444 85.8779 63.0532 85.8547 63.0667 85.8342C63.0802 85.8137 63.0981 85.7965 63.119 85.7836Z" fill="#263238"/>
<path d="M42.2495 186.458C46.9937 179.272 51.6509 172.027 56.2211 164.725C60.7914 157.422 65.2995 150.064 69.7456 142.65C70.8074 140.88 72.0307 139.117 72.7138 137.154C73.4589 135.024 73.0367 132.957 72.366 130.87C71.0997 127.064 69.6194 123.332 67.9324 119.693C66.2682 116.023 64.4736 112.415 62.7101 108.795C60.9466 105.175 59.1024 101.598 57.7425 97.823C56.5005 94.2153 55.9976 90.4772 56.9663 86.739C57.9349 83.0009 60.0214 79.6974 62.2009 76.5864C62.7722 75.7667 63.3621 74.9533 63.9396 74.1026C63.9831 74.0405 64.0762 74.1026 64.0328 74.1771C61.6297 77.4185 59.2886 80.8523 57.8791 84.6588C57.1586 86.5351 56.7557 88.5182 56.6868 90.5268C56.6751 92.5657 56.9917 94.5932 57.6245 96.5315C58.7919 100.307 60.6361 103.877 62.3562 107.429C64.0762 110.981 65.9143 114.657 67.6095 118.315C69.3583 121.996 70.9129 125.766 72.2667 129.61C72.8442 131.317 73.5086 133.106 73.4589 134.938C73.4154 136.943 72.4592 138.75 71.4656 140.439C67.1189 147.798 62.6667 155.069 58.1337 162.297C53.6007 169.525 48.9373 176.753 44.218 183.906L42.4296 186.607C42.3365 186.719 42.175 186.589 42.2495 186.458Z" fill="#263238"/>
<path d="M94.3171 50.7607C97.0058 56.6598 110.586 64.7881 116.945 65.6637C121.515 66.2846 135.412 66.5082 140.175 65.7816C145.763 64.9247 141.491 49.8666 138.194 50.2578C129.128 51.3134 121.428 52.4932 119.006 52.4932C116.051 52.4932 100.061 47.3641 98.136 46.6376C93.4167 44.8803 92.7957 47.4138 94.3171 50.7607Z" fill="#EB9481"/>
<path d="M94.4024 52.3327C97.8053 57.3686 109.113 65.6025 109.113 65.6025L110.684 62.1252L115.881 50.6251C115.881 50.6251 105.493 47.3651 98.656 45.8748C97.8514 45.6917 97.0331 45.5753 96.2094 45.527C91.8441 45.2911 91.4653 47.986 94.4024 52.3327Z" fill="#F8E8DB"/>
<path d="M94.4024 52.3325C97.8053 57.3685 109.113 65.6023 109.113 65.6023L110.684 62.125C106.468 57.2256 99.9538 49.8052 96.2094 45.5393C91.8441 45.2909 91.4653 47.9858 94.4024 52.3325Z" fill="#263238"/>
<path d="M107.079 63.2664C107.942 61.149 111.779 52.6233 112.736 50.8473C112.798 50.7231 112.897 50.7356 112.841 50.8473C111.176 55.0872 109.282 59.233 107.166 63.2664C107.141 63.341 107.041 63.3161 107.079 63.2664Z" fill="#263238"/>
<path d="M136.531 50.4139C142.045 49.6936 148.87 48.4579 154.651 50.9107C155.3 51.1654 155.845 51.6313 156.197 52.2333C158.805 53.289 159.091 54.8351 159.091 54.8351C161.221 56.5614 161.295 58.1883 161.295 58.1883C161.295 58.1883 164.35 59.4302 163.884 61.4297C163.375 63.6403 159.19 61.4297 156.147 61.6098C149.162 62.0444 139.381 64.609 137.363 64.9319L136.531 50.4139Z" fill="#EB9481"/>
<path d="M148.508 56.9209C150.551 56.7812 152.601 56.7812 154.643 56.9209C156.868 57.2 159.068 57.6463 161.225 58.256C161.239 58.2609 161.255 58.2601 161.268 58.2537C161.282 58.2473 161.292 58.2358 161.297 58.2218C161.302 58.2078 161.301 58.1924 161.294 58.1791C161.288 58.1657 161.277 58.1554 161.263 58.1504C157.21 56.5602 152.798 56.1135 148.508 56.8588C148.409 56.8464 148.409 56.9271 148.508 56.9209Z" fill="#263238"/>
<path d="M147.208 50.4693C150.617 50.6432 152.747 51.1897 156.175 52.2204V52.1832C152.399 50.606 150.853 50.4569 147.19 50.3203C147.072 50.37 147.078 50.4693 147.208 50.4693Z" fill="#263238"/>
<path d="M147.764 62.665C146.876 63.0811 147.094 63.5468 148.789 63.938C150.484 64.3292 157.532 64.4472 157.284 66.9062C157.035 69.3651 147.094 69.0547 144.318 68.1853C141.542 67.316 137.363 64.9315 137.363 64.9315C139.332 64.6024 143.952 63.3543 147.764 62.665Z" fill="#EB9481"/>
<path d="M101.698 60.1621C101.655 61.224 101.556 62.3044 101.407 63.3787C101.407 63.3352 101.407 63.298 101.45 63.2607C101.655 62.7019 101.86 62.1306 102.108 61.5903C102.108 61.5903 102.17 61.5903 102.164 61.5903C102.045 62.1823 101.866 62.7607 101.63 63.3166C101.518 63.5836 101.413 63.8444 101.295 64.1052C101.22 64.5834 101.133 65.0553 101.04 65.5272C100.854 66.4152 100.016 70.1906 99.7983 70.8302C99.761 70.9606 99.5996 70.9295 99.612 70.7805C99.6555 70.085 100.357 66.1544 100.5 65.2602C100.777 63.5337 101.148 61.8235 101.611 60.1373C101.643 60.1063 101.705 60.1311 101.698 60.1621Z" fill="#263238"/>
<path d="M95.2415 88.3968C93.5835 89.2476 91.4474 90.5702 81.8226 88.6763C81.2016 88.5521 80.6179 88.403 80.0094 88.223C70.9869 85.5156 60.1387 74.9035 59.5488 74.1521C59.5488 74.1521 73.8867 50.9098 92.2236 43.6011C94.4901 42.7008 98.2407 44.4394 100.296 46.6066C101.035 47.3828 102.643 53.0893 102.029 57.7092C101.414 62.3291 96.8933 87.5461 95.2415 88.3968Z" fill="#F8E8DB"/>
<path d="M93.9486 57.498C94.0178 58.4802 93.8803 59.466 93.545 60.3917C93.4662 59.4092 93.604 58.4215 93.9486 57.498Z" fill="white"/>
<path d="M87.6963 73.3281C87.7358 73.8169 87.7191 74.3086 87.6466 74.7936C87.5868 75.2822 87.4679 75.7618 87.2926 76.2218C87.2499 75.731 87.2665 75.2369 87.3423 74.7501C87.4058 74.2642 87.5245 73.7871 87.6963 73.3281Z" fill="white"/>
<path d="M77.0733 61.3613C77.1432 62.3455 77.0057 63.3335 76.6697 64.2612C76.5916 63.2767 76.7294 62.2871 77.0733 61.3613Z" fill="white"/>
<path d="M98.0439 72.5195C98.0836 73.0104 98.0669 73.5041 97.9942 73.9912C97.9344 74.4798 97.8156 74.9594 97.6403 75.4194C97.5975 74.9286 97.6142 74.4345 97.69 73.9477C97.7527 73.4597 97.8715 72.9804 98.0439 72.5195Z" fill="white"/>
<path d="M84.3965 59.3112C84.885 59.2696 85.3767 59.2842 85.8619 59.3546C86.3508 59.4166 86.8304 59.5375 87.2902 59.7148C86.3079 59.7853 85.3219 59.6478 84.3965 59.3112Z" fill="white"/>
<path d="M72.3398 70.743C73.322 70.6738 74.3078 70.8113 75.2335 71.1466C74.251 71.2254 73.2633 71.0876 72.3398 70.743Z" fill="white"/>
<path d="M86.5469 83.1195C87.5291 83.049 88.5151 83.1865 89.4405 83.5232C88.4581 83.6007 87.4706 83.4629 86.5469 83.1195Z" fill="white"/>
<path d="M68.6211 78.6229C69.6033 78.5537 70.589 78.6912 71.5148 79.0265C70.5323 79.1041 69.5448 78.9663 68.6211 78.6229Z" fill="white"/>
<path d="M93.8574 46.371C94.8396 46.3017 95.8254 46.4392 96.7511 46.7746C95.7689 46.8438 94.7832 46.7063 93.8574 46.371Z" fill="white"/>
<path d="M90.351 50.333C90.0371 50.7104 89.6784 51.0482 89.2829 51.339C88.8982 51.6365 88.4817 51.8906 88.041 52.0965C88.3529 51.7216 88.7071 51.384 89.0967 51.0906C89.4851 50.7919 89.9058 50.5378 90.351 50.333Z" fill="white"/>
<path d="M71.2283 61.5918C70.9105 61.9659 70.55 62.3014 70.154 62.5915C69.7732 62.8947 69.356 63.1492 68.9121 63.3491C69.2315 62.9766 69.5919 62.6412 69.9864 62.3494C70.3681 62.0475 70.7852 61.7931 71.2283 61.5918Z" fill="white"/>
<path d="M95.1072 66.6709C94.7895 67.0469 94.429 67.3846 94.0329 67.6769C93.6512 67.9787 93.2341 68.2331 92.791 68.4344C93.1087 68.0584 93.4692 67.7208 93.8653 67.4285C94.2491 67.1296 94.6658 66.8755 95.1072 66.6709Z" fill="white"/>
<path d="M79.6443 76.4072C79.3266 76.7833 78.9661 77.1209 78.57 77.4132C78.1876 77.7141 77.7707 77.9685 77.3281 78.1707C77.6458 77.7947 78.0063 77.4571 78.4024 77.1648C78.7863 76.8659 79.2029 76.6118 79.6443 76.4072Z" fill="white"/>
<path d="M101.029 53.3691C100.711 53.7452 100.351 54.0828 99.9548 54.3751C99.57 54.6726 99.1535 54.9267 98.7129 55.1327C99.0305 54.7566 99.3911 54.419 99.7872 54.1267C100.17 53.8257 100.586 53.5714 101.029 53.3691Z" fill="white"/>
<path d="M100.705 64.6521C100.329 64.3344 99.9913 63.9739 99.699 63.5778C99.3967 63.1963 99.1423 62.7793 98.9414 62.3359C99.3188 62.6499 99.6566 63.0085 99.9474 63.404C100.244 63.7916 100.498 64.21 100.705 64.6521Z" fill="white"/>
<path d="M66.244 72.4265C65.8679 72.1089 65.5303 71.7483 65.238 71.3523C64.9392 70.9684 64.685 70.5517 64.4805 70.1104C64.8565 70.428 65.1941 70.7885 65.4864 71.1846C65.7874 71.567 66.0417 71.9839 66.244 72.4265Z" fill="white"/>
<path d="M96.5155 81.6723C96.1381 81.3583 95.8003 80.9997 95.5095 80.6042C95.212 80.2194 94.9579 79.8029 94.752 79.3623C95.128 79.68 95.4656 80.0405 95.7579 80.4366C96.0576 80.8176 96.3118 81.2323 96.5155 81.6723Z" fill="white"/>
<path d="M81.3456 55.3129C80.9696 54.9974 80.632 54.6389 80.3396 54.2448C80.0433 53.8592 79.7893 53.4428 79.582 53.0029C79.9594 53.3168 80.2972 53.6755 80.588 54.071C80.8843 54.4566 81.1383 54.873 81.3456 55.3129Z" fill="white"/>
<path d="M81.6112 86.9382C81.2351 86.6206 80.8975 86.26 80.6052 85.864C80.3073 85.4794 80.0532 85.0629 79.8477 84.6221C80.225 84.936 80.5628 85.2946 80.8536 85.6901C81.1524 86.0762 81.4066 86.4949 81.6112 86.9382Z" fill="white"/>
<path d="M84.189 68.2839C83.8165 67.9645 83.4811 67.6041 83.1892 67.2097C82.886 66.8288 82.6316 66.4116 82.4316 65.9678C82.8057 66.2855 83.1413 66.6461 83.4314 67.042C83.7333 67.4238 83.9876 67.8408 84.189 68.2839Z" fill="white"/>
<path d="M96.9378 52.7984C94.5968 52.3637 92.3986 47.5265 92.1191 44.2727C92.1191 44.0491 93.212 42.2794 94.4602 40.0626C95.2177 38.7151 96.0188 37.1938 96.6583 35.7532C96.7887 35.4613 97.5525 36.4486 97.5525 36.4486L99.2167 37.6905L104.712 41.9068C103.404 43.4771 102.292 45.2017 101.402 47.0421C101.315 47.2416 101.248 47.4497 101.204 47.6631C101.201 47.6982 101.201 47.7335 101.204 47.7686C100.862 48.9981 99.1919 53.2144 96.9378 52.7984Z" fill="#EB9481"/>
<path d="M101.204 47.6946C101.202 47.7298 101.202 47.765 101.204 47.8002C100.878 47.7045 100.56 47.582 100.254 47.4338C94.237 44.6147 96.8885 36.5547 96.8885 36.5547L99.2482 37.7221L104.744 41.9384C103.435 43.5087 102.324 45.2333 101.434 47.0737C101.335 47.2719 101.258 47.48 101.204 47.6946Z" fill="#263238"/>
<path d="M111.027 24.749C111.027 24.749 113.778 26.4939 113.791 29.5987C113.803 32.7035 112.549 35.7399 112.288 35.8517C112.027 35.9635 111.027 24.749 111.027 24.749Z" fill="#263238"/>
<path d="M97.3773 26.3631C95.7256 29.6231 95.8125 39.8999 97.8741 42.5452C100.867 46.3827 106.63 47.7053 110.113 43.9113C113.485 40.2353 113.137 26.8475 110.734 24.3512C107.238 20.6627 99.8239 21.5383 97.3773 26.3631Z" fill="#EB9481"/>
<path d="M106.148 34.5908C106.148 34.5908 106.092 34.6281 106.098 34.6529C106.135 35.3546 106.061 36.1618 105.434 36.4102C105.434 36.4102 105.434 36.4537 105.434 36.4475C106.21 36.3233 106.297 35.249 106.148 34.5908Z" fill="#263238"/>
<path d="M105.508 33.8782C104.378 33.8161 104.341 36.0764 105.39 36.1323C106.44 36.1882 106.452 33.9279 105.508 33.8782Z" fill="#263238"/>
<path d="M109.978 34.5664C109.978 34.5664 110.034 34.5664 110.034 34.6285C109.996 35.3302 110.077 36.1374 110.71 36.3796C110.71 36.3796 110.71 36.4231 110.71 36.4169C109.928 36.2989 109.835 35.2246 109.978 34.5664Z" fill="#263238"/>
<path d="M110.618 33.8472C111.742 33.7789 111.798 36.0392 110.754 36.1013C109.711 36.1634 109.674 33.9031 110.618 33.8472Z" fill="#263238"/>
<path d="M104.798 32.1577C105.094 32.0733 105.387 31.9738 105.673 31.8596C105.999 31.8006 106.297 31.6345 106.518 31.3877C106.571 31.2973 106.594 31.1918 106.582 31.0874C106.569 30.983 106.523 30.8856 106.449 30.8102C106.281 30.6825 106.082 30.6019 105.873 30.5768C105.663 30.5517 105.451 30.583 105.257 30.6674C104.838 30.7796 104.475 31.0428 104.239 31.4063C104.192 31.4928 104.17 31.591 104.177 31.6894C104.184 31.7877 104.219 31.882 104.278 31.961C104.336 32.0401 104.417 32.1007 104.509 32.1355C104.601 32.1704 104.701 32.1781 104.798 32.1577Z" fill="#263238"/>
<path d="M111.387 33.157C111.085 33.0895 110.787 33.0066 110.493 32.9086C110.166 32.8653 109.862 32.7146 109.63 32.4801C109.57 32.3938 109.541 32.2898 109.548 32.1849C109.555 32.0801 109.597 31.9806 109.667 31.9027C109.827 31.7657 110.021 31.6745 110.229 31.6384C110.436 31.6023 110.65 31.6228 110.847 31.6977C111.272 31.7858 111.648 32.0294 111.903 32.3808C111.956 32.464 111.984 32.5608 111.983 32.6595C111.982 32.7583 111.952 32.8546 111.898 32.9369C111.843 33.0191 111.766 33.0837 111.675 33.1228C111.584 33.1619 111.484 33.1738 111.387 33.157Z" fill="#263238"/>
<path d="M104.556 41.2297C104.724 41.3974 104.885 41.6209 105.14 41.6458C105.401 41.6456 105.659 41.5906 105.897 41.4843C105.897 41.4843 105.941 41.4843 105.897 41.5216C105.795 41.6581 105.658 41.7643 105.501 41.8288C105.343 41.8934 105.171 41.9138 105.003 41.888C104.861 41.8493 104.734 41.7698 104.637 41.6594C104.539 41.5491 104.477 41.4126 104.457 41.267C104.452 41.2538 104.452 41.2392 104.458 41.2264C104.464 41.2136 104.474 41.2036 104.488 41.1987C104.501 41.1937 104.515 41.1942 104.528 41.2001C104.541 41.2059 104.551 41.2166 104.556 41.2297Z" fill="#263238"/>
<path d="M108.617 38.2367C108.617 38.2367 108.648 39.2799 108.617 39.7704C107.663 39.6692 106.699 39.7026 105.754 39.8698C105.531 39.9195 105.555 39.7394 105.81 39.6214C106.571 39.2736 107.419 39.1611 108.244 39.2985C108.294 39.1681 108.164 37.684 108.244 37.6902C108.62 37.764 108.983 37.8894 109.325 38.0628C109.325 35.877 108.977 33.7161 109.008 31.5304C109.008 31.4558 109.126 31.4434 109.138 31.5304C109.58 33.8426 109.788 36.1933 109.759 38.5472C109.766 38.8142 108.803 38.336 108.617 38.2367Z" fill="#263238"/>
<path d="M107.219 39.3978C106.972 40.0489 106.513 40.5979 105.915 40.9564C104.978 41.3352 104.673 40.4845 105.617 39.7145C106.112 39.4643 106.666 39.3548 107.219 39.3978Z" fill="#263238"/>
<path d="M106.246 40.7644C106.146 40.8451 106.035 40.9101 105.917 40.9569C105.053 41.3047 104.712 40.6154 105.407 39.9199C105.879 39.9572 106.42 40.131 106.246 40.7644Z" fill="#FF99BA"/>
<path d="M96.9038 35.1498C98.0401 35.4976 99.3442 32.0823 99.7167 30.8031C100.04 29.6482 100.412 25.9783 100.468 25.7237C100.524 25.4691 105.436 28.9713 108.28 28.1392C111.124 27.3072 113.055 24.7302 113.098 23.5318C113.142 22.3333 109.584 19.2906 106.51 19.1354C103.436 18.9802 99.2697 22.8611 99.2697 22.8611C99.773 22.29 100.23 21.6795 100.636 21.0355C100.586 20.8989 98.599 21.6937 98.2327 23.1095C98.2327 23.1095 98.6301 21.3274 98.481 21.2963C98.332 21.2653 96.7858 22.7866 97.1336 23.9416C97.1336 23.9416 95.3452 25.4878 95.1837 27.183C95.0223 28.8782 95.5687 34.74 96.9038 35.1498Z" fill="#263238"/>
<path d="M110.319 27.4938C109.474 27.9523 108.563 28.279 107.618 28.4624C106.558 28.557 105.491 28.3863 104.513 27.9657C103.528 27.5852 102.614 27.0438 101.806 26.3636C101.092 25.7799 100.452 25.0658 99.6886 24.5442C99.4961 24.4076 99.2787 24.687 99.3967 24.8609C100.671 26.6608 102.491 28.0021 104.588 28.686C105.562 29.0035 106.601 29.0628 107.605 28.8582C108.608 28.6535 109.541 28.192 110.313 27.5186C110.313 27.5186 110.332 27.4938 110.319 27.4938Z" fill="#263238"/>
<path d="M98.0934 34.8455C98.0934 34.8455 96.3299 31.2688 94.7402 31.8463C93.1506 32.4238 94.1193 37.3728 95.7524 38.2794C95.9524 38.4088 96.1765 38.4965 96.4113 38.5372C96.646 38.5779 96.8866 38.5708 97.1185 38.5163C97.3505 38.4618 97.569 38.361 97.7611 38.22C97.9531 38.079 98.1147 37.9007 98.2362 37.6957L98.0934 34.8455Z" fill="#EB9481"/>
<path d="M95.0576 33.2559C95.0576 33.2559 95.0203 33.2559 95.0576 33.3055C96.1877 33.9762 96.6472 35.1684 96.9204 36.4103C96.869 36.2788 96.7896 36.1601 96.6878 36.0623C96.586 35.9646 96.4641 35.8901 96.3306 35.844C96.1972 35.7979 96.0553 35.7814 95.9149 35.7956C95.7744 35.8097 95.6387 35.8542 95.5171 35.926C95.4798 35.926 95.5171 35.9943 95.5171 35.9943C95.7392 35.9597 95.9666 35.9949 96.1679 36.095C96.3692 36.1951 96.5345 36.3552 96.641 36.5531C96.8188 36.8847 96.9603 37.2345 97.0633 37.5963C97.1005 37.7143 97.3054 37.6833 97.2868 37.5529C97.5538 36.0067 96.6845 33.6657 95.0576 33.2559Z" fill="#263238"/>
<path d="M86.4492 50.8165C85.2073 57.8519 92.8327 81.5538 97.7196 85.9812C104.991 92.5633 118.435 96.8913 123.309 98.3009C125.433 98.9219 131.307 83.9755 129.159 82.9882C124.557 80.8955 110.263 76.4247 108.903 75.307C107.543 74.1892 99.3465 62.3476 95.6953 55.5295C90.8083 46.3518 87.0639 47.2584 86.4492 50.8165Z" fill="#EB9481"/>
<path d="M125.539 81.6719C125.539 81.6719 131.885 83.2926 135.977 84.5407C138.262 85.2424 142.075 86.7885 143.522 88.0677C145.683 89.9865 153.494 99.3753 151.259 101.319C149.234 103.082 143.546 94.1593 143.546 94.1593C143.546 94.1593 150.079 102.654 147.272 104.324C144.465 105.995 139.33 95.0597 139.33 95.0597C139.33 95.0597 145.844 103.939 142.658 105.2C140.249 106.15 135.083 96.5065 135.083 96.5065C135.083 96.5065 140.634 104.175 138.188 105.262C135.493 106.467 130.171 97.8602 130.171 97.8602C123.514 99.5802 119.615 97.6739 117.05 95.9973C116.448 95.5875 125.539 81.6719 125.539 81.6719Z" fill="#EB9481"/>
<path d="M141.474 91.0738C142.281 92.0425 143.101 93.0236 143.815 94.0606C144.529 95.0976 145.206 96.1656 145.821 97.2647C146.654 98.6863 147.32 100.199 147.808 101.773C146.74 99.0406 144.237 95.2838 143.523 94.2468C142.809 93.2099 142.145 92.1356 141.437 91.0986C141.418 91.0738 141.455 91.0489 141.474 91.0738Z" fill="#263238"/>
<path d="M137.679 93.5878C139.058 94.6807 141.945 98.7417 143.057 101.468C143.107 101.579 143.057 101.573 142.976 101.468C142.107 100.12 138.58 94.9042 137.648 93.6064C137.63 93.5878 137.661 93.5692 137.679 93.5878Z" fill="#263238"/>
<path d="M134.033 95.1774C135.746 96.974 137.099 99.0818 138.02 101.387C138.063 101.499 137.977 101.48 137.908 101.387C136.623 99.2944 135.629 97.6613 133.965 95.2333C133.94 95.1774 133.996 95.1216 134.033 95.1774Z" fill="#263238"/>
<path d="M93.3764 51.3328C87.7071 43.3163 84.3166 46.2844 85.453 54.9902C86.521 63.1309 89.3712 72.8303 89.3712 72.8303L103.653 65.9004C103.653 65.9004 96.9842 56.4681 93.3764 51.3328Z" fill="#F8E8DB"/>
<path d="M96.8251 54.4854C97.0134 54.9381 97.1488 55.4111 97.2288 55.8949C97.3159 56.3803 97.3472 56.8741 97.3219 57.3666C97.1357 56.9114 97.0023 56.4364 96.9245 55.9508C96.8321 55.4681 96.7988 54.9761 96.8251 54.4854Z" fill="white"/>
<path d="M88.3633 59.3618C89.2747 58.9911 90.2554 58.8216 91.2383 58.8651C90.7853 59.0513 90.3123 59.1846 89.8287 59.2625C89.3461 59.3546 88.854 59.388 88.3633 59.3618Z" fill="white"/>
<path d="M88.7277 46.8926C88.3432 47.8001 87.7695 48.6151 87.0449 49.2832C87.4295 48.3758 88.0032 47.5607 88.7277 46.8926Z" fill="white"/>
<path d="M100.831 63.1055C100.643 63.5596 100.403 63.9909 100.117 64.3908C99.8386 64.7959 99.5135 65.1669 99.1484 65.4961C99.533 64.5886 100.107 63.7736 100.831 63.1055Z" fill="white"/>
<path d="M90.8946 67.9679C90.4394 67.7817 90.0079 67.5419 89.6092 67.2538C89.2039 66.9756 88.8329 66.6504 88.5039 66.2852C89.4114 66.6697 90.2264 67.2434 90.8946 67.9679Z" fill="white"/>
<path d="M95.2407 53.749C96.0045 54.7984 96.7931 55.823 97.5755 56.8538C97.3768 56.3322 97.203 55.8044 97.0539 55.2704H97.0912C97.2464 55.6802 97.4265 56.0838 97.5755 56.5123L97.7991 57.1332C97.8183 57.1756 97.8349 57.2192 97.8488 57.2636C98.4697 58.0647 99.0907 58.8657 99.662 59.6854C100.364 60.6665 101.04 61.66 101.724 62.6535C102.407 63.647 103.096 64.8828 103.835 65.8825C103.903 65.9694 102.593 66.5034 102.45 66.5717C102.307 66.64 102.233 66.5221 102.369 66.4786C102.506 66.4351 103.549 65.7956 103.562 65.7831C102.879 64.7772 102.09 63.852 101.376 62.8771C100.662 61.9022 99.9538 60.9273 99.2645 59.9399C97.8674 57.9281 96.5882 55.8416 95.1973 53.8235L95.2407 53.749Z" fill="#263238"/>
<path d="M85.7911 60.7518C86.0084 61.1741 86.2444 61.5901 86.4121 62.0248L86.648 62.565C86.3189 61.0188 86.0271 59.4602 85.6855 57.9141C86.3438 60.3979 87.0082 62.9376 87.6167 65.4587C88.1942 67.868 88.8959 70.3021 89.2312 72.7611C89.6642 72.5711 90.113 72.4195 90.5725 72.3078C90.1114 72.6062 89.615 72.8461 89.0946 73.0219C88.3461 70.5214 87.7243 67.9847 87.2317 65.4214C87.0765 64.7259 86.9337 64.0305 86.7846 63.335C86.6232 62.9127 86.4307 62.5091 86.2382 62.0931C86.0457 61.677 85.8718 61.2113 85.698 60.7704C85.7352 60.7456 85.7787 60.7208 85.7911 60.7518Z" fill="#263238"/>
<path d="M89.5833 70.4332C91.5703 69.3154 99.8726 65.0184 101.729 64.2236C101.86 64.1677 101.928 64.2236 101.798 64.3105C97.8567 66.6004 93.7937 68.6734 89.6268 70.5201C89.5771 70.5325 89.5274 70.4642 89.5833 70.4332Z" fill="#263238"/>
<path d="M317.125 233.682H127.932L155.285 78.5361H344.478L317.125 233.682Z" fill="#F8E8DB"/>
<path d="M220.037 62.4658H158.121L155.283 78.5361H221.546L220.037 62.4658Z" fill="#F8E8DB"/>
<g opacity="0.1">
<path d="M317.125 233.682H127.932L155.285 78.5361H344.478L317.125 233.682Z" fill="black"/>
<path d="M220.037 62.4658H158.121L155.283 78.5361H221.546L220.037 62.4658Z" fill="black"/>
</g>
<path d="M151.439 69.0234C151.025 67.2464 151.025 65.3981 151.439 63.6211C151.853 65.3981 151.853 67.2464 151.439 69.0234Z" fill="#263238"/>
<path d="M145.938 70.6139C145.306 69.9583 144.761 69.2236 144.317 68.4282C143.852 67.6493 143.487 66.8147 143.23 65.9443C143.865 66.5961 144.41 67.329 144.851 68.1239C145.316 68.9055 145.681 69.742 145.938 70.6139Z" fill="#263238"/>
<path d="M141.963 74.7422C140.218 74.2116 138.618 73.2875 137.287 72.041C138.158 72.294 138.992 72.6571 139.771 73.1215C140.566 73.568 141.303 74.1125 141.963 74.7422Z" fill="#263238"/>
<path d="M140.574 80.3056C138.797 80.7197 136.949 80.7197 135.172 80.3056C136.949 79.8916 138.797 79.8916 140.574 80.3056Z" fill="#263238"/>
<path d="M142.185 85.8086C141.527 86.4376 140.793 86.982 139.999 87.4293C139.221 87.8936 138.386 88.2567 137.516 88.5097C138.171 87.8775 138.906 87.3327 139.701 86.889C140.479 86.4225 141.314 86.0593 142.185 85.8086Z" fill="#263238"/>
<path d="M146.311 89.7754C145.782 91.5229 144.858 93.125 143.609 94.4574C143.862 93.5858 144.228 92.7508 144.696 91.9736C145.139 91.1753 145.681 90.4366 146.311 89.7754Z" fill="#263238"/>
<path d="M151.873 91.1475C152.089 92.0312 152.194 92.9388 152.183 93.8486C152.197 94.7586 152.092 95.6665 151.873 96.5498C151.65 95.6671 151.546 94.7588 151.562 93.8486C151.552 92.9388 151.656 92.0312 151.873 91.1475Z" fill="#263238"/>
<path d="M157.377 89.5896C158.009 90.2452 158.554 90.9799 158.998 91.7753C159.464 92.5528 159.827 93.3878 160.078 94.2592C158.83 92.9268 157.906 91.3247 157.377 89.5771V89.5896Z" fill="#263238"/>
<path d="M161.344 85.4297C162.215 85.6804 163.05 86.0436 163.828 86.5101C164.623 86.9538 165.358 87.4986 166.013 88.1308C165.142 87.8802 164.307 87.5169 163.53 87.0504C162.734 86.6067 161.999 86.062 161.344 85.4297Z" fill="#263238"/>
<path d="M162.715 79.8651C164.494 79.4512 166.344 79.4512 168.123 79.8651C166.344 80.279 164.494 80.279 162.715 79.8651Z" fill="#263238"/>
<path d="M161.126 74.3633C161.783 73.7348 162.518 73.1923 163.311 72.7488C164.087 72.2777 164.923 71.9123 165.795 71.6621C164.463 72.9103 162.861 73.8346 161.113 74.3633H161.126Z" fill="#263238"/>
<path d="M156.996 70.3961C157.252 69.5266 157.615 68.6922 158.077 67.9123C158.52 67.1169 159.065 66.3822 159.697 65.7266C159.447 66.5979 159.083 67.4329 158.617 68.2104C158.173 69.0058 157.628 69.7405 156.996 70.3961Z" fill="#263238"/>
<path d="M316.844 233.683H127.247L100.322 84.1689H289.926L316.844 233.683Z" fill="#F8E8DB"/>
<path d="M166.026 175.566C170.378 175.566 173.906 172.039 173.906 167.687C173.906 163.335 170.378 159.807 166.026 159.807C161.674 159.807 158.146 163.335 158.146 167.687C158.146 172.039 161.674 175.566 166.026 175.566Z" fill="#263238"/>
<path d="M228.317 175.566C232.669 175.566 236.197 172.039 236.197 167.687C236.197 163.335 232.669 159.807 228.317 159.807C223.965 159.807 220.438 163.335 220.438 167.687C220.438 172.039 223.965 175.566 228.317 175.566Z" fill="#263238"/>
<path d="M208.492 176.827L208.057 176.001C208.02 175.927 203.946 168.401 195.756 168.401C188.304 168.401 186.442 175.486 186.392 175.79L186.168 176.691L184.361 176.256L184.579 175.349C184.579 175.262 186.802 166.538 195.756 166.538C205.07 166.538 209.523 174.784 209.709 175.138L210.144 175.958L208.492 176.827Z" fill="#263238"/>
<path d="M304.326 167.085L304.195 166.464C304.599 166.377 304.996 166.284 305.394 166.179L305.549 166.8C305.127 166.905 304.736 166.998 304.326 167.085Z" fill="#263238"/>
<path d="M307.955 166.085L307.756 165.501C308.532 165.234 309.308 164.942 310.06 164.625L310.302 165.197C309.538 165.52 308.749 165.818 307.955 166.085ZM312.581 164.104L312.301 163.557C313.028 163.179 313.754 162.769 314.444 162.316L314.767 162.843C314.059 163.334 313.32 163.75 312.581 164.104ZM316.853 161.477L316.487 160.974C317.157 160.484 317.803 159.968 318.412 159.44L318.821 159.906C318.169 160.471 317.548 160.999 316.847 161.502L316.853 161.477ZM320.641 158.174L320.187 157.745C320.759 157.124 321.299 156.503 321.796 155.882L322.286 156.261C321.771 156.944 321.218 157.584 320.653 158.199L320.641 158.174ZM323.715 154.2L323.187 153.871C323.616 153.177 323.998 152.455 324.329 151.71L324.901 151.964C324.55 152.741 324.151 153.496 323.708 154.224L323.715 154.2ZM325.77 149.592L325.149 149.418C325.376 148.639 325.544 147.844 325.652 147.04L326.273 147.121C326.17 147.965 326 148.8 325.764 149.617L325.77 149.592ZM326.459 144.625H325.838V144.444C325.838 143.693 325.795 142.929 325.72 142.178L326.341 142.116C326.423 142.889 326.464 143.667 326.465 144.444L326.459 144.625ZM325.341 139.762C325.174 138.962 324.967 138.17 324.72 137.39L325.341 137.204C325.596 138.011 325.813 138.831 325.962 139.632L325.341 139.762ZM323.87 135.087C323.572 134.354 323.249 133.603 322.851 132.845L323.41 132.566C323.789 133.336 324.137 134.106 324.441 134.851L323.87 135.087ZM321.696 130.659C321.311 129.982 320.889 129.268 320.454 128.536L320.982 128.206C321.436 128.945 321.864 129.666 322.224 130.355L321.696 130.659ZM319.101 126.443C318.647 125.76 318.188 125.071 317.716 124.381L318.231 124.034C318.703 124.723 319.163 125.412 319.616 126.108L319.101 126.443ZM316.306 122.332C315.841 121.649 315.369 120.96 314.909 120.277L315.425 119.929C315.884 120.612 316.35 121.301 316.816 121.978L316.306 122.332ZM313.531 118.197C313.078 117.501 312.637 116.793 312.202 116.085L312.73 115.763C313.164 116.47 313.605 117.166 314.052 117.861L313.531 118.197ZM310.941 113.931C310.519 113.179 310.128 112.434 309.774 111.72L310.333 111.441C310.681 112.149 311.072 112.881 311.482 113.626L310.941 113.931ZM308.737 109.46C308.408 108.684 308.116 107.895 307.843 107.125L308.464 106.926C308.725 107.678 309.016 108.454 309.339 109.218L308.737 109.46ZM307.123 104.722C306.918 103.915 306.738 103.089 306.601 102.238L307.222 102.139C307.358 102.934 307.526 103.741 307.731 104.536L307.123 104.722ZM306.29 99.7543C306.228 98.9905 306.197 98.2205 306.197 97.4506V97.2456H306.818V97.4443C306.818 98.1957 306.818 98.9533 306.911 99.6984L306.29 99.7543ZM306.911 94.7867L306.29 94.7246C306.29 94.5569 306.321 94.383 306.34 94.2029C306.415 93.5385 306.508 92.8741 306.62 92.2407L307.241 92.3463C307.135 92.9673 307.042 93.6193 306.967 94.2713C306.992 94.4638 306.992 94.6314 306.942 94.8053L306.911 94.7867ZM307.775 89.9556L307.154 89.788C307.383 88.9683 307.65 88.1673 307.948 87.4035L308.526 87.627C308.244 88.3959 308.003 89.1794 307.806 89.9742L307.775 89.9556ZM338.717 86.3354C338.369 86.3354 338.009 86.2858 337.655 86.2361C337.171 86.1678 336.686 86.0871 336.208 85.9939L336.332 85.373C336.792 85.4599 337.27 85.5406 337.742 85.6089C338.077 85.6524 338.419 85.6835 338.748 85.7021L338.717 86.3354ZM341.269 86.143L341.139 85.522C341.918 85.3611 342.665 85.0715 343.349 84.6651L343.672 85.1929C342.941 85.6455 342.139 85.9729 341.3 86.1616L341.269 86.143ZM309.563 85.404L309.01 85.1122C309.406 84.3716 309.843 83.6543 310.32 82.9637L310.83 83.3176C310.376 83.9938 309.963 84.6968 309.594 85.4226L309.563 85.404ZM333.78 85.3668C332.979 85.1125 332.191 84.8161 331.421 84.4788L331.675 83.9075C332.422 84.2392 333.187 84.5274 333.967 84.7706L333.78 85.3668ZM345.578 83.4294L345.063 83.0817C345.505 82.4402 345.767 81.6917 345.821 80.9145L346.442 80.958C346.389 81.8488 346.097 82.7089 345.597 83.448L345.578 83.4294ZM329.185 83.3362C328.458 82.9138 327.756 82.4516 327.08 81.9515L327.446 81.4547C328.104 81.9397 328.788 82.3875 329.496 82.796L329.185 83.3362ZM312.357 81.3989L311.898 80.9828C312.46 80.3575 313.059 79.7665 313.692 79.2131L314.102 79.6788C313.493 80.2239 312.916 80.8044 312.376 81.4175L312.357 81.3989ZM325.143 80.3494C324.524 79.7797 323.938 79.1765 323.385 78.5425L323.851 78.1326C324.389 78.7485 324.959 79.3351 325.559 79.8899L325.143 80.3494ZM345.355 78.6667C344.999 77.957 344.508 77.3241 343.908 76.8038L344.318 76.3381C344.978 76.9088 345.52 77.6027 345.914 78.381L345.355 78.6667ZM316.033 78.1761L315.679 77.6669C316.374 77.1927 317.093 76.7553 317.834 76.3567L318.126 76.9031C317.413 77.2974 316.72 77.7285 316.052 78.1947L316.033 78.1761ZM321.833 76.5616C321.597 76.2263 321.367 75.8848 321.15 75.5308L320.343 75.8475L320.107 75.2762L320.821 74.9906C320.709 74.8043 320.597 74.618 320.492 74.4317L321.032 74.1275C321.156 74.3448 321.28 74.5621 321.411 74.7484C321.758 74.6242 322.112 74.5063 322.473 74.3945L322.653 75.0154C322.348 75.1086 322.032 75.2079 321.746 75.3135C321.939 75.6178 322.137 75.9345 322.367 76.2015L321.833 76.5616ZM341.909 75.4936C341.308 75.1941 340.685 74.9409 340.046 74.736L339.636 74.6056L339.816 73.9847L340.238 74.1213C340.904 74.3333 341.551 74.597 342.176 74.9099L341.909 75.4936ZM325.031 74.3821L324.901 73.7611C325.702 73.581 326.534 73.432 327.384 73.314L327.478 73.935C326.658 74.0654 325.844 74.2206 325.05 74.4007L325.031 74.3821ZM337.264 74.0468C336.488 73.9101 335.668 73.8046 334.83 73.7301L334.879 73.1091C335.742 73.1836 336.581 73.2892 337.363 73.432L337.264 74.0468ZM329.905 73.6866L329.862 73.0656C330.601 73.0222 331.34 72.9973 332.073 72.9973H332.377V73.6183H332.079C331.377 73.6369 330.644 73.6555 329.924 73.7052L329.905 73.6866ZM319.411 72.2025C319.076 71.445 318.79 70.6563 318.511 69.8553L319.132 69.6628C319.393 70.4452 319.685 71.2152 320.007 71.9541L319.411 72.2025ZM317.84 67.4336C317.654 66.6326 317.499 65.8005 317.381 64.9498L318.002 64.8628C318.12 65.6825 318.269 66.4959 318.449 67.2846L317.84 67.4336ZM317.145 62.4659C317.114 61.9071 317.095 61.3358 317.095 60.7645C317.095 60.4975 317.095 60.2243 317.095 59.9573H317.716C317.716 60.2243 317.716 60.4851 317.716 60.7521C317.716 61.311 317.716 61.876 317.76 62.4163L317.145 62.4659ZM317.884 57.4983L317.263 57.4362C317.35 56.6165 317.468 55.7783 317.61 54.9524L318.231 55.0579C318.064 55.8838 317.946 56.6786 317.865 57.5107L317.884 57.4983ZM318.734 52.6486L318.113 52.4996C318.312 51.6986 318.542 50.8913 318.797 50.0841L319.417 50.2766C319.138 51.09 318.908 51.8787 318.716 52.6611L318.734 52.6486ZM320.225 47.948L319.647 47.7245C319.952 46.9483 320.268 46.1721 320.647 45.4207L321.206 45.6939C320.833 46.4391 320.504 47.1967 320.206 47.9853L320.225 47.948ZM322.361 43.5206L321.821 43.2039C322.243 42.4898 322.696 41.7757 323.168 41.0927L323.677 41.4466C323.193 42.1297 322.752 42.8251 322.342 43.533L322.361 43.5206ZM325.161 39.4782L324.677 39.087C325.199 38.466 325.757 37.8078 326.335 37.2241L326.782 37.6526C326.198 38.2363 325.652 38.8572 325.143 39.4906L325.161 39.4782ZM328.539 35.9015L328.123 35.442C328.744 34.8893 329.365 34.3429 330.03 33.8151L330.415 34.3056C329.75 34.8334 329.117 35.3737 328.521 35.9139L328.539 35.9015ZM332.395 32.834L332.042 32.3186C332.718 31.8529 333.426 31.3933 334.147 30.9587L334.463 31.4865C333.743 31.9274 333.072 32.3807 332.377 32.8464L332.395 32.834ZM336.612 30.2694L336.32 29.723C337.053 29.3318 337.81 28.9592 338.568 28.6115L338.829 29.1765C338.04 29.5305 337.313 29.9031 336.593 30.2818L336.612 30.2694ZM341.101 28.2078L340.872 27.6241C341.654 27.3199 342.443 27.0032 343.225 26.7734L343.424 27.3944C342.635 27.6304 341.853 27.916 341.083 28.2203L341.101 28.2078Z" fill="#263238"/>
<path d="M345.888 26.638L345.732 26.0171C346.502 25.8184 346.974 25.7314 346.974 25.7314L347.086 26.3524C347.086 26.3524 346.639 26.4455 345.888 26.638Z" fill="#263238"/>
<path d="M356.866 22.6257C355.283 17.7201 344.677 19.4837 346.745 25.8981C348.813 32.3126 358.45 27.5374 356.866 22.6257Z" fill="#263238"/>
<path d="M340.972 20.6627C341.053 18.508 344.046 16.8501 348.281 17.6138C352.516 18.3776 356.496 21.234 356.496 21.234C356.496 21.234 352.317 23.7675 348.039 24.2332C343.76 24.6989 340.892 22.8112 340.972 20.6627Z" fill="#E4E9E9"/>
<path d="M356.498 21.2216C354.3 21.2216 352.108 21.1596 349.916 21.0912C347.724 21.0229 345.526 20.9112 343.334 20.7373C345.532 20.7373 347.73 20.7932 349.922 20.8615C352.114 20.9298 354.312 21.0416 356.498 21.2216Z" fill="#263238"/>
<path d="M345.229 18.7451C346.476 19.3421 347.653 20.0774 348.737 20.9371C348.112 20.644 347.507 20.3122 346.924 19.9436C346.336 19.5774 345.77 19.1773 345.229 18.7451Z" fill="#263238"/>
<path d="M350.984 21.0166C349.861 21.927 348.643 22.7139 347.352 23.3638C348.481 22.4523 349.705 21.6653 351.003 21.0166H350.984Z" fill="#263238"/>
<path d="M351.625 19.8066C352.252 20.1075 352.8 20.5496 353.227 21.0982C352.914 20.9503 352.62 20.7648 352.352 20.5456C352.082 20.3278 351.838 20.0798 351.625 19.8066Z" fill="#263238"/>
<path d="M345.014 33.424C346.336 35.1254 349.733 34.7155 352.72 31.6232C355.707 28.5308 357.29 23.8799 357.29 23.8799C357.29 23.8799 352.397 24.2525 348.665 26.3637C344.933 28.4749 343.685 31.7163 345.014 33.424Z" fill="#E4E9E9"/>
<path d="M357.287 23.8799C355.499 25.1218 353.76 26.5003 352.015 27.8354C350.271 29.1704 348.563 30.5489 346.893 31.9709C348.681 30.729 350.42 29.3567 352.158 28.0217C353.897 26.6866 355.592 25.3081 357.287 23.8799Z" fill="#263238"/>
<path d="M349.576 32.4618C349.908 31.8586 350.205 31.2366 350.464 30.5989C350.728 29.9595 350.952 29.3041 351.135 28.6367C350.802 29.2394 350.505 29.8615 350.247 30.4996C349.985 31.14 349.761 31.7952 349.576 32.4618Z" fill="#263238"/>
<path d="M352.94 27.2715C351.488 27.1938 350.03 27.2708 348.594 27.5012C349.318 27.5447 350.043 27.5447 350.767 27.5012C351.495 27.4657 352.221 27.389 352.94 27.2715Z" fill="#263238"/>
<path d="M354.137 27.8858C354.303 27.5792 354.432 27.254 354.522 26.9172C354.614 26.5827 354.668 26.2391 354.683 25.8926C354.353 26.5073 354.166 27.1887 354.137 27.8858Z" fill="#263238"/>
<path d="M356.864 22.6259C356.513 22.7397 356.137 22.747 355.782 22.6467C355.427 22.5464 355.11 22.343 354.871 22.0624C354.632 21.7818 354.481 21.4365 354.438 21.0703C354.396 20.7041 354.462 20.3334 354.63 20.0052C354.798 19.677 355.06 19.406 355.382 19.2266C355.704 19.0472 356.072 18.9674 356.44 18.9974C356.807 19.0273 357.158 19.1656 357.447 19.3948C357.735 19.624 357.95 19.9338 358.062 20.2849C358.213 20.7542 358.172 21.2642 357.947 21.703C357.722 22.1418 357.333 22.4736 356.864 22.6259Z" fill="#455A64"/>
<path d="M358.005 26.1714C357.654 26.2848 357.278 26.2917 356.924 26.1914C356.569 26.091 356.252 25.8877 356.013 25.6074C355.775 25.327 355.624 24.9821 355.581 24.6162C355.538 24.2504 355.605 23.88 355.772 23.5519C355.94 23.2238 356.201 22.9527 356.522 22.773C356.844 22.5932 357.211 22.5128 357.579 22.542C357.946 22.5711 358.296 22.7085 358.585 22.9367C358.875 23.1649 359.09 23.4738 359.203 23.8242C359.279 24.057 359.308 24.3024 359.288 24.5464C359.269 24.7904 359.202 25.0281 359.09 25.2461C358.979 25.4641 358.826 25.658 358.64 25.8168C358.453 25.9755 358.238 26.096 358.005 26.1714Z" fill="#455A64"/>
<path d="M154.424 24.5871C154.127 27.4392 153.042 30.1526 151.293 32.4243C149.543 34.6961 147.196 36.437 144.514 37.4526C141.832 38.4682 138.921 38.7187 136.105 38.1761C133.289 37.6334 130.68 36.319 128.568 34.3795L120.824 35.5159L124.699 28.822C123.813 26.6439 123.435 24.2925 123.594 21.9465C123.752 19.6004 124.444 17.3214 125.615 15.2825C126.786 13.2436 128.407 11.4984 130.354 10.1796C132.3 8.86077 134.522 8.00295 136.85 7.6713C139.178 7.33964 141.551 7.54288 143.788 8.26556C146.026 8.98824 148.07 10.2114 149.764 11.842C151.458 13.4727 152.758 15.468 153.566 17.6764C154.373 19.8848 154.667 22.2482 154.424 24.5871Z" fill="white"/>
<path d="M154.427 24.5874C154.136 27.4381 153.061 30.1525 151.322 32.4301C150.472 33.582 149.448 34.5939 148.286 35.4293C147.149 36.296 145.894 36.9964 144.56 37.5095C143.225 38.0353 141.822 38.3698 140.393 38.503C139.679 38.5671 138.961 38.5816 138.245 38.5465C137.526 38.528 136.81 38.4533 136.102 38.3229C133.249 37.7979 130.597 36.4884 128.446 34.5413L128.626 34.5972L120.895 35.7832L120.33 35.8702L120.616 35.3734L124.466 28.6671V28.9341C123.557 26.7158 123.171 24.3183 123.337 21.927C123.503 19.5356 124.216 17.2144 125.422 15.1427C126.626 13.0775 128.282 11.3114 130.265 9.97634C132.245 8.65903 134.498 7.80712 136.854 7.4845C139.211 7.16188 141.609 7.37691 143.871 8.11348C146.108 8.87463 148.147 10.1264 149.838 11.7771C151.526 13.4237 152.816 15.4331 153.611 17.6527C154.406 19.8723 154.685 22.2439 154.427 24.5874ZM154.427 24.5874C154.678 22.2554 154.389 19.8969 153.584 17.694C152.779 15.4912 151.478 13.5029 149.782 11.8826C148.086 10.2623 146.041 9.05348 143.803 8.34935C141.566 7.64523 139.197 7.46467 136.879 7.82163C134.584 8.16131 132.398 9.02386 130.489 10.3427C128.597 11.6719 127.016 13.3966 125.857 15.3973C124.715 17.4024 124.042 19.6399 123.888 21.9421C123.737 24.2599 124.111 26.582 124.981 28.7354L125.037 28.872L124.962 29.0024L121.063 35.6839L120.79 35.274L128.539 34.1874H128.645L128.719 34.2557C130.791 36.1838 133.358 37.4974 136.133 38.0497C136.825 38.1906 137.527 38.2758 138.232 38.3043C138.937 38.354 139.645 38.354 140.35 38.3043C141.764 38.1904 143.155 37.8833 144.485 37.3915C145.819 36.9061 147.074 36.2283 148.211 35.3796C149.369 34.551 150.394 33.5524 151.254 32.4177C153.015 30.1511 154.113 27.4407 154.427 24.5874Z" fill="#263238"/>
<path d="M131.467 30.1947C131.455 29.9891 131.486 29.7833 131.557 29.5899C131.628 29.3966 131.738 29.2199 131.88 29.0709C132.022 28.9218 132.193 28.8036 132.383 28.7234C132.572 28.6433 132.777 28.603 132.983 28.605C133.404 28.605 133.808 28.7725 134.107 29.0706C134.405 29.3687 134.572 29.7731 134.572 30.1947C134.572 30.6163 134.405 31.0206 134.107 31.3187C133.808 31.6168 133.404 31.7843 132.983 31.7843C132.777 31.7864 132.572 31.7461 132.383 31.6659C132.193 31.5858 132.022 31.4675 131.88 31.3185C131.738 31.1694 131.628 30.9927 131.557 30.7994C131.486 30.6061 131.455 30.4002 131.467 30.1947ZM132.088 26.5248L131.728 14.2051H134.212L133.852 26.5248H132.088Z" fill="#F8E8DB"/>
<path d="M137.376 30.1947C137.364 29.9896 137.394 29.7843 137.465 29.5914C137.535 29.3985 137.644 29.2221 137.786 29.0732C137.927 28.9242 138.098 28.8058 138.287 28.7253C138.476 28.6448 138.679 28.6038 138.884 28.605C139.306 28.605 139.71 28.7725 140.009 29.0706C140.307 29.3687 140.474 29.7731 140.474 30.1947C140.474 30.6163 140.307 31.0206 140.009 31.3187C139.71 31.6168 139.306 31.7843 138.884 31.7843C138.679 31.7855 138.476 31.7446 138.287 31.6641C138.098 31.5835 137.927 31.4651 137.786 31.3162C137.644 31.1672 137.535 30.9908 137.465 30.7979C137.394 30.605 137.364 30.3997 137.376 30.1947ZM137.997 26.5248L137.655 14.2051H140.139L139.779 26.5248H137.997Z" fill="#F8E8DB"/>
<path d="M143.272 30.1947C143.26 29.9891 143.291 29.7833 143.362 29.5899C143.432 29.3966 143.542 29.2199 143.684 29.0709C143.827 28.9218 143.998 28.8036 144.187 28.7234C144.377 28.6433 144.581 28.603 144.787 28.605C145.209 28.605 145.613 28.7725 145.911 29.0706C146.209 29.3687 146.377 29.7731 146.377 30.1947C146.377 30.6163 146.209 31.0206 145.911 31.3187C145.613 31.6168 145.209 31.7843 144.787 31.7843C144.581 31.7864 144.377 31.7461 144.187 31.6659C143.998 31.5858 143.827 31.4675 143.684 31.3185C143.542 31.1694 143.432 30.9927 143.362 30.7994C143.291 30.6061 143.26 30.4002 143.272 30.1947ZM143.893 26.5248L143.533 14.2051H146.017L145.663 26.5248H143.893Z" fill="#F8E8DB"/>
</svg>
