<svg width="258" height="45" viewBox="0 0 258 45" fill="none" xmlns="http://www.w3.org/2000/svg">
<path d="M14.5684 14.115L4.67969 10.5743V30.2241C4.67969 38.3263 11.2487 44.8952 19.3508 44.8952C27.453 44.8952 34.022 38.3263 34.022 30.2241V10.5743L24.2761 14.115L24.2038 18.526H26.0931V30.226C26.0931 33.9514 23.0743 36.9702 19.3489 36.9702C15.6235 36.9702 12.6047 33.9514 12.6047 30.226V18.526H14.4941L14.5665 14.115H14.5684Z" fill="#045D5E"/>
<path d="M19.3507 0L0 6.62611L19.3507 13.2541L38.7015 6.62611L19.3507 0Z" fill="#FC7300"/>
<path d="M38.8769 12.6694C38.8769 12.4256 38.7398 12.2161 38.5398 12.1094L38.357 6.61658H38.1589L37.976 12.0961C37.7608 12.1971 37.6104 12.4161 37.6104 12.6694C37.6104 12.9075 37.7418 13.117 37.9379 13.2236L37.8865 14.753C37.8694 15.273 38.037 15.4939 38.2579 15.4939C38.4788 15.4939 38.6465 15.2711 38.6293 14.753L38.5779 13.2084C38.7588 13.096 38.8788 12.8979 38.8788 12.6694H38.8769Z" fill="#FC7300"/>
<path d="M114.078 9.07922H130.461C134.732 9.07922 138.12 10.102 140.628 12.1475C143.137 14.1931 144.39 17.2442 144.39 21.301C144.39 25.3578 143.144 28.3005 140.655 30.346C138.164 32.3915 134.909 33.4143 130.888 33.4143H122.35V44.9981H114.078V9.07922ZM122.35 15.911V26.8511H129.768C134.109 26.8511 136.278 25.036 136.278 21.4077C136.278 17.7794 134.126 15.911 129.822 15.911H122.35Z" fill="#045D5E"/>
<path d="M78.7954 9.07922H95.1788C99.4489 9.07922 102.837 10.102 105.346 12.1475C107.854 14.1931 109.107 17.2442 109.107 21.301C109.107 25.3578 107.862 28.3005 105.372 30.346C102.881 32.3915 99.626 33.4143 95.6054 33.4143H87.0671V44.9981H78.7954V9.07922ZM87.0671 15.911V26.8511H94.4855C98.8261 26.8511 100.995 25.036 100.995 21.4077C100.995 17.7794 98.8432 15.911 94.5388 15.911H87.0671Z" fill="#045D5E"/>
<path d="M156.64 11.5781H155.362V44.0897H156.64V11.5781Z" fill="#494949"/>
<path d="M60.7109 9.02966H52.5877L38.9165 45H46.9882L49.9156 36.9778H63.284L66.1085 45H74.3821L60.7109 9.02966ZM56.6236 17.8575L60.9756 30.125H52.2259L56.6236 17.8575Z" fill="#045D5E"/>
<path d="M173.963 14.1284V14.5741C173.963 15.5416 173.631 16.3453 172.967 16.9834C172.302 17.6233 171.424 17.9414 170.329 17.9414C169.233 17.9414 168.264 17.5681 167.527 16.8234C166.79 16.0787 166.42 15.1683 166.42 14.096C166.42 13.0237 166.79 12.1133 167.527 11.3686C168.266 10.6239 169.192 10.2506 170.308 10.2506C170.993 10.2506 171.622 10.4144 172.193 10.7439C172.765 11.0715 173.206 11.5057 173.517 12.0409L172.669 12.538C172.458 12.1362 172.138 11.8124 171.711 11.5686C171.285 11.3248 170.812 11.2029 170.296 11.2029C169.449 11.2029 168.754 11.481 168.209 12.0352C167.664 12.5895 167.394 13.277 167.394 14.096C167.394 14.915 167.668 15.6006 168.215 16.1511C168.761 16.7015 169.47 16.9777 170.338 16.9777C171.079 16.9777 171.679 16.7967 172.14 16.4329C172.599 16.0692 172.877 15.5987 172.976 15.0178H170.254V14.1284H173.963Z" fill="#494949"/>
<path d="M175.063 17.8042V10.0715H175.985V17.8042H175.063Z" fill="#494949"/>
<path d="M181.865 17.1357C181.32 17.6728 180.661 17.9414 179.884 17.9414C179.107 17.9414 178.448 17.6728 177.909 17.1357C177.368 16.5986 177.098 15.9378 177.098 15.155C177.098 14.3722 177.368 13.7113 177.909 13.1742C178.45 12.6371 179.107 12.3685 179.884 12.3685C180.661 12.3685 181.32 12.6371 181.865 13.1742C182.408 13.7113 182.68 14.3722 182.68 15.155C182.68 15.9378 182.408 16.5986 181.865 17.1357ZM179.884 17.0405C180.414 17.0405 180.859 16.8596 181.219 16.4996C181.579 16.1396 181.76 15.6902 181.76 15.155C181.76 14.6198 181.579 14.1703 181.219 13.8103C180.859 13.4503 180.414 13.2694 179.884 13.2694C179.355 13.2694 178.92 13.4503 178.56 13.8103C178.2 14.1703 178.019 14.6198 178.019 15.155C178.019 15.6902 178.2 16.1396 178.56 16.4996C178.92 16.8596 179.362 17.0405 179.884 17.0405Z" fill="#494949"/>
<path d="M186.695 12.3685C187.435 12.3685 188.068 12.6389 188.592 13.1798C189.113 13.7207 189.376 14.3778 189.376 15.1549C189.376 15.932 189.115 16.591 188.592 17.13C188.068 17.669 187.437 17.9394 186.695 17.9394C185.818 17.9394 185.152 17.5909 184.693 16.89V17.8004H183.771V10.3877H184.693V13.4179C185.152 12.7189 185.818 12.3685 186.695 12.3685ZM186.578 17.05C187.108 17.05 187.554 16.8691 187.914 16.5053C188.273 16.1415 188.454 15.692 188.454 15.1549C188.454 14.6178 188.273 14.1683 187.914 13.8045C187.554 13.4408 187.108 13.2598 186.578 13.2598C186.049 13.2598 185.594 13.4427 185.234 13.8045C184.874 14.1683 184.693 14.6178 184.693 15.1549C184.693 15.692 184.874 16.1415 185.234 16.5053C185.594 16.8691 186.043 17.05 186.578 17.05Z" fill="#494949"/>
<path d="M194.864 12.5075H195.785V17.8042H194.864V16.8938C194.405 17.5928 193.736 17.9433 192.862 17.9433C192.121 17.9433 191.489 17.6728 190.965 17.1338C190.441 16.5948 190.18 15.9358 190.18 15.1587C190.18 14.3817 190.441 13.7227 190.965 13.1837C191.487 12.6428 192.119 12.3723 192.862 12.3723C193.738 12.3723 194.405 12.7228 194.864 13.4217V12.5114V12.5075ZM192.978 17.0519C193.515 17.0519 193.963 16.871 194.323 16.5072C194.683 16.1434 194.864 15.6939 194.864 15.1568C194.864 14.6197 194.683 14.1703 194.323 13.8065C193.963 13.4427 193.513 13.2618 192.978 13.2618C192.443 13.2618 192.003 13.4446 191.643 13.8065C191.283 14.1703 191.102 14.6197 191.102 15.1568C191.102 15.6939 191.283 16.1434 191.643 16.5072C192.003 16.871 192.449 17.0519 192.978 17.0519Z" fill="#494949"/>
<path d="M197.184 17.8042V10.0715H198.105V17.8042H197.184Z" fill="#494949"/>
<path d="M171.503 28.6548C170.987 29.1309 170.321 29.369 169.502 29.369C168.683 29.369 168.012 29.1309 167.494 28.6548C166.976 28.1786 166.715 27.5406 166.715 26.7426V21.8173H167.7V26.7007C167.7 27.2244 167.856 27.6377 168.167 27.9463C168.477 28.2548 168.923 28.4072 169.502 28.4072C170.081 28.4072 170.526 28.2529 170.837 27.9463C171.147 27.6396 171.304 27.2244 171.304 26.7007V21.8173H172.279V26.7426C172.279 27.5406 172.022 28.1786 171.505 28.6548H171.503Z" fill="#494949"/>
<path d="M176.324 23.7961C176.945 23.7961 177.444 23.9923 177.818 24.3846C178.191 24.777 178.379 25.3083 178.379 25.9788V29.2318H177.458V26.0321C177.458 25.6017 177.341 25.2684 177.107 25.0303C176.873 24.7922 176.553 24.676 176.143 24.676C175.684 24.676 175.313 24.8189 175.031 25.1046C174.749 25.3902 174.606 25.8302 174.606 26.4225V29.2299H173.685V23.9332H174.606V24.6951C174.98 24.0951 175.553 23.7942 176.322 23.7942L176.324 23.7961Z" fill="#494949"/>
<path d="M180.128 22.9713C179.95 22.9713 179.802 22.9123 179.682 22.7904C179.562 22.6704 179.501 22.5257 179.501 22.3562C179.501 22.1866 179.56 22.04 179.682 21.9162C179.802 21.7924 179.95 21.7314 180.128 21.7314C180.305 21.7314 180.442 21.7943 180.562 21.9162C180.682 22.0381 180.743 22.1866 180.743 22.3562C180.743 22.5257 180.682 22.6704 180.562 22.7904C180.442 22.9104 180.297 22.9713 180.128 22.9713ZM179.661 29.2318V23.9351H180.583V29.2318H179.661Z" fill="#494949"/>
<path d="M185.699 23.9351H186.695L184.577 29.2318H183.497L181.379 23.9351H182.375L184.038 28.2356L185.7 23.9351H185.699Z" fill="#494949"/>
<path d="M187.914 27.0072C188.005 27.4814 188.222 27.8471 188.565 28.11C188.908 28.3728 189.329 28.5023 189.831 28.5023C190.53 28.5023 191.039 28.2452 191.357 27.729L192.142 28.1747C191.626 28.9727 190.849 29.3727 189.811 29.3727C188.971 29.3727 188.287 29.1099 187.761 28.5842C187.235 28.0585 186.973 27.3919 186.973 26.5882C186.973 25.7844 187.23 25.1255 187.746 24.596C188.262 24.0665 188.929 23.8018 189.748 23.8018C190.525 23.8018 191.159 24.076 191.648 24.6226C192.14 25.1693 192.386 25.8283 192.386 26.5977C192.386 26.7329 192.374 26.8701 192.353 27.011H187.914V27.0072ZM189.746 24.6664C189.251 24.6664 188.841 24.8055 188.517 25.0855C188.192 25.3635 187.992 25.7368 187.914 26.2035H191.452C191.374 25.7025 191.176 25.3216 190.858 25.0588C190.54 24.7979 190.169 24.6664 189.746 24.6664Z" fill="#494949"/>
<path d="M194.365 24.8245C194.668 24.1674 195.22 23.8398 196.018 23.8398V24.8036C195.567 24.7826 195.178 24.9026 194.852 25.1635C194.527 25.4245 194.365 25.8454 194.365 26.4244V29.2318H193.443V23.9351H194.365V24.8245Z" fill="#494949"/>
<path d="M197.511 25.3483C197.511 25.5483 197.616 25.7083 197.823 25.8302C198.031 25.9521 198.279 26.053 198.568 26.1388C198.856 26.2226 199.145 26.3083 199.437 26.394C199.728 26.4797 199.974 26.6397 200.176 26.8739C200.377 27.1082 200.478 27.411 200.478 27.7786C200.478 28.2586 200.294 28.6433 199.922 28.9328C199.551 29.2223 199.077 29.3671 198.498 29.3671C197.981 29.3671 197.54 29.2547 197.174 29.028C196.806 28.8014 196.545 28.5024 196.389 28.1272L197.183 27.672C197.269 27.9253 197.427 28.1272 197.66 28.2757C197.892 28.4243 198.172 28.4986 198.496 28.4986C198.798 28.4986 199.05 28.4414 199.248 28.3233C199.446 28.2072 199.545 28.0262 199.545 27.7786C199.545 27.5748 199.442 27.411 199.238 27.2872C199.033 27.1634 198.787 27.0587 198.499 26.973C198.212 26.8873 197.922 26.7996 197.631 26.712C197.34 26.6244 197.092 26.4682 196.886 26.2416C196.681 26.015 196.58 25.7255 196.58 25.3731C196.58 24.9141 196.759 24.537 197.115 24.2399C197.471 23.9427 197.919 23.7942 198.456 23.7942C198.886 23.7942 199.269 23.8913 199.606 24.0856C199.941 24.2799 200.195 24.5503 200.364 24.895L199.591 25.3293C199.4 24.8779 199.021 24.6513 198.458 24.6513C198.197 24.6513 197.974 24.7122 197.791 24.8322C197.608 24.9522 197.515 25.1236 197.515 25.3445L197.511 25.3483Z" fill="#494949"/>
<path d="M201.981 22.9713C201.804 22.9713 201.655 22.9123 201.535 22.7904C201.415 22.6704 201.354 22.5257 201.354 22.3562C201.354 22.1866 201.414 22.04 201.535 21.9162C201.655 21.7924 201.804 21.7314 201.981 21.7314C202.158 21.7314 202.295 21.7943 202.415 21.9162C202.535 22.0381 202.596 22.1866 202.596 22.3562C202.596 22.5257 202.535 22.6704 202.415 22.7904C202.295 22.9104 202.151 22.9713 201.981 22.9713ZM201.514 29.2318V23.9351H202.436V29.2318H201.514Z" fill="#494949"/>
<path d="M206.727 24.8245H205.318V27.6948C205.318 27.9557 205.369 28.1424 205.472 28.2509C205.575 28.3614 205.731 28.4166 205.943 28.4204C206.154 28.4242 206.415 28.4204 206.727 28.4052V29.2318C205.922 29.3385 205.333 29.2718 204.958 29.0356C204.583 28.7995 204.396 28.3519 204.396 27.6948V24.8245H203.347V23.9351H204.396V22.7276L205.318 22.4514V23.9351H206.727V24.8245Z" fill="#494949"/>
<path d="M211.632 23.9351H212.617L210.455 29.5613C210.228 30.1612 209.912 30.6183 209.506 30.9326C209.101 31.2468 208.632 31.3859 208.103 31.3516V30.4945C208.75 30.544 209.224 30.1821 209.527 29.4108L209.628 29.2127L207.32 23.937H208.304L210.07 27.9976L211.63 23.937L211.632 23.9351Z" fill="#494949"/>
<path d="M219.619 29.369C218.496 29.369 217.57 28.9976 216.839 28.2567C216.107 27.5158 215.742 26.6035 215.742 25.5236C215.742 24.4437 216.107 23.5314 216.839 22.7905C217.57 22.0496 218.498 21.6782 219.619 21.6782C220.298 21.6782 220.92 21.8401 221.49 22.1658C222.057 22.4915 222.501 22.9276 222.819 23.48L221.962 23.9771C221.751 23.5676 221.435 23.24 221.014 22.9962C220.593 22.7524 220.13 22.6305 219.621 22.6305C218.766 22.6305 218.069 22.9067 217.528 23.4571C216.987 24.0076 216.719 24.697 216.719 25.5236C216.719 26.3502 216.989 27.0282 217.528 27.5787C218.069 28.1291 218.766 28.4053 219.621 28.4053C220.13 28.4053 220.595 28.2834 221.014 28.0396C221.433 27.7958 221.751 27.472 221.962 27.0701L222.819 27.5577C222.509 28.1082 222.067 28.5481 221.495 28.8757C220.924 29.2033 220.298 29.369 219.619 29.369Z" fill="#494949"/>
<path d="M228.285 28.5634C227.741 29.1005 227.082 29.369 226.304 29.369C225.527 29.369 224.868 29.1005 224.329 28.5634C223.789 28.0263 223.518 27.3654 223.518 26.5826C223.518 25.7998 223.789 25.1389 224.329 24.6018C224.87 24.0647 225.527 23.7961 226.304 23.7961C227.082 23.7961 227.741 24.0647 228.285 24.6018C228.828 25.1389 229.1 25.7998 229.1 26.5826C229.1 27.3654 228.828 28.0263 228.285 28.5634ZM226.304 28.4681C226.834 28.4681 227.28 28.2872 227.64 27.9272C228 27.5673 228.181 27.1178 228.181 26.5826C228.181 26.0474 228 25.5979 227.64 25.2379C227.28 24.878 226.834 24.697 226.304 24.697C225.775 24.697 225.341 24.878 224.981 25.2379C224.621 25.5979 224.44 26.0474 224.44 26.5826C224.44 27.1178 224.621 27.5673 224.981 27.9272C225.341 28.2872 225.783 28.4681 226.304 28.4681Z" fill="#494949"/>
<path d="M230.192 29.2318V21.4991H231.114V29.2318H230.192Z" fill="#494949"/>
<path d="M232.523 29.2318V21.4991H233.445V29.2318H232.523Z" fill="#494949"/>
<path d="M235.5 27.0072C235.591 27.4814 235.808 27.8471 236.151 28.11C236.494 28.3728 236.915 28.5023 237.418 28.5023C238.117 28.5023 238.625 28.2452 238.943 27.729L239.728 28.1747C239.212 28.9727 238.435 29.3727 237.397 29.3727C236.557 29.3727 235.873 29.1099 235.348 28.5842C234.822 28.0585 234.559 27.3919 234.559 26.5882C234.559 25.7844 234.816 25.1255 235.332 24.596C235.848 24.0665 236.515 23.8018 237.334 23.8018C238.111 23.8018 238.745 24.076 239.235 24.6226C239.726 25.1693 239.972 25.8283 239.972 26.5977C239.972 26.7329 239.961 26.8701 239.94 27.011H235.5V27.0072ZM237.332 24.6664C236.837 24.6664 236.427 24.8055 236.104 25.0855C235.778 25.3635 235.578 25.7368 235.5 26.2035H239.039C238.961 25.7025 238.763 25.3216 238.444 25.0588C238.126 24.7979 237.755 24.6664 237.332 24.6664Z" fill="#494949"/>
<path d="M245.416 23.9352H246.326V29.009C246.326 29.7937 246.061 30.4013 245.532 30.8355C245.002 31.2698 244.366 31.4869 243.625 31.4869C243.033 31.4869 242.521 31.3765 242.09 31.1536C241.66 30.9308 241.334 30.6108 241.115 30.1956L241.921 29.7404C242.21 30.3327 242.785 30.6299 243.648 30.6299C244.199 30.6299 244.631 30.4851 244.945 30.1956C245.259 29.9061 245.418 29.5099 245.418 29.009V28.2567C244.951 28.9633 244.288 29.3157 243.425 29.3157C242.669 29.3157 242.031 29.0471 241.507 28.51C240.985 27.9729 240.723 27.3197 240.723 26.5502C240.723 25.7807 240.984 25.1294 241.507 24.5961C242.031 24.0628 242.669 23.7961 243.425 23.7961C244.294 23.7961 244.958 24.1466 245.418 24.8456V23.9352H245.416ZM242.185 27.8967C242.545 28.2567 242.995 28.4377 243.53 28.4377C244.065 28.4377 244.515 28.2567 244.875 27.8967C245.235 27.5368 245.416 27.0873 245.416 26.5521C245.416 26.0169 245.235 25.5769 244.875 25.217C244.515 24.857 244.065 24.6761 243.53 24.6761C242.995 24.6761 242.545 24.857 242.185 25.217C241.825 25.5769 241.644 26.0226 241.644 26.5521C241.644 27.0816 241.825 27.5368 242.185 27.8967Z" fill="#494949"/>
<path d="M248.372 27.0072C248.463 27.4814 248.68 27.8471 249.023 28.11C249.366 28.3728 249.787 28.5023 250.289 28.5023C250.988 28.5023 251.497 28.2452 251.815 27.729L252.6 28.1747C252.084 28.9727 251.307 29.3727 250.269 29.3727C249.429 29.3727 248.745 29.1099 248.219 28.5842C247.694 28.0585 247.431 27.3919 247.431 26.5882C247.431 25.7844 247.688 25.1255 248.204 24.596C248.72 24.0665 249.387 23.8018 250.206 23.8018C250.983 23.8018 251.617 24.076 252.106 24.6226C252.598 25.1693 252.844 25.8283 252.844 26.5977C252.844 26.7329 252.832 26.8701 252.811 27.011H248.372V27.0072ZM250.204 24.6664C249.709 24.6664 249.299 24.8055 248.975 25.0855C248.65 25.3635 248.45 25.7368 248.372 26.2035H251.91C251.832 25.7025 251.634 25.3216 251.316 25.0588C250.998 24.7979 250.627 24.6664 250.204 24.6664Z" fill="#494949"/>
<path d="M171.696 40.6594L171.09 38.9966H167.755L167.15 40.6594H166.1L168.866 33.2448H169.978L172.743 40.6594H171.694H171.696ZM168.092 38.0748H170.757L169.426 34.4142L168.094 38.0748H168.092Z" fill="#494949"/>
<path d="M176.452 35.2237C177.193 35.2237 177.825 35.4942 178.349 36.0351C178.871 36.576 179.134 37.2331 179.134 38.0101C179.134 38.7872 178.873 39.4462 178.349 39.9852C177.825 40.5242 177.195 40.7947 176.452 40.7947C175.576 40.7947 174.909 40.4461 174.45 39.7452V42.7754H173.528V35.3608H174.45V36.2712C174.909 35.5723 175.576 35.2218 176.452 35.2218V35.2237ZM176.336 39.9052C176.865 39.9052 177.311 39.7243 177.671 39.3605C178.031 38.9967 178.212 38.5472 178.212 38.0101C178.212 37.473 178.031 37.0236 177.671 36.6598C177.311 36.296 176.865 36.1151 176.336 36.1151C175.806 36.1151 175.351 36.2979 174.991 36.6598C174.631 37.0236 174.45 37.473 174.45 38.0101C174.45 38.5472 174.631 38.9967 174.991 39.3605C175.351 39.7243 175.801 39.9052 176.336 39.9052Z" fill="#494949"/>
<path d="M183.158 35.2237C183.899 35.2237 184.531 35.4942 185.055 36.0351C185.577 36.576 185.84 37.2331 185.84 38.0101C185.84 38.7872 185.579 39.4462 185.055 39.9852C184.531 40.5242 183.901 40.7947 183.158 40.7947C182.282 40.7947 181.615 40.4461 181.156 39.7452V42.7754H180.234V35.3608H181.156V36.2712C181.615 35.5723 182.282 35.2218 183.158 35.2218V35.2237ZM183.042 39.9052C183.571 39.9052 184.017 39.7243 184.377 39.3605C184.737 38.9967 184.918 38.5472 184.918 38.0101C184.918 37.473 184.737 37.0236 184.377 36.6598C184.017 36.296 183.571 36.1151 183.042 36.1151C182.512 36.1151 182.057 36.2979 181.697 36.6598C181.337 37.0236 181.156 37.473 181.156 38.0101C181.156 38.5472 181.337 38.9967 181.697 39.3605C182.057 39.7243 182.507 39.9052 183.042 39.9052Z" fill="#494949"/>
<path d="M186.938 40.6594V32.9268H187.86V40.6594H186.938Z" fill="#494949"/>
<path d="M189.736 34.399C189.559 34.399 189.411 34.3399 189.291 34.218C189.171 34.098 189.11 33.9533 189.11 33.7838C189.11 33.6143 189.169 33.4676 189.291 33.3438C189.411 33.22 189.559 33.1591 189.736 33.1591C189.914 33.1591 190.051 33.2219 190.171 33.3438C190.291 33.4657 190.352 33.6143 190.352 33.7838C190.352 33.9533 190.291 34.098 190.171 34.218C190.051 34.338 189.906 34.399 189.736 34.399ZM189.27 40.6594V35.3627H190.192V40.6594H189.27Z" fill="#494949"/>
<path d="M194.09 40.7965C193.292 40.7965 192.627 40.5299 192.098 39.9966C191.568 39.4633 191.304 38.8005 191.304 38.0101C191.304 37.2197 191.568 36.5569 192.098 36.0236C192.627 35.4903 193.292 35.2236 194.09 35.2236C194.612 35.2236 195.082 35.3493 195.5 35.5988C195.917 35.8502 196.227 36.1874 196.431 36.6102L195.658 37.0559C195.524 36.774 195.317 36.5473 195.039 36.3778C194.761 36.2083 194.444 36.1245 194.09 36.1245C193.561 36.1245 193.117 36.3054 192.761 36.6654C192.405 37.0254 192.226 37.4749 192.226 38.0101C192.226 38.5453 192.405 38.9852 192.761 39.3452C193.117 39.7052 193.561 39.8861 194.09 39.8861C194.442 39.8861 194.761 39.8023 195.044 39.6366C195.326 39.4709 195.541 39.2461 195.69 38.9643L196.475 39.4195C196.248 39.8366 195.924 40.1699 195.5 40.4213C195.077 40.6727 194.606 40.7965 194.09 40.7965Z" fill="#494949"/>
<path d="M201.696 35.3628H202.617V40.6595H201.696V39.7491C201.237 40.448 200.568 40.7985 199.694 40.7985C198.953 40.7985 198.321 40.528 197.797 39.989C197.273 39.45 197.012 38.791 197.012 38.014C197.012 37.2369 197.273 36.5779 197.797 36.0389C198.319 35.498 198.951 35.2275 199.694 35.2275C200.57 35.2275 201.237 35.578 201.696 36.277V35.3666V35.3628ZM199.81 39.9071C200.347 39.9071 200.795 39.7262 201.155 39.3624C201.515 38.9986 201.696 38.5492 201.696 38.0121C201.696 37.475 201.515 37.0255 201.155 36.6617C200.795 36.2979 200.345 36.117 199.81 36.117C199.275 36.117 198.835 36.2998 198.475 36.6617C198.115 37.0255 197.934 37.475 197.934 38.0121C197.934 38.5492 198.115 38.9986 198.475 39.3624C198.835 39.7262 199.281 39.9071 199.81 39.9071Z" fill="#494949"/>
<path d="M206.897 36.2522H205.487V39.1224C205.487 39.3833 205.539 39.57 205.642 39.6785C205.744 39.789 205.901 39.8442 206.112 39.848C206.323 39.8519 206.584 39.848 206.897 39.8328V40.6594C206.091 40.7661 205.503 40.6994 205.127 40.4632C204.752 40.2271 204.566 39.7795 204.566 39.1224V36.2522H203.516V35.3627H204.566V34.1552L205.487 33.879V35.3627H206.897V36.2522Z" fill="#494949"/>
<path d="M208.455 34.399C208.278 34.399 208.129 34.3399 208.009 34.218C207.889 34.098 207.828 33.9533 207.828 33.7838C207.828 33.6143 207.887 33.4676 208.009 33.3438C208.129 33.22 208.278 33.1591 208.455 33.1591C208.632 33.1591 208.769 33.2219 208.889 33.3438C209.009 33.4657 209.07 33.6143 209.07 33.7838C209.07 33.9533 209.009 34.098 208.889 34.218C208.769 34.338 208.624 34.399 208.455 34.399ZM207.988 40.6594V35.3627H208.91V40.6594H207.988Z" fill="#494949"/>
<path d="M214.79 39.9908C214.245 40.5279 213.586 40.7965 212.809 40.7965C212.032 40.7965 211.373 40.5279 210.834 39.9908C210.293 39.4538 210.022 38.7929 210.022 38.0101C210.022 37.2273 210.293 36.5664 210.834 36.0293C211.375 35.4922 212.032 35.2236 212.809 35.2236C213.586 35.2236 214.245 35.4922 214.79 36.0293C215.332 36.5664 215.605 37.2273 215.605 38.0101C215.605 38.7929 215.332 39.4538 214.79 39.9908ZM212.809 39.8956C213.338 39.8956 213.784 39.7147 214.144 39.3547C214.504 38.9947 214.685 38.5453 214.685 38.0101C214.685 37.4749 214.504 37.0254 214.144 36.6654C213.784 36.3054 213.338 36.1245 212.809 36.1245C212.279 36.1245 211.845 36.3054 211.485 36.6654C211.125 37.0254 210.944 37.4749 210.944 38.0101C210.944 38.5453 211.125 38.9947 211.485 39.3547C211.845 39.7147 212.287 39.8956 212.809 39.8956Z" fill="#494949"/>
<path d="M219.334 35.2237C219.955 35.2237 220.454 35.4199 220.827 35.8122C221.201 36.2046 221.389 36.736 221.389 37.4064V40.6594H220.467V37.4597C220.467 37.0293 220.351 36.696 220.117 36.4579C219.883 36.2198 219.563 36.1036 219.153 36.1036C218.694 36.1036 218.323 36.2465 218.041 36.5322C217.759 36.8179 217.616 37.2578 217.616 37.8502V40.6575H216.694V35.3608H217.616V36.1227C217.989 35.5227 218.563 35.2218 219.332 35.2218L219.334 35.2237Z" fill="#494949"/>
<path d="M223.465 36.776C223.465 36.9759 223.57 37.1359 223.777 37.2578C223.985 37.3797 224.233 37.4807 224.522 37.5664C224.81 37.6502 225.099 37.7359 225.391 37.8216C225.682 37.9073 225.928 38.0673 226.13 38.3015C226.331 38.5358 226.432 38.8386 226.432 39.2062C226.432 39.6862 226.248 40.0709 225.876 40.3604C225.505 40.6499 225.031 40.7947 224.452 40.7947C223.935 40.7947 223.494 40.6823 223.128 40.4556C222.76 40.229 222.499 39.93 222.343 39.5548L223.137 39.0996C223.223 39.3529 223.381 39.5548 223.614 39.7033C223.846 39.8519 224.126 39.9262 224.45 39.9262C224.753 39.9262 225.004 39.869 225.202 39.7509C225.4 39.6348 225.499 39.4538 225.499 39.2062C225.499 39.0024 225.396 38.8386 225.193 38.7148C224.987 38.591 224.741 38.4863 224.454 38.4006C224.166 38.3149 223.876 38.2273 223.585 38.1397C223.294 38.052 223.046 37.8959 222.84 37.6692C222.635 37.4426 222.534 37.1531 222.534 36.8007C222.534 36.3417 222.713 35.9646 223.069 35.6675C223.425 35.3704 223.873 35.2218 224.41 35.2218C224.84 35.2218 225.223 35.3189 225.56 35.5132C225.895 35.7075 226.149 35.9779 226.318 36.3227L225.545 36.7569C225.354 36.3055 224.975 36.0789 224.412 36.0789C224.151 36.0789 223.928 36.1398 223.745 36.2598C223.562 36.3798 223.469 36.5512 223.469 36.7721L223.465 36.776Z" fill="#494949"/>
<path d="M232.957 33.2429C233.643 33.2429 234.212 33.4715 234.668 33.9267C235.123 34.3819 235.351 34.9494 235.351 35.6275C235.351 36.3055 235.123 36.8636 234.668 37.3226C234.212 37.7816 233.641 38.012 232.957 38.012H231.251V40.6613H230.266V33.2467H232.957V33.2429ZM232.957 37.0883C233.367 37.0883 233.706 36.9493 233.974 36.6693C234.243 36.3893 234.376 36.0427 234.376 35.6256C234.376 35.2085 234.241 34.8523 233.974 34.5761C233.708 34.3 233.367 34.1628 232.957 34.1628H231.251V37.0864H232.957V37.0883Z" fill="#494949"/>
<path d="M240.49 39.9908C239.946 40.5279 239.287 40.7965 238.51 40.7965C237.732 40.7965 237.074 40.5279 236.535 39.9908C235.994 39.4538 235.723 38.7929 235.723 38.0101C235.723 37.2273 235.994 36.5664 236.535 36.0293C237.075 35.4922 237.732 35.2236 238.51 35.2236C239.287 35.2236 239.946 35.4922 240.49 36.0293C241.033 36.5664 241.306 37.2273 241.306 38.0101C241.306 38.7929 241.033 39.4538 240.49 39.9908ZM238.51 39.8956C239.039 39.8956 239.485 39.7147 239.845 39.3547C240.205 38.9947 240.386 38.5453 240.386 38.0101C240.386 37.4749 240.205 37.0254 239.845 36.6654C239.485 36.3054 239.039 36.1245 238.51 36.1245C237.98 36.1245 237.546 36.3054 237.186 36.6654C236.826 37.0254 236.645 37.4749 236.645 38.0101C236.645 38.5453 236.826 38.9947 237.186 39.3547C237.546 39.7147 237.988 39.8956 238.51 39.8956Z" fill="#494949"/>
<path d="M243.318 36.2521C243.621 35.595 244.173 35.2675 244.972 35.2675V36.2312C244.52 36.2102 244.132 36.3302 243.806 36.5912C243.48 36.8521 243.318 37.273 243.318 37.852V40.6594H242.396V35.3627H243.318V36.2521Z" fill="#494949"/>
<path d="M248.88 36.2522H247.47V39.1224C247.47 39.3833 247.522 39.57 247.625 39.6785C247.727 39.789 247.884 39.8442 248.095 39.848C248.306 39.8519 248.567 39.848 248.88 39.8328V40.6594C248.074 40.7661 247.486 40.6994 247.11 40.4632C246.735 40.2271 246.548 39.7795 246.548 39.1224V36.2522H245.499V35.3627H246.548V34.1552L247.47 33.879V35.3627H248.88V36.2522Z" fill="#494949"/>
<path d="M254.091 35.3628H255.013V40.6595H254.091V39.7491C253.632 40.448 252.964 40.7985 252.089 40.7985C251.348 40.7985 250.716 40.528 250.192 39.989C249.669 39.45 249.408 38.791 249.408 38.014C249.408 37.2369 249.669 36.5779 250.192 36.0389C250.714 35.498 251.347 35.2275 252.089 35.2275C252.966 35.2275 253.632 35.578 254.091 36.277V35.3666V35.3628ZM252.206 39.9071C252.743 39.9071 253.19 39.7262 253.55 39.3624C253.91 38.9986 254.091 38.5492 254.091 38.0121C254.091 37.475 253.91 37.0255 253.55 36.6617C253.19 36.2979 252.741 36.117 252.206 36.117C251.67 36.117 251.23 36.2998 250.87 36.6617C250.51 37.0255 250.33 37.475 250.33 38.0121C250.33 38.5492 250.51 38.9986 250.87 39.3624C251.23 39.7262 251.676 39.9071 252.206 39.9071Z" fill="#494949"/>
<path d="M256.411 40.6594V32.9268H257.332V40.6594H256.411Z" fill="#494949"/>
</svg>
