<svg width="135" height="138" viewBox="0 0 135 138" fill="none" xmlns="http://www.w3.org/2000/svg">
<g clip-path="url(#clip0_10115_20245)">
<path d="M72.9647 138.001C105.968 138.001 132.722 110.938 132.722 77.5543C132.722 44.1704 105.968 17.1074 72.9647 17.1074C39.9615 17.1074 13.207 44.1704 13.207 77.5543C13.207 110.938 39.9615 138.001 72.9647 138.001Z" fill="#045D5E"/>
<path d="M22.0973 29.5888C21.9967 29.5888 21.8961 29.5444 21.8264 29.4596C21.7026 29.3083 21.7245 29.0852 21.8741 28.9599C27.144 24.5608 33.0549 21.1309 39.4417 18.7656C46.0517 16.3169 53.0047 15.0762 60.1086 15.0762C71.2133 15.0762 82.06 18.1629 91.479 24.0037C91.6441 24.1054 91.6957 24.3246 91.5951 24.4916C91.4945 24.6586 91.2778 24.7108 91.1127 24.609C81.8046 18.8374 71.083 15.7859 60.1086 15.7859C46.3406 15.7859 32.9208 20.6586 22.3204 29.5079C22.2546 29.5627 22.1759 29.5888 22.0973 29.5888Z" fill="#689E9E"/>
<path d="M11.7496 111.75C11.6412 111.75 11.5342 111.699 11.4658 111.604C3.96467 101.172 0 88.8172 0 75.8766C0 70.2994 0.746761 64.773 2.21836 59.4528C2.26995 59.2636 2.4647 59.154 2.65042 59.2062C2.83744 59.2584 2.94577 59.4554 2.89418 59.6433C1.43935 64.9022 0.70162 70.3633 0.70162 75.8766C0.70162 88.6658 4.61986 100.876 12.0333 111.186C12.1468 111.344 12.112 111.567 11.9559 111.682C11.894 111.728 11.8218 111.75 11.7496 111.75Z" fill="#689E9E"/>
<path d="M41.6163 133.729C41.5802 133.729 41.5441 133.723 41.508 133.712C35.8292 131.843 30.4652 129.129 25.5629 125.64C25.4043 125.528 25.3668 125.306 25.4778 125.146C25.5887 124.985 25.8079 124.947 25.9666 125.059C30.8109 128.508 36.113 131.191 41.726 133.037C41.9104 133.097 42.011 133.298 41.9517 133.485C41.9039 133.635 41.7659 133.73 41.6176 133.73L41.6163 133.729Z" fill="#689E9E"/>
<path d="M60.1076 136.678C56.6795 136.678 53.2436 136.385 49.8929 135.804C49.702 135.772 49.5743 135.588 49.6065 135.395C49.6388 135.202 49.8193 135.072 50.0115 135.105C53.3236 135.679 56.7195 135.969 60.1076 135.969C60.8918 135.969 61.6863 135.953 62.4666 135.922C62.6575 135.916 62.8225 136.067 62.8303 136.262C62.838 136.458 62.6871 136.622 62.4937 136.63C61.703 136.661 60.9008 136.677 60.1076 136.677V136.678Z" fill="#689E9E"/>
<path d="M117.181 94.2066C117.146 94.2066 117.111 94.2013 117.077 94.1909C116.892 94.1322 116.789 93.9339 116.846 93.7473C118.618 87.9835 119.517 81.9718 119.517 75.878C119.517 67.7658 117.946 59.8951 114.848 52.4874C114.773 52.3074 114.856 52.0987 115.034 52.023C115.212 51.9473 115.418 52.0308 115.493 52.2109C118.627 59.7072 120.217 67.6693 120.217 75.878C120.217 82.0436 119.308 88.1257 117.515 93.9587C117.469 94.1113 117.329 94.2079 117.181 94.2079V94.2066Z" fill="#689E9E"/>
<path d="M59.0938 107.733C57.1334 107.733 55.2646 106.881 53.9645 105.388L34.7022 83.2673C32.2065 80.4011 32.4813 76.0319 35.3135 73.5088C38.1471 70.9843 42.4665 71.2622 44.9608 74.1272L58.7701 89.9861L122.77 6.86884C125.09 3.85647 129.385 3.31636 132.363 5.66207C135.341 8.00907 135.875 12.3535 133.556 15.3658L64.4875 105.068C63.2365 106.692 61.3354 107.668 59.3015 107.73C59.2331 107.733 59.1635 107.733 59.0951 107.733H59.0938Z" fill="#FFF1E6"/>
<path d="M37.8275 92.0513C37.7385 92.0513 37.6483 92.0174 37.5799 91.9482L31.4446 85.78C30.0826 84.4115 29.3294 82.5876 29.3243 80.6463C29.3178 78.7051 30.0607 76.8773 31.4136 75.4996C34.2072 72.6569 38.7665 72.6425 41.5768 75.4683L56.0955 90.0644L102.935 20.1094C103.043 19.9476 103.261 19.9046 103.423 20.0142C103.583 20.1238 103.625 20.3442 103.517 20.5073L56.4385 90.8158C56.3805 90.9033 56.2863 90.9594 56.1819 90.9698C56.0787 90.9802 55.9755 90.9424 55.9007 90.868L41.0816 75.9706C38.5459 73.4214 34.4316 73.4344 31.9102 75.9993C30.6888 77.2426 30.0194 78.8916 30.0246 80.6437C30.0297 82.3958 30.7094 84.041 31.9386 85.2764L38.0739 91.4447C38.2119 91.583 38.2119 91.8074 38.0752 91.9456C38.0068 92.0161 37.9165 92.05 37.8262 92.05L37.8275 92.0513Z" fill="#689E9E"/>
<path d="M57.1854 108.673C55.2959 108.673 53.4632 107.913 52.1167 106.56L43.9552 98.3553C43.8172 98.217 43.8172 97.9926 43.9539 97.8543C44.0906 97.7147 44.3125 97.7147 44.4492 97.853L52.6107 106.058C53.8875 107.341 55.6506 108.037 57.4511 107.959C57.571 107.953 57.691 107.946 57.8084 107.934C59.7365 107.745 61.4661 106.706 62.552 105.083L77.9206 82.131C78.0289 81.9692 78.2469 81.9262 78.4081 82.0358C78.5681 82.1454 78.6106 82.3659 78.5023 82.5289L63.1337 105.481C61.9291 107.279 60.0138 108.431 57.8767 108.64C57.7477 108.653 57.6136 108.662 57.4808 108.667C57.3827 108.671 57.2834 108.673 57.1854 108.673Z" fill="#689E9E"/>
<path d="M82.5299 76.2315C82.4628 76.2315 82.3944 76.2119 82.3338 76.1702C82.1739 76.0606 82.1313 75.8401 82.2397 75.677L125.584 10.9457C126.555 9.495 126.91 7.74812 126.584 6.02733C126.256 4.30653 125.286 2.81796 123.852 1.83559C120.892 -0.193097 116.851 0.593588 114.846 3.58769L107.746 14.1903C107.637 14.3521 107.419 14.3952 107.258 14.2856C107.098 14.176 107.056 13.9555 107.164 13.7924L114.264 3.18978C116.486 -0.129171 120.963 -1.00066 124.244 1.2472C125.833 2.33656 126.909 3.9856 127.271 5.89295C127.633 7.8003 127.24 9.73505 126.164 11.3423L82.8201 76.0749C82.7517 76.1767 82.6421 76.2302 82.5299 76.2302V76.2315Z" fill="#689E9E"/>
<path d="M50.2645 52.1495L51.126 53.7947L52.7008 54.6948L51.126 55.595L50.2645 57.2402L49.4029 55.595L47.8281 54.6948L49.4029 53.7947L50.2645 52.1495Z" fill="#FEE3CC"/>
<path d="M45.4922 43.5416L46.9857 46.3935L49.7148 47.9538L46.9857 49.5129L45.4922 52.3648L43.9999 49.5129L41.2695 47.9538L43.9999 46.3935L45.4922 43.5416Z" fill="#FEE3CC"/>
<path d="M89.1393 97.699L87.5117 98.5705L86.623 100.163L85.7331 98.5705L84.1055 97.699L85.7331 96.8276L86.623 95.2346L87.5117 96.8276L89.1393 97.699Z" fill="#FDAB66"/>
<path d="M97.6483 92.8719L94.8289 94.3827L93.2864 97.1432L91.7452 94.3827L88.9258 92.8719L91.7452 91.3625L93.2864 88.6006L94.8289 91.3625L97.6483 92.8719Z" fill="#FDAB66"/>
</g>
<defs>
<clipPath id="clip0_10115_20245">
<rect width="135" height="138" fill="white"/>
</clipPath>
</defs>
</svg>
