<svg width="283" height="237" viewBox="0 0 283 237" fill="none" xmlns="http://www.w3.org/2000/svg">
<g clip-path="url(#clip0_10115_19831)">
<path d="M274.705 81.0008H245.506C242.728 81.0008 240.477 83.2471 240.477 86.0174V104.777C240.477 107.548 242.729 109.794 245.507 109.794H253.903L257.652 114.686C258.889 116.299 261.324 116.299 262.561 114.686L266.31 109.794H274.706C277.484 109.794 279.735 107.548 279.735 104.778V86.0174C279.735 83.2463 277.484 81 274.706 81L274.705 81.0008Z" fill="#FD8F33"/>
<path d="M253.83 97.4025C252.372 95.9742 251.738 94.4092 251.738 93.0091C251.738 90.6192 253.335 89.0275 255.757 89.0275C258.014 89.0275 258.784 90.0716 260.106 91.5808C261.427 90.0716 262.198 89.0275 264.455 89.0275C266.877 89.0275 268.474 90.6192 268.474 93.0091C268.474 94.4084 267.84 95.9734 266.382 97.4025L260.106 103.635L253.83 97.4025Z" fill="white"/>
<path d="M32.2305 201.354C30.5114 199.671 29.7656 197.827 29.7656 196.178C29.7656 193.362 31.647 191.487 34.5008 191.487C37.1601 191.487 38.0683 192.717 39.625 194.495C41.1817 192.717 42.0898 191.487 44.7491 191.487C47.6022 191.487 49.4843 193.362 49.4843 196.178C49.4843 197.827 48.7385 199.671 47.0195 201.354L39.6257 208.698L32.232 201.354H32.2305Z" fill="#FC7300"/>
<path d="M48.9327 209.642C47.8814 208.613 47.4258 207.486 47.4258 206.478C47.4258 204.756 48.5759 203.61 50.3202 203.61C51.9458 203.61 52.5009 204.362 53.4527 205.449C54.4045 204.362 54.9596 203.61 56.5853 203.61C58.3296 203.61 59.4797 204.756 59.4797 206.478C59.4797 207.486 59.0233 208.613 57.9727 209.642L53.4527 214.132L48.9327 209.642Z" fill="#FC7300"/>
<path d="M238.572 0.406372H205.071C201.884 0.406372 199.301 2.98342 199.301 6.16234V27.6861C199.301 30.8651 201.884 33.4421 205.071 33.4421H214.704L219.006 39.0545C220.425 40.9052 223.218 40.9052 224.637 39.0545L228.939 33.4421H238.571C241.758 33.4421 244.342 30.8651 244.342 27.6861V6.16234C244.342 2.98342 241.758 0.406372 238.571 0.406372H238.572Z" fill="#CDDFDF"/>
<path d="M211.3 25.5788H215.095V12.1191H210.668L211.3 25.5788Z" fill="#045D5E"/>
<path d="M232.699 14.2219C232.506 13.6254 231.902 12.3758 231.328 12.1192C229.664 11.3745 226.023 11.612 222.799 12.0359C222.935 11.7793 223.047 11.5494 223.111 11.3821C223.388 10.6565 223.834 9.12282 223.781 8.34756C223.733 7.63647 223.402 6.05082 222.797 5.67045C222.476 5.46805 221.539 5.39625 221.277 5.67045C220.639 6.33725 221.083 8.4438 220.83 9.3298C220.597 10.144 219.533 11.5777 218.626 12.702C217.5 12.9105 216.781 13.0663 216.781 13.0663V24.9487C216.781 24.9487 226.51 27.5899 229.642 26.736C230.847 26.4075 231.414 24.3262 231.856 23.1606C232.649 21.0686 233.387 16.3522 232.699 14.2227V14.2219Z" fill="#045D5E"/>
<path d="M153.839 19.1033C153.484 14.7298 149.822 11.3615 145.423 11.3615H139.356C134.957 11.3615 131.295 14.7298 130.94 19.1033L130.43 24.2383H154.349L153.839 19.1033Z" fill="#FD8F33"/>
<path d="M147.981 6.75449C148.576 3.6735 146.554 0.694898 143.465 0.101593C140.377 -0.491713 137.391 1.52495 136.796 4.60594C136.201 7.68693 138.223 10.6655 141.311 11.2588C144.4 11.8521 147.386 9.83548 147.981 6.75449Z" fill="#FD8F33"/>
<path d="M29.3912 98.2945C28.48 98.2945 27.6446 98.6145 26.9892 99.1461L22.4171 95.4699C22.6789 94.9544 22.8298 94.3731 22.8298 93.7552C22.8298 91.6563 21.1245 89.9553 19.0204 89.9553C16.9162 89.9553 15.2109 91.6571 15.2109 93.7552C15.2109 95.8534 16.9169 97.5551 19.0204 97.5551C19.9316 97.5551 20.767 97.2351 21.4224 96.7035L25.9945 100.38C25.7326 100.895 25.5818 101.476 25.5818 102.094C25.5818 102.712 25.7326 103.294 25.9945 103.809L21.4224 107.485C20.767 106.954 19.9316 106.634 19.0204 106.634C16.9162 106.634 15.2109 108.335 15.2109 110.433C15.2109 112.532 16.9169 114.233 19.0204 114.233C21.1238 114.233 22.8298 112.532 22.8298 110.433C22.8298 109.816 22.6789 109.234 22.4171 108.719L26.9892 105.043C27.6446 105.574 28.48 105.894 29.3912 105.894C31.4954 105.894 33.2006 104.192 33.2006 102.094C33.2006 99.9962 31.4946 98.2945 29.3912 98.2945Z" fill="#367D7E"/>
<path d="M190.916 38.5266H173.654L156.246 237H173.508C181.509 237 188.562 230.53 189.263 222.549L204.135 52.9784C204.835 44.9975 198.916 38.5274 190.915 38.5274L190.916 38.5266Z" fill="#367D7E"/>
<path d="M201.605 58.4326C201.672 57.6681 202.349 57.0479 203.115 57.0479C203.882 57.0479 204.449 57.6681 204.382 58.4326L203.216 71.7295C203.149 72.4949 202.473 73.1143 201.706 73.1143C200.94 73.1143 200.372 72.4941 200.439 71.7295L201.605 58.4326Z" fill="#367D7E"/>
<path opacity="0.3" d="M201.605 58.4326C201.672 57.6681 202.349 57.0479 203.115 57.0479C203.882 57.0479 204.449 57.6681 204.382 58.4326L203.216 71.7295C203.149 72.4949 202.473 73.1143 201.706 73.1143C200.94 73.1143 200.372 72.4941 200.439 71.7295L201.605 58.4326Z" fill="#367D7E"/>
<path d="M169.971 237H98.8466C90.8456 237 84.9266 230.53 85.6265 222.549L100.499 52.9784C101.199 44.9967 108.253 38.5266 116.254 38.5266H187.378C195.379 38.5266 201.298 44.9967 200.599 52.9784L185.725 222.549C185.025 230.53 177.972 237 169.97 237H169.971Z" fill="#367D7E"/>
<path d="M187.086 41.8423H168.599C167.389 41.8423 166.288 42.7397 166.03 43.9381L165.905 44.5156C165.274 47.4417 162.585 49.6338 159.628 49.6338H142.053C139.095 49.6338 136.792 47.4417 136.674 44.5156L136.651 43.9381C136.603 42.7397 135.66 41.8423 134.449 41.8423H115.962C109.797 41.8423 104.362 46.8283 103.822 52.9784L88.9496 222.549C88.4098 228.699 92.9712 233.685 99.1367 233.685H170.261C176.426 233.685 181.862 228.699 182.401 222.549L197.274 52.9784C197.813 46.8283 193.252 41.8423 187.087 41.8423H187.086Z" fill="#367D7E"/>
<path d="M197.279 52.977L197.075 55.3234L196.001 67.5731L193.153 100.023V100.027L191.852 114.847L182.407 222.551C182.089 226.208 180.035 229.452 177.129 231.481C175.15 232.866 172.77 233.686 170.269 233.686H99.1452C92.9773 233.686 88.4183 228.699 88.9573 222.551L103.831 52.977C104.37 46.8284 109.805 41.8408 115.969 41.8408H134.458C135.669 41.8408 136.609 42.739 136.661 43.9359L136.684 44.5164C136.802 47.4395 139.103 49.6331 142.062 49.6331H159.637C162.595 49.6331 165.282 47.4395 165.912 44.5164L166.037 43.9359C166.297 42.739 167.398 41.8408 168.61 41.8408H187.094C193.262 41.8408 197.821 46.8284 197.283 52.977H197.279Z" fill="white"/>
<path d="M147.058 43.7212C146.989 44.4995 146.302 45.1304 145.521 45.1304C144.741 45.1304 144.164 44.4995 144.232 43.7212C144.3 42.9429 144.988 42.312 145.768 42.312C146.548 42.312 147.126 42.9429 147.057 43.7212H147.058Z" fill="#367D7E"/>
<path d="M157.198 42.312H152.354C151.574 42.312 150.886 42.9429 150.818 43.7212C150.75 44.4995 151.327 45.1304 152.107 45.1304H156.951C157.731 45.1304 158.418 44.4995 158.487 43.7212C158.555 42.9429 157.977 42.312 157.197 42.312H157.198Z" fill="#367D7E"/>
<path d="M111.859 49.6063H113.355L113.486 48.1146H111.99L111.859 49.6063Z" fill="#367D7E"/>
<path d="M114.979 48.1146L114.848 49.6063H116.344L116.475 48.1146L116.606 46.6222H115.11L114.979 48.1146Z" fill="#367D7E"/>
<path d="M118.237 45.1305L118.106 46.6222L117.975 48.1146L117.844 49.6063H119.34L119.471 48.1146L119.601 46.6222L119.732 45.1305H118.237Z" fill="#367D7E"/>
<path d="M182.547 45.2298L182.451 46.3235H181.72L181.527 48.5118H182.259L182.163 49.6056H188.744L189.128 45.229H182.547V45.2298ZM185.184 48.5126H182.99L183.182 46.3243H185.376L185.184 48.5126Z" fill="#367D7E"/>
<path d="M179.74 189.705L177.12 231.481C175.142 232.866 172.762 233.686 170.26 233.686H163.085C161.764 224.657 160.304 212.906 160.823 208.126C161.72 199.89 166.047 191.113 166.047 191.113L148.358 153.817L144.215 153.558L143.366 191.203L112.691 233.685H98.4453C98.4453 233.685 110.544 208.38 113.533 202.915C116.518 197.445 127.108 185.289 127.108 185.289C127.108 185.289 124.264 158.345 124.784 150.085C125.224 143.035 128.788 136.383 129.823 134.582C130.003 134.268 130.106 134.104 130.106 134.104C130.106 134.104 149.802 135.08 156.257 136.804C156.516 136.874 156.752 136.945 156.969 137.015C173.321 159.522 179.74 189.703 179.74 189.703L179.74 189.705Z" fill="#261F35"/>
<path d="M227.54 54.3357L230.417 53.8973C233.594 53.413 236.509 55.738 236.734 58.936C236.945 61.9385 234.692 64.5499 231.684 64.789L229.139 64.9907L227.539 54.3349L227.54 54.3357Z" fill="#F0532D"/>
<path d="M193.611 62.0256C194.151 65.2275 197.106 67.4501 200.341 67.0865L201.044 67.0079L205.217 87.3012C205.479 88.5752 206.659 89.4505 207.958 89.3329C209.409 89.2023 210.459 87.8924 210.267 86.4518L207.537 65.9049L233.112 73.9095L230.432 38.3059L207.209 53.067L198.321 55.043C195.138 55.7503 193.069 58.8184 193.609 62.0256H193.611Z" fill="#FC7300"/>
<path d="M158.318 79.4203C158.318 79.4203 135.496 75.7342 126.484 80.8265C117.472 85.9187 113.754 90.9644 113.754 90.9644L122.177 101.292L128.859 97.1847L128.809 134.126C128.809 134.126 141.632 140.581 156.22 136.968C156.22 136.968 158.511 127.252 163.28 120.821C167.821 114.696 168.033 105.285 169.869 100.122C171.258 102.093 178.104 107.421 178.104 107.421L186.645 97.7759C186.645 97.7759 172.176 81.4169 158.318 79.4203Z" fill="#045D5E"/>
<path d="M144.223 81.9844L148.714 69.7736L158.578 73.7927L158.488 84.883C158.488 84.883 149.507 87.9588 144.223 81.9844Z" fill="#F9C1AC"/>
<path d="M178.625 106.857C178.625 106.857 195.157 118.663 200.545 117.115C205.933 115.566 203.394 83.7419 203.394 83.7419L208.184 83.3317C210.531 83.1309 212.427 81.339 212.754 79.0125C213.193 75.8878 210.678 73.1351 207.518 73.2809C204.158 73.436 200.447 73.9088 199.395 75.1988C197.347 77.7102 192.264 104.536 192.264 104.536L186.265 97.7522L178.625 106.858V106.857Z" fill="#F9C1AC"/>
<path d="M238.977 46.7558L243.377 30.8207L248.883 33.426L238.977 46.7558Z" fill="#F0532D"/>
<path d="M122.17 101.291L113.747 90.9635C113.747 90.9635 100.671 111.229 100.318 116.851C99.9646 122.473 103.518 139.629 103.518 139.629C103.518 139.629 105.055 147.935 111.204 148.319C117.352 148.702 112.358 138.128 112.358 138.128C112.358 138.128 114.695 141.866 116.905 139.438C119.115 137.011 110.629 132.888 110.629 132.888L108.036 116.82L122.17 101.291Z" fill="#F9C1AC"/>
<path d="M158.578 77.6689C158.578 79.3439 156.702 80.7019 154.387 80.7019C152.072 80.7019 150.195 74.0164 150.195 72.3414C150.195 70.6664 152.072 74.6358 154.387 74.6358C156.702 74.6358 158.578 75.9939 158.578 77.6689Z" fill="#DAA997"/>
<path d="M142.162 68.5827C142.024 66.8397 143.007 66.7382 143.007 66.7382L144.61 65.1754L147.276 59.7044C147.276 59.7044 148.453 59.6937 149.934 59.6853L149.552 59.2759L151.758 52.9524L157.981 53.3419L161.723 56.0099L163.51 58.9054L163.353 60.9753L163.334 61.1663L163.621 62.7565C163.621 62.7565 163.739 63.7158 164.455 64.9066C165.17 66.0973 165.102 68.7065 164.544 71.0276C163.987 73.3481 163.22 76.2405 163.169 76.8424C163.118 77.4443 162.038 79.3209 159.295 78.865C156.552 78.4097 155.015 78.1852 152.973 77.1838C150.931 76.1825 149.555 73.4932 149.221 73.4993C148.888 73.5062 148.836 74.2394 147.39 73.6016C147.39 73.6016 145.508 73.7475 144.271 72.5384C143.035 71.3293 142.298 70.3265 142.161 68.5835L142.162 68.5827Z" fill="#F9C1AC"/>
<path d="M138.405 56.9387C138.764 55.2591 139.802 53.8476 141.019 52.747L141.051 52.6683L141.012 52.6469C140.359 52.7645 139.7 52.9097 139.127 53.2511C138.553 53.5917 138.068 54.1577 137.95 54.855C137.925 53.5917 138.864 52.54 139.934 52.0511C141.003 51.5623 142.204 51.5005 143.363 51.3187C143.363 51.3187 143.376 51.2621 143.398 51.1774C143.085 51.1911 142.753 51.0849 142.438 51.0048C141.723 50.8222 140.981 50.784 140.262 50.8917C140.884 50.7367 141.322 50.1569 141.9 49.8751C142.519 49.5734 143.296 49.6528 143.873 50.076C143.674 49.0876 144.036 48.0137 144.768 47.4149C144.299 48.1161 144.246 49.1166 144.627 49.9041C144.64 49.3977 144.846 48.9112 145.134 48.5148C145.464 48.0611 145.893 47.7059 146.319 47.3561C147.041 46.7619 147.763 46.1684 148.485 45.5742C148.206 45.9973 147.924 46.4273 147.76 46.9184C147.599 47.4004 147.564 47.9572 147.767 48.4323C148.086 47.3187 148.821 46.3563 149.785 45.8262C150.64 45.3557 151.651 45.2098 152.429 44.6095C153.069 44.1161 153.501 43.3286 153.596 42.4792C153.805 43.379 153.723 44.3437 153.367 45.1678C153.401 45.1457 153.435 45.125 153.471 45.1052C155.299 44.0855 157.56 44.1352 159.558 44.8631C161.557 45.591 163.326 46.9406 164.927 48.4384C163.56 47.7563 162.126 47.059 160.641 47.127L160.238 47.1323C161.959 47.366 163.626 48.3467 164.871 49.7071C166.522 51.5134 167.505 53.9095 168.086 56.3383C167.365 55.2247 166.342 54.3372 165.189 53.7957L165.203 53.8247C165.675 54.5892 165.867 55.5142 165.888 56.417C165.911 57.3198 165.773 58.2119 165.636 59.0979C165.551 59.6441 165.462 60.2032 165.202 60.6759C165.107 59.9137 164.881 59.1659 164.539 58.4816C164.519 59.5264 164.357 60.5698 164.148 61.5872C164.103 61.0586 163.99 60.5346 163.815 60.0336L163.91 60.4659C163.693 61.1961 163.603 61.9736 163.644 62.7481C163.439 62.2524 163.231 61.7475 163.174 61.2129C163.145 60.9402 163.155 60.6668 163.165 60.3941C163.182 59.9748 163.198 59.5555 163.214 59.1361C163.214 59.1361 163.216 58.9849 163.226 58.7932C163.095 58.5816 162.953 58.3777 162.798 58.1852C161.544 56.6217 159.627 55.8113 158.339 54.2875C158.567 55.3347 158.466 56.4651 158.158 57.481C157.73 58.894 156.942 60.1329 156.155 61.345C156.377 59.9305 155.753 58.4838 154.954 57.2954C154.155 56.1069 153.164 55.062 152.473 53.8002L152.912 54.6274C153.209 55.5318 153.367 56.5133 153.171 57.4321C152.976 58.3509 152.38 59.1926 151.538 59.4577C151.781 59.2797 151.912 58.9719 151.994 58.6672C152.164 58.0332 152.17 57.3435 152.01 56.6943L151.905 57.054C151.681 60.3315 148.327 62.5289 148.162 65.8125L148.314 66.1134C148.317 67.1972 148.677 68.2887 149.314 69.1526C149.461 69.3504 149.63 69.5429 149.847 69.6345C149.151 69.6964 148.421 69.3786 147.947 68.8073V68.7684L147.941 68.7714L147.947 68.8066L147.919 68.7829L147.906 68.7898C147.878 69.1304 147.761 69.4596 147.562 69.7224C147.454 69.1037 147.037 68.5851 146.572 68.1894C146.108 67.7938 145.582 67.489 145.12 67.0895C144.941 66.9353 144.771 66.7611 144.624 66.5709C144.09 66.4938 143.545 66.532 143.032 66.6847C142.843 66.1287 142.585 65.5979 142.268 65.1098L142.199 64.8486L142.149 64.9135C141.499 64.6752 140.972 64.1191 140.62 63.4821C140.269 62.8451 140.074 62.1279 139.915 61.4122C139.736 60.6125 139.598 59.8037 139.499 58.991C139.101 59.8319 139.202 60.9303 139.747 61.7063C138.477 60.5851 138.043 58.6175 138.402 56.9387H138.405Z" fill="#2B2419"/>
<path opacity="0.4" d="M73.9979 129.018H21.4056C17.3672 129.018 14.0938 132.284 14.0938 136.312V176.188C14.0938 180.216 17.3672 183.482 21.4056 183.482H61.117C61.8958 189.859 67.3331 194.802 73.9366 194.802C74.2291 194.802 74.5155 194.777 74.8026 194.758C72.7482 192.058 71.0713 188.145 69.9725 183.482H73.9971C78.0355 183.482 81.3089 180.216 81.3089 176.188V136.312C81.3089 132.284 78.0355 129.018 73.9971 129.018H73.9979Z" fill="#FEC799"/>
<path d="M84.5312 145.962L88.6263 142.187L92.1202 148.644C92.1202 148.644 88.0696 151.737 85.666 149.836L84.5312 145.962V145.962Z" fill="#FFD0BB"/>
<path d="M84.531 145.962L81.7461 151.869L85.5685 155.02L88.9055 149.625L84.531 145.962Z" fill="#FFD0BB"/>
<path d="M92.5134 143.06L93.188 145.502C93.5211 146.696 93.0693 148.025 92.1198 148.644L90.6167 149.625L86.4336 142.308L90.0179 141.405C91.1022 141.111 92.1765 141.824 92.5126 143.06H92.5134Z" fill="#FFD0BB"/>
<path d="M84.5312 145.962C84.5312 145.962 85.9892 141.411 85.7755 140.017C85.6477 139.185 86.4999 139.322 87.2067 139.568C87.7557 139.759 88.1278 140.261 88.1508 140.84C88.2105 142.33 88.1722 145.186 87.0198 145.372C85.4555 145.624 84.5312 145.962 84.5312 145.962V145.962Z" fill="#FFD0BB"/>
<path d="M89.3108 150.698C88.2013 149.463 86.6997 148.556 84.947 148.192L83.7019 147.934C82.9936 147.787 82.8252 147.955 82.7348 148.147L82.3803 148.698L81.6536 149.801C81.1605 150.532 80.6758 151.268 80.1697 151.984C79.188 153.435 78.1597 154.839 77.1229 156.175C76.093 157.508 75.0111 158.77 73.9406 159.787C73.838 159.885 73.7362 159.978 73.6343 160.07C73.2561 159.653 72.8816 159.223 72.5171 158.772C71.4574 157.447 70.4505 156.013 69.4926 154.517C68.54 153.016 65.4527 148.579 64.6104 146.978C64.1869 146.179 63.778 145.371 63.3868 144.558L62.8186 143.341C62.6433 142.954 62.4411 142.495 62.3209 142.199C62.2987 142.145 62.265 142.065 62.2405 142.011C60.9908 139.225 57.7136 137.977 54.9203 139.223C52.1269 140.469 50.8758 143.738 52.1246 146.524C52.3934 147.124 52.6017 147.55 52.8444 148.047L53.5604 149.461C54.0466 150.394 54.5481 151.313 55.0696 152.224C56.114 154.043 59.4556 158.683 60.68 160.426C61.9082 162.168 63.2474 163.867 64.7482 165.495C66.2521 167.122 67.9137 168.691 69.8525 170.104L70.0868 170.274C71.1978 171.074 72.6527 171.375 74.0723 170.971C75.9345 170.439 77.1604 169.606 78.198 168.819C79.2286 168.017 80.0502 167.198 80.7945 166.379C82.2831 164.741 83.4653 163.083 84.5687 161.415C85.6568 159.741 86.6101 158.036 87.5106 156.321C87.9463 155.455 88.3751 154.591 88.7725 153.71L89.3613 152.384L89.6492 151.714C89.7702 151.496 89.8131 151.255 89.31 150.696L89.3108 150.698Z" fill="#09A89F"/>
<path d="M25.6189 170.754C25.939 178.098 24.7689 177.781 24.7414 183.481H60.7376C62.6925 166.086 61.7775 163.411 61.8127 151.868C61.8326 145.366 60.8142 138.736 54.3309 138.06C47.124 137.308 38.1153 137.386 31.4314 138.208C26.6365 138.798 23.2391 143.2 23.9443 147.968C25.3961 157.792 24.6059 163.356 25.6189 170.754Z" fill="#019088"/>
<path opacity="0.9" d="M51.0499 137.784C46.3791 137.473 41.2671 137.465 36.6445 137.744C36.7479 139.209 37.8712 142.93 46.0467 146.089C46.0467 146.089 47.8676 142.14 49.4067 143.921C49.4067 143.921 50.638 141.649 53.2843 145.824C53.2843 145.824 57.2308 141.613 51.0499 137.784Z" fill="white"/>
<path d="M40.1767 124.69C40.1844 130.851 39.0182 134.398 37.6353 137.729C37.5029 138.049 37.5748 138.422 37.8329 138.654C40.1913 140.775 43.7963 142.508 48.6907 142.574C53.5277 142.639 53.2498 141.131 52.105 139.434C51.9419 139.193 51.7206 138.996 51.4695 138.847C48.1601 136.888 48.0429 134.268 48.9664 132.686L40.176 124.691L40.1767 124.69Z" fill="#FFD0BB"/>
<path d="M14.6652 171.949C14.6736 172.223 14.7142 172.501 14.7877 172.778C15.5013 175.446 16.4286 177.525 17.3804 179.639C17.9179 180.811 18.4738 181.954 19.0397 183.084C19.7824 183.337 20.5765 183.482 21.405 183.482H29.3661C29.1027 182.894 28.8385 182.306 28.5767 181.721C27.7037 179.798 26.8875 177.867 26.1516 175.96C25.5238 174.33 24.9456 172.65 24.5995 171.217C24.6577 170.759 24.7848 170.076 24.9717 169.392C25.2075 168.501 25.5138 167.546 25.8683 166.576C26.5758 164.636 27.4197 162.642 28.3094 160.652C29.2045 158.662 30.1747 156.678 31.1632 154.696C32.1426 152.727 33.1886 150.709 34.2131 148.84L34.2483 148.776C34.2682 148.74 34.2873 148.703 34.3065 148.666C35.7016 145.949 34.625 142.619 31.9014 141.228C29.1777 139.836 25.8392 140.91 24.4441 143.627C23.3315 145.794 22.3338 147.86 21.3361 150.007C20.3514 152.144 19.4218 154.312 18.5312 156.524C17.6415 158.739 16.8076 160.996 16.0909 163.394C15.7295 164.591 15.3987 165.829 15.1254 167.164C14.8642 168.516 14.6146 169.907 14.6621 171.791L14.6652 171.951V171.949Z" fill="#09A89F"/>
<path d="M48.6989 133.619C49.0251 135.622 49.8383 142.944 44.0479 134.816C43.0249 133.38 40.7109 128.787 40.7109 127.57C40.7109 126.353 43.734 131.415 45.5005 131.415C47.267 131.415 48.5028 132.417 48.6989 133.619Z" fill="#DFB6A4"/>
<path d="M34.4461 125.001C34.4538 123.344 35.4645 123.304 35.4645 123.304L35.5802 123.213C35.8857 123.16 36.4493 123.084 37.0496 123.114C36.4117 121.946 36.009 120.601 35.8658 119.096C35.5174 115.423 36.4852 111.772 39.5236 109.586C42.1232 107.716 49.3385 106.031 53.3172 110.782C55.0982 112.908 55.975 114.631 56.3946 115.912L56.4352 115.984C56.4482 116.041 56.462 116.098 56.4765 116.157C56.4849 116.19 56.4926 116.225 56.501 116.258C56.7323 117.078 56.6549 117.904 56.6358 118.742C56.6205 119.407 56.7522 120.051 56.8211 120.713C56.8211 120.713 56.8601 121.627 57.4888 122.794C58.1174 123.961 57.8257 126.424 57.0607 128.588C56.2958 130.751 55.2682 133.443 55.1656 134.01C55.0622 134.576 53.8026 136.289 51.0445 135.702C48.2864 135.116 46.7374 134.816 44.7404 133.752C42.7434 132.689 41.5681 130.067 41.2281 130.054C40.8881 130.041 40.7725 130.732 39.3521 130.046C39.3521 130.046 37.4202 130.077 36.2624 128.863C35.1047 127.649 34.4377 126.659 34.4454 125.002L34.4461 125.001Z" fill="#FFD0BB"/>
<path d="M49.8365 109.78C49.7722 110.252 50.4973 110.508 50.59 111.002C50.8435 110.442 51.1237 110.7 51.2868 111.061C51.1735 111.712 50.9905 112.417 51.4935 112.965C51.8963 113.402 52.5969 113.607 53.0694 113.169C53.4231 112.841 53.5633 112.319 54.1498 112.791C54.7501 113.273 54.378 114.383 53.7677 113.712C53.9316 114.133 54.3573 114.23 54.6337 113.796C54.6789 113.724 54.7157 113.646 54.744 113.564C54.9293 114.03 55.2402 114.094 55.7073 114.51C56.0396 114.806 56.2724 115.484 56.4171 115.893C56.6062 116.426 56.78 117.107 56.6506 117.647C56.7035 117.626 56.7594 117.604 56.8114 117.577C56.7724 116.875 56.8298 116.158 56.6966 115.449C56.6284 115.087 56.5365 114.725 56.424 114.366C56.4401 114.033 56.4255 113.698 56.3145 113.395C56.8505 113.276 57.0258 112.471 56.9852 111.898C57.3536 111.871 57.8099 112.06 58.0174 112.28C58.3911 112.676 58.2089 113.063 58.3735 113.48C58.571 113.982 59.2318 114.152 59.0787 114.835C58.8697 115.765 57.5848 115.294 57.9569 114.771C57.5389 115.022 57.9715 115.708 58.4187 115.724C59.3161 115.759 59.7801 114.605 59.7058 113.9C59.6423 113.292 59.1583 112.582 58.8513 112.047C58.5749 111.565 58.0274 111.122 57.4868 110.993C57.2257 110.932 56.8773 110.913 56.6131 110.98C56.2119 110.454 55.5472 110.026 54.9469 110.365C54.7233 110.492 54.5564 110.712 54.4553 110.967C54.0748 110.573 53.6513 110.224 53.1858 109.935C53.0211 108.831 51.8167 108.183 50.6727 109.22C50.2699 109.198 49.8963 109.357 49.8381 109.781L49.8365 109.78ZM52.172 111.569C52.2179 111.415 52.2983 111.315 52.3948 111.239C52.6077 111.578 52.894 111.895 53.2325 112.11C52.6574 112.251 51.9384 112.349 52.172 111.569ZM35.6134 120.449C35.7734 120.955 35.876 121.638 36.154 122.086C36.226 122.202 36.4886 122.412 36.5254 122.521C36.6333 122.843 36.6149 122.838 36.4396 123.184C38.3654 122.854 39.0545 124.799 40.4083 126.64C40.3156 126.631 40.1816 126.66 40.0867 126.642C40.3256 126.94 40.7031 127.232 40.8723 127.524C40.8172 127.556 40.7621 127.546 40.7062 127.57C41.1419 128.148 42.0209 128.517 42.4841 127.796C42.2575 127.792 42.0707 127.729 41.8731 127.608C42.0148 127.604 42.0852 127.517 42.184 127.485C41.5339 127.09 41.4558 126.307 41.2245 125.633C41.0063 124.998 40.6043 124.356 40.4611 123.723C40.3968 123.718 40.3424 123.739 40.2789 123.729C39.932 122.791 39.6066 121.17 40.7651 120.592C40.6304 120.257 40.7085 119.918 40.8256 119.583C40.749 119.648 40.6104 119.701 40.5155 119.798C40.5492 119.011 41.2077 118.615 41.4864 117.991C41.3034 118.071 41.1993 118.023 41.0461 118.045C41.8073 117.388 41.4887 116.332 41.563 115.421C42.0331 114.623 42.7338 113.782 43.5225 113.586C43.4467 113.566 43.2943 113.464 43.2192 113.44C43.5921 113.078 44.2032 113.229 44.6358 112.917C44.4007 112.824 44.2866 112.704 44.1266 112.519C44.4995 112.7 44.8701 112.587 45.2614 112.54C45.0416 112.426 44.8226 112.306 44.6059 112.181C45.4628 112.484 46.0723 111.746 46.9 111.894L46.3257 109.797C46.1925 109.367 44.2529 108.08 43.3992 108.209C41.9688 108.426 41.0186 110.234 40.7391 111.492C40.6204 112.026 40.5553 112.658 40.5607 113.306L40.0561 112.736C38.4121 111.581 36.092 111 34.7979 113.088C34.0827 114.242 34.5383 115.863 34.6792 117.122C34.814 118.329 35.2543 119.307 35.6157 120.449H35.6134Z" fill="#2B2419"/>
<path d="M36.5798 119.313C35.88 119.827 35.2659 118.994 35.2421 118.301C35.6939 118.741 36.0821 118.332 36.2268 117.876C36.6242 118.013 37.0523 118.023 37.4711 117.844C35.0438 116.979 36.0254 112.454 38.3969 113.586C40.6067 114.641 37.2085 116.923 36.5921 115.155C37.9175 119.43 41.8142 115.544 42.4743 112.94C42.7744 111.756 42.9291 109.835 44.6114 110.276C45.5448 110.521 46.5762 111.833 47.5839 112.258C47.5219 112.154 47.3833 111.986 47.3197 111.898C47.5211 111.639 47.6643 111.578 47.9308 111.423C48.0487 111.731 48.1 111.619 48.1459 111.899C48.8083 111.663 49.7179 111.287 49.8052 110.501C49.8037 110.735 49.8849 111.03 49.8382 111.362C50.2049 111.093 50.3581 110.746 50.5028 110.356C50.4706 110.233 50.4201 110.117 50.355 110.005C50.9737 109.802 51.3811 110.21 51.9975 110.682C51.8512 110.219 51.9477 109.739 52.2471 109.337C51.8964 110.848 53.1629 112.199 54.5917 112.241C55.8008 112.275 56.7258 110.862 57.6875 110.948C59.2289 111.085 58.8491 113.567 57.7687 114.117C59.3545 114.537 59.9869 112.724 59.7166 111.483C59.5918 110.909 59.32 110.065 58.7511 109.788C58.3529 109.595 57.9287 109.938 57.6967 109.844C57.1262 109.613 57.0428 109.554 56.8712 109.293C57.3345 108.985 57.8322 107.795 57.3039 106.756C56.7066 105.581 53.9049 103.606 53.133 105.617C52.8329 104.635 50.7379 101.522 50.1559 103.983C50.3229 103.436 50.0671 102.542 49.4025 102.324C49.8206 102.849 49.6 103.436 48.9882 103.626C48.1582 103.882 47.7914 103.022 47.2095 102.648C45.9146 101.816 44.6152 102.541 43.9246 103.755C42.2201 102.695 39.8134 104.214 39.9773 106.378C38.7782 104.82 35.2536 106.315 36.3432 108.148C34.2268 107.153 34.0154 111.244 34.5966 112.337C33.3592 112.367 33.2796 114.15 33.9297 114.871C33.164 115.299 33.5185 116.402 34.0576 117.176C32.4626 118.717 35.7506 121.203 36.5798 119.31V119.313ZM54.2831 107.767C54.3245 105.666 57.5489 106.801 56.8207 108.899C56.7464 108.913 56.6859 108.92 56.627 108.921C56.5742 108.843 56.5137 108.757 56.4409 108.658C55.9026 107.925 55.2449 107.1 54.2831 107.767ZM45.0348 104.21C45.057 104.193 45.0808 104.177 45.1045 104.162C44.7936 102.971 46.299 102.79 47.0265 103.241C47.8802 103.77 48.4155 104.234 49.4767 103.813C49.4783 103.811 49.4798 103.809 49.4821 103.807C49.5043 103.779 49.5058 103.78 49.4867 103.81C49.4836 103.811 49.4806 103.812 49.4775 103.814C49.2846 104.047 49.0878 104.271 48.9852 104.561C48.2424 103.697 46.067 103.524 45.106 104.163C45.1076 104.17 45.1091 104.175 45.1106 104.182C45.0808 104.212 44.9598 104.32 45.0371 104.211L45.0348 104.21ZM36.5247 107.699C36.8486 106.738 37.9765 105.496 38.962 106.557L38.9711 106.624C38.1893 106.56 37.0768 106.939 36.5239 107.698L36.5247 107.699Z" fill="#2B2419"/>
<path d="M67.9034 25.6743H15.3118C11.2734 25.6743 8 28.9395 8 32.9678V72.8441C8 76.8724 11.2734 80.1376 15.3118 80.1376H55.0233C55.802 86.5145 61.2393 91.4578 67.8429 91.4578C68.1354 91.4578 68.4217 91.4334 68.7089 91.4143C66.6545 88.7143 64.9768 84.8006 63.8788 80.1376H67.9034C71.9417 80.1376 75.2152 76.8724 75.2152 72.8441V32.9678C75.2152 28.9395 71.9417 25.6743 67.9034 25.6743Z" fill="#367D7E"/>
<path d="M67.9034 25.6743H15.3118C11.2734 25.6743 8 28.9395 8 32.9678V72.8441C8 76.8724 11.2734 80.1376 15.3118 80.1376H55.0233C55.802 86.5145 61.2393 91.4578 67.8429 91.4578C68.1354 91.4578 68.4217 91.4334 68.7089 91.4143C66.6545 88.7143 64.9768 84.8006 63.8788 80.1376H67.9034C71.9417 80.1376 75.2152 76.8724 75.2152 72.8441V32.9678C75.2152 28.9395 71.9417 25.6743 67.9034 25.6743Z" fill="#045D5E"/>
<path d="M59.4603 80.1368C58.8094 73.1091 59.5001 64.1406 59.5001 64.1406C60.0659 54.7605 55.9701 43.2241 53.4073 42.238C50.2878 41.0381 49.166 39.4364 48.2211 41.1664C47.3061 42.8422 47.46 46.0196 47.499 49.4009C47.5925 57.5865 49.2908 67.803 50.1591 72.5195C50.467 74.193 51.2273 80.1361 51.2273 80.1361H59.4603V80.1368Z" fill="#FD8F33"/>
<path d="M53.7489 43.2898C53.5368 41.9195 52.5367 40.8006 51.1937 40.4278C48.8904 39.813 44.9309 38.8155 41.3144 38.1708C37.0724 37.4857 32.789 37.0923 28.4964 37.0022C25.7789 36.8915 26.8034 39.9444 24.6823 40.065C24.4297 40.0849 24.177 40.1254 23.935 40.1964C22.0559 40.7303 20.9556 42.6849 21.4909 44.5592C26.9358 63.9505 24.363 70.2625 24.6533 80.1369H51.2289C52.4655 71.1752 54.9013 63.8245 55.1233 58.5543C55.4365 50.846 54.1333 45.5567 53.7496 43.2898H53.7489Z" fill="#FDAC4D"/>
<path d="M42.8358 33.6949C41.0915 36.0497 39.8089 38.8376 42.5502 41.9478C43.1291 42.6046 43.5158 43.4303 43.5357 44.3048C43.5671 45.7041 42.7516 47.0667 38.1787 44.3782C31.5515 40.4874 32.1051 36.0902 32.1051 36.0902C35.5906 35.0369 37.6741 27.7381 38.4804 23.5616L42.8366 33.6957L42.8358 33.6949Z" fill="#F9C1AC"/>
<path d="M41.4291 36.4951C41.4291 37.6515 40.5447 40.0803 38.7277 40.0803C36.9107 40.0803 33.8555 34.1143 33.8555 32.9579C33.8555 31.8015 36.3226 34.4015 38.1396 34.4015C39.9567 34.4015 41.4299 35.3387 41.4299 36.4951H41.4291Z" fill="#DAA997"/>
<path d="M48.5902 29.5873C48.7027 29.4078 48.8597 29.2604 48.9799 29.087C49.0948 28.9228 49.176 28.7341 49.287 28.5653C49.5519 28.1612 49.7418 27.6212 49.911 27.1439C49.9792 26.9522 50.0328 26.7291 50.0772 26.5298C50.1186 26.3434 50.1048 26.1845 50.1247 26.002C50.1423 25.837 50.179 25.7942 50.1117 25.6774C50.0665 25.6002 50.0267 25.5766 49.9378 25.5911C49.6139 25.6445 49.1775 26.2831 48.9983 26.6612C48.8069 27.0637 48.6859 27.5678 48.5465 27.9978C48.4102 28.4164 48.2923 28.8296 48.1836 29.2565L48.5902 29.5873Z" fill="#FFD0BB"/>
<path d="M31.17 24.2231C31.6876 23.0049 32.4449 23.286 32.4449 23.286L32.5582 23.2547C32.8002 23.3089 33.239 23.4257 33.6716 23.6327C33.5629 22.5764 33.6815 21.4613 34.0414 20.3079C34.9189 17.4949 36.7605 15.1019 39.674 14.4259C42.1672 13.847 48.0042 14.8239 49.4675 19.5472C50.123 21.6606 50.2363 23.2004 50.1498 24.2728L50.1567 24.3385C50.149 24.3843 50.1413 24.4309 50.1337 24.4783C50.1298 24.5058 50.1245 24.5332 50.1199 24.5607C50.0372 25.2352 49.7248 25.8202 49.4514 26.432C49.2347 26.9171 49.1337 27.4319 48.9797 27.9413C48.9797 27.9413 48.7263 28.6272 48.8289 29.6797C48.9315 30.733 47.9552 32.4584 46.724 33.8172C45.4919 35.176 43.9038 36.8434 43.6527 37.2291C43.4015 37.6148 41.9444 38.4893 40.0936 37.2092C38.2429 35.9291 37.1939 35.2318 36.0514 33.8348C34.909 32.437 34.8523 30.1441 34.6058 30.0303C34.3592 29.9165 34.0606 30.39 33.2259 29.4475C33.2259 29.4475 31.7933 28.8762 31.3155 27.6259C30.8377 26.3755 30.6524 25.4406 31.17 24.2224V24.2231Z" fill="#F9C1AC"/>
<path d="M36.3219 22.154C36.3219 22.154 35.7935 24.1865 36.0133 25.9127L34.6373 26.057C34.6373 26.057 34.7101 24.4905 33.4619 23.4998C33.4619 23.4998 33.1572 22.4198 33.6189 21.2879C34.0806 20.1559 34.4757 19.9245 34.7108 19.9849C34.9459 20.046 35.9444 20.3874 35.9444 20.3874L36.3211 22.154H36.3219Z" fill="#2B2419"/>
<path d="M33.1255 15.9168C33.6232 15.6953 34.0367 15.5953 34.3598 15.6189C34.4556 14.933 34.8338 14.2204 35.4372 13.5956C35.477 13.5552 35.5337 13.5406 35.5858 13.5536C35.6064 13.559 35.6256 13.5681 35.6432 13.5826C35.7052 13.6323 35.719 13.7201 35.6746 13.7858C35.4571 14.1127 35.4104 14.5466 35.4594 14.9315C35.9855 13.698 37.1746 12.6149 38.4051 12.3041C38.4304 12.2979 38.4564 12.2979 38.4809 12.3041C38.5207 12.3147 38.556 12.3407 38.5774 12.3789C38.6111 12.44 38.5981 12.5164 38.5468 12.5637C38.3285 12.7646 38.1356 13.1259 38.0253 13.5177C38.8102 12.9441 39.8485 12.8654 40.788 12.8731C41.288 12.8769 41.8447 12.922 42.4351 12.9693C44.3892 13.1267 46.6036 13.3054 47.8893 12.1116C47.9283 12.0749 47.9827 12.0627 48.0317 12.0757C48.0516 12.081 48.0715 12.0902 48.0883 12.1039C48.1473 12.1513 48.1634 12.2345 48.1251 12.2995C48.0118 12.4958 47.9084 12.7134 47.7989 12.9434C47.6504 13.2565 47.498 13.5773 47.3081 13.8668C47.5332 13.7851 47.7353 13.6903 47.9199 13.5796C48.5294 13.213 49.7982 12.4507 49.9751 11.5227C49.9873 11.457 50.0417 11.4066 50.1083 11.3997C50.1274 11.3974 50.1458 11.3997 50.1642 11.4035C50.2086 11.415 50.2469 11.4463 50.266 11.4906C50.8778 12.8914 50.6964 14.4083 50.436 15.4333C50.384 15.6388 50.3204 15.8351 50.2446 16.0268C51.0249 15.7007 51.7622 14.8475 51.8794 14.0753C51.8916 13.9951 51.9644 13.9386 52.0456 13.9462C52.054 13.947 52.0616 13.9485 52.0693 13.95C52.1382 13.9676 52.1872 14.0318 52.1834 14.1043C52.1734 14.3304 52.1673 14.5618 52.1612 14.7864C52.1336 15.8572 52.1045 16.9602 51.6152 17.9317C52.0256 17.7476 52.3128 17.4986 52.4874 17.1763C52.5211 17.1137 52.593 17.0839 52.6604 17.1015C52.6681 17.1038 52.6757 17.106 52.6826 17.1091C52.7554 17.1404 52.7921 17.2221 52.7669 17.297C52.7423 17.3711 52.7178 17.4459 52.6933 17.5215C52.3917 18.4419 52.0547 19.4708 51.1964 20.0436C51.4858 20.0849 51.7975 20.0696 52.1015 19.897C52.1374 19.8771 52.178 19.8725 52.2155 19.8817C52.2485 19.8901 52.2791 19.9099 52.3005 19.939C52.3465 20.0016 52.3381 20.0887 52.2806 20.1414C52.1681 20.2452 52.0494 20.3774 51.9246 20.5172C51.5402 20.9456 51.0716 21.4689 50.4789 21.4559C50.4735 21.9302 50.3541 22.4412 50.24 22.8903C50.2216 22.9613 50.1558 23.0094 50.083 23.0048C50.0731 23.0048 50.0631 23.0026 50.0532 23.0003C49.9942 22.985 49.9483 22.9353 49.9398 22.8727C49.8717 22.3717 49.2897 20.3568 48.9345 20.0192C48.681 20.0673 48.4406 20.0726 48.2185 20.0344C48.2147 20.0344 48.2101 20.0329 48.2063 20.0321C48.1565 20.0192 48.1159 19.9817 48.0998 19.9329C48.0822 19.8794 48.0952 19.8206 48.1335 19.7801C48.1381 19.7755 48.1427 19.7702 48.1473 19.7656C47.802 19.8229 47.4252 19.7847 47.135 19.7091C47.109 19.7022 47.083 19.6953 47.0577 19.6877C46.9467 19.6548 46.8418 19.6121 46.7445 19.5616C46.1404 19.7495 45.4849 19.761 44.8448 19.5953C44.5423 19.5166 44.2491 19.4005 43.9688 19.2493C43.9703 19.2936 43.9742 19.334 43.9841 19.3654C44.0033 19.4257 43.9833 19.4921 43.9336 19.5311C43.8953 19.5617 43.8455 19.5708 43.8003 19.5594C43.7866 19.5555 43.7728 19.5502 43.7598 19.5426C43.602 19.4478 43.4741 19.3531 43.3754 19.2569C43.3624 19.3906 43.3478 19.528 43.3111 19.6663C43.298 19.7159 43.2597 19.7564 43.2107 19.7725C43.1824 19.7816 43.1525 19.7824 43.125 19.7747C43.1043 19.7694 43.0844 19.7595 43.0676 19.7457C42.9841 19.6785 42.8983 19.6082 42.8103 19.5349C42.2819 19.0988 41.6824 18.6038 41.0353 18.4366C40.8715 18.3946 40.7107 18.3747 40.5545 18.3793C40.5461 18.4305 40.5369 18.4816 40.5277 18.5313C40.4396 19.0201 40.3638 19.4425 40.8332 19.8061C40.8952 19.8542 40.9105 19.9405 40.8692 20.0069C40.8332 20.065 40.7643 20.091 40.7007 20.0749C40.6915 20.0726 40.6824 20.0696 40.6732 20.065C40.5009 19.9833 40.3117 19.9115 40.1295 19.8427C39.6754 19.6709 39.1808 19.4837 38.8515 19.0919C38.8661 19.1675 38.8845 19.2424 38.9044 19.3157C39.01 19.6976 39.1739 19.9894 39.3531 20.1162C39.4143 20.1597 39.435 20.2407 39.4021 20.3079C39.3699 20.3736 39.2964 20.4064 39.226 20.3888C39.2237 20.3888 39.2221 20.3881 39.2198 20.3873C38.8883 20.288 38.6011 20.123 38.3477 19.9481C38.4549 20.8746 38.1096 21.7377 37.3691 22.39C37.3301 22.4244 37.2772 22.4358 37.2297 22.4236C37.2098 22.4182 37.1907 22.4091 37.1738 22.3961C37.1157 22.3503 37.0988 22.2701 37.1333 22.2051C37.2382 22.0058 37.2596 21.7178 37.1976 21.3451C37.0575 21.6063 36.8806 21.8271 36.7075 22.0425C36.6049 22.1708 36.4985 22.3037 36.4005 22.4435C36.3752 22.4794 36.3369 22.5023 36.2933 22.5076C36.2741 22.5099 36.255 22.5084 36.2366 22.5038C36.2136 22.4977 36.1922 22.487 36.1746 22.471C35.8553 22.1914 35.6294 22.0333 35.5054 22.0012C35.4632 21.9905 35.4586 21.9936 35.4135 22.0272C35.376 22.0539 35.3292 22.0631 35.2848 22.0516C35.2772 22.0493 35.2703 22.047 35.2626 22.044C35.2129 22.0226 35.1784 21.9768 35.1715 21.9241C35.1524 21.782 35.1516 21.6178 35.1677 21.4337C35.0245 21.4284 34.8744 21.4146 34.7083 21.3993C34.6355 21.3925 34.5597 21.3856 34.4808 21.3795L34.4249 21.3749C34.0505 21.3428 33.8147 21.3359 33.6883 21.5918C33.6608 21.6476 33.6026 21.6812 33.5405 21.6766C33.5313 21.6766 33.5214 21.6743 33.513 21.672C33.4632 21.659 33.4226 21.6216 33.4058 21.572C33.2909 21.2237 33.297 20.9036 33.3713 20.605C33.3338 20.6462 33.2764 20.6638 33.2212 20.6501H33.2197C33.163 20.6348 33.1194 20.589 33.1079 20.5317C32.9272 19.6212 33.1041 18.5611 33.5513 17.7805C33.431 17.8087 33.3162 17.8462 33.2075 17.9057C33.1944 17.9195 33.1799 17.9309 33.1623 17.9393C33.1385 17.9508 33.0949 17.9722 33.0375 17.9577C32.98 17.9432 32.9364 17.8958 32.9249 17.8378C32.9149 17.7858 32.9295 17.74 32.9693 17.7003C33.1738 17.1526 33.4854 16.8105 33.918 16.663C33.7289 16.4744 33.5298 16.2918 33.2833 16.2284C33.2465 16.2193 33.209 16.2124 33.1715 16.2078C33.1638 16.2071 33.1561 16.2055 33.1493 16.204C33.0911 16.1887 33.0459 16.1406 33.0367 16.0803C33.026 16.0123 33.062 15.9451 33.1255 15.9168Z" fill="#2B2419"/>
<path d="M33.0932 17.8027C33.0932 17.8027 33.0955 17.7958 33.097 17.792C33.0947 17.7935 33.0924 17.7943 33.0909 17.7958C33.0679 17.8126 33.0687 17.8149 33.0932 17.8027Z" fill="url(#paint0_linear_10115_19831)"/>
<path d="M37.4037 18.7711C37.4565 18.8651 37.5186 18.9506 37.589 19.0262C37.6418 19.4776 37.7827 19.9138 37.7919 20.3865C37.8019 20.9311 37.7268 21.4941 37.4833 21.9775C37.5025 21.7767 37.4994 21.5582 37.4696 21.3153C37.4382 21.0556 37.4251 20.6447 37.3555 20.2766C37.3968 19.7893 37.3601 19.2141 37.4037 18.7711Z" fill="#2B2419"/>
<path d="M29.168 31.0416L30.3648 24.0406L35.9805 25.7615C35.9805 25.7615 33.9246 30.6536 31.9789 31.9276L29.168 31.0424V31.0416Z" fill="#FACFBE"/>
<path d="M35.0135 20.9167C36.0266 21.4429 36.5733 22.5695 36.3597 23.6892L35.9676 25.7393L30.3672 24.0406L31.5686 21.9318C32.2562 20.7242 33.7784 20.2758 35.0135 20.9174V20.9167Z" fill="#FACFBE"/>
<path d="M32.3662 43.5716C32.04 47.7763 32.5431 67.1744 24.1034 67.6174C22.7886 67.6808 21.4471 67.1836 20.4226 66.3152C20.4134 66.3152 20.3958 66.2968 20.3866 66.2884C11.5655 61.9737 24.8645 29.9485 30.1793 29.973C31.5047 29.9791 34.1587 29.6293 34.939 30.6963C35.7185 31.7541 32.9022 36.618 32.3669 43.5716H32.3662Z" fill="#FD8F33"/>
<path d="M232.829 111.84H212.502C210.568 111.84 209 113.403 209 115.333V128.393C209 130.321 210.567 131.886 212.502 131.886H218.347L220.957 135.291C221.818 136.414 223.513 136.414 224.374 135.291L226.984 131.886H232.83C234.763 131.886 236.331 130.322 236.331 128.393V115.333C236.331 113.404 234.764 111.84 232.83 111.84H232.829Z" fill="#367D7E"/>
<path opacity="0.7" d="M232.829 111.84H212.502C210.568 111.84 209 113.403 209 115.333V128.393C209 130.321 210.567 131.886 212.502 131.886H218.347L220.957 135.291C221.818 136.414 223.513 136.414 224.374 135.291L226.984 131.886H232.83C234.763 131.886 236.331 130.322 236.331 128.393V115.333C236.331 113.404 234.764 111.84 232.83 111.84H232.829Z" fill="#CDDFDF"/>
<path d="M231.651 120.811L225.145 116.851V119.226H222.165C218.184 119.226 214.957 122.444 214.957 126.415C214.957 126.961 215.024 127.491 215.138 128.001C215.864 124.795 218.73 122.397 222.165 122.397H225.145V124.772L231.651 120.811Z" fill="white"/>
<path d="M86.0674 19.1522H101.654C103.137 19.1522 104.339 20.3514 104.339 21.8301V31.8442C104.339 33.3229 103.137 34.5221 101.654 34.5221H97.1726L95.171 37.1335C94.5109 37.9943 93.2108 37.9943 92.5507 37.1335L90.5491 34.5221H86.0674C84.5842 34.5221 83.3828 33.3229 83.3828 31.8442V21.8301C83.3828 20.3514 84.585 19.1522 86.0674 19.1522Z" fill="#367D7E"/>
<path opacity="0.7" d="M86.0674 19.1522H101.654C103.137 19.1522 104.339 20.3514 104.339 21.8301V31.8442C104.339 33.3229 103.137 34.5221 101.654 34.5221H97.1726L95.171 37.1335C94.5109 37.9943 93.2108 37.9943 92.5507 37.1335L90.5491 34.5221H86.0674C84.5842 34.5221 83.3828 33.3229 83.3828 31.8442V21.8301C83.3828 20.3514 84.585 19.1522 86.0674 19.1522Z" fill="#CDDFDF"/>
<path d="M86.9688 26.0317L91.9574 22.9949V24.8158H94.243C97.2952 24.8158 99.77 27.2844 99.77 30.3288C99.77 30.7474 99.7194 31.153 99.6306 31.5448C99.0747 29.0862 96.8763 27.2477 94.243 27.2477H91.9574V29.0686L86.9688 26.0317Z" fill="white"/>
</g>
<defs>
<linearGradient id="paint0_linear_10115_19831" x1="33.1028" y1="17.8093" x2="33.101" y2="17.8286" gradientUnits="userSpaceOnUse">
<stop stop-color="#4B4067"/>
<stop offset="0.55" stop-color="#433860"/>
<stop offset="1" stop-color="#392F57"/>
</linearGradient>
<clipPath id="clip0_10115_19831">
<rect width="283" height="237" fill="white"/>
</clipPath>
</defs>
</svg>
