<svg width="24" height="24" viewBox="0 0 24 24" fill="none" xmlns="http://www.w3.org/2000/svg">
<path d="M23.5 12C23.5 18.3513 18.3513 23.5 12 23.5C5.64873 23.5 0.5 18.3513 0.5 12C0.5 5.64873 5.64873 0.5 12 0.5C18.3513 0.5 23.5 5.64873 23.5 12Z" stroke="#1E98B0"/>
<path fill-rule="evenodd" clip-rule="evenodd" d="M5.61341 11.5247C6.36369 10.3367 8.59693 7.3335 12.0003 7.3335C15.4036 7.3335 17.6369 10.3367 18.3871 11.5247C18.4779 11.6685 18.5233 11.7404 18.5487 11.8512C18.5678 11.9345 18.5678 12.0658 18.5487 12.1491C18.5233 12.26 18.4779 12.3319 18.3871 12.4756L18.3871 12.4756C17.6369 13.6636 15.4036 16.6668 12.0003 16.6668C8.59693 16.6668 6.36369 13.6636 5.61341 12.4756C5.52262 12.3319 5.47723 12.26 5.45182 12.1491C5.43273 12.0658 5.43273 11.9345 5.45182 11.8512C5.47723 11.7404 5.52262 11.6685 5.61341 11.5247ZM14.0002 12C14.0002 13.1046 13.1048 14 12.0002 14C10.8957 14 10.0002 13.1046 10.0002 12C10.0002 10.8954 10.8957 10 12.0002 10C13.1048 10 14.0002 10.8954 14.0002 12Z" fill="#1E98B0"/>
</svg>
