<svg width="15" height="14" viewBox="0 0 15 14" fill="none" xmlns="http://www.w3.org/2000/svg">
<path d="M6.91882 0.279499C6.95271 0.196834 7.01043 0.126117 7.08462 0.0763466C7.15882 0.0265758 7.24614 0 7.33548 0C7.42482 0 7.51214 0.0265758 7.58634 0.0763466C7.66053 0.126117 7.71825 0.196834 7.75214 0.279499L9.45481 4.37474C9.48668 4.45136 9.53908 4.51772 9.60623 4.56649C9.67338 4.61526 9.75268 4.64456 9.83541 4.65117L14.2568 5.00533C14.6566 5.03738 14.8184 5.53656 14.514 5.79697L11.1455 8.68311C11.0825 8.73695 11.0356 8.80707 11.0099 8.88579C10.9842 8.96452 10.9806 9.0488 10.9996 9.12941L12.0293 13.4442C12.05 13.5308 12.0445 13.6215 12.0137 13.705C11.9828 13.7885 11.9279 13.861 11.8559 13.9133C11.7839 13.9656 11.698 13.9953 11.609 13.9988C11.5201 14.0024 11.4321 13.9794 11.3562 13.933L7.57025 11.6213C7.49953 11.5782 7.4183 11.5554 7.33548 11.5554C7.25266 11.5554 7.17143 11.5782 7.10071 11.6213L3.31476 13.9338C3.23885 13.9802 3.15086 14.0032 3.06193 13.9997C2.97299 13.9961 2.88709 13.9664 2.81507 13.9141C2.74305 13.8618 2.68814 13.7893 2.65729 13.7058C2.62643 13.6223 2.62101 13.5316 2.6417 13.445L3.67132 9.12941C3.69042 9.0488 3.68691 8.96449 3.66118 8.88575C3.63545 8.80701 3.5885 8.73689 3.52549 8.68311L0.156996 5.79697C0.0895402 5.73897 0.0407409 5.66232 0.0167345 5.57665C-0.00727187 5.49099 -0.00541338 5.40014 0.0220762 5.31553C0.0495658 5.23092 0.101459 5.15633 0.17123 5.10113C0.241001 5.04594 0.325535 5.01261 0.4142 5.00533L4.83555 4.65117C4.91828 4.64456 4.99758 4.61526 5.06473 4.56649C5.13188 4.51772 5.18428 4.45136 5.21615 4.37474L6.91882 0.2803V0.279499Z" fill="#FFB33E"/>
</svg>
