<svg width="104" height="32" viewBox="0 0 104 32" fill="none" xmlns="http://www.w3.org/2000/svg">
<rect x="0.5" y="0.5" width="103" height="31" rx="1.5" fill="#FAFAFA"/>
<rect x="0.5" y="0.5" width="103" height="31" rx="1.5" stroke="#D9D9D9" stroke-dasharray="2 2"/>
<path d="M22.9684 10.3757H22.0309C21.9476 10.3757 21.9059 10.4174 21.9059 10.5007V15.407H17.25C17.1667 15.407 17.125 15.4486 17.125 15.532V16.4695C17.125 16.5528 17.1667 16.5945 17.25 16.5945H21.9059V21.5007C21.9059 21.5841 21.9476 21.6257 22.0309 21.6257H22.9684C23.0517 21.6257 23.0934 21.5841 23.0934 21.5007V16.5945H27.75C27.8333 16.5945 27.875 16.5528 27.875 16.4695V15.532C27.875 15.4486 27.8333 15.407 27.75 15.407H23.0934V10.5007C23.0934 10.4174 23.0517 10.3757 22.9684 10.3757Z" fill="black" fill-opacity="0.85"/>
<path d="M40.2088 11.242V17.416C40.2088 18.284 40.4188 18.928 40.8388 19.348C41.2681 19.768 41.8608 19.978 42.6168 19.978C43.3634 19.978 43.9468 19.768 44.3668 19.348C44.7961 18.928 45.0108 18.284 45.0108 17.416V11.242H46.2848V17.402C46.2848 18.214 46.1214 18.9 45.7948 19.46C45.4681 20.0107 45.0248 20.4213 44.4648 20.692C43.9141 20.9627 43.2934 21.098 42.6028 21.098C41.9121 21.098 41.2868 20.9627 40.7268 20.692C40.1761 20.4213 39.7374 20.0107 39.4108 19.46C39.0934 18.9 38.9348 18.214 38.9348 17.402V11.242H40.2088ZM49.684 14.742C49.936 14.3033 50.3094 13.9393 50.804 13.65C51.308 13.3513 51.8914 13.202 52.554 13.202C53.2354 13.202 53.8514 13.3653 54.402 13.692C54.962 14.0187 55.4007 14.4807 55.718 15.078C56.0354 15.666 56.194 16.352 56.194 17.136C56.194 17.9107 56.0354 18.6013 55.718 19.208C55.4007 19.8147 54.962 20.286 54.402 20.622C53.8514 20.958 53.2354 21.126 52.554 21.126C51.9007 21.126 51.322 20.9813 50.818 20.692C50.3234 20.3933 49.9454 20.0247 49.684 19.586V24.64H48.41V13.328H49.684V14.742ZM54.892 17.136C54.892 16.5573 54.7754 16.0533 54.542 15.624C54.3087 15.1947 53.9914 14.868 53.59 14.644C53.198 14.42 52.764 14.308 52.288 14.308C51.8214 14.308 51.3874 14.4247 50.986 14.658C50.594 14.882 50.2767 15.2133 50.034 15.652C49.8007 16.0813 49.684 16.5807 49.684 17.15C49.684 17.7287 49.8007 18.2373 50.034 18.676C50.2767 19.1053 50.594 19.4367 50.986 19.67C51.3874 19.894 51.8214 20.006 52.288 20.006C52.764 20.006 53.198 19.894 53.59 19.67C53.9914 19.4367 54.3087 19.1053 54.542 18.676C54.7754 18.2373 54.892 17.724 54.892 17.136ZM59.145 10.64V21H57.871V10.64H59.145ZM64.6623 21.126C63.9436 21.126 63.2903 20.9627 62.7023 20.636C62.1236 20.3093 61.6663 19.8473 61.3303 19.25C61.0036 18.6433 60.8403 17.9433 60.8403 17.15C60.8403 16.366 61.0083 15.6753 61.3443 15.078C61.6896 14.4713 62.1563 14.0093 62.7443 13.692C63.3323 13.3653 63.9903 13.202 64.7183 13.202C65.4463 13.202 66.1043 13.3653 66.6923 13.692C67.2803 14.0093 67.7423 14.4667 68.0783 15.064C68.4236 15.6613 68.5963 16.3567 68.5963 17.15C68.5963 17.9433 68.4189 18.6433 68.0643 19.25C67.7189 19.8473 67.2476 20.3093 66.6503 20.636C66.0529 20.9627 65.3903 21.126 64.6623 21.126ZM64.6623 20.006C65.1196 20.006 65.5489 19.8987 65.9503 19.684C66.3516 19.4693 66.6736 19.1473 66.9163 18.718C67.1683 18.2887 67.2943 17.766 67.2943 17.15C67.2943 16.534 67.1729 16.0113 66.9303 15.582C66.6876 15.1527 66.3703 14.8353 65.9783 14.63C65.5863 14.4153 65.1616 14.308 64.7043 14.308C64.2376 14.308 63.8083 14.4153 63.4163 14.63C63.0336 14.8353 62.7256 15.1527 62.4923 15.582C62.2589 16.0113 62.1423 16.534 62.1423 17.15C62.1423 17.7753 62.2543 18.3027 62.4783 18.732C62.7116 19.1613 63.0196 19.4833 63.4023 19.698C63.7849 19.9033 64.2049 20.006 64.6623 20.006ZM69.7954 17.136C69.7954 16.352 69.954 15.666 70.2714 15.078C70.5887 14.4807 71.0227 14.0187 71.5734 13.692C72.1334 13.3653 72.754 13.202 73.4354 13.202C74.1074 13.202 74.6907 13.3467 75.1854 13.636C75.68 13.9253 76.0487 14.2893 76.2914 14.728V13.328H77.5794V21H76.2914V19.572C76.0394 20.02 75.6614 20.3933 75.1574 20.692C74.6627 20.9813 74.084 21.126 73.4214 21.126C72.74 21.126 72.124 20.958 71.5734 20.622C71.0227 20.286 70.5887 19.8147 70.2714 19.208C69.954 18.6013 69.7954 17.9107 69.7954 17.136ZM76.2914 17.15C76.2914 16.5713 76.1747 16.0673 75.9414 15.638C75.708 15.2087 75.3907 14.882 74.9894 14.658C74.5974 14.4247 74.1634 14.308 73.6874 14.308C73.2114 14.308 72.7774 14.42 72.3854 14.644C71.9934 14.868 71.6807 15.1947 71.4474 15.624C71.214 16.0533 71.0974 16.5573 71.0974 17.136C71.0974 17.724 71.214 18.2373 71.4474 18.676C71.6807 19.1053 71.9934 19.4367 72.3854 19.67C72.7774 19.894 73.2114 20.006 73.6874 20.006C74.1634 20.006 74.5974 19.894 74.9894 19.67C75.3907 19.4367 75.708 19.1053 75.9414 18.676C76.1747 18.2373 76.2914 17.7287 76.2914 17.15ZM79.2563 17.136C79.2563 16.352 79.415 15.666 79.7323 15.078C80.0496 14.4807 80.4836 14.0187 81.0343 13.692C81.5943 13.3653 82.2196 13.202 82.9103 13.202C83.5076 13.202 84.063 13.342 84.5763 13.622C85.0896 13.8927 85.4816 14.252 85.7523 14.7V10.64H87.0403V21H85.7523V19.558C85.5003 20.0153 85.127 20.3933 84.6323 20.692C84.1376 20.9813 83.559 21.126 82.8963 21.126C82.215 21.126 81.5943 20.958 81.0343 20.622C80.4836 20.286 80.0496 19.8147 79.7323 19.208C79.415 18.6013 79.2563 17.9107 79.2563 17.136ZM85.7523 17.15C85.7523 16.5713 85.6356 16.0673 85.4023 15.638C85.169 15.2087 84.8516 14.882 84.4503 14.658C84.0583 14.4247 83.6243 14.308 83.1483 14.308C82.6723 14.308 82.2383 14.42 81.8463 14.644C81.4543 14.868 81.1416 15.1947 80.9083 15.624C80.675 16.0533 80.5583 16.5573 80.5583 17.136C80.5583 17.724 80.675 18.2373 80.9083 18.676C81.1416 19.1053 81.4543 19.4367 81.8463 19.67C82.2383 19.894 82.6723 20.006 83.1483 20.006C83.6243 20.006 84.0583 19.894 84.4503 19.67C84.8516 19.4367 85.169 19.1053 85.4023 18.676C85.6356 18.2373 85.7523 17.7287 85.7523 17.15Z" fill="black" fill-opacity="0.45"/>
</svg>
