<svg width="400" height="400" viewBox="0 0 400 400" fill="none" xmlns="http://www.w3.org/2000/svg">
<rect width="400" height="400" fill="#EFF1F2"/>
<path d="M233.529 116.253C225.016 107.062 213.125 102 200 102C186.805 102 174.875 107.031 166.401 116.166C157.835 125.401 153.661 137.953 154.641 151.506C156.584 178.245 176.931 199.997 200 199.997C223.069 199.997 243.381 178.25 245.354 151.515C246.348 138.084 242.148 125.559 233.529 116.253Z" fill="#C4C7C8"/>
<path d="M276.998 298H123.002C120.986 298.026 118.99 297.602 117.159 296.76C115.327 295.918 113.707 294.678 112.415 293.13C109.571 289.731 108.425 285.089 109.274 280.395C112.966 259.912 124.49 242.706 142.602 230.626C158.692 219.904 179.075 214.002 200 214.002C220.925 214.002 241.308 219.908 257.398 230.626C275.51 242.701 287.034 259.908 290.726 280.391C291.575 285.085 290.429 289.727 287.585 293.126C286.294 294.674 284.673 295.915 282.842 296.758C281.01 297.601 279.014 298.025 276.998 298Z" fill="#C4C7C8"/>
</svg>
