<svg width="400" height="400" viewBox="0 0 400 400" fill="none" xmlns="http://www.w3.org/2000/svg">
<rect width="400" height="400" fill="#EFF1F2"/>
<path d="M200.004 303.257H126.174C122.865 303.257 119.763 303.05 116.867 301.395C111.904 298.707 109.009 294.571 109.009 288.78C109.009 280.714 109.215 272.442 109.009 264.17C108.802 255.691 112.318 248.866 118.729 243.282C125.14 237.905 132.378 234.389 140.03 231.494C151.404 227.151 162.365 221.774 173.326 216.604C174.981 215.777 175.601 214.743 175.808 213.088L177.049 201.3C177.049 200.266 176.842 199.439 176.015 198.818C169.603 192.2 165.261 184.548 162.986 175.656C162.572 174.415 161.952 174.001 160.504 173.794C158.022 173.588 156.368 171.933 155.747 169.451C154.92 164.902 154.506 160.352 153.679 156.009C153.059 153.114 154.093 151.045 156.575 150.011C157.815 149.391 158.022 148.977 157.815 147.53C156.368 140.085 156.988 132.846 158.849 125.608C162.365 112.372 173.946 102.032 186.355 101.411C189.664 101.411 192.559 100.791 195.455 99.1366C200.625 96.2413 206.209 95.8276 211.792 97.6889C226.889 102.859 237.23 112.786 241.573 128.297C243.227 134.501 242.4 140.912 241.573 147.116C241.573 148.564 241.159 149.391 243.02 149.805C245.709 150.632 246.95 152.7 246.329 155.595C245.709 160.145 244.882 164.695 244.055 169.451C243.641 172.14 241.78 173.794 239.091 173.794C237.85 174.001 237.023 174.415 236.816 175.656C235.369 184.342 230.612 191.373 224.615 197.371C222.96 199.025 222.546 200.473 222.96 202.541C223.374 205.643 223.787 208.952 223.994 212.054C223.994 214.536 225.028 215.777 227.303 216.811C239.298 222.601 251.5 228.185 263.908 233.148C270.112 235.837 276.11 238.939 281.487 243.489C287.484 248.866 291 255.484 291 263.549C291 272.028 291 280.508 290.793 288.78C290.793 296.225 285.623 302.016 278.178 302.843C270.112 303.877 261.84 303.257 253.568 303.257C235.782 303.463 217.79 303.257 200.004 303.257Z" fill="#C4C7C8"/>
</svg>
