<svg width="400" height="400" viewBox="0 0 400 400" fill="none" xmlns="http://www.w3.org/2000/svg">
<rect width="400" height="400" fill="#EFF1F2"/>
<path d="M284.456 229.037L240.694 208.179L222.085 199.386C222.085 199.181 222.494 198.977 223.312 198.977L223.721 198.363H247.852C252.555 198.363 254.804 196.114 254.804 191.819V173.824H254.396C253.578 148.262 246.216 128.017 231.901 113.089C224.335 104.705 215.746 99.7969 206.339 98.3654H204.09L203.476 97.752H196.933L195.91 98.3654H193.661C184.254 99.7969 175.87 104.5 168.508 112.68C153.989 127.813 146.422 148.262 145.604 173.824V191.819C145.604 196.114 147.854 198.363 152.148 198.363H176.892L177.915 199.386C178.324 199.795 178.528 199.999 178.937 199.999L160.942 208.179L115.544 229.037C111.249 230.673 109 234.559 109 240.489V290.181C109 293.453 110.022 296.316 112.067 298.565C114.112 301.019 116.566 302.246 119.429 302.246H280.571C283.434 302.246 285.888 301.019 287.933 298.565C289.978 296.316 291 293.453 291 290.181V240.489C291 234.559 288.751 230.673 284.456 229.037Z" fill="#C4C7C8"/>
</svg>
