<svg width="236" height="137" viewBox="0 0 236 137" fill="none" xmlns="http://www.w3.org/2000/svg">
<rect x="0.186693" y="0.55681" width="235.61" height="135.627" rx="3.81331" fill="#F8F8F8" stroke="#D3D3D3" stroke-width="0.373385"/>
<path d="M118 37.25C132.928 37.25 140.392 37.25 145.029 41.8265C149.667 46.4029 149.667 53.7686 149.667 68.5C149.667 83.2314 149.667 90.5971 145.029 95.1735C140.392 99.75 132.928 99.75 118 99.75C103.072 99.75 95.6084 99.75 90.971 95.1735C86.3335 90.5971 86.3335 83.2314 86.3335 68.5C86.3335 53.7686 86.3335 46.4029 90.971 41.8265C95.6084 37.25 103.072 37.25 118 37.25Z" stroke="#7C7C7C" stroke-width="3"/>
<path d="M148.083 84.125L87.9168 84.125" stroke="#7C7C7C" stroke-width="3" stroke-linecap="round"/>
<path d="M148.083 52.875L87.9168 52.875" stroke="#7C7C7C" stroke-width="3" stroke-linecap="round"/>
<path d="M118 37.25L118 52.875M118 99.75L118 84.125" stroke="#7C7C7C" stroke-width="3" stroke-linecap="round"/>
<path d="M133.833 38.8125L133.833 52.875M133.833 98.1875L133.833 84.125" stroke="#7C7C7C" stroke-width="3" stroke-linecap="round"/>
<path d="M102.167 38.8125L102.167 52.875M102.167 98.1875L102.167 84.125" stroke="#7C7C7C" stroke-width="3" stroke-linecap="round"/>
<path d="M124.333 68.5C124.333 66.8506 122.656 65.7383 119.302 63.5136C115.902 61.2585 114.202 60.1309 112.934 60.9588C111.667 61.7867 111.667 64.0245 111.667 68.5C111.667 72.9755 111.667 75.2133 112.934 76.0412C114.202 76.8691 115.902 75.7415 119.302 73.4864C122.656 71.2617 124.333 70.1494 124.333 68.5Z" stroke="#7C7C7C" stroke-width="3" stroke-linecap="round"/>
</svg>
