<svg width="236" height="137" viewBox="0 0 236 137" fill="none" xmlns="http://www.w3.org/2000/svg">
<rect x="0.186693" y="0.55681" width="235.61" height="135.627" rx="3.81331" fill="#F8F8F8" stroke="#D3D3D3" stroke-width="0.373385"/>
<path d="M137.071 113.901C137.053 113.901 137.442 112.647 137.476 112.573C137.866 111.692 139.148 110.215 140.211 110.33C140.377 110.352 140.538 110.406 140.683 110.49C140.828 110.575 140.956 110.687 141.057 110.82C141.159 110.954 141.234 111.106 141.277 111.268C141.32 111.431 141.33 111.6 141.308 111.766C141.303 111.811 141.294 111.856 141.283 111.899C141.128 112.647 140.384 113.218 139.738 113.527C138.969 113.886 137.071 113.901 137.071 113.901Z" fill="#263238"/>
<path d="M217.916 99.5604C217.144 99.2236 215.883 97.8054 215.88 97.8023C215.877 97.7992 217.066 97.2616 217.147 97.2338C218.074 96.9464 220.011 96.9248 220.635 97.8147C220.822 98.0963 220.89 98.4405 220.823 98.7718C220.756 99.1032 220.561 99.3946 220.28 99.582C220.242 99.6093 220.202 99.6331 220.159 99.6531C219.495 100.03 218.577 99.8478 217.916 99.5604Z" fill="#263238"/>
<path d="M197.987 107.459C197.508 107.802 197.06 108.132 196.677 108.435L195.941 108.237C196.439 107.864 197.023 107.45 197.663 107.002C198.036 106.742 198.441 106.47 198.861 106.198C198.67 105.761 198.503 105.313 198.361 104.857C197.647 104.897 196.325 104.471 196.155 104.418C195.985 104.836 195.827 105.24 195.682 105.63C195.351 106.501 195.086 107.283 194.866 107.944L194.248 107.78C194.486 107.107 194.78 106.313 195.135 105.423C195.305 104.999 195.493 104.548 195.691 104.091C195.537 103.992 194.282 103.189 193.899 102.608C193.553 102.079 193.26 101.304 193.488 100.674C193.533 100.533 193.605 100.403 193.701 100.291C193.796 100.178 193.913 100.086 194.044 100.018C194.175 99.9512 194.318 99.9106 194.465 99.899C194.612 99.8873 194.76 99.9049 194.9 99.9505L195.011 99.9907C195.867 100.402 196.142 102.089 196.028 102.929C196.028 102.975 195.889 103.507 195.802 103.838C195.886 103.646 195.96 103.47 196.047 103.278C196.216 102.892 196.396 102.521 196.581 102.113L196.89 101.533C196.983 101.344 197.113 101.143 197.227 100.945C197.496 100.488 197.789 100.043 198.098 99.6014C197.764 99.45 196.587 98.9031 196.164 98.4334C195.741 97.9638 195.336 97.2408 195.463 96.5795C195.508 96.2851 195.667 96.0205 195.907 95.8438C196.147 95.6671 196.447 95.5928 196.742 95.6371C196.785 95.6371 196.828 95.6526 196.868 95.6649C197.777 95.9399 198.296 97.5714 198.321 98.4149C198.321 98.4674 198.262 99.0761 198.225 99.4098C198.413 99.1441 198.599 98.8784 198.796 98.6188C199.368 97.8587 199.968 97.111 200.564 96.3632L201.108 95.6711C200.987 95.6217 199.563 95.0006 199.099 94.4754C198.679 94.0026 198.271 93.2827 198.398 92.6215C198.446 92.3272 198.608 92.0639 198.85 91.889C199.091 91.7141 199.392 91.642 199.686 91.6883C199.727 91.6883 199.77 91.7038 199.81 91.7161C200.718 91.9911 201.237 93.6226 201.262 94.4661C201.262 94.5279 201.179 95.393 201.148 95.6279C201.546 95.1211 201.936 94.6113 202.3 94.0829C202.798 93.3859 203.25 92.6572 203.654 91.9015C203.595 91.8861 202.109 91.2403 201.633 90.6996C201.213 90.2299 200.805 89.5131 200.932 88.8457C200.98 88.5528 201.142 88.291 201.383 88.1174C201.624 87.9437 201.924 87.8723 202.217 87.9187C202.258 87.924 202.298 87.9323 202.337 87.9435C203.246 88.2184 203.765 89.8499 203.787 90.6934C203.787 90.749 203.728 91.4164 203.691 91.7347H203.743C204.123 90.9644 204.433 90.162 204.67 89.337C204.809 88.8828 204.914 88.4409 205.01 88.0083C204.723 87.9187 203.422 87.4893 202.924 87.0474C202.427 86.6056 201.97 85.9567 202.025 85.2862C202.032 85.1388 202.069 84.9943 202.132 84.861C202.195 84.7276 202.283 84.608 202.393 84.509C202.502 84.4099 202.63 84.3335 202.769 84.2839C202.908 84.2344 203.055 84.2127 203.203 84.2202H203.323C204.25 84.3932 204.958 85.9536 205.066 86.794C205.066 86.8373 205.066 87.31 205.066 87.653C205.106 87.4583 205.149 87.2544 205.186 87.069C205.316 86.3615 205.393 85.7095 205.455 85.1286C205.488 84.797 205.513 84.4942 205.529 84.2202C205.297 83.9854 204.361 83.0214 204.13 82.4127C203.898 81.804 203.787 81.0068 204.13 80.4413C204.203 80.3123 204.302 80.1992 204.42 80.1087C204.538 80.0182 204.673 79.9521 204.817 79.9141C204.96 79.8762 205.11 79.8672 205.258 79.8877C205.405 79.9082 205.547 79.9577 205.674 80.0335L205.776 80.0984C206.524 80.6824 206.428 82.391 206.138 83.1882C206.119 83.2562 205.594 84.2851 205.582 84.2727C205.582 84.5415 205.554 84.8289 205.526 85.1441C205.477 85.728 205.406 86.38 205.297 87.0968C205.18 87.8634 205.019 88.6227 204.815 89.371C204.593 90.2114 204.296 91.0303 203.929 91.8181V91.849C204.12 91.6451 204.67 91.0982 204.717 91.0611C205.381 90.5296 206.972 89.9024 207.76 90.4431C207.881 90.5276 207.984 90.6352 208.063 90.7596C208.142 90.8841 208.196 91.023 208.221 91.1683C208.247 91.3136 208.243 91.4625 208.21 91.6063C208.178 91.7502 208.117 91.8862 208.032 92.0066L207.958 92.1024C207.531 92.6215 206.722 92.7605 206.085 92.7358C205.372 92.708 203.99 92.0097 203.882 91.9541C203.484 92.7445 203.035 93.5083 202.538 94.2405C202.248 94.6669 201.945 95.0902 201.636 95.5104C201.806 95.3405 201.945 95.2015 201.982 95.1706C202.643 94.6422 204.235 94.0119 205.026 94.5526C205.146 94.6374 205.249 94.7451 205.328 94.8695C205.407 94.994 205.46 95.1328 205.486 95.278C205.511 95.4232 205.507 95.5719 205.475 95.7157C205.443 95.8595 205.382 95.9956 205.297 96.1161C205.274 96.1501 205.249 96.1821 205.22 96.2118C204.797 96.7309 203.984 96.8731 203.366 96.8484C202.748 96.8236 201.534 96.252 201.222 96.0975C201.098 96.2551 200.981 96.4065 200.86 96.5734C200.28 97.3365 199.699 98.0966 199.152 98.8598C198.96 99.1286 198.787 99.4067 198.599 99.6694L198.908 99.3604C199.569 98.832 201.16 98.2017 201.951 98.7424C202.194 98.9141 202.359 99.175 202.41 99.468C202.461 99.761 202.394 100.062 202.223 100.306C202.199 100.34 202.173 100.373 202.146 100.405C201.723 100.921 200.91 101.063 200.292 101.023C199.674 100.983 198.577 100.479 198.206 100.297C198.027 100.581 197.848 100.865 197.69 101.146C197.588 101.335 197.471 101.52 197.381 101.724L197.091 102.314C196.918 102.7 196.742 103.084 196.584 103.461C196.473 103.72 196.371 103.97 196.275 104.221C196.461 103.952 196.844 103.433 196.893 103.393C197.42 102.865 198.073 102.481 198.79 102.277C198.846 102.215 198.908 102.159 198.976 102.11C199.09 102.018 199.222 101.949 199.364 101.908C199.505 101.866 199.653 101.853 199.8 101.869C199.946 101.886 200.088 101.93 200.217 102.001C200.346 102.072 200.46 102.168 200.552 102.283C200.577 102.315 200.601 102.348 200.623 102.382C201.111 103.195 200.406 104.752 199.85 105.392C199.819 105.432 199.418 105.796 199.158 106.01C199.331 105.898 199.495 105.79 199.68 105.679C200.032 105.454 200.388 105.24 200.771 105.012L201.346 104.703C201.534 104.595 201.747 104.502 201.948 104.394C202.427 104.165 202.918 103.955 203.422 103.757C203.227 103.448 202.551 102.342 202.464 101.718C202.378 101.094 202.427 100.269 202.9 99.7899C203 99.6817 203.12 99.5943 203.254 99.5327C203.388 99.4711 203.532 99.4364 203.68 99.4307C203.827 99.4249 203.974 99.4482 204.112 99.4993C204.25 99.5503 204.377 99.628 204.485 99.7281L204.568 99.8146C205.186 100.544 204.717 102.191 204.259 102.904C204.231 102.948 203.848 103.427 203.641 103.683C203.95 103.563 204.244 103.445 204.553 103.334C205.446 103.025 206.36 102.716 207.272 102.432L208.106 102.154C208.035 102.045 207.179 100.751 207.096 100.046C207.003 99.4284 207.059 98.5972 207.528 98.1214C207.731 97.9028 208.012 97.7735 208.31 97.7619C208.607 97.7503 208.898 97.8574 209.117 98.0596L209.2 98.143C209.818 98.8753 209.348 100.522 208.891 101.233C208.857 101.285 208.304 101.971 208.156 102.138C208.774 101.934 209.373 101.724 209.963 101.495C210.761 101.187 211.54 100.829 212.293 100.423C212.259 100.371 211.366 99.0236 211.276 98.3037C211.184 97.6857 211.239 96.8545 211.709 96.3756C211.911 96.157 212.192 96.0277 212.49 96.0161C212.788 96.0045 213.078 96.1116 213.297 96.3138C213.325 96.3411 213.352 96.37 213.377 96.4003C213.995 97.1295 213.526 98.7795 213.068 99.4902C213.038 99.5365 212.617 100.062 212.413 100.303L212.447 100.346C213.195 99.9161 213.901 99.4187 214.558 98.8598C214.922 98.5508 215.256 98.2419 215.574 97.9329C215.383 97.698 214.53 96.6166 214.363 95.9801C214.196 95.3436 214.168 94.5433 214.582 94.015C214.759 93.7757 215.024 93.6164 215.318 93.5718C215.612 93.5272 215.912 93.601 216.152 93.7771C216.185 93.7993 216.216 93.8241 216.245 93.8512C216.931 94.5124 216.653 96.1995 216.282 96.9596C216.282 97.0028 216.007 97.3983 215.818 97.6857C215.961 97.5466 216.127 97.4045 216.242 97.2655C216.739 96.7526 217.169 96.2458 217.536 95.7978C217.746 95.5383 217.932 95.3034 218.099 95.0841C218.034 94.7565 217.79 93.4372 217.929 92.8038C218.068 92.1703 218.417 91.4411 219.029 91.1569C219.297 91.0254 219.606 91.0055 219.889 91.1017C220.171 91.1978 220.404 91.4021 220.537 91.6698C220.552 91.7069 220.567 91.7409 220.58 91.7779C220.889 92.6771 219.863 94.049 219.171 94.5588C219.115 94.602 218.114 95.1768 218.111 95.1582V95.1397C217.953 95.3591 217.774 95.5908 217.586 95.838C217.221 96.2984 216.807 96.8113 216.31 97.3396C215.788 97.9149 215.234 98.4597 214.65 98.9711C213.998 99.5472 213.296 100.064 212.552 100.516H212.528C212.797 100.451 213.56 100.297 213.621 100.29C214.465 100.216 216.143 100.572 216.507 101.443C216.561 101.58 216.588 101.726 216.585 101.874C216.582 102.021 216.55 102.166 216.491 102.301C216.432 102.436 216.347 102.558 216.24 102.66C216.134 102.762 216.008 102.842 215.871 102.895L215.753 102.935C215.114 103.133 214.357 102.802 213.844 102.435C213.266 102.015 212.5 100.67 212.438 100.565C211.67 101.004 210.875 101.393 210.056 101.727C209.568 101.922 209.086 102.113 208.604 102.29C208.76 102.249 208.919 102.22 209.079 102.203C209.923 102.129 211.601 102.484 211.965 103.356C212.019 103.493 212.046 103.639 212.043 103.786C212.04 103.934 212.008 104.079 211.949 104.214C211.89 104.349 211.804 104.471 211.698 104.573C211.592 104.675 211.466 104.754 211.329 104.808L211.211 104.848C210.572 105.046 209.818 104.715 209.302 104.344C208.786 103.973 208.103 102.836 207.93 102.534L207.365 102.734C206.459 103.043 205.554 103.352 204.676 103.692C204.367 103.813 204.058 103.94 203.749 104.063L204.164 103.983C205.007 103.909 206.685 104.264 207.049 105.138C207.159 105.413 207.155 105.72 207.039 105.992C206.923 106.263 206.705 106.479 206.431 106.591L206.314 106.631C205.674 106.825 204.917 106.495 204.401 106.127C203.885 105.759 203.267 104.734 203.064 104.369C202.755 104.502 202.446 104.647 202.164 104.792C201.97 104.897 201.775 104.984 201.584 105.101L200.956 105.469C200.604 105.695 200.239 105.923 199.903 106.149C199.668 106.3 199.445 106.458 199.22 106.612C199.529 106.479 200.147 106.269 200.184 106.254C201.009 106.047 202.714 106.149 203.212 106.955C203.288 107.083 203.337 107.225 203.358 107.372C203.378 107.519 203.369 107.669 203.331 107.813C203.293 107.957 203.227 108.092 203.137 108.209C203.046 108.327 202.933 108.426 202.804 108.5C202.769 108.521 202.733 108.54 202.696 108.556C202.078 108.849 201.293 108.636 200.731 108.349C200.113 108.04 199.186 106.872 199.065 106.727C198.679 106.964 198.321 107.215 197.987 107.459Z" fill="#263238"/>
<path d="M17.7227 101.208C18.4241 100.936 19.5766 99.7221 19.5766 99.7221C19.5766 99.7221 18.5415 99.1968 18.4735 99.169C17.6671 98.8817 15.9399 98.8044 15.3497 99.5676C15.2624 99.6882 15.1997 99.8249 15.1653 99.9698C15.1309 100.115 15.1255 100.265 15.1493 100.412C15.1732 100.559 15.2258 100.7 15.3042 100.826C15.3826 100.953 15.4852 101.063 15.6062 101.15C15.6378 101.175 15.672 101.197 15.7081 101.214C16.3045 101.57 17.1295 101.452 17.7227 101.208Z" fill="#263238"/>
<path d="M29.6011 91.1383C29.6011 91.1383 29.0264 90.131 28.9831 90.0692C28.4702 89.3895 27.0736 88.3698 26.1652 88.6819C26.0256 88.7338 25.8977 88.8127 25.7889 88.9142C25.68 89.0157 25.5923 89.1378 25.5308 89.2734C25.4693 89.409 25.4353 89.5554 25.4307 89.7042C25.4261 89.853 25.451 90.0012 25.504 90.1403C25.5172 90.1797 25.5338 90.218 25.5534 90.2546C25.8377 90.8726 26.5947 91.2125 27.2219 91.3484C27.9542 91.5091 29.598 91.1383 29.6011 91.1383Z" fill="#263238"/>
<path d="M35.144 108.912C35.5549 109.221 35.935 109.53 36.2749 109.839L36.933 109.687C36.5035 109.338 36.0061 108.946 35.4499 108.529C35.1409 108.284 34.7732 108.031 34.4148 107.772C34.6031 107.391 34.7703 107 34.9153 106.601C35.5333 106.669 36.7322 106.329 36.8897 106.292C37.0226 106.669 37.1493 107.036 37.2636 107.382C37.5263 108.17 37.7394 108.872 37.9094 109.468L38.4408 109.344C38.2585 108.745 38.0237 108.022 37.7333 107.222C37.5973 106.838 37.4459 106.431 37.2883 106.017C37.4274 105.936 38.5706 105.266 38.9259 104.762C39.2504 104.305 39.5439 103.628 39.3616 103.063C39.327 102.935 39.2675 102.816 39.1864 102.712C39.1053 102.608 39.0042 102.521 38.8892 102.456C38.7742 102.392 38.6475 102.35 38.5164 102.335C38.3853 102.32 38.2525 102.331 38.1257 102.367L38.0237 102.401C37.242 102.735 36.9454 104.228 37.0164 104.975C37.0164 105.019 37.1184 105.494 37.1895 105.794C37.1215 105.624 37.0597 105.457 36.9886 105.287C36.8527 104.944 36.7044 104.605 36.5468 104.237L36.2996 103.712C36.2162 103.535 36.1142 103.356 36.0215 103.177C35.799 102.763 35.5518 102.355 35.2923 101.941C35.6013 101.824 36.6642 101.379 37.0504 100.974C37.4366 100.569 37.826 99.945 37.7456 99.3549C37.7299 99.2246 37.6887 99.0986 37.6243 98.9843C37.5599 98.8699 37.4735 98.7694 37.3702 98.6885C37.2669 98.6075 37.1486 98.5478 37.0222 98.5126C36.8957 98.4774 36.7636 98.4676 36.6333 98.4835L36.5313 98.5021C35.7218 98.7153 35.1934 100.14 35.1533 100.891C35.1533 100.94 35.1811 101.481 35.2027 101.777C35.0482 101.536 34.8937 101.295 34.7238 101.054C34.2449 100.362 33.7381 99.6793 33.2345 98.9903C33.08 98.7833 32.9255 98.5731 32.7741 98.3723C32.8822 98.3291 34.1522 97.8378 34.5971 97.3774C34.9895 96.9726 35.3757 96.3485 35.2954 95.7583C35.2637 95.4957 35.1291 95.2565 34.9211 95.0931C34.7131 94.9297 34.4488 94.8556 34.1861 94.887C34.1506 94.8899 34.1155 94.8961 34.0811 94.9055C33.2716 95.1156 32.7463 96.5431 32.7061 97.294C32.7061 97.3527 32.7463 98.1344 32.7679 98.3291C32.4311 97.8656 32.1005 97.4021 31.7977 96.9263C31.3796 96.284 31.0039 95.6152 30.673 94.9241C30.7224 94.9241 32.0511 94.3895 32.5053 93.923C32.8977 93.5182 33.2839 92.8971 33.2036 92.307C33.1719 92.0436 33.0369 91.8035 32.8283 91.6396C32.6198 91.4756 32.3547 91.4012 32.0912 91.4325L31.9893 91.4511C31.1797 91.6612 30.6514 93.0887 30.6112 93.8426C30.6112 93.889 30.639 94.4791 30.6637 94.7696H30.6174C30.2823 94.0741 30.0093 93.3503 29.8017 92.6067C29.6935 92.2019 29.6163 91.8033 29.5452 91.4171C29.8048 91.3553 30.9789 91.0092 31.43 90.6354C31.8811 90.2615 32.3168 89.7084 32.2921 89.109C32.2833 88.8491 32.174 88.6028 31.9873 88.4219C31.8006 88.2409 31.551 88.1394 31.291 88.1388H31.1859C30.3578 88.2624 29.675 89.6219 29.5576 90.3604C29.5576 90.4005 29.5267 90.8208 29.5205 91.1236C29.4927 90.9505 29.4587 90.7682 29.4371 90.6014C29.3444 89.9834 29.298 89.3871 29.264 88.868C29.2455 88.559 29.2362 88.3087 29.2301 88.0615C29.4463 87.8576 30.3084 87.0357 30.534 86.5166C30.7595 85.9975 30.8893 85.2807 30.5927 84.7647C30.531 84.649 30.4471 84.5467 30.3459 84.4634C30.2447 84.3802 30.128 84.3177 30.0027 84.2796C29.8773 84.2414 29.7456 84.2283 29.6152 84.241C29.4847 84.2538 29.3581 84.2921 29.2424 84.3537L29.1528 84.4063C28.4669 84.8975 28.4916 86.4208 28.7141 87.1377C28.7141 87.1995 29.159 88.1326 29.1559 88.1233H29.1744C29.1744 88.3643 29.1744 88.6177 29.1744 88.902C29.1992 89.418 29.2331 90.005 29.3104 90.6416C29.3874 91.3267 29.505 92.0066 29.6626 92.6778C29.8329 93.4286 30.0697 94.1627 30.3702 94.8715V94.8962C30.2095 94.7201 29.7522 94.2041 29.6997 94.1701C29.1281 93.6789 27.7284 93.064 27.0177 93.5058C26.9067 93.5754 26.8105 93.6663 26.7348 93.7732C26.6591 93.8802 26.6053 94.001 26.5766 94.1289C26.5478 94.2567 26.5447 94.389 26.5674 94.5181C26.5901 94.6471 26.6381 94.7704 26.7087 94.8808C26.7276 94.9126 26.7493 94.9426 26.7736 94.9704C27.1321 95.4462 27.8489 95.5884 28.4205 95.5884C29.0601 95.5884 30.3053 95.0137 30.4042 94.9704C30.7321 95.6854 31.1068 96.378 31.5258 97.0437C31.7668 97.433 32.0233 97.8161 32.2828 98.1993C32.1819 98.1011 32.086 97.998 31.9955 97.8903C31.4238 97.3959 30.0334 96.7841 29.3135 97.2229C29.2026 97.293 29.1067 97.3843 29.0312 97.4916C28.9557 97.5988 28.902 97.7199 28.8733 97.8479C28.8446 97.9759 28.8414 98.1082 28.864 98.2375C28.8865 98.3667 28.9342 98.4902 29.0045 98.601L29.0694 98.6906C29.4278 99.1633 30.1446 99.3085 30.7163 99.3085C31.2879 99.3085 32.3601 98.8389 32.6443 98.7122L32.9533 99.1509C33.4446 99.8492 33.9359 100.541 34.3932 101.237C34.5569 101.484 34.7021 101.731 34.8628 101.987C34.7361 101.848 34.6249 101.731 34.6064 101.716C34.0347 101.224 32.635 100.612 31.9275 101.051C31.8163 101.121 31.7201 101.212 31.6443 101.319C31.5686 101.427 31.5148 101.548 31.4861 101.676C31.4573 101.804 31.4543 101.937 31.477 102.066C31.4997 102.195 31.5478 102.319 31.6185 102.429L31.6834 102.519C32.0418 102.992 32.7617 103.137 33.3303 103.137C33.8988 103.137 34.8752 102.717 35.2089 102.565C35.3572 102.825 35.5179 103.081 35.6353 103.338C35.7218 103.514 35.8176 103.681 35.8948 103.86C35.9721 104.039 36.0524 104.218 36.1327 104.394C36.2687 104.737 36.4139 105.093 36.5406 105.429C36.6302 105.664 36.7105 105.89 36.794 106.119C36.6333 105.871 36.3119 105.399 36.281 105.362C35.8252 104.866 35.248 104.497 34.6064 104.292C34.5593 104.236 34.5065 104.184 34.4488 104.138C34.2486 103.965 33.9879 103.878 33.7239 103.897C33.4598 103.915 33.2139 104.037 33.0398 104.237L32.9749 104.32C32.5145 105.028 33.0831 106.44 33.5558 107.024C33.5867 107.058 33.9266 107.398 34.1522 107.611C34.0008 107.506 33.8586 107.401 33.701 107.286C33.3921 107.076 33.0831 106.872 32.7525 106.647L32.255 106.338C32.0912 106.23 31.9058 106.143 31.7266 106.044C31.3126 105.825 30.8831 105.618 30.4444 105.426C30.6328 105.167 31.2693 104.19 31.3713 103.647C31.4733 103.103 31.4547 102.361 31.0623 101.919C30.8904 101.718 30.6456 101.593 30.3815 101.571C30.1174 101.55 29.8555 101.634 29.6534 101.805L29.5761 101.879C29.0107 102.497 29.3629 103.987 29.7368 104.629C29.7615 104.669 30.0859 105.105 30.2713 105.343C30.0056 105.226 29.743 105.108 29.4711 105.003C28.6893 104.694 27.8891 104.385 27.0888 104.104L26.3627 103.857C26.4276 103.761 27.2155 102.639 27.3329 102.003C27.4349 101.453 27.4163 100.717 27.0239 100.279C26.8477 100.099 26.6097 99.9919 26.3579 99.9805C26.1061 99.969 25.8594 100.054 25.6675 100.217C25.6396 100.238 25.6137 100.262 25.5902 100.288C25.0279 100.906 25.3739 102.395 25.754 103.038C25.7818 103.087 26.2484 103.715 26.372 103.866C25.8343 103.665 25.306 103.458 24.7869 103.233C24.0884 102.934 23.4103 102.591 22.7569 102.204C22.7878 102.16 23.6158 100.996 23.7332 100.35C23.8414 99.7967 23.8167 99.0613 23.4243 98.6226C23.2523 98.4209 23.0075 98.2957 22.7434 98.2743C22.4793 98.2528 22.2175 98.337 22.0153 98.5083L21.9381 98.5824C21.3757 99.2004 21.7249 100.687 22.1018 101.332C22.1265 101.373 22.4819 101.851 22.658 102.074L22.624 102.111C21.9767 101.702 21.3666 101.237 20.801 100.721C20.492 100.442 20.2016 100.155 19.9297 99.8709C20.0996 99.67 20.903 98.74 21.0729 98.1776C21.2428 97.6153 21.2954 96.9108 20.9462 96.4288C20.8732 96.32 20.7794 96.2268 20.6702 96.1544C20.561 96.0819 20.4386 96.0318 20.3099 96.0068C20.1813 95.9818 20.049 95.9825 19.9207 96.0088C19.7923 96.0351 19.6704 96.0865 19.562 96.16C19.5321 96.1789 19.5042 96.2006 19.4785 96.2249C18.8606 96.7872 19.0305 98.2951 19.3364 98.9841C19.3364 99.0243 19.5651 99.3827 19.7226 99.6422C19.6021 99.5156 19.4755 99.3827 19.3611 99.256C18.9378 98.7802 18.5794 98.329 18.2642 97.9057C18.085 97.6709 17.9305 97.4546 17.7853 97.2507C17.8564 96.9633 18.1221 95.7985 18.0201 95.233C17.9182 94.6676 17.6308 93.9971 17.0932 93.7314C16.86 93.605 16.5862 93.5763 16.3319 93.6516C16.0776 93.7269 15.8635 93.9001 15.7368 94.1331C15.7205 94.1641 15.706 94.1961 15.6935 94.2288C15.3845 95.0168 16.2528 96.2712 16.8429 96.7501C16.8954 96.7903 17.7699 97.3341 17.7699 97.3187V97.3032C17.9058 97.5041 18.0541 97.7142 18.2179 97.9397C18.5269 98.36 18.8729 98.8327 19.2901 99.3178C19.7332 99.8475 20.2078 100.35 20.7114 100.823C21.2684 101.358 21.8723 101.842 22.5158 102.269H22.5406C22.3119 102.201 21.6136 102.037 21.5796 102.031C20.8319 101.935 19.3333 102.191 18.9749 102.958C18.8677 103.199 18.8609 103.474 18.9559 103.721C19.0509 103.967 19.24 104.166 19.4816 104.274C19.518 104.289 19.5551 104.303 19.5929 104.314C20.1552 104.512 20.8288 104.24 21.3077 103.937C21.8361 103.585 22.5622 102.42 22.6209 102.327C23.287 102.746 23.9807 103.118 24.6973 103.443C25.1113 103.634 25.5346 103.817 25.9641 103.99L25.5439 103.891C24.7992 103.795 23.2976 104.051 22.9422 104.818C22.8889 104.938 22.8597 105.067 22.8565 105.198C22.8532 105.329 22.8759 105.46 22.9233 105.582C22.9707 105.704 23.0418 105.816 23.1326 105.911C23.2233 106.005 23.3319 106.081 23.4521 106.134L23.5602 106.174C24.1226 106.369 24.7961 106.1 25.272 105.794C25.7478 105.488 26.3874 104.496 26.5543 104.234L27.0486 104.431C27.8427 104.74 28.6337 105.049 29.4124 105.383C29.6843 105.497 29.9469 105.621 30.2095 105.742C30.0272 105.695 29.8696 105.661 29.8449 105.658C29.1003 105.562 27.6017 105.819 27.2433 106.585C27.1903 106.705 27.1615 106.834 27.1585 106.965C27.1554 107.096 27.1782 107.227 27.2256 107.349C27.2729 107.471 27.3439 107.583 27.4344 107.678C27.5249 107.772 27.6332 107.848 27.7531 107.901L27.8613 107.942C28.4205 108.136 29.0972 107.867 29.5761 107.561C30.055 107.256 30.6267 106.356 30.812 106.047C31.0809 106.18 31.3435 106.313 31.5969 106.455C31.7668 106.554 31.9367 106.638 32.0943 106.749L32.5949 107.058C32.9039 107.268 33.2128 107.481 33.5218 107.704C33.7288 107.849 33.9204 107.991 34.112 108.136C33.8463 108.019 33.3148 107.802 33.2685 107.787C32.5454 107.58 31.0252 107.605 30.5556 108.306C30.4854 108.417 30.4377 108.54 30.4152 108.669C30.3928 108.798 30.396 108.93 30.4247 109.058C30.4534 109.185 30.507 109.306 30.5825 109.413C30.658 109.52 30.7538 109.611 30.8646 109.681L30.9573 109.734C31.4825 110.012 32.1932 109.854 32.7092 109.619C33.2685 109.357 34.1305 108.362 34.2541 108.232C34.5569 108.448 34.8597 108.686 35.144 108.912Z" fill="#263238"/>
<path d="M196.642 18.171V119.412C196.642 120.034 196.519 120.65 196.281 121.225C196.043 121.799 195.694 122.321 195.254 122.761C194.815 123.2 194.292 123.549 193.718 123.787C193.143 124.024 192.527 124.146 191.905 124.146H41.072C39.8166 124.146 38.6126 123.647 37.7248 122.76C36.8371 121.872 36.3384 120.668 36.3384 119.412V18.171C36.3384 18.103 36.3384 18.035 36.3384 17.9701C36.3876 16.7919 36.8749 15.6746 37.7047 14.8367C38.5345 13.9989 39.6472 13.501 40.8248 13.4404H41.0658H191.905H192.149C193.327 13.501 194.44 13.9989 195.269 14.8367C196.099 15.6746 196.587 16.7919 196.636 17.9701C196.639 18.0288 196.642 18.103 196.642 18.171Z" fill="white" stroke="#263238" stroke-width="0.403192" stroke-linecap="round" stroke-linejoin="round"/>
<path d="M196.636 17.9701H36.3447C36.394 16.7919 36.8812 15.6746 37.711 14.8367C38.5408 13.9989 39.6535 13.501 40.8312 13.4404H41.0722H191.905H192.149C193.327 13.501 194.44 13.9989 195.27 14.8367C196.099 15.6746 196.587 16.7919 196.636 17.9701Z" fill="#045D5E" stroke="#263238" stroke-width="0.403192" stroke-miterlimit="10"/>
<path d="M44.5451 15.7015C44.5451 15.8482 44.5016 15.9916 44.4202 16.1135C44.3387 16.2355 44.2229 16.3305 44.0874 16.3866C43.9519 16.4428 43.8027 16.4575 43.6589 16.4288C43.5151 16.4002 43.3829 16.3296 43.2792 16.2259C43.1755 16.1222 43.1049 15.99 43.0763 15.8462C43.0476 15.7023 43.0623 15.5532 43.1185 15.4177C43.1746 15.2822 43.2696 15.1664 43.3916 15.0849C43.5135 15.0035 43.6569 14.96 43.8036 14.96C43.9011 14.9596 43.9977 14.9785 44.0878 15.0156C44.178 15.0527 44.2599 15.1073 44.3288 15.1763C44.3978 15.2452 44.4524 15.3271 44.4895 15.4173C44.5266 15.5074 44.5455 15.604 44.5451 15.7015Z" fill="#263238"/>
<path d="M47.467 15.7015C47.467 15.8482 47.4235 15.9916 47.342 16.1135C47.2605 16.2355 47.1447 16.3305 47.0092 16.3866C46.8737 16.4428 46.7246 16.4575 46.5808 16.4288C46.4369 16.4002 46.3048 16.3296 46.2011 16.2259C46.0974 16.1222 46.0267 15.99 45.9981 15.8462C45.9695 15.7023 45.9842 15.5532 46.0403 15.4177C46.0965 15.2822 46.1915 15.1664 46.3135 15.0849C46.4354 15.0035 46.5788 14.96 46.7254 14.96C46.8229 14.9596 46.9196 14.9785 47.0097 15.0156C47.0999 15.0527 47.1818 15.1073 47.2507 15.1763C47.3197 15.2452 47.3743 15.3271 47.4114 15.4173C47.4485 15.5074 47.4674 15.604 47.467 15.7015Z" fill="#263238"/>
<path d="M50.3946 15.7015C50.3952 15.8489 50.352 15.9932 50.2706 16.1161C50.1891 16.2389 50.073 16.3349 49.937 16.3917C49.801 16.4485 49.6512 16.4637 49.5065 16.4353C49.3619 16.4069 49.2289 16.3363 49.1245 16.2323C49.02 16.1282 48.9488 15.9956 48.9198 15.851C48.8908 15.7065 48.9054 15.5566 48.9617 15.4204C49.0179 15.2841 49.1134 15.1676 49.2359 15.0857C49.3584 15.0037 49.5025 14.96 49.6499 14.96C49.7476 14.9596 49.8443 14.9784 49.9346 15.0155C50.025 15.0526 50.1071 15.1072 50.1763 15.1761C50.2455 15.245 50.3004 15.3269 50.3378 15.417C50.3753 15.5072 50.3946 15.6039 50.3946 15.7015Z" fill="#263238"/>
<path d="M44.4271 67.1697C46.5278 67.1697 48.2307 65.4667 48.2307 63.3661C48.2307 61.2654 46.5278 59.5625 44.4271 59.5625C42.3265 59.5625 40.6235 61.2654 40.6235 63.3661C40.6235 65.4667 42.3265 67.1697 44.4271 67.1697Z" fill="white" stroke="#263238" stroke-width="0.403192" stroke-linecap="round" stroke-linejoin="round"/>
<path d="M45.1355 61.1191L43.2568 63.3654L45.1355 65.1884" fill="white"/>
<path d="M45.1355 61.1191L43.2568 63.3654L45.1355 65.1884" stroke="#263238" stroke-width="0.403192" stroke-linecap="round" stroke-linejoin="round"/>
<path d="M121.687 112.637C121.641 112.9 121.65 113.169 121.713 113.429C121.776 113.688 121.893 113.932 122.055 114.144C122.605 114.883 123.108 114.976 123.108 114.976V118.22C123.108 118.22 120.219 118.782 119.53 118.371C119.064 118.09 119.082 116.622 119.144 115.711C119.157 115.507 119.243 115.314 119.386 115.168C119.53 115.022 119.722 114.933 119.926 114.917L120.853 114.84C120.853 114.84 120.63 112.269 121.687 112.637Z" fill="#263238"/>
<path d="M124.59 114.839H123.536V118.278H124.59V114.839Z" fill="#263238"/>
<path d="M127.566 116.992V117.264C127.572 117.361 127.558 117.459 127.525 117.551C127.493 117.643 127.441 117.727 127.374 117.798C127.308 117.87 127.227 117.926 127.137 117.965C127.048 118.004 126.951 118.024 126.853 118.024C126.756 118.024 126.659 118.004 126.569 117.965C126.48 117.926 126.399 117.87 126.332 117.798C126.266 117.727 126.214 117.643 126.181 117.551C126.148 117.459 126.135 117.361 126.141 117.264V117.177L126.571 117.134V117.233C126.571 117.467 126.673 117.569 126.846 117.569C127.019 117.569 127.118 117.467 127.118 117.26V116.951C127.118 116.717 127.016 116.615 126.781 116.615H126.605V116.194H126.765C127 116.194 127.102 116.092 127.102 115.858V115.629C127.107 115.594 127.104 115.558 127.093 115.525C127.082 115.491 127.064 115.461 127.039 115.435C127.015 115.41 126.985 115.39 126.952 115.377C126.919 115.365 126.884 115.36 126.849 115.363C126.688 115.363 126.595 115.456 126.595 115.672V115.737H126.147V115.666C126.141 115.572 126.154 115.477 126.186 115.387C126.218 115.298 126.268 115.216 126.332 115.147C126.397 115.078 126.475 115.023 126.562 114.985C126.649 114.947 126.743 114.928 126.838 114.928C126.933 114.928 127.027 114.947 127.113 114.985C127.2 115.023 127.279 115.078 127.343 115.147C127.408 115.216 127.458 115.298 127.49 115.387C127.522 115.477 127.535 115.572 127.529 115.666V115.858C127.429 115.918 127.348 116.004 127.292 116.106C127.237 116.208 127.209 116.323 127.212 116.44C127.215 116.556 127.249 116.669 127.31 116.768C127.371 116.868 127.457 116.949 127.559 117.004L127.566 116.992Z" fill="#263238"/>
<path d="M127.924 117.28V115.667C127.936 115.485 128.017 115.315 128.15 115.191C128.282 115.066 128.458 114.997 128.64 114.997C128.822 114.997 128.997 115.066 129.13 115.191C129.262 115.315 129.343 115.485 129.355 115.667V117.277C129.343 117.458 129.262 117.629 129.13 117.753C128.997 117.877 128.822 117.946 128.64 117.946C128.458 117.946 128.282 117.877 128.15 117.753C128.017 117.629 127.936 117.458 127.924 117.277V117.28ZM128.907 117.28V115.667C128.907 115.596 128.879 115.527 128.828 115.477C128.778 115.426 128.709 115.398 128.638 115.398C128.567 115.398 128.498 115.426 128.448 115.477C128.398 115.527 128.369 115.596 128.369 115.667V117.277C128.369 117.348 128.398 117.416 128.448 117.467C128.498 117.517 128.567 117.545 128.638 117.545C128.709 117.545 128.778 117.517 128.828 117.467C128.879 117.416 128.907 117.348 128.907 117.277V117.28Z" fill="#263238"/>
<path d="M131.256 116.737L131.087 117.062V117.949H130.642V115.004H131.093V116.2L131.683 115.004H132.162L131.544 116.24L132.217 117.936H131.711L131.256 116.737Z" fill="#263238"/>
<path d="M139.184 120.152C139.139 119.889 139.148 119.619 139.212 119.36C139.275 119.101 139.391 118.857 139.552 118.644C140.102 117.903 140.608 117.813 140.608 117.813V114.569C140.608 114.569 137.716 114.003 137.03 114.417C136.561 114.698 136.582 116.166 136.641 117.078C136.654 117.282 136.741 117.475 136.885 117.621C137.03 117.767 137.221 117.856 137.426 117.872L138.353 117.949C138.353 117.949 138.13 120.52 139.184 120.152Z" fill="#263238"/>
<path d="M142.244 114.507H141.19V117.946H142.244V114.507Z" fill="#263238"/>
<path d="M144.912 115.637H144.405V115.328C144.531 115.332 144.655 115.305 144.767 115.248C144.879 115.191 144.974 115.107 145.045 115.004H145.354V117.952H144.909L144.912 115.637Z" fill="#263238"/>
<path d="M146.248 117.52H147.132V117.943H145.72V117.554L146.372 116.515C146.555 116.28 146.663 115.994 146.681 115.697C146.681 115.493 146.585 115.388 146.412 115.388C146.239 115.388 146.143 115.502 146.143 115.697V115.87H145.714V115.731C145.7 115.632 145.708 115.532 145.738 115.437C145.767 115.342 145.817 115.254 145.884 115.18C145.951 115.107 146.033 115.049 146.125 115.01C146.217 114.972 146.316 114.954 146.415 114.958C146.512 114.95 146.609 114.964 146.7 114.998C146.791 115.032 146.873 115.085 146.941 115.155C147.009 115.224 147.06 115.307 147.092 115.399C147.124 115.49 147.136 115.588 147.126 115.684C147.107 116.069 146.969 116.438 146.731 116.741L146.248 117.52Z" fill="#263238"/>
<path d="M147.468 117.273V117.184L147.898 117.141V117.239C147.898 117.474 148 117.567 148.164 117.567C148.327 117.567 148.429 117.474 148.429 117.28V116.594C148.429 116.421 148.337 116.334 148.194 116.334C148.156 116.333 148.119 116.339 148.083 116.354C148.048 116.368 148.016 116.389 147.99 116.417C147.964 116.444 147.944 116.477 147.931 116.513C147.918 116.549 147.913 116.587 147.916 116.625V116.677H147.468V114.993H148.744V115.413H147.898V116.146C147.944 116.076 148.008 116.02 148.083 115.983C148.158 115.945 148.241 115.928 148.324 115.932C148.4 115.931 148.475 115.946 148.544 115.976C148.614 116.006 148.676 116.051 148.726 116.107C148.777 116.163 148.814 116.23 148.837 116.302C148.859 116.375 148.865 116.451 148.856 116.526V117.267C148.862 117.364 148.849 117.46 148.816 117.551C148.784 117.642 148.733 117.725 148.667 117.795C148.601 117.866 148.522 117.922 148.433 117.96C148.345 117.999 148.249 118.018 148.153 118.018C148.056 118.018 147.961 117.999 147.872 117.96C147.784 117.922 147.704 117.866 147.638 117.795C147.572 117.725 147.522 117.642 147.489 117.551C147.457 117.46 147.443 117.364 147.45 117.267L147.468 117.273Z" fill="#263238"/>
<path d="M84.3687 118.183V115.915H85.5242L87.2855 114.2V119.573L85.8271 118.09L84.3687 118.183Z" fill="#263238"/>
<path d="M88.9983 116.903C88.999 117.245 88.8976 117.578 88.7071 117.861C88.5165 118.144 88.2456 118.364 87.9292 118.492V115.3C88.2481 115.428 88.5207 115.65 88.7114 115.936C88.9022 116.223 89.0021 116.56 88.9983 116.903Z" fill="#263238"/>
<path d="M87.7515 114.196C88.3698 114.305 88.9319 114.623 89.3432 115.097C89.7545 115.571 89.99 116.172 90.0099 116.8C90.0299 117.427 89.8331 118.042 89.4527 118.542C89.0724 119.041 88.5316 119.394 87.9214 119.542" stroke="#263238" stroke-width="0.403192" stroke-miterlimit="10"/>
<path d="M65.1789 119.423C65.0454 119.423 64.9173 119.37 64.8228 119.275C64.7284 119.181 64.6753 119.053 64.6753 118.919V115.183C64.6753 115.05 64.7284 114.922 64.8228 114.827C64.9173 114.733 65.0454 114.68 65.1789 114.68C65.3125 114.68 65.4406 114.733 65.5351 114.827C65.6295 114.922 65.6826 115.05 65.6826 115.183V118.919C65.6826 119.053 65.6295 119.181 65.5351 119.275C65.4406 119.37 65.3125 119.423 65.1789 119.423Z" fill="#263238"/>
<path d="M67.1907 119.423C67.0571 119.423 66.929 119.37 66.8345 119.275C66.7401 119.181 66.687 119.053 66.687 118.919V115.183C66.687 115.05 66.7401 114.922 66.8345 114.827C66.929 114.733 67.0571 114.68 67.1907 114.68C67.3242 114.68 67.4523 114.733 67.5468 114.827C67.6412 114.922 67.6943 115.05 67.6943 115.183V118.919C67.6943 119.053 67.6412 119.181 67.5468 119.275C67.4523 119.37 67.3242 119.423 67.1907 119.423Z" fill="#263238"/>
<path d="M55.1513 114.738C55.2854 114.739 55.4138 114.793 55.5087 114.888C55.6035 114.982 55.6572 115.111 55.658 115.245V119.012C55.658 119.146 55.6046 119.275 55.5096 119.37C55.4146 119.465 55.2857 119.518 55.1513 119.518C55.0846 119.519 55.0185 119.506 54.9569 119.481C54.8952 119.455 54.8392 119.418 54.792 119.371C54.7449 119.324 54.7076 119.268 54.6823 119.206C54.657 119.144 54.6441 119.078 54.6445 119.012V115.23C54.6486 115.098 54.7037 114.973 54.7983 114.881C54.8929 114.789 55.0195 114.738 55.1513 114.738Z" fill="#263238"/>
<path d="M58.9126 115.129V119.066C58.9126 119.104 58.9017 119.142 58.8813 119.175C58.8608 119.208 58.8315 119.234 58.7968 119.252C58.762 119.269 58.7232 119.276 58.6847 119.272C58.6461 119.268 58.6095 119.253 58.5789 119.229L55.9711 117.165C55.9455 117.146 55.9247 117.121 55.9104 117.092C55.8961 117.064 55.8887 117.032 55.8887 117C55.8887 116.968 55.8961 116.936 55.9104 116.908C55.9247 116.879 55.9455 116.854 55.9711 116.835L58.5789 114.95C58.6105 114.925 58.6487 114.91 58.6887 114.907C58.7287 114.904 58.7688 114.912 58.8041 114.931C58.8395 114.95 58.8686 114.979 58.8878 115.014C58.9071 115.049 58.9157 115.089 58.9126 115.129Z" fill="#263238"/>
<path d="M77.1632 119.305C77.029 119.303 76.9013 119.248 76.8076 119.152C76.7139 119.056 76.6618 118.927 76.6626 118.793L76.709 115.026C76.7094 114.959 76.723 114.893 76.7491 114.832C76.7751 114.771 76.8131 114.715 76.8608 114.669C76.9085 114.622 76.965 114.585 77.027 114.561C77.089 114.536 77.1552 114.524 77.2219 114.525C77.2885 114.526 77.3545 114.539 77.4158 114.566C77.4772 114.592 77.5327 114.63 77.5793 114.677C77.6259 114.725 77.6625 114.782 77.6871 114.844C77.7116 114.905 77.7237 114.972 77.7224 115.038L77.6792 118.805C77.6759 118.939 77.62 119.067 77.5235 119.161C77.427 119.254 77.2976 119.306 77.1632 119.305Z" fill="#263238"/>
<path d="M73.4084 118.854L73.4547 114.905C73.4554 114.867 73.467 114.829 73.488 114.796C73.5091 114.764 73.5389 114.738 73.574 114.722C73.6091 114.705 73.6481 114.699 73.6865 114.704C73.725 114.708 73.7614 114.724 73.7915 114.748L76.3746 116.843C76.3996 116.862 76.4199 116.887 76.4338 116.915C76.4478 116.944 76.455 116.975 76.455 117.007C76.455 117.038 76.4478 117.069 76.4338 117.098C76.4199 117.126 76.3996 117.151 76.3746 117.17L73.7452 119.024C73.7142 119.049 73.6767 119.065 73.6371 119.069C73.5975 119.073 73.5575 119.066 73.522 119.048C73.4864 119.03 73.4568 119.002 73.4367 118.968C73.4165 118.933 73.4067 118.894 73.4084 118.854Z" fill="#263238"/>
<path d="M143.7 104.188H55.6056C54.0851 104.188 52.8525 105.421 52.8525 106.942V107.853C52.8525 109.373 54.0851 110.606 55.6056 110.606H143.7C145.22 110.606 146.453 109.373 146.453 107.853V106.942C146.453 105.421 145.22 104.188 143.7 104.188Z" fill="white" stroke="#263238" stroke-width="0.403192" stroke-linecap="round" stroke-linejoin="round"/>
<path d="M143.418 107.385C143.419 107.48 143.401 107.574 143.365 107.661C143.329 107.749 143.276 107.829 143.209 107.896C143.142 107.963 143.063 108.016 142.975 108.052C142.887 108.088 142.793 108.106 142.698 108.105H56.9587C56.7678 108.105 56.5846 108.029 56.4496 107.894C56.3146 107.759 56.2388 107.576 56.2388 107.385C56.2388 107.194 56.3146 107.011 56.4496 106.876C56.5846 106.741 56.7678 106.665 56.9587 106.665H142.698C142.889 106.665 143.072 106.741 143.208 106.876C143.343 107.011 143.418 107.194 143.418 107.385Z" fill="#263238"/>
<path d="M78.637 106.665L78.5875 108.105H56.9587C56.7678 108.105 56.5846 108.029 56.4496 107.894C56.3146 107.759 56.2388 107.576 56.2388 107.385C56.2388 107.194 56.3146 107.011 56.4496 106.876C56.5846 106.741 56.7678 106.665 56.9587 106.665H78.637Z" fill="#045D5E"/>
<path d="M80.197 107.239C80.197 107.627 80.082 108.007 79.8664 108.329C79.6508 108.652 79.3444 108.904 78.9858 109.052C78.6273 109.201 78.2328 109.239 77.8522 109.164C77.4716 109.088 77.122 108.901 76.8476 108.627C76.5732 108.352 76.3864 108.003 76.3106 107.622C76.2349 107.242 76.2738 106.847 76.4223 106.489C76.5708 106.13 76.8223 105.824 77.1449 105.608C77.4676 105.392 77.8469 105.277 78.235 105.277C78.7554 105.277 79.2544 105.484 79.6224 105.852C79.9903 106.22 80.197 106.719 80.197 107.239Z" fill="#263238"/>
<path d="M79.0231 107.218C79.0237 107.376 78.9774 107.53 78.8902 107.662C78.803 107.793 78.6787 107.896 78.5331 107.957C78.3875 108.017 78.2271 108.034 78.0723 108.003C77.9174 107.973 77.7751 107.897 77.6633 107.786C77.5515 107.674 77.4753 107.532 77.4443 107.378C77.4132 107.223 77.4289 107.063 77.4891 106.917C77.5493 106.771 77.6515 106.646 77.7827 106.558C77.9138 106.471 78.0681 106.424 78.2259 106.424C78.4368 106.424 78.6391 106.507 78.7885 106.656C78.9379 106.805 79.0222 107.007 79.0231 107.218Z" fill="white"/>
<path d="M149.938 33.6014V94.2116C149.937 95.4201 149.457 96.5788 148.602 97.4333C147.748 98.2878 146.589 98.7683 145.38 98.7691H57.4097C56.201 98.7691 55.0418 98.2889 54.1871 97.4342C53.3324 96.5795 52.8522 95.4203 52.8522 94.2116V33.6014C52.8501 33.3644 52.8688 33.1277 52.9078 32.8939C53.077 31.8213 53.6234 30.8443 54.4486 30.1385C55.2739 29.4328 56.3238 29.0447 57.4097 29.0439H145.365C146.45 29.0459 147.5 29.4345 148.325 30.14C149.15 30.8455 149.696 31.8218 149.867 32.8939C149.909 33.1274 149.933 33.3641 149.938 33.6014Z" fill="white" stroke="#263238" stroke-width="0.403192" stroke-linecap="round" stroke-linejoin="round"/>
<path d="M85.7493 21.7451H54.5142V25.0543H85.7493V21.7451Z" fill="#263238"/>
<path d="M73.1824 68.3283C73.1824 68.3283 74.7273 74.372 77.3938 78.1014C81.0336 81.5002 83.3294 81.6887 86.1071 81.6887C88.8849 81.6887 90.2228 80.2952 90.2228 80.2952L90.7017 77.0045L89.2649 71.9186C89.2649 71.9186 84.1914 66.1345 82.3715 64.639C80.5516 63.1435 76.6306 58.6571 75.4812 52.8729C74.3318 47.0888 72.5119 44.3975 72.5119 44.3975C72.5119 44.3975 71.8692 38.706 71.0226 38.7802C70.1759 38.8544 69.2583 42.0153 69.4776 44.0329C69.4776 44.0329 67.2561 42.4169 66.5856 41.7928C65.9151 41.1686 63.3042 38.153 62.8438 38.5577C62.3834 38.9625 63.9314 43.0565 66.2055 44.9537C66.2055 44.9537 64.4783 44.6972 63.3845 43.5942C62.2907 42.4911 60.2082 40.2139 59.2565 40.6187C58.9958 40.7148 58.7779 40.9008 58.642 41.1432C58.506 41.3856 58.461 41.6685 58.5149 41.9411C58.5149 41.9411 57.4922 42.2501 57.8104 43.8166C57.8104 43.8166 56.8557 45.2132 58.1967 47.1969C59.5377 49.1806 62.1486 51.2137 64.4783 52.3044C66.808 53.3951 67.7566 54.0687 68.6032 56.0122C69.4498 57.9557 73.1824 68.3283 73.1824 68.3283Z" fill="white"/>
<path opacity="0.2" d="M90.6959 77.0048L90.3869 79.1028L90.2139 80.2955C90.2139 80.2955 88.8791 81.6798 86.1044 81.6798C83.3298 81.6798 81.0278 81.4789 77.3911 78.0863C74.7184 74.3569 73.1797 68.3162 73.1797 68.3162C73.1797 68.3162 69.4317 57.9684 68.5882 56.0342C67.7447 54.0999 66.7868 53.4263 64.4571 52.3264C62.1273 51.2264 59.5133 49.1994 58.1785 47.2158C57.2701 45.8717 57.4123 44.7964 57.6007 44.2434C57.6484 44.1009 57.7116 43.9641 57.7892 43.8355C57.4802 42.2535 58.4968 41.96 58.4968 41.96C58.4437 41.6878 58.4891 41.4056 58.625 41.1639C58.7608 40.9222 58.9783 40.7367 59.2384 40.6406C60.19 40.2328 62.2726 42.4945 63.3633 43.613C64.454 44.7315 66.1874 44.9756 66.1874 44.9756C63.9287 43.06 62.3776 38.9814 62.8349 38.5797C63.2922 38.178 65.9062 41.1906 66.5736 41.8147C67.241 42.4389 69.4688 44.0549 69.4688 44.0549C69.2556 42.0372 70.1733 38.8763 71.0137 38.8022C71.8541 38.728 72.503 44.4195 72.503 44.4195C72.503 44.4195 74.3198 47.1107 75.4661 52.8918C76.6125 58.6729 80.5427 63.1655 82.3596 64.661C84.1764 66.1564 89.253 71.9406 89.253 71.9406L90.6959 77.0048Z" fill="#263238"/>
<path d="M81.3936 63.2604C81.3936 63.2604 85.1353 58.0077 85.7595 56.4628C86.3836 54.9179 89.2201 50.2028 92.2821 49.8474C94.2577 49.5893 96.1866 49.0514 98.0107 48.25L114.291 49.1955C114.291 49.1955 117.727 50.4809 120.848 51.6674C123.789 52.7859 127.064 54.6583 127.166 57.5875C127.256 60.1489 132.141 69.4833 135.561 72.4187L122.13 76.5034C122.13 76.5034 121.663 80.4028 119.587 81.9601C119.587 81.9601 124.132 92.5829 122.26 98.9047L85.2991 98.7718C85.2991 98.7718 83.85 84.2805 90.2583 79.1978C90.2583 79.1978 88.5898 75.49 88.4754 72.2395C88.4816 72.2395 87.3477 69.1682 81.3936 63.2604Z" fill="#045D5E"/>
<path opacity="0.1" d="M90.39 79.1026L88.9687 80.6105C88.9687 80.6105 88.3816 81.5374 85.9036 81.6116C83.1227 81.7012 81.0278 81.4911 77.3911 78.0985C74.7184 74.369 73.1797 68.3284 73.1797 68.3284C73.1797 68.3284 69.4317 57.9682 68.5882 56.034C67.7447 54.0997 66.7868 53.4261 64.4571 52.3262C62.1273 51.2262 59.5133 49.1993 58.1785 47.2156C57.2701 45.8715 57.4123 44.7962 57.6007 44.2432C58.7131 44.8611 60.0294 45.9488 60.9996 46.6563C62.9153 47.8119 64.247 48.708 66.1997 49.7709C70.0744 51.8874 72.1044 56.3924 73.5752 60.6842C75.0459 64.9759 76.356 69.5829 79.5385 72.7098C81.379 74.455 83.6332 75.7033 86.089 76.3372C87.5474 76.7327 89.2035 77.0665 90.0471 78.3611C90.1962 78.5906 90.3117 78.8404 90.39 79.1026Z" fill="#263238"/>
<path opacity="0.1" d="M119.594 81.9604C119.594 81.9604 124.479 91.1774 122.266 98.9051L101.611 98.7722C101.2 97.4806 101.2 95.9604 101.302 94.6102C100.885 93.8223 101.194 92.8521 101.228 91.9498C101.28 90.5563 100.641 89.2432 99.9393 88.0597C99.2379 86.8763 98.4345 85.7084 98.0854 84.3519C97.7362 82.9955 98.0019 81.3795 99.0803 80.5484C100.279 79.6214 101.945 80.0169 103.406 80.3568C105.798 80.9222 108.282 81.2559 110.695 80.8017C113.108 80.3475 115.447 79.0282 116.745 76.8684C117.051 76.3879 117.26 75.8528 117.363 75.2926C117.438 74.5946 117.398 73.889 117.245 73.2038C116.893 71.1522 116.464 69.082 116.665 67.0087C116.797 65.6461 117.199 64.3268 117.375 62.9672C117.751 60.0555 117.068 57.1058 115.45 54.6556C116.315 53.5154 116.535 51.7851 117.304 50.5986C118.311 50.9663 119.452 51.3464 120.567 51.6306C123.802 52.4556 126.827 54.878 127.167 57.4179C127.507 59.9577 131.008 68.189 135.33 72.3603L122.115 76.3555C122.115 76.3555 121.791 80.4186 119.594 81.9604Z" fill="black"/>
<path d="M132.928 72.3624C132.928 72.3624 133.886 71.1883 134.782 71.4354C134.782 71.4354 136.923 74.3121 137.825 75.3688C138.555 76.2247 139.213 78.1991 139.015 79.917C138.976 80.2508 138.865 80.5721 138.689 80.8582C138.513 81.1444 138.276 81.3884 137.995 81.5732C136.84 82.3364 134.501 83.6681 132.363 83.5816C129.375 83.4642 124.363 81.1097 122.617 77.4204C120.872 73.7312 120.476 68.9141 120.476 68.9141C120.476 68.9141 118.168 66.3897 118.505 63.9272C118.842 61.4646 120.38 58.1028 120.739 57.1295C121.097 56.1562 121.545 54.8183 122.166 54.9945C122.787 55.1706 123.606 57.3458 122.367 60.9856C122.367 60.9856 123.405 60.9856 124.193 59.6879C124.981 58.3902 127.416 52.6678 128.942 54.4352C128.942 54.4352 130.345 53.4619 130.935 54.4167C130.935 54.4167 131.992 53.7153 132.023 54.6329C132.069 55.9863 131.624 59.2244 131.624 59.2244C131.624 59.2244 132.743 58.384 132.743 60.2626C132.743 62.1412 132.094 65.537 129.675 67.5917C129.678 67.601 130.957 70.7217 132.928 72.3624Z" fill="white"/>
<path opacity="0.2" d="M139.019 79.9047C138.98 80.2416 138.867 80.5658 138.689 80.8542C138.511 81.1426 138.271 81.3881 137.987 81.5732C136.899 82.2869 134.782 83.492 132.768 83.5692H132.366C129.381 83.4549 124.367 81.0973 122.621 77.4112C120.875 73.725 120.48 68.9018 120.48 68.9018C120.48 68.9018 118.171 66.3774 118.505 63.9117C118.839 61.446 120.384 58.0936 120.742 57.1295C121.101 56.1655 121.549 54.8183 122.17 54.9975C122.791 55.1767 123.613 57.3458 122.371 60.9856C122.371 60.9856 123.406 60.9856 124.197 59.6879C124.988 58.3902 127.422 52.6647 128.946 54.4352C128.946 54.4352 130.348 53.4619 130.939 54.4167C130.939 54.4167 131.992 53.7153 132.026 54.6329C132.073 55.8256 131.717 58.486 131.643 59.0977C131.643 59.1781 131.643 59.2213 131.643 59.2213C131.643 59.2213 132.762 58.3809 132.762 60.2595C132.762 62.1381 132.116 65.5339 129.69 67.5855C129.69 67.5855 130.973 70.7093 132.944 72.3531C132.944 72.3531 133.621 71.3706 134.548 71.3829C134.548 71.3829 136.942 74.2874 137.844 75.3441C138.558 76.2092 139.216 78.1867 139.019 79.9047Z" fill="#263238"/>
<path d="M111.263 34.7127L114.739 30.9184L114.572 26.0921L111.51 23.8489L95.9531 18.1729L89.415 29.2066C89.415 29.2066 91.649 42.7401 93.5523 44.0378C95.4557 45.3356 95.2919 49.2102 95.2919 49.2102C95.2919 49.2102 97.7885 58.8536 106.477 59.5426C114.511 60.0741 117.264 50.5821 117.264 50.5821C117.264 50.5821 112.493 48.892 111.501 46.2193C110.509 43.5465 111.263 34.7127 111.263 34.7127Z" fill="white"/>
<path opacity="0.2" d="M117.331 50.5979C117.331 50.5979 116.781 51.8339 116.011 53.4035C114.676 56.1411 111.874 59.8242 106.528 59.5554C97.8337 58.8663 95.2908 49.0901 95.2908 49.0901C95.2908 49.0901 95.4607 45.2093 93.5574 43.9177C91.654 42.6262 89.417 29.0865 89.417 29.0865L95.9551 18.0527L102.468 20.4319L111.512 23.7442L114.577 25.9812L114.741 30.8137L111.262 34.605C111.262 34.605 112.328 43.1514 111.926 45.9848C111.556 48.5834 117.331 50.5979 117.331 50.5979Z" fill="#263238"/>
<mask id="mask0_23940_5062" style="mask-type:luminance" maskUnits="userSpaceOnUse" x="89" y="18" width="29" height="42">
<path d="M117.331 50.5979C117.331 50.5979 116.781 51.8339 116.011 53.4035C114.676 56.1411 111.874 59.8242 106.528 59.5554C97.8337 58.8663 95.2908 49.0901 95.2908 49.0901C95.2908 49.0901 95.4607 45.2093 93.5574 43.9177C91.654 42.6262 89.417 29.0865 89.417 29.0865L95.9551 18.0527L102.468 20.4319L111.512 23.7442L114.577 25.9812L114.741 30.8137L111.262 34.605C111.262 34.605 112.328 43.1514 111.926 45.9848C111.556 48.5834 117.331 50.5979 117.331 50.5979Z" fill="white"/>
</mask>
<g mask="url(#mask0_23940_5062)">
<path opacity="0.1" d="M117.277 50.6197C117.277 50.6197 116.779 51.8248 116.01 53.4006L115.701 53.9907C110.362 50.1315 107.862 44.1743 107.639 37.3891C107.615 36.7 108.208 28.1536 108.486 28.1597C100.452 28.0362 95.6694 20.1787 95.6694 20.1787L102.467 20.4321L111.511 23.7444L114.576 25.9814L114.74 30.8139L111.261 34.6051C111.261 34.6051 111.329 43.1887 111.925 45.985C112.463 48.5341 117.277 50.6197 117.277 50.6197Z" fill="#263238"/>
</g>
<path d="M108.916 28.8084C108.916 28.8084 110.046 25.7587 112.37 26.3365C114.694 26.9143 113.606 33.1527 111.551 33.7521C109.496 34.3515 109.354 32.5162 109.354 32.5162" stroke="#263238" stroke-width="0.395039" stroke-linecap="round" stroke-linejoin="round"/>
<path d="M98.111 29.376C98.111 29.3142 98.111 29.2524 98.111 29.1875C98.1481 29.892 98.3057 30.5841 98.3118 31.2886C98.318 31.9931 98.1481 32.7408 97.6475 33.2166C97.32 33.5256 96.8318 33.7574 96.7638 34.2177C96.7509 34.47 96.8156 34.7202 96.9492 34.9346C97.1174 35.2927 97.3547 35.614 97.6475 35.8801C97.7926 36.0071 97.9639 36.1007 98.1492 36.1541C98.3345 36.2075 98.5293 36.2194 98.7197 36.1891" stroke="#263238" stroke-width="0.395039" stroke-linecap="round" stroke-linejoin="round"/>
<path d="M97.9595 39.0372C97.9595 39.0372 102.817 37.9805 103.926 34.5322C103.926 34.5322 104.708 38.1968 102.508 39.7262C100.039 41.438 97.9595 39.0372 97.9595 39.0372Z" fill="white" stroke="#263238" stroke-width="0.395039" stroke-linecap="round" stroke-linejoin="round"/>
<path d="M90.9243 25.6191C91.4805 30.0252 91.9069 34.4128 93.2448 38.6675C94.1717 41.5905 96.1647 44.4671 99.4832 44.2755C103.5 44.0407 106.562 43.3486 109.191 40.1043" stroke="#263238" stroke-width="0.395039" stroke-linecap="round" stroke-linejoin="round"/>
<path d="M100.157 26.9033C100.157 26.9033 101.613 25.4511 103.466 26.8261" stroke="#263238" stroke-width="0.395039" stroke-linecap="round" stroke-linejoin="round"/>
<path d="M96.0932 27.4173C95.3671 27.1084 94.1405 26.9415 93.0034 28.5235" stroke="#263238" stroke-width="0.395039" stroke-linecap="round" stroke-linejoin="round"/>
<path d="M100.446 44.1885C100.446 44.1885 100.606 48.7892 99.2098 49.5184C97.8132 50.2476 92.267 48.5451 89.3007 51.4712C86.3345 54.3973 83.0068 62.1589 81.3691 63.296" stroke="#263238" stroke-width="0.395039" stroke-linecap="round" stroke-linejoin="round"/>
<path d="M102.309 30.1489C102.309 30.807 102.074 31.3416 101.781 31.3416C101.487 31.3416 101.25 30.807 101.25 30.1489C101.25 29.4908 101.487 28.9531 101.781 28.9531C102.074 28.9531 102.309 29.4877 102.309 30.1489Z" fill="#263238"/>
<path d="M95.5164 30.8001C95.5164 31.4582 95.2815 31.9928 94.988 31.9928C94.6945 31.9928 94.4565 31.4582 94.4565 30.8001C94.4565 30.142 94.6945 29.6074 94.988 29.6074C95.2815 29.6074 95.5164 30.1389 95.5164 30.8001Z" fill="#263238"/>
<path d="M91.2978 27.4595C91.2978 27.4595 93.4236 26.9033 95.7503 20.1922C95.7503 20.1922 102.341 28.717 109.423 27.6325C109.423 27.6325 111.388 25.2441 113.109 27.0145C114.552 28.4976 113.109 33.1942 111.907 33.6237C110.705 34.0532 110.297 33.6484 110.297 33.6484C110.297 33.6484 106.898 40.1123 110.272 45.5751C113.647 51.038 120.756 48.0964 123.043 43.8943C125.329 39.6921 123.111 36.3335 123.111 36.3335C123.111 36.3335 124.724 37.0318 124.789 39.2039C124.789 39.2039 126.136 36.8216 124.118 33.463C122.1 30.1044 119.916 26.7364 117.88 23.3314C115.908 20.0408 114.441 15.6718 110.792 13.9105C106.521 11.8527 101.188 12.4182 96.9213 14.1546C93.3958 15.5945 91.5945 19.0304 90.1824 22.5312C89.1813 25.003 88.6128 27.6696 87.556 30.1322C86.6291 32.295 84.9822 33.979 84.0429 36.145C81.5216 41.9539 83.8544 48.736 89.2276 51.4705C89.2276 51.4705 89.7035 50.2717 91.922 50.0616C94.1405 49.8515 94.6101 49.6414 96.6927 49.7124C98.7752 49.7835 99.4488 49.5734 99.9185 48.3127C100.388 47.0521 100.536 44.3114 100.536 44.3114C100.536 44.3114 97.8143 44.9108 95.8677 43.2052C93.9304 40.894 93.2382 39.6581 92.7779 36.8C92.3175 33.9419 91.2978 27.4595 91.2978 27.4595Z" fill="#263238"/>
<path d="M100.536 44.3094C100.536 44.3094 100.137 46.9512 103.008 46.185C105.878 45.4187 109.002 40.4873 109.002 40.4873C109.002 40.4873 105.532 43.9077 100.536 44.3094Z" fill="#263238"/>
<path d="M85.1201 98.721C85.1201 98.721 83.1302 85.8241 90.3573 79.1191" stroke="#263238" stroke-width="0.395039" stroke-linecap="round" stroke-linejoin="round"/>
<path d="M90.7367 79.5429C88.1969 75.6003 87.2452 68.815 90.9345 65.2617" stroke="#263238" stroke-width="0.395039" stroke-linecap="round" stroke-linejoin="round"/>
<path d="M109.314 41.6934C109.314 41.6934 109.932 48.491 118.067 50.8115C124.59 52.6654 126.076 54.7726 126.49 55.5976" stroke="#263238" stroke-width="0.395039" stroke-linecap="round" stroke-linejoin="round"/>
<path d="M95.4482 49.5449C95.4482 49.5449 98.7513 59.5622 107.554 59.695C113.981 59.7939 117.296 50.7005 117.296 50.7005" stroke="#263238" stroke-width="0.395039" stroke-linecap="round" stroke-linejoin="round"/>
<path d="M88.7379 80.912C88.2868 81.2519 87.3753 81.4157 87.159 81.4528C83.0928 82.1356 79.2923 80.7916 76.8019 77.3186C75.4146 75.3843 74.7317 73.1998 73.9994 70.9288C72.3773 65.8986 70.6809 60.927 68.7467 56.0204C68.7467 56.0204 68.1905 54.7597 67.5973 54.2653C66.5437 53.3909 64.5075 51.9511 62.944 51.503C60.707 50.8604 56.6902 45.9413 57.3823 44.5849C58.0744 43.2285 61.7081 47.8818 63.253 48.2927" stroke="#263238" stroke-width="0.395039" stroke-linecap="round" stroke-linejoin="round"/>
<path d="M89.7174 62.4032C89.7174 62.4032 89.325 58.2319 90.7402 54.5488" stroke="#263238" stroke-width="0.395039" stroke-linecap="round" stroke-linejoin="round"/>
<g opacity="0.42">
<path d="M99.7065 17.0752C99.7065 17.0752 103.349 23.397 109.724 24.0304" stroke="white" stroke-width="0.395039" stroke-linecap="round" stroke-linejoin="round"/>
<path d="M113.377 34.1543C112.623 38.3535 113.231 42.6837 115.11 46.5136" stroke="white" stroke-width="0.395039" stroke-linecap="round" stroke-linejoin="round"/>
<path d="M111.863 21.4785C113.933 23.3695 115.938 25.381 116.93 28.0197C117.857 30.4699 117.783 33.1828 117.857 35.8153C117.931 38.4479 118.178 41.2009 119.618 43.3638" stroke="white" stroke-width="0.395039" stroke-linecap="round" stroke-linejoin="round"/>
<path d="M105.221 15.1201C106.663 16.6238 108.152 18.0853 109.689 19.5046" stroke="white" stroke-width="0.395039" stroke-linecap="round" stroke-linejoin="round"/>
<path d="M90.2285 32.417C88.1107 36.2754 87.6031 40.8143 88.8165 45.0451" stroke="white" stroke-width="0.395039" stroke-linecap="round" stroke-linejoin="round"/>
</g>
<path d="M112.259 59.7897C112.902 59.3034 113.465 58.7208 113.93 58.0625" stroke="#263238" stroke-width="0.395039" stroke-linecap="round" stroke-linejoin="round"/>
<path d="M104.713 60.6943C104.713 60.6943 107.688 61.8592 110.658 60.6943" stroke="#263238" stroke-width="0.395039" stroke-linecap="round" stroke-linejoin="round"/>
<path d="M126.66 62.7105C126.66 62.7105 124.42 61.1285 122.025 61.5055C122.025 61.5055 123.904 55.4803 122.458 55.0168C121.475 54.7079 120.972 56.4505 120.731 57.1179C120.261 58.4218 119.69 59.6423 119.186 60.9308C118.259 63.2883 118.426 66.6377 120.363 68.4236" stroke="#263238" stroke-width="0.395039" stroke-linecap="round" stroke-linejoin="round"/>
<path d="M129.236 67.8904C130.277 66.9635 131.355 65.984 131.912 64.677C132.196 63.9432 132.384 63.1757 132.471 62.3936C132.585 61.6273 132.681 60.8487 132.764 60.0886C132.798 59.9526 132.801 59.8111 132.775 59.6736C132.749 59.5361 132.694 59.4058 132.613 59.2914C132.524 59.214 132.414 59.1653 132.297 59.1515C132.181 59.1377 132.062 59.1596 131.958 59.2142C131.749 59.3304 131.571 59.4946 131.439 59.6931C131.038 60.2293 130.725 60.8259 130.512 61.4605C130.283 62.1248 130.163 62.8417 129.798 63.4349C129.767 63.4874 129.733 63.5369 129.699 63.5863" stroke="#263238" stroke-width="0.395039" stroke-linecap="round" stroke-linejoin="round"/>
<path d="M131.244 59.9115C131.861 58.1317 132.038 56.0924 132.035 54.2014C131.822 54.171 131.605 54.1944 131.404 54.2694C131.202 54.3444 131.023 54.4687 130.882 54.6309C130.593 54.9611 130.363 55.3384 130.202 55.7464C129.343 57.6466 128.636 59.6395 127.638 61.4533" stroke="#263238" stroke-width="0.395039" stroke-linecap="round" stroke-linejoin="round"/>
<path d="M131.037 54.3178C130.87 53.8574 130.264 53.7214 129.832 53.9192C129.412 54.1635 129.077 54.53 128.871 54.9697C127.814 56.8051 127.181 58.8753 126.201 60.7508" stroke="#263238" stroke-width="0.395039" stroke-linecap="round" stroke-linejoin="round"/>
<path d="M128.967 54.7407C129.053 54.3051 128.553 53.9374 128.129 54.0115C127.706 54.1341 127.346 54.4137 127.122 54.7932C126.26 55.9705 125.716 57.3609 124.959 58.6092C124.202 59.8575 123.529 60.874 122.138 61.1645" stroke="#263238" stroke-width="0.395039" stroke-linecap="round" stroke-linejoin="round"/>
<path d="M120.358 68.1322C120.358 68.1322 121.192 73.0759 121.94 75.7733C122.669 78.3904 128.602 87.0018 137.896 81.8016C138.19 81.6353 138.443 81.4066 138.639 81.1317C138.835 80.8568 138.968 80.5423 139.03 80.2103C139.171 79.4411 139.155 78.6511 138.982 77.8884C138.809 77.1257 138.482 76.4061 138.022 75.7733C136.023 72.906 131.858 68.8274 130.941 66.2227" stroke="#263238" stroke-width="0.395039" stroke-linecap="round" stroke-linejoin="round"/>
<path d="M129.576 67.7207C129.991 68.8383 130.603 69.8723 131.384 70.7735C132.326 71.8549 133.485 72.7046 134.492 73.7243C135.499 74.7439 136.377 76.0076 136.516 77.4629" stroke="#263238" stroke-width="0.395039" stroke-linecap="round" stroke-linejoin="round"/>
<path d="M122.063 76.4082C122.063 76.4082 121.84 81.4199 118.046 82.9339" stroke="#263238" stroke-width="0.395039" stroke-linecap="round" stroke-linejoin="round"/>
<path d="M119.594 81.959C119.594 81.959 124.503 90.3973 122.266 98.9036" stroke="#263238" stroke-width="0.395039" stroke-linecap="round" stroke-linejoin="round"/>
<path d="M57.886 44.1301C57.886 44.1301 57.3391 42.6315 58.195 42.0661C59.0509 41.5006 63.3674 46.1694 64.526 46.0829" stroke="#263238" stroke-width="0.395039" stroke-linecap="round" stroke-linejoin="round"/>
<path d="M58.5473 42.0621C58.4657 41.8294 58.4726 41.5749 58.5666 41.347C58.6606 41.119 58.8352 40.9337 59.0571 40.8262C59.2818 40.736 59.5249 40.7013 59.7658 40.725C60.0068 40.7487 60.2385 40.83 60.4413 40.9621C60.8517 41.231 61.2212 41.5578 61.5382 41.9323C62.9997 43.4772 64.4736 44.8213 66.5499 45.0438" stroke="#263238" stroke-width="0.395039" stroke-linecap="round" stroke-linejoin="round"/>
<path d="M66.3432 44.9473C66.3432 44.9473 62.3883 41.119 62.6663 39.0241C62.9444 36.9292 65.5739 42.1139 68.1384 43.1397" stroke="#263238" stroke-width="0.395039" stroke-linecap="round" stroke-linejoin="round"/>
<path d="M72.694 45.1038C72.5519 44.6465 72.3572 44.1398 72.2522 43.6485C72.0853 42.8575 72.0019 42.048 71.8999 41.2446C71.8289 40.6853 71.7053 38.3772 70.664 39.0261C69.0202 40.055 69.5146 45.8763 69.5146 45.8763C67.5433 47.0751 67.1323 49.893 67.1323 49.893" fill="white"/>
<path opacity="0.2" d="M72.694 45.1249C72.4985 44.6399 72.3505 44.1369 72.2522 43.6233C72.0853 42.8292 72.0019 42.0196 71.8999 41.2163C71.8289 40.657 71.7053 38.3489 70.664 38.9978C69.0202 40.0267 69.5146 45.8479 69.5146 45.8479C67.5433 47.0468 67.1323 49.8647 67.1323 49.8647" fill="#263238"/>
<path d="M72.7207 44.8163C72.5168 44.3895 72.3594 43.942 72.251 43.4815C72.0811 42.6905 72.0008 41.881 71.8957 41.0776C71.8246 40.5184 71.7041 38.2102 70.6598 38.8591C69.016 39.888 69.5073 45.7093 69.5073 45.7093C67.5359 46.9081 67.125 49.7261 67.125 49.7261" stroke="#263238" stroke-width="0.395039" stroke-linecap="round" stroke-linejoin="round"/>
<path d="M88.3604 71.8318C87.5725 68.9551 79.4895 63.1401 76.8663 57.1736C76.1371 55.5144 75.7416 53.679 75.2534 51.9364C74.6439 49.8159 73.9219 47.7293 73.0905 45.6856C72.97 45.3766 72.8371 45.0986 72.7104 44.8174" stroke="#263238" stroke-width="0.395039" stroke-linecap="round" stroke-linejoin="round"/>
<path opacity="0.1" d="M137.984 81.5738C136.896 82.2875 134.779 83.4926 132.765 83.5698C132.151 83.182 131.564 82.7537 131.007 82.2875C127.478 79.3398 125.003 74.7823 125.232 70.0765C125.236 69.0484 125.508 68.039 126.02 67.1473C126.876 65.8033 128.418 65.1853 129.354 63.9246C130.423 62.4817 130.417 60.5258 131.64 59.1107C131.64 59.191 131.64 59.2343 131.64 59.2343C131.64 59.2343 132.759 58.3939 132.759 60.2725C132.759 62.1511 132.113 65.5468 129.687 67.5985C129.687 67.5985 130.97 70.7223 132.941 72.3661C133.318 71.8484 133.876 71.4911 134.504 71.365C134.504 71.365 136.939 74.3003 137.842 75.357C138.571 76.2098 139.229 78.1873 139.031 79.9053C138.991 80.2435 138.876 80.5686 138.695 80.8571C138.513 81.1456 138.271 81.3903 137.984 81.5738Z" fill="#263238"/>
<path opacity="0.1" d="M84.4985 66.9274C84.4985 66.7111 88.7378 62.2092 89.8378 57.4756C89.8378 57.4756 89.7327 62.1598 89.674 62.9322C89.674 62.9322 89.674 63.0991 89.674 63.1547C89.7636 65.6945 90.0201 66.1395 90.0201 66.1395C90.0201 66.1395 88.435 69.7978 88.435 71.1604L84.4985 66.9274Z" fill="black"/>
<path d="M190.583 30.3652H171.328V32.2778H190.583V30.3652Z" fill="#263238"/>
<path d="M190.583 34.0674H171.328V35.98H190.583V34.0674Z" fill="#263238"/>
<path d="M190.583 37.7646H171.328V39.6773H190.583V37.7646Z" fill="#263238"/>
<path opacity="0.1" d="M163.662 26.7617H135.434C133.913 26.7617 132.681 27.9943 132.681 29.5148V45.1153C132.681 46.6358 133.913 47.8684 135.434 47.8684H163.662C165.183 47.8684 166.415 46.6358 166.415 45.1153V29.5148C166.415 27.9943 165.183 26.7617 163.662 26.7617Z" fill="black"/>
<path d="M165.908 25.1357H137.679C136.158 25.1357 134.926 26.3683 134.926 27.8888V43.4893C134.926 45.0098 136.158 46.2424 137.679 46.2424H165.908C167.428 46.2424 168.661 45.0098 168.661 43.4893V27.8888C168.661 26.3683 167.428 25.1357 165.908 25.1357Z" fill="#045D5E" stroke="#263238" stroke-width="0.403192" stroke-miterlimit="10"/>
<path d="M151.81 42.9287C155.753 42.9287 158.95 39.7317 158.95 35.7881C158.95 31.8444 155.753 28.6475 151.81 28.6475C147.866 28.6475 144.669 31.8444 144.669 35.7881C144.669 39.7317 147.866 42.9287 151.81 42.9287Z" fill="white"/>
<path d="M149.783 39.9136V32.0283L156.049 35.9709L149.783 39.9136Z" fill="#263238"/>
<path d="M190.583 58.3105H171.328V60.2232H190.583V58.3105Z" fill="#263238"/>
<path d="M190.583 62.0088H171.328V63.9214H190.583V62.0088Z" fill="#263238"/>
<path d="M190.583 65.7051H171.328V67.6177H190.583V65.7051Z" fill="#263238"/>
<path opacity="0.1" d="M163.662 54.1504H135.434C133.913 54.1504 132.681 55.383 132.681 56.9034V72.504C132.681 74.0245 133.913 75.257 135.434 75.257H163.662C165.183 75.257 166.415 74.0245 166.415 72.504V56.9034C166.415 55.383 165.183 54.1504 163.662 54.1504Z" fill="black"/>
<path d="M165.908 52.6436H137.679C136.158 52.6436 134.926 53.8761 134.926 55.3966V70.9972C134.926 72.5176 136.158 73.7502 137.679 73.7502H165.908C167.428 73.7502 168.661 72.5176 168.661 70.9972V55.3966C168.661 53.8761 167.428 52.6436 165.908 52.6436Z" fill="#045D5E" stroke="#263238" stroke-width="0.403192" stroke-miterlimit="10"/>
<path d="M154.502 69.9742C158.154 68.486 159.909 64.319 158.42 60.6669C156.932 57.0149 152.765 55.2607 149.113 56.7488C145.461 58.237 143.707 62.404 145.195 66.056C146.683 69.7081 150.85 71.4623 154.502 69.9742Z" fill="white"/>
<path d="M149.783 67.4907V59.6055L156.049 63.5481L149.783 67.4907Z" fill="#263238"/>
<path d="M190.583 85.6113H171.328V87.5239H190.583V85.6113Z" fill="#263238"/>
<path d="M190.583 89.3105H171.328V91.2232H190.583V89.3105Z" fill="#263238"/>
<path d="M190.583 93.0068H171.328V94.9194H190.583V93.0068Z" fill="#263238"/>
<path opacity="0.1" d="M163.662 81.3779H135.434C133.913 81.3779 132.681 82.6105 132.681 84.131V99.7315C132.681 101.252 133.913 102.485 135.434 102.485H163.662C165.183 102.485 166.415 101.252 166.415 99.7315V84.131C166.415 82.6105 165.183 81.3779 163.662 81.3779Z" fill="black"/>
<path d="M165.908 80.1533H137.679C136.158 80.1533 134.926 81.3859 134.926 82.9064V98.5069C134.926 100.027 136.158 101.26 137.679 101.26H165.908C167.428 101.26 168.661 100.027 168.661 98.5069V82.9064C168.661 81.3859 167.428 80.1533 165.908 80.1533Z" fill="#045D5E" stroke="#263238" stroke-width="0.403192" stroke-miterlimit="10"/>
<path d="M154.52 97.5578C158.168 96.0595 159.91 91.8876 158.412 88.2397C156.914 84.5918 152.742 82.8492 149.094 84.3475C145.446 85.8459 143.703 90.0178 145.202 93.6657C146.7 97.3136 150.872 99.0562 154.52 97.5578Z" fill="white"/>
<path d="M149.783 95.068V87.1797L156.049 91.1223L149.783 95.068Z" fill="#263238"/>
</svg>
