<svg width="33" height="33" viewBox="0 0 33 33" fill="none" xmlns="http://www.w3.org/2000/svg">
<rect x="0.813477" y="0.75" width="31.5" height="31.5" rx="1.75" fill="white"/>
<rect x="0.813477" y="0.75" width="31.5" height="31.5" rx="1.75" stroke="#D9D9D9" stroke-width="0.5"/>
<path d="M11.2303 19.3282C10.4263 18.79 9.89697 17.8735 9.89697 16.8333C9.89697 15.271 11.0913 13.9875 12.6168 13.8462C12.9288 11.9481 14.5771 10.5 16.5636 10.5C18.5501 10.5 20.1984 11.9481 20.5105 13.8462C22.036 13.9875 23.2303 15.271 23.2303 16.8333C23.2303 17.8735 22.701 18.79 21.897 19.3282M13.897 19.8333L16.5636 22.5M16.5636 22.5L19.2303 19.8333M16.5636 22.5V16.5" stroke="#045D5E" stroke-width="1.5" stroke-linecap="round" stroke-linejoin="round"/>
</svg>
