<svg width="581" height="586" viewBox="0 0 581 586" fill="none" xmlns="http://www.w3.org/2000/svg">
<ellipse opacity="0.2" cx="249.5" cy="19.5" rx="249.5" ry="19.5" transform="matrix(-1 0 0 1 499 547)" fill="#045D5E"/>
<path d="M45.7438 118.73C49.2918 157.755 59.3997 198.905 75.2521 238.609C94.8556 287.708 121.639 330.955 152.707 363.673L154.432 362.172C123.514 329.611 96.8519 286.556 77.3303 237.66C59.6875 193.473 49.1938 147.49 46.9697 104.703L44.7665 105.071C45.0002 109.59 45.326 114.143 45.7438 118.73Z" fill="#FC7300"/>
<path d="M31.613 345.38C75.2508 414.685 128.193 464.204 180.687 484.813L181.749 482.87C129.618 462.403 76.986 413.137 33.5476 344.149L31.613 345.38Z" fill="#FC7300"/>
<path d="M46.8029 167.318C50.3509 206.343 60.4589 247.493 76.3112 287.197C95.9147 336.296 122.698 379.542 153.767 412.26L155.491 410.759C124.573 378.199 97.911 335.143 78.3894 286.247C60.7466 242.061 50.2528 196.078 48.0288 153.29L45.8256 153.659C46.0594 158.177 46.3851 162.731 46.8029 167.318Z" fill="#FC7300"/>
<path d="M536.691 267.507H565.323C565.934 267.508 566.538 267.371 567.09 267.106C567.641 266.841 568.124 266.455 568.505 265.977C568.88 265.511 569.146 264.966 569.28 264.383C569.415 263.8 569.415 263.194 569.282 262.611C566.555 250.599 566.726 238.113 569.781 226.18C569.975 225.395 569.928 224.569 569.647 223.81C569.366 223.051 568.865 222.394 568.206 221.922C553.484 211.352 541.89 211.658 533.745 222.835C533.378 223.345 533.134 223.932 533.032 224.551C530.856 237.611 530.736 250.93 532.676 264.027C532.81 264.994 533.291 265.879 534.03 266.519C534.768 267.159 535.713 267.51 536.691 267.507Z" fill="#E6E6E6"/>
<path d="M545.568 238.884H555.417C555.962 238.884 556.484 238.668 556.869 238.284C557.254 237.899 557.471 237.378 557.471 236.834C557.471 236.29 557.254 235.769 556.869 235.384C556.484 235 555.962 234.784 555.417 234.784H545.568C545.024 234.785 544.503 235.002 544.118 235.386C543.734 235.77 543.519 236.291 543.519 236.834C543.519 237.377 543.734 237.898 544.118 238.282C544.503 238.666 545.024 238.883 545.568 238.884Z" fill="white"/>
<path d="M545.568 246.074H555.417C555.962 246.074 556.484 245.858 556.869 245.473C557.254 245.089 557.471 244.567 557.471 244.024C557.471 243.48 557.254 242.959 556.869 242.574C556.484 242.19 555.962 241.974 555.417 241.974H545.568C545.024 241.975 544.503 242.191 544.118 242.576C543.734 242.96 543.519 243.481 543.519 244.024C543.519 244.567 543.734 245.087 544.118 245.472C544.503 245.856 545.024 246.073 545.568 246.074Z" fill="white"/>
<path d="M545.568 253.263H555.417C555.962 253.263 556.484 253.047 556.869 252.663C557.254 252.279 557.471 251.757 557.471 251.213C557.471 250.67 557.254 250.148 556.869 249.764C556.484 249.379 555.962 249.163 555.417 249.163H545.568C545.024 249.164 544.503 249.381 544.118 249.765C543.734 250.15 543.519 250.67 543.519 251.213C543.519 251.756 543.734 252.277 544.118 252.661C544.503 253.046 545.024 253.262 545.568 253.263Z" fill="white"/>
<path d="M16.3409 395.124H44.9725C45.5843 395.125 46.1883 394.988 46.7394 394.723C47.2905 394.458 47.7744 394.072 48.1547 393.594C48.5304 393.127 48.7954 392.582 48.93 391.999C49.0645 391.416 49.065 390.811 48.9315 390.227C46.2046 378.216 46.3758 365.729 49.4312 353.797C49.6245 353.011 49.5778 352.186 49.2971 351.427C49.0164 350.668 48.5145 350.011 47.8562 349.539C33.1338 338.968 21.5394 339.275 13.3949 350.452C13.0277 350.961 12.7838 351.549 12.6823 352.168C10.5062 365.228 10.3858 378.547 12.3254 391.644C12.4602 392.611 12.9413 393.496 13.6796 394.136C14.4179 394.775 15.3633 395.126 16.3409 395.124Z" fill="#E6E6E6"/>
<path d="M25.2176 366.501H35.0669C35.6108 366.5 36.132 366.283 36.5162 365.899C36.9004 365.515 37.1162 364.994 37.1162 364.451C37.1162 363.908 36.9004 363.387 36.5162 363.003C36.132 362.618 35.6108 362.402 35.0669 362.401H25.2176C24.673 362.401 24.1506 362.617 23.7655 363.001C23.3804 363.386 23.1641 363.907 23.1641 364.451C23.1641 364.995 23.3804 365.516 23.7655 365.9C24.1506 366.285 24.673 366.501 25.2176 366.501Z" fill="white"/>
<path d="M25.2176 373.691H35.0669C35.6108 373.689 36.132 373.473 36.5162 373.089C36.9004 372.704 37.1162 372.183 37.1162 371.641C37.1162 371.098 36.9004 370.577 36.5162 370.192C36.132 369.808 35.6108 369.592 35.0669 369.59H25.2176C24.673 369.59 24.1506 369.806 23.7655 370.191C23.3804 370.575 23.1641 371.097 23.1641 371.641C23.1641 372.184 23.3804 372.706 23.7655 373.09C24.1506 373.475 24.673 373.691 25.2176 373.691Z" fill="white"/>
<path d="M25.2176 380.88H35.0669C35.6108 380.879 36.132 380.663 36.5162 380.278C36.9004 379.894 37.1162 379.373 37.1162 378.83C37.1162 378.287 36.9004 377.766 36.5162 377.382C36.132 376.998 35.6108 376.781 35.0669 376.78H25.2176C24.673 376.78 24.1506 376.996 23.7655 377.381C23.3804 377.765 23.1641 378.287 23.1641 378.83C23.1641 379.374 23.3804 379.895 23.7655 380.28C24.1506 380.664 24.673 380.88 25.2176 380.88Z" fill="white"/>
<path d="M441.494 493.258L443.28 468.464C454.978 462.627 467.926 459.728 481 460.02C462.606 474.213 464.08 502.581 451.341 521.995C447.321 528.019 441.995 533.064 435.757 536.754C429.519 540.445 422.529 542.687 415.306 543.314L399.997 552.105C398.246 540.551 399.025 528.756 402.28 517.531C405.535 506.307 411.189 495.92 418.853 487.087C423.201 482.174 428.152 477.828 433.588 474.15C436.934 483.74 441.494 493.258 441.494 493.258Z" fill="#045D5E"/>
<path d="M59.5917 497.258L57.806 472.464C46.1085 466.627 33.1604 463.728 20.0861 464.02C38.4799 478.213 37.0066 506.581 49.7453 525.995C53.7648 532.019 59.0909 537.064 65.3289 540.754C71.5668 544.445 78.5568 546.687 85.7806 547.314L101.089 556.105C102.84 544.551 102.061 532.756 98.8059 521.531C95.5508 510.307 89.8968 499.92 82.2335 491.087C77.8852 486.174 72.9344 481.828 67.4981 478.15C64.1521 487.74 59.5917 497.258 59.5917 497.258Z" fill="#045D5E"/>
<path d="M257.602 228.246C248.155 228.246 240.497 220.601 240.497 211.171C240.497 201.74 248.155 194.095 257.602 194.095C267.049 194.095 274.707 201.74 274.707 211.171C274.707 220.601 267.049 228.246 257.602 228.246Z" fill="#FFC28E"/>
<path d="M248.822 204.054C249.079 203.809 249.421 203.673 249.776 203.673C250.132 203.673 250.474 203.809 250.731 204.054C254.361 206.944 257.621 210.268 260.438 213.952C261.129 212.616 261.821 211.28 262.512 209.944C263.311 208.402 265.642 209.764 264.844 211.305C263.833 213.259 262.821 215.213 261.81 217.167C261.688 217.366 261.516 217.531 261.312 217.645C261.108 217.76 260.878 217.82 260.644 217.82C260.41 217.82 260.18 217.76 259.975 217.645C259.771 217.531 259.6 217.366 259.478 217.167C256.476 212.946 252.888 209.173 248.822 205.961C248.57 205.707 248.429 205.364 248.429 205.008C248.429 204.651 248.57 204.308 248.822 204.054Z" fill="white"/>
<path d="M334.138 259.591L359.932 219.153L330.064 203.184L322.224 234.037L266.988 263.833C264.808 263.05 262.446 262.917 260.19 263.45C257.935 263.983 255.884 265.16 254.287 266.837C252.691 268.514 251.617 270.619 251.198 272.894C250.779 275.17 251.032 277.518 251.926 279.652C252.821 281.787 254.318 283.615 256.235 284.915C258.153 286.215 260.407 286.929 262.725 286.972C265.042 287.014 267.321 286.383 269.285 285.154C271.249 283.926 272.813 282.153 273.785 280.053L334.138 259.591Z" fill="#F2A9A9"/>
<path d="M378.777 170.651C386.882 182.53 358.08 225.709 358.08 225.709C356.677 222.689 343.265 256.594 341.018 254.591C334.633 248.899 324.639 233.043 319.083 232.336C315.906 231.932 326.452 209.439 326.452 209.439C326.452 209.439 331.271 196.156 337.811 179.189C339.571 174.358 342.527 170.05 346.403 166.666C350.279 163.282 354.95 160.932 359.981 159.835C359.981 159.835 370.672 158.772 378.777 170.651Z" fill="#045D5E"/>
<path d="M378.381 557.667L366.131 557.666L360.304 510.498L378.384 510.498L378.381 557.667Z" fill="#F2A9A9"/>
<path d="M381.506 553.674L378.058 553.674L364.597 548.209L357.382 553.674H357.381C353.303 553.674 349.393 555.291 346.51 558.169C343.627 561.047 342.007 564.951 342.006 569.021V569.52L381.506 569.521L381.506 553.674Z" fill="#2F2E41"/>
<path d="M321.47 557.667L309.221 557.666L303.392 510.498L321.472 510.498L321.47 557.667Z" fill="#F2A9A9"/>
<path d="M324.595 553.674L321.147 553.674L307.686 548.209L300.47 553.674H300.47C296.392 553.674 292.482 555.291 289.599 558.169C286.715 561.047 285.096 564.951 285.095 569.021V569.52L324.595 569.521L324.595 553.674Z" fill="#2F2E41"/>
<path d="M316.168 299.792L395.847 301.781C410.98 309.986 411.21 327.745 406.252 348.83C406.252 348.83 407.925 361.363 404.578 364.705C401.23 368.046 399.556 368.047 401.23 373.895C402.904 379.743 394.06 389.296 395.134 390.368C396.208 391.44 398.719 397.289 398.719 397.289L390.35 444.912C390.35 444.912 384.491 527.625 382.817 529.296C381.144 530.967 379.47 529.296 381.144 533.474C382.817 537.651 384.491 535.98 382.817 537.651C381.335 539.247 379.938 540.92 378.633 542.664H358.398C358.398 542.664 356.873 534.309 356.873 533.474C356.873 532.638 355.199 527.625 355.199 526.79C355.199 525.954 356.678 524.477 356.678 524.477C357.189 522.779 357.535 521.035 357.709 519.27C357.709 517.599 362.731 453.267 362.731 453.267L352.688 369.718L328.417 451.596C328.417 451.596 328.417 523.448 326.743 525.119C325.069 526.79 325.069 525.954 325.906 529.296C326.743 532.638 330.091 531.803 327.58 534.309C325.069 536.816 324.232 532.638 325.069 536.816L325.906 540.993L300.798 541.352C300.798 541.352 297.45 534.309 299.124 531.803C300.798 529.296 300.698 529.981 298.656 525.879C296.613 521.777 295.777 520.941 296.613 520.106C297.45 519.27 297.45 514.827 297.45 514.827L301.635 434.886C301.635 434.886 302.472 350.501 302.472 347.995C302.535 346.705 302.297 345.418 301.777 344.236V340.834L304.983 328.778L316.168 299.792Z" fill="#2F2E41"/>
<path d="M364.032 134.396C350.359 134.396 339.275 123.331 339.275 109.682C339.275 96.0328 350.359 84.9679 364.032 84.9679C377.705 84.9679 388.789 96.0328 388.789 109.682C388.789 123.331 377.705 134.396 364.032 134.396Z" fill="#F2A9A9"/>
<path d="M351.654 150.731C346.321 153.896 343.13 159.712 341.299 165.63C337.908 176.587 335.867 187.915 335.221 199.365L333.286 233.643L309.328 306.631C330.092 324.17 408.14 310.617 408.14 310.617C408.14 310.617 410.536 309.82 408.14 307.428C405.744 305.036 403.412 307.155 405.807 304.763C408.203 302.372 406.552 305.036 405.753 302.645C404.954 300.253 405.753 301.847 406.552 301.05C407.35 300.253 400.369 293.078 400.369 293.078L406.758 251.182L414.744 166.675C405.161 154.717 385.888 147.667 385.888 147.667L380.908 138.719L356.008 140.707L351.654 150.731Z" fill="#045D5E"/>
<path d="M343.624 96.5518C341.7 97.9845 340.275 99.9835 339.548 102.267C339.269 98.535 339.252 94.7877 339.495 91.0527C339.787 88.4282 341.638 87.8378 343.781 87.1538C345.717 86.5357 347.906 85.8376 348.495 83.2898C356.277 75.7322 369.824 76.1133 379.095 78.7495C384.197 80.2001 387.132 82.0639 387.395 83.1558L387.449 83.3806L387.657 83.484C391.589 85.4468 392.354 91.645 392.304 96.4989C392.208 105.644 389.045 116.031 387.263 116.874C387.169 116.919 387.145 116.902 387.104 116.868C384.421 114.727 381.148 117.03 379.709 118.282C378.861 112.598 376.129 107.362 371.949 103.41C367.77 99.4583 362.385 97.0183 356.654 96.48C354.782 96.2994 352.925 95.9886 351.097 95.5499C350.17 95.3104 349.216 95.1855 348.258 95.178C346.609 95.153 344.992 95.6324 343.624 96.5518Z" fill="#2F2E41"/>
<path d="M189.937 319.485L142.313 271.208L129.766 232.596L149.958 224.444C159.96 234.515 170.256 265.348 170.256 265.348L202.76 308.898C203.02 308.995 203.279 309.096 203.534 309.217C205.03 309.922 206.319 311.001 207.276 312.349C208.233 313.697 208.825 315.269 208.996 316.912C209.166 318.555 208.909 320.214 208.25 321.73C207.59 323.245 206.55 324.565 205.23 325.561C203.911 326.558 202.355 327.198 200.715 327.419C199.075 327.641 197.406 327.436 195.868 326.825C194.331 326.214 192.977 325.218 191.938 323.932C190.899 322.646 190.21 321.115 189.937 319.485Z" fill="#FFB8B8"/>
<path d="M155.465 228.86L129.931 236.234L129.836 236.216C120.45 234.397 113.026 218.826 108.45 206.084C106.945 201.881 107.095 197.264 108.869 193.167C110.643 189.07 113.909 185.798 118.006 184.013C121.038 182.717 124.373 182.293 127.633 182.789C130.894 183.286 133.95 184.682 136.457 186.822L149.188 197.766L155.465 228.86Z" fill="#FFC28E"/>
<path d="M177.312 556.233L191.044 556.232L197.577 503.356L177.31 503.357L177.312 556.233Z" fill="#FFB8B8"/>
<path d="M173.809 551.757L177.674 551.757L192.764 545.631L200.852 551.756H200.854C205.424 551.756 209.808 553.569 213.04 556.795C216.272 560.022 218.088 564.398 218.088 568.961V569.52L173.81 569.521L173.809 551.757Z" fill="#2F2E41"/>
<path d="M116.38 556.233L130.112 556.232L136.645 503.356L116.377 503.357L116.38 556.233Z" fill="#FFB8B8"/>
<path d="M112.876 551.757L116.742 551.757L131.832 545.631L139.92 551.756H139.921C144.492 551.756 148.876 553.569 152.108 556.795C155.34 560.022 157.155 564.398 157.156 568.961V569.52L112.877 569.521L112.876 551.757Z" fill="#2F2E41"/>
<path d="M95.4407 328.477C95.4407 328.477 93.8372 347.686 97.8459 366.094C101.855 384.502 101.855 436.346 101.855 436.346L110.674 537.372L137.131 534.971L144.347 366.094L170.003 422.92L167.597 430.923L170.801 432.924C170.801 432.924 168.399 448.531 170.003 448.531C171.606 448.531 175.615 450.932 175.615 450.932L172.408 533.37L199.667 532.569L209.288 416.517L198.865 350.087L198.064 337.281L194.456 337.429L192.619 332.079L189.245 322.875L95.4407 328.477Z" fill="#2F2E41"/>
<path d="M94.0546 332.512L93.9117 332.311C86.2803 321.646 97.7579 296.016 99.489 292.301L92.1978 289.939L93.8397 276.006L94.6176 269.795L89.0449 264.232L89.0292 264.093L85.8223 236.08L81.1594 217.475C79.4025 210.441 79.5523 203.067 81.5933 196.111C83.6343 189.154 87.493 182.865 92.7733 177.888L103.551 167.744L116.65 148.396H137.773L145.016 162.052C152.038 163.673 158.268 167.701 162.621 173.435C166.974 179.169 169.174 186.246 168.837 193.432L167.196 229.25L173.622 273.847L173.626 281.918L180.858 289.941L179.278 297.823L184.782 300.178L187.212 311.499C188.218 312.823 194.856 321.659 194.856 324.075C194.856 324.438 194.588 324.788 194.013 325.177C189.489 328.235 164.485 334.47 153.418 330.049C141.63 325.344 94.7702 332.402 94.2981 332.474L94.0546 332.512Z" fill="#FFC28E"/>
<path d="M129.94 142.15C114.49 142.15 101.965 129.646 101.965 114.223C101.965 98.7991 114.49 86.2958 129.94 86.2958C145.391 86.2958 157.916 98.7991 157.916 114.223C157.916 129.646 145.391 142.15 129.94 142.15Z" fill="#FFB8B8"/>
<path d="M132.621 142.602C128.288 142.558 123.967 142.144 119.705 141.366C115.486 140.395 106.177 133.209 103.64 128.964C101.755 125.81 100.623 120.931 100.006 117.394C99.1725 112.713 99.3331 107.909 100.478 103.294C101.622 98.6784 103.725 94.3546 106.649 90.6021C107.777 89.0301 109.309 87.7914 111.084 87.0173C111.241 86.9606 111.402 86.911 111.565 86.8692C114.137 86.2639 116.47 84.9049 118.263 82.9666C118.611 82.5742 118.987 82.2073 119.388 81.8688C121.4 80.261 123.764 79.1512 126.287 78.6303C130.364 77.6529 136.196 78.8776 143.62 82.2737C147.35 83.9799 151.49 83.5039 154.681 82.8986C154.86 82.8689 155.043 82.8864 155.213 82.9495C155.383 83.0126 155.534 83.119 155.65 83.2581C156.967 84.5582 158.729 85.3123 160.58 85.3688C161.713 85.4478 162.862 87.0462 164.248 89.1276C164.562 89.6001 164.929 90.1515 165.195 90.488L165.249 89.856L165.872 90.5786C166.852 91.7143 167.527 93.0789 167.837 94.5456C168.146 96.0123 168.078 97.5332 167.64 98.9667C167.202 100.4 166.407 101.7 165.331 102.744C164.254 103.789 162.93 104.544 161.482 104.941C160.333 105.214 159.16 105.37 157.979 105.406C157.264 105.451 156.523 105.499 155.812 105.603C153.529 106.009 151.39 106.999 149.604 108.476C147.818 109.954 146.446 111.868 145.623 114.033C145.429 114.533 145.122 114.982 144.726 115.345C144.33 115.708 143.856 115.976 143.34 116.127C142.824 116.278 142.281 116.308 141.751 116.216C141.222 116.124 140.72 115.912 140.286 115.596C139.564 115.004 138.708 114.595 137.793 114.404C136.878 114.214 135.931 114.246 135.031 114.5C134.249 114.909 133.631 115.573 133.281 116.382C132.858 117.282 132.176 118.036 131.322 118.548C128.409 119.953 128.042 126.502 128.933 131.992C129.792 137.284 131.66 141.144 133.477 141.379C134.875 141.56 135.033 141.664 135.128 141.914L135.213 142.138L135.05 142.341C134.268 142.601 133.44 142.69 132.621 142.602Z" fill="#2F2E41"/>
<path d="M155.83 231.847L169.277 214.743C182.974 218.508 207.278 240.134 207.278 240.134L257.19 261.756C258.855 261.477 260.566 261.641 262.148 262.231C263.731 262.821 265.129 263.817 266.204 265.118C267.278 266.419 267.99 267.98 268.268 269.644C268.546 271.307 268.38 273.014 267.787 274.593C267.194 276.172 266.195 277.567 264.89 278.638C263.585 279.709 262.02 280.418 260.354 280.693C258.687 280.969 256.977 280.801 255.396 280.207C253.815 279.613 252.419 278.614 251.348 277.31L185.965 259.101L155.83 231.847Z" fill="#FFB8B8"/>
<path d="M159.053 235.758L137.836 212.146L136.658 195.416C136.439 192.13 137.144 188.849 138.695 185.943C140.245 183.037 142.579 180.622 145.433 178.971C149.316 176.758 153.896 176.1 158.246 177.13C162.597 178.16 166.393 180.8 168.869 184.517C176.366 195.796 184.431 211.047 180.281 219.645L180.239 219.732L159.053 235.758Z" fill="#FFC28E"/>
<path d="M354.611 324.505L409.755 296.311C413.678 294.306 414.977 288.987 412.652 284.454L376.696 214.369C374.371 209.836 369.288 207.78 365.365 209.786L310.22 237.979C306.298 239.985 304.999 245.304 307.324 249.837L343.28 319.922C345.605 324.454 350.688 326.51 354.611 324.505Z" fill="#E6E6E6"/>
<path d="M364.032 311.544L401.499 292.389C405.172 290.511 406.389 285.529 404.211 281.284L374.34 223.059C372.162 218.814 367.402 216.888 363.728 218.766L318.476 241.902C314.803 243.78 313.586 248.761 315.764 253.007L331.992 284.638C341.693 303.547 347.669 319.91 364.032 311.544Z" fill="white"/>
<path d="M345.509 279.747L378.693 262.781C379.099 262.492 379.387 262.068 379.505 261.585C379.623 261.101 379.563 260.592 379.336 260.149C379.109 259.706 378.73 259.36 378.268 259.173C377.807 258.987 377.293 258.972 376.821 259.132L343.636 276.098C343.231 276.387 342.942 276.811 342.824 277.295C342.706 277.778 342.766 278.287 342.993 278.73C343.221 279.173 343.6 279.519 344.061 279.706C344.523 279.893 345.037 279.907 345.509 279.747Z" fill="#FFC28E"/>
<path d="M374.819 273.863L382.392 269.991C382.798 269.702 383.086 269.278 383.204 268.794C383.322 268.311 383.262 267.802 383.035 267.359C382.808 266.916 382.429 266.57 381.967 266.383C381.505 266.196 380.992 266.182 380.52 266.342L372.947 270.213C372.541 270.502 372.253 270.927 372.135 271.41C372.017 271.893 372.077 272.403 372.304 272.845C372.531 273.288 372.91 273.634 373.372 273.821C373.834 274.008 374.347 274.023 374.819 273.863Z" fill="#FFC28E"/>
<path d="M365.105 287.93L386.091 277.201C386.497 276.912 386.785 276.487 386.903 276.004C387.021 275.521 386.961 275.012 386.734 274.569C386.507 274.126 386.128 273.78 385.666 273.593C385.204 273.406 384.69 273.391 384.219 273.551L363.233 284.281C362.827 284.57 362.539 284.994 362.421 285.477C362.303 285.961 362.363 286.47 362.59 286.913C362.817 287.356 363.196 287.702 363.658 287.889C364.119 288.075 364.633 288.09 365.105 287.93Z" fill="#FFC28E"/>
<path d="M332.376 254.15L365.561 237.184C365.967 236.896 366.255 236.471 366.373 235.988C366.491 235.504 366.431 234.995 366.204 234.552C365.977 234.11 365.598 233.763 365.136 233.576C364.674 233.39 364.161 233.375 363.689 233.535L330.504 250.501C330.098 250.79 329.81 251.215 329.692 251.698C329.574 252.181 329.634 252.69 329.861 253.133C330.088 253.576 330.467 253.922 330.929 254.109C331.391 254.296 331.904 254.31 332.376 254.15Z" fill="#FFC28E"/>
<path d="M361.687 248.266L369.26 244.394C369.666 244.105 369.954 243.681 370.072 243.197C370.19 242.714 370.13 242.205 369.903 241.762C369.676 241.319 369.297 240.973 368.835 240.786C368.373 240.599 367.86 240.585 367.388 240.745L359.815 244.616C359.409 244.905 359.121 245.33 359.003 245.813C358.885 246.296 358.945 246.806 359.172 247.248C359.399 247.691 359.778 248.037 360.24 248.224C360.702 248.411 361.215 248.426 361.687 248.266Z" fill="#FFC28E"/>
<path d="M351.973 262.333L372.959 251.604C373.365 251.315 373.653 250.89 373.771 250.407C373.889 249.924 373.829 249.414 373.602 248.972C373.375 248.529 372.996 248.183 372.534 247.996C372.072 247.809 371.559 247.794 371.087 247.954L350.101 258.684C349.695 258.972 349.407 259.397 349.289 259.88C349.171 260.364 349.231 260.873 349.458 261.316C349.685 261.758 350.064 262.105 350.526 262.292C350.988 262.478 351.501 262.493 351.973 262.333Z" fill="#FFC28E"/>
<path d="M400.307 263.489L412.765 217.19L379.474 210.899L381.264 242.679L337.522 287.641C335.207 287.546 332.913 288.126 330.922 289.31C328.931 290.494 327.328 292.231 326.309 294.309C325.289 296.387 324.897 298.716 325.181 301.012C325.465 303.309 326.411 305.473 327.906 307.241C329.4 309.01 331.378 310.306 333.598 310.971C335.817 311.637 338.183 311.644 340.406 310.991C342.63 310.338 344.615 309.053 346.119 307.293C347.624 305.533 348.583 303.374 348.879 301.079L400.307 263.489Z" fill="#F2A9A9"/>
<path d="M416.171 165.28C427.471 174.185 412.967 223.999 412.967 223.999C410.722 221.539 408.112 257.898 405.368 256.66C397.567 253.141 383.269 241.008 377.757 241.997C374.604 242.563 377.907 217.947 377.907 217.947C377.907 217.947 378.514 203.833 379.656 185.689C379.884 180.554 381.409 175.559 384.09 171.17C386.771 166.782 390.521 163.141 394.991 160.589C394.991 160.589 404.871 156.374 416.171 165.28Z" fill="#045D5E"/>
<path d="M228.147 366.254L258.239 352.068C258.883 351.767 259.45 351.324 259.897 350.772C260.344 350.22 260.661 349.575 260.823 348.884C260.986 348.208 260.994 347.504 260.845 346.824C260.697 346.145 260.396 345.508 259.966 344.961C251.249 333.84 245.264 320.834 242.489 306.987C242.28 305.927 241.708 304.972 240.872 304.285C240.036 303.598 238.987 303.222 237.905 303.221C222.557 303.273 211.087 308.868 203.814 319.847C203.43 320.418 203.176 321.065 203.069 321.745C202.962 322.424 203.005 323.118 203.194 323.779C207.406 338.27 213.814 352.032 222.197 364.586C222.819 365.536 223.765 366.227 224.859 366.534C225.953 366.841 227.121 366.741 228.147 366.254Z" fill="#E6E6E6"/>
<path d="M219.294 346.358L242.303 335.512C242.876 335.242 243.317 334.756 243.531 334.161C243.745 333.566 243.713 332.911 243.442 332.34C243.172 331.768 242.685 331.327 242.09 331.114C241.494 330.901 240.837 330.933 240.265 331.202L217.256 342.049C216.972 342.182 216.718 342.371 216.508 342.602C216.297 342.834 216.134 343.105 216.028 343.399C215.922 343.694 215.876 344.006 215.891 344.319C215.906 344.631 215.983 344.938 216.117 345.221C216.251 345.504 216.439 345.758 216.671 345.968C216.903 346.178 217.175 346.341 217.47 346.446C217.765 346.552 218.078 346.599 218.391 346.583C218.704 346.568 219.011 346.492 219.294 346.358Z" fill="white"/>
<path d="M215.72 338.802L238.729 327.955C239.301 327.686 239.743 327.2 239.957 326.605C240.17 326.01 240.138 325.355 239.868 324.783C239.598 324.212 239.111 323.771 238.515 323.558C237.919 323.344 237.263 323.376 236.691 323.646L213.682 334.492C213.109 334.762 212.668 335.248 212.454 335.843C212.24 336.438 212.272 337.093 212.543 337.665C212.813 338.236 213.299 338.677 213.895 338.89C214.491 339.103 215.148 339.072 215.72 338.802Z" fill="white"/>
<path d="M246.465 101.594L248.607 101.828C258.157 64.3657 276.667 38.4123 302.138 26.7729C334.518 11.9773 374.558 21.9128 414.881 54.7498C455.409 87.7544 491.288 139.887 515.906 201.548L517.984 200.598C493.258 138.669 457.195 86.2837 416.44 53.0957C375.48 19.7399 334.623 9.73146 301.396 24.9145C275.194 36.8874 256.2 63.4027 246.465 101.594Z" fill="#FC7300"/>
<path d="M482.76 150.383C488.361 162.162 493.689 174.365 498.595 186.653C526.828 257.366 541.135 329.582 539.965 395.499L542.172 395.264C543.342 329.102 528.994 256.637 500.673 185.704C495.753 173.381 490.41 161.144 484.793 149.331L482.76 150.383Z" fill="#FC7300"/>
<path d="M483.819 198.971C489.42 210.75 494.748 222.953 499.654 235.241C527.887 305.954 542.194 378.17 541.025 444.086L543.231 443.851C544.401 377.69 530.053 305.225 501.732 234.292C496.812 221.969 491.469 209.731 485.852 197.919L483.819 198.971Z" fill="#FC7300"/>
<path d="M543.125 216.641C540.686 212.981 542.129 207.742 546.349 204.939C550.57 202.137 555.968 202.831 558.407 206.491C560.846 210.151 559.403 215.391 555.183 218.193C550.962 220.996 545.564 220.301 543.125 216.641Z" fill="#CCCCCC"/>
<path d="M23.7273 348.814C21.2881 345.154 22.7318 339.915 26.952 337.112C31.1721 334.309 36.5705 335.004 39.0097 338.664C41.4489 342.324 40.0052 347.563 35.785 350.366C31.5649 353.169 26.1665 352.474 23.7273 348.814Z" fill="#CCCCCC"/>
</svg>
