<svg width="23" height="23" viewBox="0 0 23 23" fill="none" xmlns="http://www.w3.org/2000/svg">
<path d="M4.40107 12.9023H2.40062C1.84821 12.9023 1.40039 13.3501 1.40039 13.9026V20.4041C1.40039 20.9565 1.84821 21.4043 2.40062 21.4043H4.40107C4.95348 21.4043 5.4013 20.9565 5.4013 20.4041V13.9026C5.4013 13.3501 4.95348 12.9023 4.40107 12.9023Z" stroke="#019088" stroke-width="2" stroke-linecap="round" stroke-linejoin="round"/>
<path d="M5.40234 13.9014H11.1537C11.8442 13.9014 12.4039 14.4611 12.4039 15.1517C12.4039 15.8422 11.8442 16.4019 11.1537 16.4019H8.90314" stroke="#019088" stroke-width="2" stroke-linecap="round" stroke-linejoin="round"/>
<path d="M10.4035 16.4038H14.096C14.9462 16.4038 15.7744 16.1329 16.4603 15.6305L19.0891 13.7049C19.6605 13.2617 20.4736 13.3121 20.9855 13.8226C21.5794 14.4147 21.5388 15.3866 20.8977 15.9275L16.5 19.5069C15.7864 20.0876 14.8945 20.4047 13.9744 20.4047H5.40234" stroke="#019088" stroke-width="2" stroke-linecap="round" stroke-linejoin="round"/>
<path d="M18.4046 6.40153C18.4046 9.16349 16.1655 11.4027 13.4035 11.4027C10.6415 11.4027 8.40234 9.16349 8.40234 6.40153C8.40234 3.63947 10.6415 1.40039 13.4035 1.40039C16.1655 1.40039 18.4046 3.63947 18.4046 6.40153Z" stroke="#019088" stroke-width="2" stroke-linecap="round" stroke-linejoin="round"/>
</svg>
