<svg width="100" height="93" viewBox="0 0 100 93" fill="none" xmlns="http://www.w3.org/2000/svg">
<path fill-rule="evenodd" clip-rule="evenodd" d="M52.9626 0.0167909C73.8805 0.475525 91.9612 14.554 98.122 34.7201C104.005 53.9775 95.6181 74.455 79.2212 85.9693C63.8078 96.7929 43.8402 94.3919 28.3048 83.7474C10.7933 71.7491 -4.70208 53.0649 1.32542 32.5973C7.71632 10.8958 30.5213 -0.475353 52.9626 0.0167909Z" fill="#E9F6F7"/>
<path d="M66 45V25H46V45H66ZM56 35C54.897 35 54 34.103 54 33C54 31.897 54.897 31 56 31C57.103 31 58 31.897 58 33C58 34.103 57.103 35 56 35ZM53.32 37.655C53.963 37.227 54.711 37 55.483 37H56.516C57.288 37 58.037 37.227 58.679 37.655C59.572 38.25 60.185 39.199 60.362 40.258L60.82 43H51.18L51.637 40.258C51.814 39.199 52.428 38.25 53.32 37.655ZM48 27H64V43H62.847L62.335 39.929C62.068 38.327 61.14 36.892 59.789 35.991C59.549 35.831 59.299 35.69 59.041 35.568C59.631 34.871 60 33.982 60 33C60 30.794 58.206 29 56 29C53.794 29 52 30.794 52 33C52 33.982 52.369 34.871 52.959 35.568C52.701 35.69 52.451 35.831 52.211 35.991C50.86 36.892 49.932 38.327 49.665 39.929L49.153 43H48V27Z" fill="#526A6A"/>
<path d="M32 31H44V33H32V31Z" fill="#526A6A"/>
<path d="M32 35H44V37H32V35Z" fill="#526A6A"/>
<path d="M32 39H44V41H32V39Z" fill="#526A6A"/>
<path d="M32 43H44V45H32V43Z" fill="#526A6A"/>
<path d="M32 47H66V49H32V47Z" fill="#526A6A"/>
<path d="M52 73H66V65H52V73ZM54 67H64V71H54V67Z" fill="#526A6A"/>
<path d="M42 71H50V73H42V71Z" fill="#526A6A"/>
<path d="M42 67H50V69H42V67Z" fill="#526A6A"/>
<path d="M80.978 66.7522L75.203 17.7322C75.012 16.0342 73.418 14.7882 71.723 15.0282L43.985 18.8542C43.907 16.7182 42.156 15.0002 40 15.0002H38C35.794 15.0002 34 16.7942 34 19.0002V21.0002H30C28.897 21.0002 28 21.8972 28 23.0002V60.5862L20.534 68.0512C19.545 69.0422 19 70.3582 19 71.7572C19 74.6482 21.352 77.0002 24.242 77.0002C25.643 77.0002 26.96 76.4552 27.949 75.4642L28.038 75.3752C28.215 76.2992 29.026 77.0002 30 77.0002H68C69.103 77.0002 70 76.1032 70 75.0002V71.8352L78.34 70.3192C79.882 70.0392 81 68.6982 81 67.1322C81 67.0032 80.992 66.8752 80.978 66.7522ZM36 19.0002C36 17.8972 36.897 17.0002 38 17.0002H40C41.103 17.0002 42 17.8972 42 19.0002V21.0002H40V19.0002H38V21.0002H36V19.0002ZM36 23.0002H38V26.0002C38 26.5512 37.552 27.0002 37 27.0002C36.448 27.0002 36 26.5512 36 26.0002V23.0002ZM41.813 55.3992L40.601 54.1872L42.419 53.5812L41.813 55.3992ZM38.48 54.8942L41.106 57.5202L40.563 59.1492L36.851 55.4372L38.48 54.8942ZM35 56.4142L39.586 61.0002L29 71.5862L24.414 67.0002L35 56.4142ZM24.242 75.0002C22.454 75.0002 21 73.5452 21 71.7572C21 70.8912 21.337 70.0772 21.949 69.4642L23 68.4142L27.586 73.0002L26.535 74.0512C25.923 74.6632 25.109 75.0002 24.242 75.0002ZM68 75.0002H30V73.4142L41.874 61.5402L44.721 53.0002H66V51.0002H43.838L34.46 54.1262L30 58.5862V23.0002H34V26.0002C34 27.6542 35.346 29.0002 37 29.0002C38.654 29.0002 40 27.6542 40 26.0002V23.0002H42V27.0002H44V23.0002H68V75.0002ZM77.982 68.3512L70 69.8022V23.0002C70 21.8972 69.103 21.0002 68 21.0002H44V20.8722L71.996 17.0102C72.6 16.9342 73.148 17.3642 73.216 17.9632L78.992 66.9922C78.998 67.0392 79 67.0852 79 67.1312C79 67.7302 78.572 68.2432 77.982 68.3512Z" fill="#526A6A"/>
</svg>
