<svg width="47" height="44" viewBox="0 0 47 44" fill="none" xmlns="http://www.w3.org/2000/svg">
<path d="M2.32355 42H44.6765M5.58147 2V42M28.3869 2V42M41.4186 12V42M12.0973 10.3333H13.7263M12.0973 17H13.7263M12.0973 23.6667H13.7263M20.2421 10.3333H21.8711M20.2421 17H21.8711M20.2421 23.6667H21.8711M12.0973 42V34.5C12.0973 33.12 13.192 32 14.5407 32H19.4276C20.7764 32 21.8711 33.12 21.8711 34.5V42M3.95251 2H30.0159M28.3869 12H43.0475M34.9027 20.3333H34.9201V20.3511H34.9027V20.3333ZM34.9027 27H34.9201V27.0178H34.9027V27ZM34.9027 33.6667H34.9201V33.6844H34.9027V33.6667Z" stroke="#019088" stroke-width="3" stroke-linecap="round" stroke-linejoin="round"/>
</svg>
