<svg width="24" height="24" viewBox="0 0 24 24" fill="none" xmlns="http://www.w3.org/2000/svg">
<path d="M12.9151 22.3276L13.3931 23.206L13.3931 23.206L12.9151 22.3276ZM12.0633 22.3276L11.5853 23.206L11.5853 23.206L12.0633 22.3276ZM20.3787 11.29C20.3787 13.923 18.9153 16.2004 17.1059 18.0006C15.307 19.7903 13.2838 20.9885 12.4371 21.4492L13.3931 23.206C14.3177 22.7028 16.5263 21.3985 18.5165 19.4184C20.496 17.449 22.3787 14.6896 22.3787 11.29H20.3787ZM12.4892 3.40039C16.7223 3.40039 20.3787 6.55183 20.3787 11.29H22.3787C22.3787 5.3606 17.7382 1.40039 12.4892 1.40039V3.40039ZM4.59961 11.29C4.59961 6.56293 8.40315 3.40039 12.4892 3.40039V1.40039C7.41067 1.40039 2.59961 5.3495 2.59961 11.29H4.59961ZM12.5413 21.4492C11.6946 20.9885 9.6713 19.7903 7.87247 18.0006C6.06304 16.2004 4.59961 13.923 4.59961 11.29H2.59961C2.59961 14.6896 4.48232 17.449 6.46188 19.4184C8.45205 21.3985 10.6606 22.7028 11.5853 23.206L12.5413 21.4492ZM12.4371 21.4492C12.4478 21.4434 12.4661 21.4373 12.4892 21.4373C12.5122 21.4373 12.5306 21.4434 12.5413 21.4492L11.5853 23.206C12.1521 23.5144 12.8262 23.5144 13.3931 23.206L12.4371 21.4492ZM15.9637 11.0239C15.9637 12.9436 14.4075 14.4999 12.4877 14.4999V16.4999C15.512 16.4999 17.9637 14.0482 17.9637 11.0239H15.9637ZM12.4877 7.54785C14.4075 7.54785 15.9637 9.10411 15.9637 11.0239H17.9637C17.9637 7.99954 15.512 5.54785 12.4877 5.54785V7.54785ZM9.01172 11.0239C9.01172 9.10411 10.568 7.54785 12.4877 7.54785V5.54785C9.46341 5.54785 7.01172 7.99954 7.01172 11.0239H9.01172ZM12.4877 14.4999C10.568 14.4999 9.01172 12.9436 9.01172 11.0239H7.01172C7.01172 14.0482 9.46341 16.4999 12.4877 16.4999V14.4999Z" fill="#019088"/>
</svg>
