<svg width="20" height="20" viewBox="0 0 20 20" fill="none" xmlns="http://www.w3.org/2000/svg">
<path d="M16.6666 12.5C16.6666 14.0532 16.6666 14.8297 16.4129 15.4423C16.0746 16.259 15.4256 16.9079 14.6089 17.2462C13.9963 17.5 13.2197 17.5 11.6666 17.5H9.16663C6.02395 17.5 4.45258 17.5 3.47628 16.5237C2.49996 15.5473 2.49998 13.976 2.5 10.8332L2.50005 5.83319C2.50007 3.99232 3.9924 2.5 5.83328 2.5" stroke="#FC7300" stroke-width="1.25" stroke-linecap="round" stroke-linejoin="round"/>
<path d="M8.33395 7.08301L8.69537 10.3904C8.72987 10.6669 8.89978 10.9079 9.15578 11.0179C9.72745 11.2634 10.7981 11.6663 11.6673 11.6663C12.5365 11.6663 13.6072 11.2634 14.1789 11.0179C14.4349 10.9079 14.6048 10.6669 14.6393 10.3904L15.0006 7.08301M17.084 6.24967V9.39067M11.6673 3.33301L5.83398 5.83301L11.6673 8.33301L17.5006 5.83301L11.6673 3.33301Z" stroke="#FC7300" stroke-width="1.25" stroke-linecap="round" stroke-linejoin="round"/>
</svg>
