<svg width="100" height="93" viewBox="0 0 100 93" fill="none" xmlns="http://www.w3.org/2000/svg">
<path fill-rule="evenodd" clip-rule="evenodd" d="M52.9626 0.0167909C73.8805 0.475525 91.9612 14.554 98.122 34.7201C104.005 53.9775 95.6181 74.455 79.2212 85.9693C63.8078 96.7929 43.8402 94.3919 28.3048 83.7474C10.7933 71.7491 -4.70208 53.0649 1.32542 32.5973C7.71632 10.8958 30.5213 -0.475353 52.9626 0.0167909Z" fill="#E9F6F7"/>
<g clip-path="url(#clip0_13071_5674)">
<path d="M27.92 57.5216H72.08V34.4816H27.92V57.5216ZM73.04 59.4417H26.96H26V58.4816V33.5215V32.5615H26.96H73.04H74V33.5215V58.4816V59.4417H73.04Z" fill="#526A6A"/>
<path d="M56.9999 48.8814H29.8398V46.9614H56.9999V48.8814Z" fill="#526A6A"/>
<path d="M43.7599 43.1217H29.8398V41.2017H43.7599V43.1217Z" fill="#526A6A"/>
<path d="M41.6616 39.2819H29.8398V37.3618H41.6616V39.2819Z" fill="#526A6A"/>
<path d="M70.1607 54.6417H56.7207V52.7217H70.1607V54.6417Z" fill="#526A6A"/>
<path d="M63 41.0015V45.0015H61V41.0015H63Z" fill="#526A6A"/>
<path d="M68 41.0015V45.0015H66V41.0015H68Z" fill="#526A6A"/>
<path d="M60.0059 46.0015H69.0005V48.0015H60.0059V46.0015Z" fill="#526A6A"/>
<path d="M58 40.0015L63.7812 35.4072L64.4025 34.9136L65.0234 35.4072L68.0953 37.8484L70.8047 40.0015H67.5962L64.4025 37.4633L61.2084 40.0015H58Z" fill="#526A6A"/>
</g>
<defs>
<clipPath id="clip0_13071_5674">
<rect width="64" height="64" fill="white" transform="translate(18 14.0015)"/>
</clipPath>
</defs>
</svg>
