<svg width="100" height="93" viewBox="0 0 100 93" fill="none" xmlns="http://www.w3.org/2000/svg">
<path fill-rule="evenodd" clip-rule="evenodd" d="M52.9626 0.0167909C73.8805 0.475525 91.9612 14.554 98.122 34.7201C104.005 53.9775 95.6181 74.455 79.2212 85.9693C63.8078 96.7929 43.8402 94.3919 28.3048 83.7474C10.7933 71.7491 -4.70208 53.0649 1.32542 32.5973C7.71632 10.8958 30.5213 -0.475353 52.9626 0.0167909Z" fill="#E9F6F7"/>
<path d="M77 38.0699V36.0699C77.0007 35.6556 76.9177 35.2455 76.7562 34.8641C76.5947 34.4826 76.3579 34.1377 76.06 33.8499C75.759 33.5647 75.404 33.3426 75.0159 33.1966C74.6277 33.0506 74.2143 32.9837 73.8 32.9999C70.1106 33.0997 66.4338 33.4741 62.8 34.1199L61.48 34.3799C61.1966 31.5736 59.897 28.9678 57.8259 27.0531C55.7549 25.1384 53.0553 24.047 50.2354 23.9843C47.4156 23.9216 44.6702 24.892 42.5161 26.7128C40.362 28.5335 38.9478 31.079 38.54 33.8699C38.54 34.0499 38.54 34.2199 38.54 34.3899C34.473 33.5806 30.3451 33.1156 26.2 32.9999C25.7849 32.9879 25.3716 33.0591 24.9845 33.2094C24.5974 33.3596 24.2443 33.5859 23.9461 33.8748C23.6478 34.1638 23.4104 34.5095 23.248 34.8917C23.0855 35.2738 23.0012 35.6846 23 36.0999V38.0999C21.8706 38.3304 20.8556 38.9441 20.1267 39.837C19.3978 40.7299 18.9998 41.8472 19 42.9999V70.9999C19 72.326 19.5268 73.5977 20.4645 74.5354C20.9288 74.9997 21.48 75.368 22.0866 75.6193C22.6932 75.8705 23.3434 75.9999 24 75.9999H76C77.3261 75.9999 78.5979 75.4731 79.5355 74.5354C80.4732 73.5977 81 72.326 81 70.9999V42.9999C81.0072 41.8421 80.6123 40.7177 79.8828 39.8186C79.1533 38.9195 78.1344 38.3014 77 38.0699ZM40.54 34.1499C40.858 32.0714 41.8489 30.1547 43.3607 28.6934C44.8726 27.2321 46.822 26.307 48.91 26.0599C49.272 26.02 49.6358 26 50 25.9999C52.3496 25.9943 54.6171 26.8642 56.36 28.4399C57.4091 29.3775 58.2384 30.5351 58.7886 31.8301C59.3387 33.1251 59.5963 34.5256 59.5428 35.9316C59.4893 37.3376 59.1261 38.7145 58.4791 39.964C57.8321 41.2135 56.9173 42.3047 55.8 43.1599C54.9526 43.7881 54.2631 44.6049 53.7858 45.5455C53.3085 46.4862 53.0566 47.5251 53.05 48.5799C53.0474 48.9557 52.8969 49.3153 52.6312 49.5811C52.3655 49.8468 52.0058 49.9973 51.63 49.9999H51V42.9999C51.0005 42.7662 50.9191 42.5398 50.77 42.3599L47.13 37.9999H52.58L50.79 39.7899C50.6262 39.9812 50.5406 40.2273 50.5503 40.4789C50.56 40.7306 50.6643 40.9693 50.8424 41.1474C51.0205 41.3255 51.2593 41.4299 51.5109 41.4396C51.7626 41.4493 52.0087 41.3637 52.2 41.1999L55.7 37.6999C55.837 37.5601 55.93 37.3832 55.9675 37.1911C56.0049 36.9989 55.9852 36.8 55.9106 36.619C55.8361 36.438 55.7101 36.2829 55.5482 36.1728C55.3863 36.0628 55.1957 36.0026 55 35.9999H45C44.8098 35.9996 44.6235 36.0535 44.4629 36.1553C44.3023 36.2572 44.174 36.4027 44.0932 36.5749C44.0124 36.747 43.9823 36.9387 44.0065 37.1273C44.0308 37.3159 44.1083 37.4937 44.23 37.6399L49 43.3599V49.9999H48.37C48.1814 49.9999 47.9946 49.9626 47.8204 49.8901C47.6463 49.8176 47.4882 49.7114 47.3553 49.5775C47.2224 49.4437 47.1172 49.2848 47.046 49.1102C46.9747 48.9355 46.9387 48.7485 46.94 48.5599C46.9284 47.5063 46.6732 46.4697 46.1944 45.5312C45.7156 44.5927 45.0262 43.7777 44.18 43.1499C42.8209 42.115 41.7656 40.733 41.1251 39.1493C40.4845 37.5656 40.2824 35.8387 40.54 34.1499ZM25 36.0999C25.0012 35.9515 25.0322 35.8049 25.0911 35.6687C25.1499 35.5326 25.2355 35.4096 25.3427 35.307C25.4499 35.2045 25.5766 35.1245 25.7153 35.0717C25.8539 35.0189 26.0017 34.9945 26.15 34.9999C30.2967 35.1151 34.4255 35.5902 38.49 36.4199C38.6048 38.0467 39.0667 39.6301 39.8446 41.0635C40.6225 42.4969 41.6985 43.7471 43 44.7299C43.608 45.1713 44.1052 45.7479 44.4523 46.4143C44.7994 47.0807 44.9869 47.8186 45 48.5699C44.9999 49.4693 45.353 50.3327 45.9833 50.9743C46.6136 51.6158 47.4707 51.9841 48.37 51.9999H51.63C52.0826 51.9986 52.5305 51.908 52.948 51.7332C53.3655 51.5585 53.7444 51.3031 54.0631 50.9817C54.3817 50.6603 54.6338 50.2792 54.8049 49.8601C54.9759 49.4411 55.0626 48.9925 55.06 48.5399C55.0762 47.7948 55.2653 47.0638 55.6124 46.4043C55.9595 45.7448 56.4551 45.1751 57.06 44.7399C58.3553 43.7513 59.4249 42.4978 60.1975 41.0631C60.97 39.6284 61.4277 38.0455 61.54 36.4199L63.2 36.0899C66.7182 35.4641 70.278 35.0998 73.85 34.9999C74 34.9922 74.15 35.0167 74.2897 35.0719C74.4295 35.1271 74.5557 35.2117 74.66 35.3199C74.7655 35.4225 74.8491 35.5453 74.9058 35.6811C74.9625 35.8169 74.9912 35.9627 74.99 36.1099V67.8999C74.9903 68.1832 74.8813 68.4556 74.6857 68.6605C74.4901 68.8654 74.223 68.987 73.94 68.9999C66.0912 69.1048 58.3236 70.6049 51 73.4299V55.9999H52C52.2652 55.9999 52.5196 55.8945 52.7071 55.707C52.8946 55.5194 53 55.2651 53 54.9999C53 54.7347 52.8946 54.4803 52.7071 54.2928C52.5196 54.1052 52.2652 53.9999 52 53.9999H48C47.7348 53.9999 47.4804 54.1052 47.2929 54.2928C47.1054 54.4803 47 54.7347 47 54.9999C47 55.2651 47.1054 55.5194 47.2929 55.707C47.4804 55.8945 47.7348 55.9999 48 55.9999H49V73.4399C41.6783 70.6073 33.9099 69.1038 26.06 68.9999C25.7753 68.9895 25.5056 68.8691 25.3079 68.6639C25.1102 68.4587 24.9998 68.1848 25 67.8999V36.0999ZM21 70.9999V42.9999C21.0017 42.3809 21.1949 41.7777 21.5529 41.2728C21.911 40.7679 22.4165 40.3862 23 40.1799V67.8999C23.0046 68.7035 23.319 69.4744 23.8779 70.0519C24.4368 70.6294 25.1969 70.969 26 70.9999C32.2782 71.1488 38.5062 72.1582 44.51 73.9999H24C23.2044 73.9999 22.4413 73.6838 21.8787 73.1212C21.3161 72.5586 21 71.7955 21 70.9999ZM79 70.9999C79 71.7955 78.6839 72.5586 78.1213 73.1212C77.5587 73.6838 76.7957 73.9999 76 73.9999H55.48C61.487 72.1573 67.7185 71.1479 74 70.9999C74.8031 70.969 75.5632 70.6294 76.1221 70.0519C76.681 69.4744 76.9954 68.7035 77 67.8999V40.1499C77.5884 40.3579 78.0973 40.7442 78.4557 41.2551C78.8142 41.7659 79.0045 42.3758 79 42.9999V70.9999Z" fill="#526A6A"/>
<path d="M28.9291 40.9999C30.2491 41.0899 31.5791 41.2099 32.8791 41.3699H32.9991C33.2643 41.3858 33.525 41.2957 33.7237 41.1194C33.9225 40.9432 34.0432 40.6951 34.0591 40.4299C34.075 40.1647 33.9849 39.904 33.8086 39.7052C33.6323 39.5064 33.3843 39.3858 33.1191 39.3699C31.7891 39.2099 30.4191 39.0799 29.0691 38.9899C28.8038 38.9727 28.5426 39.0615 28.3429 39.2368C28.1432 39.4122 28.0213 39.6597 28.0041 39.9249C27.9868 40.1901 28.0756 40.4513 28.251 40.651C28.4263 40.8508 28.6738 40.9727 28.9391 40.9899L28.9291 40.9999Z" fill="#526A6A"/>
<path d="M28.9291 45.1298C31.3686 45.2889 33.7985 45.5726 36.2091 45.9798H36.3791C36.5104 45.9909 36.6426 45.9761 36.7682 45.9362C36.8938 45.8962 37.0103 45.8319 37.1111 45.747C37.2118 45.662 37.2948 45.558 37.3554 45.441C37.416 45.3239 37.4529 45.1961 37.4641 45.0648C37.4752 44.9334 37.4604 44.8012 37.4205 44.6756C37.3805 44.55 37.3162 44.4335 37.2313 44.3328C37.1463 44.232 37.0423 44.149 36.9253 44.0884C36.8082 44.0278 36.6804 43.9909 36.5491 43.9798C34.0723 43.5595 31.5757 43.2658 29.0691 43.0998C28.8038 43.0825 28.5426 43.1714 28.3429 43.3467C28.1432 43.522 28.0213 43.7696 28.0041 44.0348C27.9868 44.3 28.0756 44.5612 28.251 44.7609C28.4263 44.9606 28.6738 45.0825 28.9391 45.0998L28.9291 45.1298Z" fill="#526A6A"/>
<path d="M28 51.0702C27.9835 51.3339 28.0721 51.5934 28.2464 51.792C28.4206 51.9906 28.6664 52.1122 28.93 52.1302C34.2786 52.4579 39.5692 53.4213 44.69 55.0002C44.9433 55.0798 45.2178 55.0554 45.4531 54.9326C45.6885 54.8098 45.8654 54.5985 45.945 54.3452C46.0246 54.0919 46.0002 53.8174 45.8774 53.582C45.7546 53.3467 45.5433 53.1698 45.29 53.0902C40.0182 51.4499 34.5698 50.4428 29.06 50.0902C28.9254 50.0821 28.7905 50.1013 28.6635 50.1466C28.5365 50.192 28.42 50.2626 28.321 50.3541C28.2219 50.4457 28.1425 50.5563 28.0873 50.6793C28.0321 50.8024 28.0024 50.9354 28 51.0702Z" fill="#526A6A"/>
<path d="M45.2991 58.0002C40.0272 56.36 34.5789 55.3529 29.0691 55.0002C28.9377 54.9916 28.806 55.009 28.6814 55.0514C28.5568 55.0938 28.4418 55.1603 28.3429 55.2471C28.1432 55.4224 28.0213 55.6699 28.0041 55.9352C27.9868 56.2004 28.0756 56.4616 28.251 56.6613C28.4263 56.861 28.6738 56.9829 28.9391 57.0002C34.2881 57.3312 39.5787 58.298 44.6991 59.8802C44.9336 59.9146 45.1727 59.8646 45.3738 59.739C45.5749 59.6135 45.7249 59.4206 45.7969 59.1948C45.869 58.969 45.8585 58.7249 45.7673 58.5061C45.6761 58.2873 45.5102 58.108 45.2991 58.0002Z" fill="#526A6A"/>
<path d="M45.2991 63.0002C40.0272 61.3599 34.5789 60.3528 29.0691 60.0002C28.8038 59.9829 28.5426 60.0717 28.3429 60.2471C28.1432 60.4224 28.0213 60.6699 28.0041 60.9352C27.9868 61.2004 28.0756 61.4616 28.251 61.6613C28.4263 61.861 28.6738 61.9829 28.9391 62.0002C34.2896 62.3709 39.5769 63.378 44.6891 65.0002C44.9543 65.081 45.2408 65.0533 45.4855 64.9229C45.7302 64.7926 45.9132 64.5704 45.9941 64.3052C46.075 64.0399 46.0472 63.7535 45.9168 63.5087C45.7865 63.264 45.5643 63.0811 45.2991 63.0002Z" fill="#526A6A"/>
<path d="M54.9991 55.0598C55.0985 55.0749 55.1997 55.0749 55.2991 55.0598C60.4195 53.4776 65.71 52.5108 71.0591 52.1798C71.3243 52.1626 71.5718 52.0407 71.7472 51.841C71.9225 51.6413 72.0113 51.3801 71.9941 51.1148C71.9768 50.8496 71.855 50.6021 71.6552 50.4268C71.4555 50.2514 71.1943 50.1626 70.9291 50.1798C65.4192 50.5325 59.9709 51.5396 54.6991 53.1798C54.5678 53.1995 54.4416 53.2449 54.3278 53.3134C54.214 53.3818 54.1148 53.472 54.0359 53.5788C53.8765 53.7945 53.8093 54.0646 53.8491 54.3298C53.8889 54.5951 54.0324 54.8336 54.248 54.993C54.4637 55.1524 54.7339 55.2196 54.9991 55.1798V55.0598Z" fill="#526A6A"/>
<path d="M54.9991 59.9302C55.0985 59.9452 55.1997 59.9452 55.2991 59.9302C60.4174 58.331 65.708 57.3475 71.0591 57.0002C71.1904 56.9916 71.3188 56.9573 71.4368 56.8992C71.5549 56.841 71.6603 56.7602 71.7472 56.6613C71.834 56.5624 71.9005 56.4474 71.9428 56.3228C71.9852 56.1982 72.0026 56.0665 71.9941 55.9352C71.9855 55.8038 71.9512 55.6755 71.8931 55.5574C71.8349 55.4394 71.7541 55.3339 71.6552 55.2471C71.5563 55.1603 71.4413 55.0938 71.3167 55.0514C71.1921 55.009 71.0604 54.9916 70.9291 55.0002C65.4192 55.3529 59.9709 56.36 54.6991 58.0002C54.4339 58.0399 54.1953 58.1835 54.0359 58.3991C53.8765 58.6148 53.8093 58.8849 53.8491 59.1502C53.8889 59.4154 54.0324 59.6539 54.248 59.8133C54.4637 59.9727 54.7339 60.0399 54.9991 60.0002V59.9302Z" fill="#526A6A"/>
<path d="M54.9991 64.9998C55.0985 65.0149 55.1997 65.0149 55.2991 64.9998C60.4195 63.4175 65.71 62.4507 71.0591 62.1198C71.3243 62.1025 71.5718 61.9807 71.7472 61.7809C71.9225 61.5812 72.0113 61.32 71.9941 61.0548C71.9768 60.7896 71.855 60.5421 71.6552 60.3667C71.4555 60.1914 71.1943 60.1025 70.9291 60.1198C65.4241 60.4334 59.9759 61.4002 54.6991 62.9998C54.4339 63.0396 54.1953 63.1831 54.0359 63.3987C53.8765 63.6144 53.8093 63.8846 53.8491 64.1498C53.8889 64.415 54.0324 64.6536 54.248 64.813C54.4637 64.9724 54.7339 65.0396 54.9991 64.9998Z" fill="#526A6A"/>
<path d="M50 21C50.2652 21 50.5196 20.8946 50.7071 20.7071C50.8946 20.5196 51 20.2652 51 20V16C51 15.7348 50.8946 15.4804 50.7071 15.2929C50.5196 15.1054 50.2652 15 50 15C49.7348 15 49.4804 15.1054 49.2929 15.2929C49.1054 15.4804 49 15.7348 49 16V20C49 20.2652 49.1054 20.5196 49.2929 20.7071C49.4804 20.8946 49.7348 21 50 21Z" fill="#526A6A"/>
<path d="M57.0703 23.9301C57.2019 23.9309 57.3323 23.9057 57.4542 23.8559C57.576 23.8061 57.6868 23.7328 57.7803 23.6401L60.6103 20.8101C60.7741 20.6188 60.8597 20.3727 60.85 20.1211C60.8403 19.8694 60.7359 19.6307 60.5578 19.4526C60.3797 19.2745 60.141 19.1701 59.8893 19.1604C59.6376 19.1507 59.3916 19.2363 59.2003 19.4001L56.3603 22.2201C56.2192 22.36 56.1231 22.5387 56.084 22.7334C56.0449 22.9282 56.0647 23.1302 56.1409 23.3136C56.2171 23.4971 56.3461 23.6537 56.5117 23.7635C56.6772 23.8733 56.8716 23.9313 57.0703 23.9301Z" fill="#526A6A"/>
<path d="M42.2206 23.6399C42.4119 23.8037 42.658 23.8893 42.9097 23.8796C43.1613 23.8699 43.4001 23.7655 43.5782 23.5874C43.7563 23.4093 43.8606 23.1706 43.8703 22.9189C43.88 22.6672 43.7944 22.4212 43.6306 22.2299L40.8106 19.3899C40.6193 19.226 40.3732 19.1404 40.1216 19.1502C39.8699 19.1599 39.6311 19.2642 39.4531 19.4423C39.275 19.6204 39.1706 19.8591 39.1609 20.1108C39.1512 20.3625 39.2368 20.6086 39.4006 20.7999L42.2206 23.6399Z" fill="#526A6A"/>
</svg>
