<svg width="100" height="93" viewBox="0 0 100 93" fill="none" xmlns="http://www.w3.org/2000/svg">
<path fill-rule="evenodd" clip-rule="evenodd" d="M52.9626 0.0167909C73.8805 0.475525 91.9612 14.554 98.122 34.7201C104.005 53.9775 95.6181 74.455 79.2212 85.9693C63.8078 96.7929 43.8402 94.3919 28.3048 83.7474C10.7933 71.7491 -4.70208 53.0649 1.32542 32.5973C7.71632 10.8958 30.5213 -0.475353 52.9626 0.0167909Z" fill="#E9F6F7"/>
<path d="M75.5999 28.2095H61.6095V24.8047C61.6095 23.6165 61.1375 22.477 60.2974 21.6369C59.4572 20.7967 58.3177 20.3247 57.1295 20.3247H42.8703C41.6822 20.3247 40.5426 20.7967 39.7025 21.6369C38.8623 22.477 38.3903 23.6165 38.3903 24.8047V28.2095H24.3999C23.2118 28.2095 22.0722 28.6815 21.2321 29.5217C20.3919 30.3618 19.9199 31.5013 19.9199 32.6895V67.1983C19.9199 68.3865 20.3919 69.526 21.2321 70.3661C22.0722 71.2063 23.2118 71.6783 24.3999 71.6783H75.5999C76.7881 71.6783 77.9276 71.2063 78.7678 70.3661C79.6079 69.526 80.0799 68.3865 80.0799 67.1983V32.6895C80.0799 31.5013 79.6079 30.3618 78.7678 29.5217C77.9276 28.6815 76.7881 28.2095 75.5999 28.2095ZM40.9503 24.8047C40.9503 24.2955 41.1526 23.8071 41.5127 23.4471C41.8727 23.087 42.3611 22.8847 42.8703 22.8847H57.1295C57.6387 22.8847 58.1271 23.087 58.4872 23.4471C58.8472 23.8071 59.0495 24.2955 59.0495 24.8047V28.2095H40.9503V24.8047ZM22.4799 32.6895C22.4799 32.1803 22.6822 31.6919 23.0423 31.3319C23.4023 30.9718 23.8907 30.7695 24.3999 30.7695H75.5999C76.1091 30.7695 76.5975 30.9718 76.9576 31.3319C77.3176 31.6919 77.5199 32.1803 77.5199 32.6895V40.8431C77.5165 43.069 76.6308 45.2028 75.0568 46.7768C73.4828 48.3508 71.349 49.2365 69.1231 49.2399H55.2543V45.2847C55.2543 44.9452 55.1195 44.6197 54.8794 44.3796C54.6394 44.1396 54.3138 44.0047 53.9743 44.0047H46.0255C45.686 44.0047 45.3605 44.1396 45.1204 44.3796C44.8804 44.6197 44.7455 44.9452 44.7455 45.2847V49.2399H30.8767C28.6508 49.2365 26.517 48.3508 24.943 46.7768C23.3691 45.2028 22.4833 43.069 22.4799 40.8431V32.6895ZM52.6943 46.5647V54.4751H47.3055V46.5647H52.6943ZM77.5199 67.1983C77.5199 67.7075 77.3176 68.1959 76.9576 68.556C76.5975 68.916 76.1091 69.1183 75.5999 69.1183H24.3999C23.8907 69.1183 23.4023 68.916 23.0423 68.556C22.6822 68.1959 22.4799 67.7075 22.4799 67.1983V47.8703C23.5064 49.1003 24.7904 50.0897 26.2414 50.7688C27.6923 51.4478 29.2747 51.7998 30.8767 51.7999H44.7455V55.7551C44.7455 56.0946 44.8804 56.4202 45.1204 56.6602C45.3605 56.9002 45.686 57.0351 46.0255 57.0351H53.9743C54.3138 57.0351 54.6394 56.9002 54.8794 56.6602C55.1195 56.4202 55.2543 56.0946 55.2543 55.7551V51.7999H69.1231C70.7251 51.7998 72.3075 51.4478 73.7585 50.7688C75.2094 50.0897 76.4935 49.1003 77.5199 47.8703V67.1983Z" fill="#526A6A"/>
</svg>
