<svg width="400" height="400" viewBox="0 0 400 400" fill="none" xmlns="http://www.w3.org/2000/svg">
<rect width="400" height="400" fill="#E1E3E4"/>
<path d="M303.946 225.582L250.085 199.91L227.182 189.088C227.182 188.836 227.685 188.584 228.692 188.584L229.195 187.829H258.894C264.683 187.829 267.452 185.061 267.452 179.775V157.627H266.948C265.942 126.166 256.881 101.249 239.263 82.8764C229.951 72.5573 219.38 66.5169 207.802 64.7551H205.034L204.279 64H196.225L194.966 64.7551H192.198C180.62 66.5169 170.301 72.3056 161.24 82.373C143.371 100.998 134.058 126.166 133.052 157.627V179.775C133.052 185.061 135.82 187.829 141.106 187.829H171.56L172.818 189.088C173.321 189.591 173.573 189.843 174.076 189.843L151.928 199.91L96.0539 225.582C90.7685 227.595 88 232.378 88 239.676V300.836C88 304.863 89.2584 308.387 91.7753 311.155C94.2921 314.175 97.3124 315.685 100.836 315.685H299.164C302.688 315.685 305.708 314.175 308.225 311.155C310.742 308.387 312 304.863 312 300.836V239.676C312 232.378 309.231 227.595 303.946 225.582Z" fill="#C4C7C8"/>
</svg>
