<svg width="400" height="400" viewBox="0 0 400 400" fill="none" xmlns="http://www.w3.org/2000/svg">
<rect width="400" height="400" fill="#E1E3E4"/>
<path d="M200.005 317.395H109.137C105.064 317.395 101.246 317.14 97.6829 315.104C91.5741 311.795 88.0106 306.705 88.0106 299.578C88.0106 289.651 88.2652 279.469 88.0106 269.288C87.7561 258.852 92.0832 250.453 99.9737 243.58C107.864 236.962 116.773 232.635 126.191 229.072C140.19 223.727 153.68 217.109 167.171 210.745C169.207 209.727 169.97 208.455 170.225 206.418L171.752 191.91C171.752 190.637 171.498 189.619 170.479 188.856C162.589 180.711 157.244 171.293 154.444 160.348C153.935 158.821 153.171 158.312 151.389 158.057C148.335 157.803 146.299 155.766 145.535 152.712C144.517 147.112 144.008 141.512 142.99 136.167C142.226 132.604 143.499 130.058 146.553 128.786C148.081 128.022 148.335 127.513 148.081 125.731C146.299 116.568 147.062 107.659 149.353 98.7508C153.68 82.4606 167.934 69.734 183.206 68.9704C187.279 68.9704 190.842 68.2068 194.406 66.1705C200.769 62.607 207.641 62.098 214.514 64.3888C233.095 70.7521 245.821 82.9697 251.167 102.06C253.203 109.696 252.185 117.586 251.167 125.222C251.167 127.004 250.657 128.022 252.948 128.531C256.257 129.549 257.784 132.095 257.021 135.658C256.257 141.258 255.239 146.858 254.221 152.712C253.712 156.021 251.421 158.057 248.112 158.057C246.585 158.312 245.567 158.821 245.312 160.348C243.531 171.038 237.676 179.692 230.295 187.074C228.259 189.11 227.749 190.892 228.259 193.437C228.768 197.255 229.277 201.328 229.531 205.146C229.531 208.2 230.804 209.727 233.604 211C248.367 218.127 263.384 224.999 278.656 231.108C286.292 234.417 293.674 238.235 300.291 243.835C307.673 250.453 312 258.598 312 268.525C312 278.96 312 289.396 311.745 299.578C311.745 308.741 305.382 315.868 296.219 316.886C286.292 318.159 276.111 317.395 265.929 317.395C244.04 317.649 221.895 317.395 200.005 317.395Z" fill="#C4C7C8"/>
</svg>
