<svg width="14" height="12" viewBox="0 0 14 12" fill="none" xmlns="http://www.w3.org/2000/svg">
<path d="M4.85938 1.11523C5.11328 1.34375 5.11328 1.72461 4.88477 1.97852L3.05664 4.00977C2.95508 4.11133 2.80273 4.1875 2.625 4.1875C2.47266 4.21289 2.29492 4.13672 2.19336 4.00977L1.17773 2.99414C0.923828 2.76562 0.923828 2.38477 1.17773 2.13086C1.40625 1.90234 1.78711 1.90234 2.01562 2.13086L2.59961 2.71484L3.99609 1.14062C4.22461 0.886719 4.60547 0.886719 4.85938 1.11523ZM4.85938 5.17773C5.11328 5.40625 5.11328 5.78711 4.88477 6.04102L3.05664 8.07227C2.95508 8.17383 2.80273 8.25 2.625 8.25C2.47266 8.27539 2.29492 8.19922 2.19336 8.07227L1.17773 7.05664C0.923828 6.82812 0.923828 6.44727 1.17773 6.21875C1.40625 5.96484 1.78711 5.96484 2.01562 6.21875L2.59961 6.77734L3.99609 5.20312C4.22461 4.97461 4.60547 4.94922 4.85938 5.17773ZM6.6875 2.5625C6.6875 2.13086 7.04297 1.75 7.5 1.75H13.1875C13.6191 1.75 14 2.13086 14 2.5625C14 3.01953 13.6191 3.375 13.1875 3.375H7.5C7.04297 3.375 6.6875 3.01953 6.6875 2.5625ZM6.6875 6.625C6.6875 6.19336 7.04297 5.8125 7.5 5.8125H13.1875C13.6191 5.8125 14 6.19336 14 6.625C14 7.08203 13.6191 7.4375 13.1875 7.4375H7.5C7.04297 7.4375 6.6875 7.08203 6.6875 6.625ZM5.0625 10.6875C5.0625 10.2559 5.41797 9.875 5.875 9.875H13.1875C13.6191 9.875 14 10.2559 14 10.6875C14 11.1445 13.6191 11.5 13.1875 11.5H5.875C5.41797 11.5 5.0625 11.1445 5.0625 10.6875ZM2.21875 9.46875C2.65039 9.46875 3.03125 9.72266 3.25977 10.0781C3.48828 10.459 3.48828 10.9414 3.25977 11.2969C3.03125 11.6777 2.65039 11.9062 2.21875 11.9062C1.76172 11.9062 1.38086 11.6777 1.15234 11.2969C0.923828 10.9414 0.923828 10.459 1.15234 10.0781C1.38086 9.72266 1.76172 9.46875 2.21875 9.46875Z" fill="#E6EFEF"/>
</svg>
