<svg width="400" height="400" viewBox="0 0 400 400" fill="none" xmlns="http://www.w3.org/2000/svg">
<rect width="400" height="400" fill="#E1E3E4"/>
<path d="M241.267 92.5426C230.788 81.2298 216.153 75 200 75C183.76 75 169.077 81.1921 158.647 92.4349C148.104 103.802 142.968 119.25 144.174 135.931C146.565 168.84 171.608 195.612 200 195.612C228.392 195.612 253.392 168.846 255.821 135.941C257.043 119.411 251.874 103.995 241.267 92.5426Z" fill="#C4C7C8"/>
<path d="M294.767 316.224H105.233C102.753 316.256 100.296 315.735 98.0417 314.698C95.7876 313.661 93.793 312.135 92.203 310.231C88.7031 306.047 87.2923 300.334 88.3369 294.556C92.8814 269.346 107.064 248.169 129.356 233.303C149.16 220.105 174.246 212.842 200 212.842C225.754 212.842 250.84 220.111 270.644 233.303C292.936 248.164 307.119 269.341 311.663 294.551C312.708 300.329 311.297 306.042 307.797 310.225C306.208 312.131 304.213 313.658 301.959 314.696C299.705 315.733 297.248 316.255 294.767 316.224Z" fill="#C4C7C8"/>
</svg>
