<svg width="100" height="93" viewBox="0 0 100 93" fill="none" xmlns="http://www.w3.org/2000/svg">
<path fill-rule="evenodd" clip-rule="evenodd" d="M52.9626 0.015326C73.8805 0.47406 91.9612 14.5525 98.122 34.7186C104.005 53.976 95.6181 74.4536 79.2212 85.9679C63.8078 96.7915 43.8402 94.3904 28.3048 83.7459C10.7933 71.7476 -4.70208 53.0634 1.32542 32.5959C7.71632 10.8943 30.5213 -0.476818 52.9626 0.015326Z" fill="#E9F6F7"/>
<g clip-path="url(#clip0_13071_5668)">
<path d="M69.75 32.5938C70.4403 32.5938 71 32.0341 71 31.3438V17.75C71 15.6823 69.3177 14 67.25 14H21.75C19.6823 14 18 15.6823 18 17.75V74.25C18 76.3177 19.6823 78 21.75 78H67.25C69.3177 78 71 76.3177 71 74.25V65.041C71 64.3506 70.4403 63.791 69.75 63.791C69.0597 63.791 68.5 64.3506 68.5 65.041V74.25C68.5 74.9393 67.9393 75.5 67.25 75.5H21.75C21.0608 75.5 20.5 74.9393 20.5 74.25V17.75C20.5 17.0608 21.0608 16.5 21.75 16.5H67.25C67.9393 16.5 68.5 17.0608 68.5 17.75V31.3438C68.5 32.0341 69.0597 32.5938 69.75 32.5938Z" fill="#526A6A"/>
<path d="M44.5 20.75C38.1589 20.75 33 25.9089 33 32.25C33 35.5396 34.3888 38.5106 36.6103 40.6086C36.6519 40.6531 36.6961 40.6952 36.7445 40.7336C38.7909 42.606 41.5142 43.7499 44.4999 43.7499C47.4855 43.7499 50.2089 42.6059 52.2553 40.7336C52.3036 40.6952 52.3479 40.653 52.3895 40.6086C54.6112 38.5106 56 35.5396 56 32.25C56 25.9089 50.8411 20.75 44.5 20.75ZM44.5 41.25C42.4589 41.25 40.5751 40.566 39.0636 39.4165C40.1623 37.4684 42.2124 36.25 44.5 36.25C46.7876 36.25 48.8377 37.4684 49.9364 39.4165C48.4247 40.566 46.5411 41.25 44.5 41.25ZM42.5 31.75V30.9375C42.5 29.8348 43.3973 28.9375 44.5 28.9375C45.6027 28.9375 46.5 29.8348 46.5 30.9375V31.75C46.5 32.8527 45.6027 33.75 44.5 33.75C43.3973 33.75 42.5 32.8527 42.5 31.75ZM51.7425 37.5854C50.8206 36.2181 49.543 35.1547 48.0596 34.4982C48.6484 33.7374 49 32.7843 49 31.75V30.9375C49 28.4561 46.9814 26.4375 44.5 26.4375C42.0186 26.4375 40 28.4561 40 30.9375V31.75C40 32.7843 40.3516 33.7374 40.9404 34.4982C39.457 35.1547 38.1794 36.2181 37.2575 37.5854C36.1539 36.0912 35.5 34.2459 35.5 32.25C35.5 27.2874 39.5374 23.25 44.5 23.25C49.4626 23.25 53.5 27.2874 53.5 32.25C53.5 34.2459 52.8461 36.0912 51.7425 37.5854Z" fill="#526A6A"/>
<path d="M51.25 68.75H44.5C43.8098 68.75 43.25 69.3096 43.25 70C43.25 70.6904 43.8098 71.25 44.5 71.25H51.25C51.9402 71.25 52.5 70.6904 52.5 70C52.5 69.3096 51.9402 68.75 51.25 68.75Z" fill="#526A6A"/>
<path d="M51.25 61.75H33.5C32.8098 61.75 32.25 62.3096 32.25 63C32.25 63.6904 32.8098 64.25 33.5 64.25H51.25C51.9402 64.25 52.5 63.6904 52.5 63C52.5 62.3096 51.9402 61.75 51.25 61.75Z" fill="#526A6A"/>
<path d="M51.25 54.75H33.5C32.8098 54.75 32.25 55.3096 32.25 56C32.25 56.6904 32.8098 57.25 33.5 57.25H51.25C51.9402 57.25 52.5 56.6904 52.5 56C52.5 55.3096 51.9402 54.75 51.25 54.75Z" fill="#526A6A"/>
<path d="M29.045 48.1162C28.8127 47.8837 28.4902 47.75 28.1602 47.75C27.8313 47.75 27.5088 47.8837 27.2764 48.1162C27.0439 48.3487 26.9102 48.6712 26.9102 49C26.9102 49.3288 27.0438 49.6513 27.2764 49.8838C27.5102 50.1163 27.8313 50.25 28.1602 50.25C28.4902 50.25 28.8114 50.1163 29.045 49.8838C29.2775 49.6513 29.4114 49.3288 29.4114 49C29.4114 48.6712 29.2777 48.3487 29.045 48.1162Z" fill="#526A6A"/>
<path d="M29.045 55.1162C28.8114 54.8837 28.4902 54.75 28.1602 54.75C27.8313 54.75 27.5102 54.8837 27.2764 55.1162C27.0439 55.3487 26.9102 55.6712 26.9102 56C26.9102 56.3288 27.0438 56.6513 27.2764 56.8838C27.5102 57.1163 27.8313 57.25 28.1602 57.25C28.4902 57.25 28.8114 57.1163 29.045 56.8838C29.2775 56.6513 29.4114 56.3288 29.4114 56C29.4114 55.6712 29.2777 55.3487 29.045 55.1162Z" fill="#526A6A"/>
<path d="M29.045 62.1162C28.8114 61.8837 28.4902 61.75 28.1602 61.75C27.8313 61.75 27.5102 61.8837 27.2764 62.1162C27.0439 62.3487 26.9102 62.6712 26.9102 63C26.9102 63.3288 27.0438 63.6513 27.2764 63.8838C27.5088 64.1163 27.8313 64.25 28.1602 64.25C28.4902 64.25 28.8127 64.1163 29.045 63.8838C29.2775 63.6513 29.4114 63.3288 29.4114 63C29.4114 62.6712 29.2777 62.3487 29.045 62.1162Z" fill="#526A6A"/>
<path d="M51.25 47.75H33.5C32.8098 47.75 32.25 48.3096 32.25 49C32.25 49.6904 32.8098 50.25 33.5 50.25H51.25C51.9402 50.25 52.5 49.6904 52.5 49C52.5 48.3096 51.9402 47.75 51.25 47.75Z" fill="#526A6A"/>
<path d="M79.3758 30.2901C78.1614 29.589 76.7467 29.4027 75.3919 29.7656C74.0374 30.1286 72.9052 30.9973 72.2042 32.2117L56.4739 59.4571C56.3878 59.6065 56.3333 59.7721 56.3142 59.9434L55.2069 69.8615C55.1519 70.3549 55.3942 70.8343 55.8242 71.0827C56.0183 71.1947 56.2339 71.2502 56.4491 71.2502C56.7106 71.2502 56.9711 71.1683 57.1904 71.0067L65.2259 65.0887C65.3648 64.9865 65.4811 64.8566 65.5672 64.7072L81.2973 37.4618C82.7448 34.9548 81.8828 31.7376 79.3758 30.2901ZM58.0084 67.2993L58.5867 62.1203L62.2044 64.2091L58.0084 67.2993ZM64.0272 62.3746L59.2641 59.6246L71.8872 37.7608L76.6503 40.5108L64.0272 62.3746ZM79.1323 36.2117L77.9002 38.3458L73.1371 35.5958L74.3692 33.4617C74.7364 32.8256 75.3294 32.3706 76.0389 32.1804C76.7487 31.9902 77.4897 32.088 78.1257 32.4552C78.7618 32.8225 79.2168 33.4154 79.4069 34.1249C79.5971 34.8344 79.4996 35.5756 79.1323 36.2117Z" fill="#526A6A"/>
</g>
<defs>
<clipPath id="clip0_13071_5668">
<rect width="64" height="64" fill="white" transform="translate(18 14)"/>
</clipPath>
</defs>
</svg>
