<svg width="100" height="93" viewBox="0 0 100 93" fill="none" xmlns="http://www.w3.org/2000/svg">
<path fill-rule="evenodd" clip-rule="evenodd" d="M52.9626 0.0167909C73.8805 0.475525 91.9612 14.554 98.122 34.7201C104.005 53.9775 95.6181 74.455 79.2212 85.9693C63.8078 96.7929 43.8402 94.3919 28.3048 83.7474C10.7933 71.7491 -4.70208 53.0649 1.32542 32.5973C7.71632 10.8958 30.5213 -0.475353 52.9626 0.0167909Z" fill="#E9F6F7"/>
<path fill-rule="evenodd" clip-rule="evenodd" d="M49.9631 24.8726C44.9988 24.8726 40.9688 28.9027 40.9688 33.8669C40.9688 38.8312 44.9988 42.8613 49.9631 42.8613C54.9274 42.8613 58.9575 38.8312 58.9575 33.8669C58.9575 28.9027 54.9274 24.8726 49.9631 24.8726ZM49.9631 26.8713C53.8241 26.8713 56.9587 30.006 56.9587 33.8669C56.9587 37.7279 53.8241 40.8626 49.9631 40.8626C46.1022 40.8626 42.9675 37.7279 42.9675 33.8669C42.9675 30.006 46.1022 26.8713 49.9631 26.8713Z" fill="#526A6A"/>
<path fill-rule="evenodd" clip-rule="evenodd" d="M45.0039 34.6811L47.8319 37.5091C48.2221 37.8994 48.8556 37.8994 49.2459 37.5091L54.9019 31.8531C55.2921 31.4629 55.2921 30.8294 54.9019 30.4391C54.5116 30.0489 53.8781 30.0489 53.4879 30.4391L48.5389 35.3881L46.4179 33.2671C46.0276 32.8769 45.3941 32.8769 45.0039 33.2671C44.6136 33.6574 44.6136 34.2909 45.0039 34.6811Z" fill="#526A6A"/>
<path fill-rule="evenodd" clip-rule="evenodd" d="M29 65H24C22.343 65 21 66.343 21 68V70C21 71.326 21.527 72.598 22.464 73.536C23.402 74.473 24.674 75 26 75H66C67.326 75 68.598 74.473 69.536 73.536C70.473 72.598 71 71.326 71 70V47.657C71 47.105 70.552 46.657 70 46.657C69.448 46.657 69 47.105 69 47.657V70C69 70.796 68.684 71.559 68.121 72.121C67.559 72.684 66.796 73 66 73C65.204 73 64.441 72.684 63.879 72.121C63.316 71.559 63 70.796 63 70V68C63 66.343 61.657 65 60 65H31V22C31 20.343 32.343 19 34 19H70C69.355 19.86 69 20.912 69 22V28.343C69 28.895 69.448 29.343 70 29.343C70.552 29.343 71 28.895 71 28.343V27H76C77.657 27 79 25.657 79 24V22C79 20.674 78.473 19.402 77.536 18.464C76.598 17.527 75.326 17 74 17C73.522 17 34 17 34 17C31.239 17 29 19.239 29 22V65ZM60 67H24C23.448 67 23 67.448 23 68V70C23 70.796 23.316 71.559 23.879 72.121C24.441 72.684 25.204 73 26 73H62C61.355 72.14 61 71.088 61 70V68C61 67.448 60.552 67 60 67ZM74 19C73.204 19 72.441 19.316 71.879 19.879C71.316 20.441 71 21.204 71 22V25H76C76.552 25 77 24.552 77 24V22C77 21.204 76.684 20.441 76.121 19.879C75.559 19.316 74.796 19 74 19Z" fill="#526A6A"/>
<path fill-rule="evenodd" clip-rule="evenodd" d="M51.215 59.3161C52.387 58.9251 53.821 58.4481 54.645 58.1731C55.234 57.9761 55.77 57.6451 56.209 57.2061C58.985 54.4301 72.547 40.8681 77.708 35.7071C79.203 34.2121 79.203 31.7881 77.708 30.2931C76.213 28.7981 73.789 28.7981 72.294 30.2931C67.133 35.4541 53.571 49.0161 50.795 51.7921C50.356 52.2311 50.025 52.7671 49.828 53.3561C49.553 54.1801 49.076 55.6141 48.685 56.7861C48.445 57.5051 48.632 58.2971 49.168 58.8331C49.704 59.3691 50.496 59.5561 51.215 59.3161ZM50.582 57.4191L53.15 56.5631L51.438 54.8511L50.582 57.4191ZM71.001 34.4141L73.587 37.0001L55.001 55.5861L52.415 53.0001L71.001 34.4141ZM75.001 35.5861L72.415 33.0001L73.708 31.7071C74.422 30.9931 75.58 30.9931 76.294 31.7071C77.008 32.4211 77.008 33.5791 76.294 34.2931L75.001 35.5861Z" fill="#526A6A"/>
<path fill-rule="evenodd" clip-rule="evenodd" d="M38 59H46C46.552 59 47 58.552 47 58C47 57.448 46.552 57 46 57H38C37.448 57 37 57.448 37 58C37 58.552 37.448 59 38 59Z" fill="#526A6A"/>
<path fill-rule="evenodd" clip-rule="evenodd" d="M38 55H46C46.552 55 47 54.552 47 54C47 53.448 46.552 53 46 53H38C37.448 53 37 53.448 37 54C37 54.552 37.448 55 38 55Z" fill="#526A6A"/>
<path fill-rule="evenodd" clip-rule="evenodd" d="M38 51H48C48.552 51 49 50.552 49 50C49 49.448 48.552 49 48 49H38C37.448 49 37 49.448 37 50C37 50.552 37.448 51 38 51Z" fill="#526A6A"/>
<path fill-rule="evenodd" clip-rule="evenodd" d="M38 47H52C52.552 47 53 46.552 53 46C53 45.448 52.552 45 52 45H38C37.448 45 37 45.448 37 46C37 46.552 37.448 47 38 47Z" fill="#526A6A"/>
</svg>
