<svg width="24" height="24" viewBox="0 0 24 24" fill="none" xmlns="http://www.w3.org/2000/svg">
<path d="M12.4024 19.6028C11.0696 20.2253 9.31884 20.603 7.40139 20.603C6.33526 20.603 5.32066 20.4863 4.40079 20.2755C2.81875 19.9132 2.40039 18.9823 2.40039 17.4884V6.7142C2.40039 5.72917 3.44063 5.05263 4.40079 5.27254C5.32066 5.48324 6.33526 5.60001 7.40139 5.60001C9.31884 5.60001 11.0696 5.22229 12.4024 4.59981C13.7352 3.97732 15.4859 3.59961 17.4034 3.59961C18.4695 3.59961 19.4841 3.71638 20.404 3.92707C21.986 4.28943 22.4044 5.22029 22.4044 6.7142V17.4884C22.4044 18.4735 21.3642 19.15 20.404 18.9301C19.4841 18.7193 18.4695 18.6026 17.4034 18.6026C15.4859 18.6026 13.7352 18.9803 12.4024 19.6028Z" stroke="#019088" stroke-width="2"/>
<path d="M14.9033 12.1021C14.9033 13.483 13.7838 14.6026 12.4028 14.6026C11.0219 14.6026 9.90234 13.483 9.90234 12.1021C9.90234 10.7211 11.0219 9.60156 12.4028 9.60156C13.7838 9.60156 14.9033 10.7211 14.9033 12.1021Z" stroke="#019088" stroke-width="2"/>
<path d="M5.90234 13.1025V13.1131" stroke="#019088" stroke-width="2" stroke-linecap="round" stroke-linejoin="round"/>
<path d="M18.9023 11.0938V11.1043" stroke="#019088" stroke-width="2" stroke-linecap="round" stroke-linejoin="round"/>
</svg>
