<svg width="20" height="20" viewBox="0 0 20 20" fill="none" xmlns="http://www.w3.org/2000/svg">
<path d="M1.66602 18.333H17.916" stroke="#3D3D3D" stroke-width="1.25" stroke-linecap="round" stroke-linejoin="round"/>
<path d="M2.5 10.833V18.333M17.5 10.833V18.333" stroke="#3D3D3D" stroke-width="1.25" stroke-linecap="round" stroke-linejoin="round"/>
<path d="M6.25 6.66699V18.3337M13.75 6.66699V18.3337" stroke="#3D3D3D" stroke-width="1.25" stroke-linecap="round" stroke-linejoin="round"/>
<path d="M1.66602 10.833H5.83268M18.3327 10.833H14.166" stroke="#3D3D3D" stroke-width="1.25" stroke-linecap="round" stroke-linejoin="round"/>
<path d="M5.41602 6.66699H14.5827" stroke="#3D3D3D" stroke-width="1.25" stroke-linecap="round" stroke-linejoin="round"/>
<path d="M10 6.667V4.15217M10 4.15217V2.47562C10 2.08045 10 1.88287 10.122 1.7601C10.5051 1.37482 12.0833 2.28619 12.6836 2.65577C13.1904 2.96787 13.3333 3.59128 13.3333 4.15217H10Z" stroke="#3D3D3D" stroke-width="1.25" stroke-linecap="round" stroke-linejoin="round"/>
<path d="M10 18.3337V16.667" stroke="#3D3D3D" stroke-width="1.25" stroke-linecap="round" stroke-linejoin="round"/>
<path d="M8.75 10V10.4167M11.25 10V10.4167" stroke="#3D3D3D" stroke-width="1.25" stroke-linecap="round" stroke-linejoin="round"/>
<path d="M8.75 13.333V13.7497M11.25 13.333V13.7497" stroke="#3D3D3D" stroke-width="1.25" stroke-linecap="round" stroke-linejoin="round"/>
</svg>
